<svg xmlns="http://www.w3.org/2000/svg" viewBox="0 0 400 400"><defs><style>.cls-1,.cls-2,.cls-3,.cls-4,.cls-5,.cls-6,.cls-7{fill:none;stroke-linecap:round;stroke-linejoin:round;}.cls-1,.cls-4,.cls-5{stroke:#3e4c70;}.cls-1,.cls-2,.cls-3,.cls-5,.cls-6,.cls-7{stroke-width:2px;}.cls-2{stroke:#d62027;}.cls-3,.cls-6,.cls-7{stroke:#158aff;}.cls-4{stroke-width:3.7px;}.cls-5{stroke-dasharray:4.08 6.8;}.cls-6{stroke-dasharray:4.6 7.66;}.cls-7{stroke-dasharray:4.61 7.68;}</style></defs><g id="blue"><path class="cls-1" d="M70.8,254.5H44.5L31.3,224.1H70.8a8.5,8.5,0,0,1,8.6,8.6v13.2A8.5,8.5,0,0,1,70.8,254.5Z"/><line class="cls-1" x1="56.9" y1="254.5" x2="43.7" y2="224.1"/><path class="cls-1" d="M71.8,254.5H54.7l-3.3,17.1L48.8,285a4.2,4.2,0,0,0,4.1,5h8.6a4.2,4.2,0,0,0,4.1-3.4Z"/><line class="cls-1" x1="58.2" y1="271.9" x2="51.4" y2="271.9"/><path class="cls-2" d="M30.2,255.3a15.8,15.8,0,0,1-8-20.7"/><path class="cls-2" d="M24.3,266.3a27.6,27.6,0,0,1-14-36.4"/><line class="cls-1" x1="72.8" y1="50.9" x2="72.8" y2="58.2"/><line class="cls-1" x1="79.7" y1="50.9" x2="79.7" y2="58.2"/><line class="cls-1" x1="87.7" y1="50.9" x2="87.7" y2="58.2"/><line class="cls-1" x1="93.6" y1="50.9" x2="93.6" y2="58.2"/><line class="cls-1" x1="101.1" y1="50.9" x2="101.1" y2="58.2"/><line class="cls-1" x1="108.6" y1="50.9" x2="108.6" y2="58.2"/><line class="cls-1" x1="115.4" y1="50.9" x2="115.4" y2="58.2"/><line class="cls-1" x1="72.8" y1="71.2" x2="72.8" y2="83.7"/><line class="cls-1" x1="79.7" y1="71.2" x2="79.7" y2="77.2"/><line class="cls-1" x1="87.7" y1="71.2" x2="87.7" y2="77.2"/><line class="cls-1" x1="93.6" y1="71.2" x2="93.6" y2="83.7"/><line class="cls-1" x1="101.1" y1="71.2" x2="101.1" y2="77.2"/><line class="cls-1" x1="108.6" y1="71.2" x2="108.6" y2="77.2"/><line class="cls-1" x1="115.4" y1="71.2" x2="115.4" y2="83.7"/><line class="cls-2" x1="67" y1="64.7" x2="121.2" y2="64.7"/><polyline class="cls-1" points="64 53.4 64 42.4 75 42.4"/><polyline class="cls-1" points="113.2 42.4 124.2 42.4 124.2 53.4"/><polyline class="cls-1" points="124.2 81.1 124.2 92.1 113.2 92.1"/><polyline class="cls-1" points="75 92.1 64 92.1 64 81.1"/><polyline class="cls-1" points="203.2 310.4 159.6 328.6 159.6 372.5 167.3 372.5"/><polyline class="cls-1" points="203.2 310.4 246.9 328.6 246.9 372.5 238.6 372.5"/><rect class="cls-1" x="172.9" y="353.5" width="14.7" height="11.37"/><line class="cls-1" x1="180.2" y1="357.4" x2="180.2" y2="354.5"/><rect class="cls-1" x="195.9" y="353.5" width="14.7" height="11.37"/><line class="cls-1" x1="203.2" y1="357.4" x2="203.2" y2="354.5"/><rect class="cls-1" x="172.9" y="333.9" width="14.7" height="11.37"/><line class="cls-1" x1="180.2" y1="337.8" x2="180.2" y2="334.9"/><rect class="cls-1" x="195.9" y="333.9" width="14.7" height="11.37"/><line class="cls-1" x1="203.2" y1="337.8" x2="203.2" y2="334.9"/><rect class="cls-2" x="218.9" y="333.9" width="14.7" height="11.37"/><line class="cls-2" x1="226.2" y1="337.8" x2="226.2" y2="334.9"/><rect class="cls-1" x="218.9" y="353.5" width="14.7" height="11.37"/><line class="cls-1" x1="226.2" y1="357.4" x2="226.2" y2="354.5"/><polyline class="cls-1" points="377.4 226.7 392.1 226.7 392.1 297.6 335.2 297.6 335.2 226.7 351.2 226.7"/><line class="cls-1" x1="362.9" y1="242.5" x2="382.9" y2="242.5"/><polyline class="cls-3" points="355.1 247 355.1 250.3 344.7 250.3 344.7 240 353.8 240"/><polyline class="cls-2" points="347.2 244.4 350.2 247.4 356.1 241.6"/><line class="cls-1" x1="362.9" y1="248.4" x2="376.4" y2="248.4"/><line class="cls-1" x1="362.9" y1="261.3" x2="382.9" y2="261.3"/><polyline class="cls-3" points="355.1 265.8 355.1 269.1 344.7 269.1 344.7 258.8 353.8 258.8"/><polyline class="cls-2" points="347.2 263.2 350.2 266.2 356.1 260.4"/><line class="cls-1" x1="362.9" y1="267.2" x2="376.4" y2="267.2"/><line class="cls-1" x1="362.9" y1="280" x2="382.9" y2="280"/><polyline class="cls-3" points="355.1 284.6 355.1 287.9 344.7 287.9 344.7 277.6 353.8 277.6"/><polyline class="cls-2" points="347.2 282 350.2 285 356.1 279.2"/><line class="cls-1" x1="362.9" y1="286" x2="376.4" y2="286"/><path class="cls-1" d="M369.1,222a2.2,2.2,0,0,0,.1-.8,4.8,4.8,0,1,0-9.5,0,2.2,2.2,0,0,0,.1.8h-7.5v8.5h24.3V222Z"/><path class="cls-4" d="M119.8,188.7v65.2"/><path class="cls-4" d="M165.4,135.6h-9"/><path class="cls-4" d="M286.2,191.1V141.3a5.6,5.6,0,0,0-5.7-5.7H209.7"/><line class="cls-4" x1="286.2" y1="253.9" x2="286.2" y2="235.1"/><polyline class="cls-4" points="130.2 187.9 130.2 242.8 275.8 242.8 275.8 235.1"/><line class="cls-4" x1="165.4" y1="146.8" x2="155.4" y2="146.8"/><polyline class="cls-4" points="275.8 191.1 275.8 146.8 209.7 146.8"/><path class="cls-4" d="M98.4,253.9a17.8,17.8,0,0,0,17.8,17.8H289.8a17.8,17.8,0,0,0,17.8-17.8H220.5v2.4a4.9,4.9,0,0,1-4.8,4.8H190.3a4.9,4.9,0,0,1-4.8-4.8v-2.4Z"/><line class="cls-5" x1="141.3" y1="227.5" x2="253.4" y2="227.5"/><line class="cls-3" x1="253.1" y1="182.2" x2="268.8" y2="170.1"/><line class="cls-3" x1="237.5" y1="169.2" x2="248" y2="182.3"/><line class="cls-3" x1="219.3" y1="202.9" x2="232.9" y2="169.4"/><line class="cls-3" x1="203.2" y1="191.5" x2="215.6" y2="204.1"/><line class="cls-3" x1="190.9" y1="164.7" x2="198.7" y2="185.1"/><line class="cls-3" x1="177" y1="179.8" x2="185.3" y2="164.6"/><line class="cls-3" x1="163.3" y1="197.5" x2="172.5" y2="186.3"/><line class="cls-3" x1="142.5" y1="212.7" x2="157.5" y2="202.9"/><circle class="cls-1" cx="161.2" cy="201.2" r="3.5"/><circle class="cls-1" cx="175.6" cy="183.6" r="3.5"/><circle class="cls-2" cx="200.3" cy="188.6" r="3.5"/><circle class="cls-1" cx="218.3" cy="206.8" r="3.5"/><circle class="cls-2" cx="235" cy="166" r="3.5"/><circle class="cls-2" cx="250.4" cy="185.2" r="3.5"/><rect class="cls-1" x="254.1" y="191.9" width="59.6" height="42.15" rx="4"/><path class="cls-1" d="M311.7,193.6l-25.5,21.6a3.6,3.6,0,0,1-4.6,0l-25.5-21.6"/><line class="cls-1" x1="305.3" y1="227.8" x2="290.8" y2="218.9"/><line class="cls-1" x1="277" y1="218.9" x2="262.5" y2="227.8"/><rect class="cls-1" x="97.8" y="117.7" width="56.8" height="68.84" rx="5"/><polygon class="cls-1" points="135.4 128.2 126.2 128.2 117 128.2 107.8 128.2 107.8 140.9 144.5 140.9 144.5 128.2 135.4 128.2"/><rect class="cls-1" x="107.8" y="148.3" width="9.2" height="9.2"/><rect class="cls-1" x="117" y="148.3" width="9.2" height="9.2"/><rect class="cls-1" x="126.2" y="148.3" width="9.2" height="9.2"/><rect class="cls-1" x="135.4" y="148.3" width="9.2" height="9.2"/><rect class="cls-1" x="107.8" y="157.5" width="9.2" height="9.2"/><rect class="cls-1" x="117" y="157.5" width="9.2" height="9.2"/><rect class="cls-1" x="126.2" y="157.5" width="9.2" height="9.2"/><rect class="cls-1" x="107.8" y="166.7" width="9.2" height="9.2"/><rect class="cls-1" x="117" y="166.7" width="9.2" height="9.2"/><rect class="cls-1" x="126.2" y="166.7" width="9.2" height="9.2"/><polygon class="cls-1" points="135.4 157.5 135.4 166.7 135.4 175.9 144.6 175.9 144.6 166.7 144.6 157.5 135.4 157.5"/><circle class="cls-2" cx="187.5" cy="142" r="22.2"/><polyline class="cls-2" points="209.7 142 187.5 142 187.5 119.8"/><path class="cls-6" d="M40.4,216c-.5-5-.7-10.1-.7-15.2A162.9,162.9,0,0,1,74.5,99.9c.8-1,1.6-1.9,2.3-2.9"/><path class="cls-6" d="M154.6,357a163.3,163.3,0,0,1-86.1-63.6"/><path class="cls-3" d="M332.7,300.8l-1.4,1.8"/><path class="cls-7" d="M326.3,308.5a163.5,163.5,0,0,1-67.1,46"/><path class="cls-3" d="M255.6,355.8l-2.2.7"/><path class="cls-6" d="M341.2,112.9a163,163,0,0,1,25.6,87.9q0,4.6-.3,9.3"/><path class="cls-6" d="M129.1,55l5.4-2.7a164,164,0,0,1,127.8-4.1"/><line class="cls-1" x1="267" y1="95.1" x2="345.2" y2="95.1"/><line class="cls-1" x1="267" y1="107" x2="345.2" y2="107"/><line class="cls-1" x1="303.2" y1="106.5" x2="303.2" y2="95.6"/><line class="cls-1" x1="310.6" y1="95.6" x2="310.6" y2="106.5"/><line class="cls-1" x1="272.6" y1="106.5" x2="272.6" y2="95.6"/><line class="cls-1" x1="280" y1="95.6" x2="280" y2="106.5"/><line class="cls-1" x1="333.8" y1="106.5" x2="333.8" y2="95.6"/><line class="cls-1" x1="341.2" y1="95.6" x2="341.2" y2="106.5"/><rect class="cls-2" x="270.2" y="56.5" width="34.5" height="31.51"/><rect class="cls-2" x="281.9" y="56.5" width="11.1" height="10"/><rect class="cls-1" x="270.2" y="27.5" width="23.9" height="21.8"/><rect class="cls-1" x="278.3" y="27.5" width="7.7" height="6.91"/><rect class="cls-1" x="313.1" y="61.1" width="29.5" height="26.87"/><rect class="cls-1" x="323.1" y="61.1" width="9.4" height="8.52"/></g></svg>