<svg xmlns="http://www.w3.org/2000/svg" viewBox="0 0 400 400"><defs><style>.cls-1{fill:#d62128;}.cls-2,.cls-3,.cls-4,.cls-6,.cls-8,.cls-9{fill:none;stroke-linejoin:round;stroke-width:2px;}.cls-2,.cls-4{stroke:#3e4c70;}.cls-2,.cls-3,.cls-6,.cls-8,.cls-9{stroke-linecap:round;}.cls-3{stroke:#ce2027;}.cls-5{fill:#3e4c70;}.cls-6,.cls-9{stroke:#158aff;}.cls-7{fill:#ce2027;}.cls-8{stroke:#d62027;}.cls-9{stroke-dasharray:6.48 4.32;}</style></defs><g id="blue"><path class="cls-1" d="M217.4,221.5h-8.2V220h10.4v1.3l-6,7.4-1.9-.2Z"/><path class="cls-1" d="M219.8,231.5V233H209.1v-.4l2.5-1.1Z"/><rect class="cls-2" x="19.2" y="94.4" width="111.2" height="38.83" rx="9"/><circle class="cls-3" cx="106.3" cy="113.8" r="5.6"/><line class="cls-2" x1="35" y1="108.2" x2="77.3" y2="108.2"/><line class="cls-2" x1="35" y1="119.4" x2="54.6" y2="119.4"/><path class="cls-4" d="M116.9,184.4H28.2a9.1,9.1,0,0,1-9-9V154.5a9,9,0,0,1,9-9h93.3a8.9,8.9,0,0,1,8.9,9v19.1"/><circle class="cls-2" cx="106.3" cy="164.9" r="5.6"/><line class="cls-2" x1="35" y1="159.4" x2="77.3" y2="159.4"/><line class="cls-2" x1="35" y1="170.5" x2="54.6" y2="170.5"/><path class="cls-4" d="M94.8,235.5H28.2a9,9,0,0,1-9-8.9V205.7a9,9,0,0,1,9-9h78.3"/><line class="cls-2" x1="35" y1="210.5" x2="77.3" y2="210.5"/><line class="cls-2" x1="35" y1="221.7" x2="54.6" y2="221.7"/><path class="cls-2" d="M240.1,34.8A231,231,0,0,1,334.2,92"/><path class="cls-2" d="M170.2,162.3V24.1c8.2,0,16.3.4,24.4,1.2"/><path class="cls-2" d="M359,162.9a209.9,209.9,0,0,1,21.8,93.2"/><path class="cls-2" d="M334.2,124.1a219.5,219.5,0,0,0-15.1-16.9"/><polyline class="cls-2" points="245.5 256.1 359.3 256.1 380.8 256.1"/><polyline class="cls-2" points="334.2 92 319.1 107.2 303.9 122.4 232.4 193.9"/><path class="cls-2" d="M215.2,301.2l88.7,88.7a189.3,189.3,0,0,0,44.7-70.8"/><path class="cls-2" d="M359.3,256.1c0,6.2-.3,12.4-.9,18.4"/><path class="cls-5" d="M170.2,163.3a75.4,75.4,0,1,1-75.4,75.4,75.3,75.3,0,0,1,75.4-75.4m0-3.7a79.1,79.1,0,1,0,79,79.1,79.1,79.1,0,0,0-79-79.1Z"/><path class="cls-2" d="M141.2,188.5a57.8,57.8,0,0,1,28.9-7.8"/><path class="cls-3" d="M220.3,209.7a58.2,58.2,0,0,0-21.2-21.2"/><path class="cls-3" d="M220.3,209.7a56.9,56.9,0,0,1,7.8,29"/><path class="cls-2" d="M170.1,180.7a57.9,57.9,0,0,1,29,7.8"/><path class="cls-2" d="M141.2,188.5A58.2,58.2,0,0,0,120,209.7"/><path class="cls-6" d="M120,209.7a56.9,56.9,0,0,0-7.8,29"/><path class="cls-6" d="M136.4,238.7a33.3,33.3,0,0,1,4.5-16.9"/><path class="cls-3" d="M203.9,238.7c0-1.4-.1-2.7-.2-4"/><path class="cls-3" d="M201.9,227.2a33.2,33.2,0,0,0-2.5-5.4"/><path class="cls-3" d="M187,209.4a34.3,34.3,0,0,1,12.4,12.4"/><path class="cls-2" d="M153.3,209.4a33,33,0,0,1,16.8-4.5"/><path class="cls-2" d="M187,209.4a33.1,33.1,0,0,0-16.9-4.5"/><path class="cls-2" d="M153.3,209.4a34.3,34.3,0,0,0-12.4,12.4"/><line class="cls-2" x1="170.1" y1="180.7" x2="170.1" y2="204.9"/><line class="cls-2" x1="141.2" y1="188.5" x2="153.3" y2="209.4"/><line class="cls-2" x1="120" y1="209.7" x2="140.9" y2="221.8"/><line class="cls-3" x1="228.1" y1="238.7" x2="203.9" y2="238.7"/><line class="cls-6" x1="112.2" y1="238.7" x2="136.4" y2="238.7"/><line class="cls-3" x1="220.3" y1="209.7" x2="199.4" y2="221.8"/><line class="cls-2" x1="187" y1="209.4" x2="199.1" y2="188.5"/><path class="cls-2" d="M217.2,229.2l-5.6,2.3-2.5,1.1c-12.1,4.9-33.7,13.5-38.1,13.5a11.1,11.1,0,0,1-11.2-11,11.2,11.2,0,0,1,11.1-11.2c4.7,0,29.6,3.1,40.8,4.6l1.9.2Z"/><path class="cls-7" d="M141.9,287.4a2.1,2.1,0,0,1-.9-1.7,1.9,1.9,0,0,1,1.9-1.9,2.5,2.5,0,0,1,1.2.4,7.1,7.1,0,0,0,4.2,1.4c3.5,0,5.5-3,5.7-7.3a7,7,0,0,1-5.5,2.4c-5,0-8.3-2.9-8.3-7.4h0c0-4.6,3.6-8.1,8.7-8.1a8.4,8.4,0,0,1,6.5,2.5c1.7,1.7,2.8,4.3,2.8,8.9h0c0,7.5-3.7,12.7-10,12.7A10.7,10.7,0,0,1,141.9,287.4Zm11.9-14.3h0c0-2.4-1.9-4.2-4.8-4.2s-4.7,1.9-4.7,4.3h0c0,2.5,1.9,4.2,4.8,4.2S153.8,275.4,153.8,273.1Z"/><path class="cls-7" d="M164.5,287.4a1.9,1.9,0,0,1,1-3.6,2.1,2.1,0,0,1,1.1.4,7.6,7.6,0,0,0,4.3,1.4c3.4,0,5.5-3,5.6-7.3a7,7,0,0,1-5.5,2.4c-4.9,0-8.2-2.9-8.2-7.4h0c0-4.6,3.5-8.1,8.7-8.1a8.7,8.7,0,0,1,6.5,2.5c1.7,1.7,2.8,4.3,2.8,8.9h0c0,7.5-3.7,12.7-10,12.7A10.3,10.3,0,0,1,164.5,287.4Zm11.9-14.3h0c0-2.4-1.9-4.2-4.9-4.2a4.2,4.2,0,0,0-4.6,4.3h0c0,2.5,1.8,4.2,4.7,4.2S176.4,275.4,176.4,273.1Z"/><path class="cls-7" d="M184.6,275.3h0c0-2.6,1.7-4.7,4.2-4.7a4.3,4.3,0,0,1,4.3,4.6h0a4.3,4.3,0,1,1-8.5,0Zm6.2,0h0c0-1.5-.8-2.7-2-2.7s-1.9,1.2-1.9,2.6h0c0,1.4.8,2.6,1.9,2.6S190.8,276.7,190.8,275.3Zm-3.3,12.1,11.9-16.2a1.1,1.1,0,0,1,.9-.5,1.1,1.1,0,0,1,1,1,1.4,1.4,0,0,1-.2.7l-11.9,16.2a1.1,1.1,0,0,1-.9.5,1,1,0,0,1-1-1A1.4,1.4,0,0,1,187.5,287.4Zm8-2.8h0a4.3,4.3,0,1,1,8.5,0h0a4.4,4.4,0,0,1-4.3,4.7A4.3,4.3,0,0,1,195.5,284.6Zm6.2,0h0c0-1.4-.8-2.6-2-2.6s-1.9,1.2-1.9,2.6h0c0,1.5.8,2.7,2,2.7S201.7,286,201.7,284.6Z"/><line class="cls-2" x1="112.2" y1="254.9" x2="228.1" y2="254.9"/><circle class="cls-2" cx="170.2" cy="234.9" r="4.5"/><path class="cls-5" d="M217.2,10.1a21.5,21.5,0,1,1-21.5,21.5,21.5,21.5,0,0,1,21.5-21.5m0-3.7a25.2,25.2,0,1,0,25.2,25.2A25.2,25.2,0,0,0,217.2,6.4Z"/><path class="cls-5" d="M349.9,119.6a21.5,21.5,0,1,1-21.5,21.5,21.5,21.5,0,0,1,21.5-21.5m0-3.7a25.2,25.2,0,1,0,25.2,25.2,25.2,25.2,0,0,0-25.2-25.2Z"/><path class="cls-5" d="M357.9,275.9a21.5,21.5,0,1,1-21.5,21.5,21.5,21.5,0,0,1,21.5-21.5m0-3.7a25.2,25.2,0,1,0,25.2,25.2,25.2,25.2,0,0,0-25.2-25.2Z"/><path class="cls-5" d="M208.2,40.8a2.2,2.2,0,0,1-.9-1.7,2,2,0,0,1,2.1-2,1.7,1.7,0,0,1,1.3.4,10.6,10.6,0,0,0,6.9,2.5c2.7,0,4.4-1.3,4.4-3.1h0c0-1.8-1-2.7-5.6-3.8s-8.3-2.8-8.3-7.4h0c0-4.2,3.6-7.2,8.5-7.2a13.4,13.4,0,0,1,7.9,2.3,2.1,2.1,0,0,1,1,1.8,2.1,2.1,0,0,1-2.1,2,2,2,0,0,1-1.1-.3,10,10,0,0,0-5.7-1.9c-2.6,0-4.1,1.3-4.1,2.9h0c0,1.9,1.1,2.8,5.9,3.9s8,3.2,8,7.3h0c0,4.6-3.7,7.4-8.9,7.4A15.5,15.5,0,0,1,208.2,40.8Z"/><path class="cls-5" d="M341.8,130.2A2.2,2.2,0,0,1,344,128a2.2,2.2,0,0,1,2.2,2.2v18.9h11.2a2,2,0,0,1,0,4H344a2.2,2.2,0,0,1-2.2-2.2Z"/><path class="cls-5" d="M345.9,306l9.3-20.6a2.6,2.6,0,0,1,2.6-1.7h.2a2.7,2.7,0,0,1,2.6,1.7l9.2,20.6a1.9,1.9,0,0,1,.3.9A2.1,2.1,0,0,1,368,309a2.3,2.3,0,0,1-2.1-1.5l-2-4.6H351.8l-2.1,4.8a2.2,2.2,0,0,1-2,1.3,2,2,0,0,1-2.1-2A5.4,5.4,0,0,1,345.9,306Zm16.3-7-4.4-10.1L353.5,299Z"/><rect class="cls-2" x="272.3" y="208.2" width="12.5" height="23.59"/><rect class="cls-2" x="294.2" y="194" width="12.5" height="37.79"/><rect class="cls-3" x="316.1" y="185.5" width="12.5" height="46.31"/><line class="cls-2" x1="268" y1="237.5" x2="332.8" y2="237.5"/><polygon class="cls-6" points="278.5 171.9 282.9 180.8 292.8 182.3 285.6 189.2 287.3 199.1 278.5 194.4 269.6 199.1 271.3 189.2 264.2 182.3 274.1 180.8 278.5 171.9"/><polyline class="cls-2" points="317.8 176.2 317.8 167.6 326.9 167.6 309.4 150.1 291.9 167.6 301 167.6 301 185.5"/><path class="cls-2" d="M235.8,118.4l13.8,13.7v7.8a8.4,8.4,0,0,1-8.3,8.4H191.4a8.3,8.3,0,0,1-8.3-8.3v-7.3L201.8,114"/><path class="cls-5" d="M216.3,77.1c9.3,0,16.7,7,16.7,20.8s-7.4,24.9-16.7,24.9-16.6-11.1-16.6-24.9,7.4-20.8,16.6-20.8m0-2c-11.3,0-18.6,8.9-18.6,22.8s8.2,26.9,18.6,26.9S235,113,235,97.9s-7.3-22.8-18.7-22.8Z"/><line class="cls-3" x1="216.3" y1="133.8" x2="234.8" y2="133.8"/><path class="cls-6" d="M191.3,106.3a44.5,44.5,0,0,1,.1-17.3"/><path class="cls-6" d="M194.8,106.7a40.1,40.1,0,0,1-.9-8.7c0-18.1,11.3-26.2,22.4-26.2a21,21,0,0,1,16.2,7.3c4.1,4.7,6.2,11.2,6.2,18.9a39.2,39.2,0,0,1-2.8,14.9"/><path class="cls-6" d="M241.4,106.3a47.1,47.1,0,0,0,.8-8.5,39.7,39.7,0,0,0-.9-8.8"/><circle class="cls-6" cx="234.8" cy="115.6" r="2.9"/><path class="cls-5" d="M293.2,81.4a2.8,2.8,0,0,1,2.8,2.8v27.2a2.8,2.8,0,0,1-2.8,2.9H262.7a2.9,2.9,0,0,1-2.9-2.9V107l-5.8-3.6,5.8-3.7V84.2a2.9,2.9,0,0,1,2.9-2.8h30.5m0-2H262.7a4.9,4.9,0,0,0-4.9,4.8V98.6l-4.8,3.1a1.9,1.9,0,0,0-1,1.7,1.9,1.9,0,0,0,1,1.6l4.8,3.1v3.3a4.9,4.9,0,0,0,4.9,4.9h30.5a4.8,4.8,0,0,0,4.8-4.9V84.2a4.8,4.8,0,0,0-4.8-4.8Z"/><path class="cls-8" d="M266.4,91.3,265,94.6l2,1.8a6.1,6.1,0,0,0,0,2.7l-2.1,1.7,1.4,3.4,2.6-.2a12.6,12.6,0,0,0,2,2l-.3,2.6L274,110l1.7-2h2.8l1.7,2.1,3.3-1.4-.2-2.6a9.5,9.5,0,0,0,2-2l2.7.2,1.4-3.3-2-1.7a13.1,13.1,0,0,0,0-2.8l2-1.7L288,91.4l-2.6.2a11.9,11.9,0,0,0-1.9-2l.2-2.6-3.4-1.4-1.6,2h-2.9l-1.7-2-3.3,1.3.2,2.6a12.6,12.6,0,0,0-2,2Zm12.9,1.4a5.5,5.5,0,0,1,3,7.3,5.6,5.6,0,1,1-10.2-4.4A5.4,5.4,0,0,1,279.3,92.7Z"/><polyline class="cls-2" points="318.2 282.4 318.2 336.5 265.5 336.5 265.5 268.1 303.9 268.1"/><polygon class="cls-2" points="318.2 282.4 303.9 282.4 303.9 268.1 318.2 282.4"/><line class="cls-2" x1="284.9" y1="278.4" x2="296" y2="278.4"/><line class="cls-2" x1="284.9" y1="290.4" x2="310" y2="290.4"/><line class="cls-2" x1="284.9" y1="302.3" x2="310" y2="302.3"/><polyline class="cls-8" points="273.1 277.5 275.7 280.1 280.8 275"/><polyline class="cls-8" points="273.1 289.5 275.7 292.1 280.8 287"/><polyline class="cls-8" points="273.1 301.5 275.7 304 280.8 299"/><line class="cls-2" x1="284.9" y1="314.3" x2="310" y2="314.3"/><polyline class="cls-8" points="273.1 313.4 275.7 316 280.8 310.9"/><path class="cls-6" d="M289.5,328.3c.4-.4,4.5-7.5,5.1-6.8s.3,7.6,1.2,6.3,2.5-3.8,3.3-2.9,1.2,2.7,3.5,2.4a8.9,8.9,0,0,1,4.9.2,6.7,6.7,0,0,0,4,.4"/><polyline class="cls-9" points="63.6 87.2 63.6 49.9 162.3 49.9"/><polyline class="cls-9" points="257.9 357 100.7 357 63.6 357 63.6 243.7"/></g></svg>