<svg xmlns="http://www.w3.org/2000/svg" viewBox="0 0 400 400"><defs><style>.cls-1,.cls-2,.cls-3,.cls-4,.cls-6,.cls-8{fill:none;stroke-linecap:round;stroke-linejoin:round;}.cls-1,.cls-3,.cls-6{stroke:#3e4c70;}.cls-1{stroke-width:3.7px;}.cls-2,.cls-8{stroke:#158aff;}.cls-2,.cls-3,.cls-4,.cls-6,.cls-8{stroke-width:2px;}.cls-4{stroke:#d62027;}.cls-5{fill:#d62027;}.cls-6{stroke-dasharray:8.31 5.54;}.cls-7{fill:#3e4c70;}.cls-8{stroke-dasharray:7.26 4.84;}</style></defs><g id="blue"><path class="cls-1" d="M142.8,146.7H162a4.7,4.7,0,0,1,4.8,4.7v94.4"/><path class="cls-1" d="M27.4,245.8V151.4a4.7,4.7,0,0,1,4.7-4.7H51.3"/><polyline class="cls-1" points="142.8 156 158 156 158 236.4 36.1 236.4 36.1 156 51.3 156"/><path class="cls-1" d="M184.7,245.8a14.9,14.9,0,0,1-14.9,14.8H24.4A14.8,14.8,0,0,1,9.5,245.8H82.4v2a4,4,0,0,0,4.1,4h21.2a4,4,0,0,0,4-4v-2Z"/><path class="cls-2" d="M135.6,193.5l-2.9.3a16.7,16.7,0,0,0-3.1-2.8l.2-3.8-5-1.8-2.3,3a14,14,0,0,0-4.1.2l-2.6-2.8L111,188l.5,3.7a13.8,13.8,0,0,0-2.8,3.1l-3.8-.2-1.8,4.9,3,2.4a14.1,14.1,0,0,0,.2,4.1l-2.9,2.6,2.2,4.8,3.9-.5a15,15,0,0,0,2.9,2.7v3.9l2,1.2m9.9-26a9.2,9.2,0,0,1,5.5,11.8,9.2,9.2,0,1,1-17.3-6.4A9.2,9.2,0,0,1,124.2,194.7Z"/><polyline class="cls-3" points="58 221.4 58 131.3 136.2 131.3 136.2 220.1"/><line class="cls-3" x1="58.2" y1="146.7" x2="136.2" y2="146.7"/><line class="cls-3" x1="109.4" y1="140.6" x2="112.9" y2="140.6"/><line class="cls-3" x1="117.8" y1="140.6" x2="121.3" y2="140.6"/><line class="cls-4" x1="126.1" y1="140.6" x2="129.6" y2="140.6"/><path class="cls-5" d="M65.5,157.2h-2a.7.7,0,0,1-.7-.7.7.7,0,0,1,.7-.6h5.4a.7.7,0,0,1,.7.6.7.7,0,0,1-.7.7h-2v6.2a.7.7,0,0,1-1.4,0Z"/><path class="cls-5" d="M70.8,163.3v-6.7a.7.7,0,0,1,.7-.7h4.8a.6.6,0,0,1,.6.6.7.7,0,0,1-.6.7H72.2v2.1h3.6a.6.6,0,0,1,.6.6.7.7,0,0,1-.6.7H72.2v2.2h4.2a.6.6,0,0,1,.6.6.7.7,0,0,1-.6.7H71.5A.7.7,0,0,1,70.8,163.3Z"/><path class="cls-5" d="M78.4,156.5a.7.7,0,0,1,.7-.7h.2a1,1,0,0,1,.7.4l2.4,3.9,2.5-3.9a.8.8,0,0,1,.7-.4h.1a.7.7,0,0,1,.8.7v6.9a.7.7,0,0,1-.8.7.8.8,0,0,1-.7-.7v-4.9l-2,3a.7.7,0,0,1-.6.4c-.2,0-.4-.2-.6-.4l-2-3v4.9a.7.7,0,0,1-1.4,0Z"/><path class="cls-5" d="M88.3,156.6a.8.8,0,0,1,.8-.7h2.5c1.9,0,3.1,1.1,3.1,2.7h0c0,1.9-1.5,2.8-3.3,2.8H89.8v2a.7.7,0,0,1-.7.7.8.8,0,0,1-.8-.7Zm3.2,3.5a1.5,1.5,0,0,0,1.7-1.4h0c0-.9-.7-1.4-1.7-1.4H89.8v2.9Z"/><path class="cls-5" d="M95.9,156.5a.7.7,0,0,1,.8-.7.7.7,0,0,1,.7.7v6.3h3.7a.6.6,0,0,1,.6.6.7.7,0,0,1-.6.7H96.7a.7.7,0,0,1-.8-.8Z"/><path class="cls-5" d="M102.5,163.1l3-6.8a1.1,1.1,0,0,1,.9-.5h.1a.8.8,0,0,1,.8.5l3.1,6.8v.3c0,.4-.2.7-.6.7a.7.7,0,0,1-.7-.5l-.7-1.5h-4l-.7,1.6c-.1.3-.3.4-.7.4a.6.6,0,0,1-.6-.6A.8.8,0,0,1,102.5,163.1Zm5.3-2.3-1.4-3.3-1.4,3.3Z"/><path class="cls-5" d="M112.8,157.2h-2a.7.7,0,0,1-.6-.7.6.6,0,0,1,.6-.6h5.5a.7.7,0,0,1,.7.6.7.7,0,0,1-.7.7h-2v6.2a.7.7,0,0,1-.7.7.8.8,0,0,1-.8-.7Z"/><path class="cls-5" d="M118.2,163.3v-6.7a.7.7,0,0,1,.7-.7h4.8a.6.6,0,0,1,.6.6.7.7,0,0,1-.6.7h-4.1v2.1h3.5a.7.7,0,0,1,.7.6.7.7,0,0,1-.7.7h-3.5v2.2h4.1a.7.7,0,0,1,.7.6.7.7,0,0,1-.7.7h-4.8A.7.7,0,0,1,118.2,163.3Z"/><path class="cls-5" d="M125.6,163.2a.9.9,0,0,1-.3-.6.7.7,0,0,1,.7-.7l.4.2a3.8,3.8,0,0,0,2.3.8c.9,0,1.5-.4,1.5-1h0c0-.6-.4-.9-1.9-1.3s-2.7-.9-2.7-2.4h0c0-1.4,1.1-2.3,2.8-2.3a4.6,4.6,0,0,1,2.6.7.9.9,0,0,1,.3.6.7.7,0,0,1-.7.7l-.4-.2a3.3,3.3,0,0,0-1.9-.6c-.8,0-1.3.5-1.3,1h0c0,.7.4.9,2,1.3s2.6,1.1,2.6,2.4h0c0,1.6-1.2,2.5-2.9,2.5A5.7,5.7,0,0,1,125.6,163.2Z"/><line class="cls-3" x1="65.3" y1="172" x2="129.6" y2="172"/><line class="cls-3" x1="65.3" y1="185" x2="96.1" y2="185"/><line class="cls-3" x1="65.3" y1="198.1" x2="96.1" y2="198.1"/><line class="cls-3" x1="65.3" y1="211.1" x2="96.1" y2="211.1"/><path class="cls-4" d="M390.5,265.9v16.5a5.3,5.3,0,0,1-5.3,5.3H313.4a5.3,5.3,0,0,1-5.3-5.3V109.9a5.4,5.4,0,0,1,5.3-5.4h71.8a5.4,5.4,0,0,1,5.3,5.4v156Z"/><rect class="cls-6" x="326" y="123.2" width="46.6" height="46.58" rx="2.2"/><path class="cls-7" d="M332.6,143.2a.8.8,0,0,1,.8-.9h.2a.9.9,0,0,1,.8.5l4.7,6.1v-5.8a.9.9,0,0,1,.8-.8.8.8,0,0,1,.8.8V151a.8.8,0,0,1-.8.8h0a1.1,1.1,0,0,1-.9-.5l-4.8-6.2V151a.8.8,0,0,1-.8.8.7.7,0,0,1-.8-.8Z"/><path class="cls-7" d="M343.7,150.9v-7.7a.7.7,0,0,1,.8-.8H350a.7.7,0,0,1,.7.7.8.8,0,0,1-.7.8h-4.7v2.4h4.1a.7.7,0,0,1,.7.7.8.8,0,0,1-.7.8h-4.1v2.5H350a.7.7,0,1,1,0,1.4h-5.5A.7.7,0,0,1,343.7,150.9Z"/><path class="cls-7" d="M352.6,143.4v-.3a.9.9,0,0,1,.9-.8.9.9,0,0,1,.8.6l2.1,6.5,2.2-6.5a.9.9,0,0,1,.8-.6h.1a.9.9,0,0,1,.8.6l2.2,6.5,2.1-6.5a.9.9,0,0,1,.8-.6.8.8,0,0,1,.8.8v.3l-2.8,7.8a1.1,1.1,0,0,1-.9.7h-.1a1.1,1.1,0,0,1-.9-.7l-2.1-6.1-2.1,6.1a.8.8,0,0,1-.8.7h-.2a.8.8,0,0,1-.8-.7Z"/><polyline class="cls-3" points="363.5 246.1 372.8 255.3 363.5 264.5"/><polyline class="cls-3" points="335 246.1 325.8 255.3 335 264.5"/><line class="cls-3" x1="357.6" y1="240.5" x2="341" y2="270"/><path class="cls-3" d="M331.2,214.9l-8.4-6.6a4,4,0,0,1,0-6.4l8.4-6.5a29.4,29.4,0,0,1,36.2,0l8.4,6.5a4,4,0,0,1,0,6.4l-8.4,6.6A29.4,29.4,0,0,1,331.2,214.9Z"/><circle class="cls-3" cx="349.3" cy="205.1" r="16"/><circle class="cls-3" cx="349.3" cy="205.1" r="6.2"/><path class="cls-7" d="M323.9,302.5l2.7-5.9a.8.8,0,0,1,.7-.5h.1a.7.7,0,0,1,.7.5l2.7,5.9c0,.1.1.2.1.3a.6.6,0,0,1-.6.6.7.7,0,0,1-.6-.4l-.6-1.4h-3.5L325,303a.7.7,0,0,1-.6.4.6.6,0,0,1-.5-.6Zm4.7-2-1.2-2.9-1.3,2.9Z"/><path class="cls-7" d="M332.4,299.8h0a3.6,3.6,0,0,1,3.7-3.7,4.3,4.3,0,0,1,2.4.7.9.9,0,0,1,.3.5.7.7,0,0,1-.7.7l-.3-.2a3.2,3.2,0,0,0-1.8-.5,2.4,2.4,0,0,0-2.3,2.5h0a2.4,2.4,0,0,0,2.4,2.5,3.5,3.5,0,0,0,1.8-.5v-1.3h-1.5a.6.6,0,0,1-.5-.6.5.5,0,0,1,.5-.5h2c.4,0,.7.2.7.6v1.9a1,1,0,0,1-.5.8,4.4,4.4,0,0,1-2.5.8A3.6,3.6,0,0,1,332.4,299.8Z"/><path class="cls-7" d="M341.5,302.7v-5.8a.7.7,0,0,1,.6-.7h4.2a.6.6,0,0,1,.5.6.5.5,0,0,1-.5.5h-3.5v1.9h3a.6.6,0,0,1,.6.6.6.6,0,0,1-.6.5h-3v1.9h3.5a.6.6,0,0,1,.6.6.6.6,0,0,1-.6.5h-4.2A.6.6,0,0,1,341.5,302.7Z"/><path class="cls-7" d="M349.1,296.8a.7.7,0,0,1,.7-.6h.1a.6.6,0,0,1,.6.3l3.6,4.7v-4.4a.6.6,0,0,1,1.2,0v6a.6.6,0,0,1-.6.6h0a1,1,0,0,1-.7-.4l-3.6-4.7v4.5a.7.7,0,0,1-.7.6.6.6,0,0,1-.6-.6Z"/><path class="cls-7" d="M359.7,297.4H358a.6.6,0,1,1,0-1.2h4.7a.6.6,0,0,1,0,1.2H361v5.4a.7.7,0,0,1-.7.6.6.6,0,0,1-.6-.6Z"/><path class="cls-7" d="M365,302.5a.5.5,0,0,1-.2-.4.6.6,0,0,1,.6-.6c.1,0,.3,0,.3.1a3.1,3.1,0,0,0,2,.7c.8,0,1.3-.3,1.3-.9h0c0-.5-.3-.8-1.6-1.1s-2.4-.8-2.4-2.1h0a2.2,2.2,0,0,1,2.4-2.1,4.2,4.2,0,0,1,2.3.7.6.6,0,0,1,.3.5.6.6,0,0,1-.6.6h-.3a2.9,2.9,0,0,0-1.7-.6c-.7,0-1.1.4-1.1.9h0c0,.5.3.8,1.7,1.1s2.2.9,2.2,2.1h0c0,1.3-1,2.1-2.5,2.1A4.4,4.4,0,0,1,365,302.5Z"/><path class="cls-4" d="M42.5,377.3H32.1a5.3,5.3,0,0,1-5.3-5.3V300.2a5.3,5.3,0,0,1,5.3-5.3H236a5.2,5.2,0,0,1,5.3,5.3V372a5.3,5.3,0,0,1-5.3,5.3H42.5Z"/><rect class="cls-6" x="48" y="312.8" width="46.6" height="46.58" rx="2.2"/><path class="cls-7" d="M54.6,332.8a.9.9,0,0,1,.8-.9h.2c.4,0,.6.2.9.5l4.6,6.1v-5.8a.9.9,0,0,1,.8-.8.9.9,0,0,1,.9.8v7.9a.8.8,0,0,1-.8.8h-.1c-.4,0-.6-.2-.9-.5l-4.8-6.2v5.9a.7.7,0,0,1-.8.8.8.8,0,0,1-.8-.8Z"/><path class="cls-7" d="M65.7,340.5v-7.7a.9.9,0,0,1,.8-.8H72a.7.7,0,0,1,.7.7.8.8,0,0,1-.7.8H67.4v2.4h4a.7.7,0,0,1,.7.8.7.7,0,0,1-.7.7h-4v2.5H72a.8.8,0,0,1,.8.7.9.9,0,0,1-.8.8H66.5A.9.9,0,0,1,65.7,340.5Z"/><path class="cls-7" d="M74.6,333.1v-.4a.8.8,0,0,1,.8-.8.9.9,0,0,1,.8.6l2.2,6.5,2.1-6.4a.8.8,0,0,1,.8-.7h.1c.5,0,.7.3.9.7l2.1,6.4,2.1-6.5c.2-.3.4-.6.8-.6a.9.9,0,0,1,.9.8c0,.1-.1.3-.1.4l-2.8,7.7a1,1,0,0,1-.9.7h-.1a1.1,1.1,0,0,1-.9-.7l-2-6.1-2.1,6.1a1.1,1.1,0,0,1-.9.7h-.1a1.1,1.1,0,0,1-.9-.7Z"/><path class="cls-7" d="M213.4,339.6a4.4,4.4,0,0,1,4.4,4.4v.8a4.4,4.4,0,0,1-4.4,4.4H184.1a4.4,4.4,0,0,1-4.3-4.4V344a4.4,4.4,0,0,1,4.3-4.4h29.3m0-2H184.1a6.4,6.4,0,0,0-6.3,6.4v.8a6.4,6.4,0,0,0,6.3,6.4h29.3a6.4,6.4,0,0,0,6.4-6.4V344a6.4,6.4,0,0,0-6.4-6.4Z"/><line class="cls-2" x1="185.4" y1="344.3" x2="204.2" y2="344.3"/><line class="cls-4" x1="209.2" y1="344.5" x2="214" y2="344.5"/><path class="cls-7" d="M213.4,325.2a4.4,4.4,0,0,1,4.4,4.4v.8a4.4,4.4,0,0,1-4.4,4.4H184.1a4.4,4.4,0,0,1-4.3-4.4v-.8a4.4,4.4,0,0,1,4.3-4.4h29.3m0-2H184.1a6.4,6.4,0,0,0-6.3,6.4v.8a6.4,6.4,0,0,0,6.3,6.4h29.3a6.4,6.4,0,0,0,6.4-6.4v-.8a6.4,6.4,0,0,0-6.4-6.4Z"/><line class="cls-2" x1="185.4" y1="330" x2="204.4" y2="330"/><line class="cls-4" x1="209.2" y1="330" x2="214" y2="330"/><path class="cls-7" d="M213.4,310.8a4.4,4.4,0,0,1,4.4,4.4v.8a4.4,4.4,0,0,1-4.4,4.4H184.1a4.4,4.4,0,0,1-4.3-4.4v-.8a4.4,4.4,0,0,1,4.3-4.4h29.3m0-2H184.1a6.4,6.4,0,0,0-6.3,6.4v.8a6.4,6.4,0,0,0,6.3,6.4h29.3a6.4,6.4,0,0,0,6.4-6.4v-.8a6.4,6.4,0,0,0-6.4-6.4Z"/><line class="cls-2" x1="185.4" y1="315.6" x2="204.4" y2="315.8"/><line class="cls-4" x1="209.3" y1="315.8" x2="214" y2="315.8"/><path class="cls-3" d="M201.7,363.6h14.1"/><path class="cls-3" d="M181.7,363.6h14.1"/><line class="cls-3" x1="198.8" y1="350.3" x2="198.8" y2="360.9"/><circle class="cls-3" cx="198.8" cy="363.7" r="2.7"/><rect class="cls-3" x="123.3" y="308.4" width="27.8" height="44.19" rx="3.6"/><path class="cls-3" d="M125.7,363.7h22.9"/><line class="cls-3" x1="137.2" y1="352.9" x2="137.2" y2="363.7"/><circle class="cls-4" cx="137.2" cy="342.8" r="2.5"/><line class="cls-4" x1="128.5" y1="317.7" x2="145.8" y2="317.7"/><line class="cls-4" x1="128.5" y1="324.5" x2="145.8" y2="324.5"/><line class="cls-3" x1="128.5" y1="331.4" x2="145.8" y2="331.4"/><path class="cls-7" d="M97,389.4h0a3.6,3.6,0,0,1,3.7-3.7,3.5,3.5,0,0,1,2.4.8.8.8,0,0,1,.2.5.5.5,0,0,1-.6.6h-.4a2.4,2.4,0,0,0-4,1.9h0a2.4,2.4,0,0,0,2.3,2.5,2.3,2.3,0,0,0,1.8-.7h.4a.6.6,0,0,1,.6.6.5.5,0,0,1-.2.4,3.7,3.7,0,0,1-6.2-2.7Z"/><path class="cls-7" d="M105.1,389.4h0a3.7,3.7,0,0,1,7.4,0h0a3.7,3.7,0,0,1-7.4,0Zm6.1,0h0a2.4,2.4,0,1,0-4.8,0h0a2.4,2.4,0,1,0,4.8,0Z"/><path class="cls-7" d="M114.9,386.4a.6.6,0,0,1,.6-.6h.1a.6.6,0,0,1,.6.3l2.2,3.4,2.1-3.4a.7.7,0,0,1,.6-.3h.1a.7.7,0,0,1,.7.6v6a.7.7,0,0,1-.7.6.6.6,0,0,1-.6-.6v-4.3l-1.7,2.6a.7.7,0,0,1-.6.3c-.2,0-.3-.1-.5-.3l-1.7-2.6v4.3a.6.6,0,0,1-.6.6.6.6,0,0,1-.6-.6Z"/><path class="cls-7" d="M124.5,386.5a.7.7,0,0,1,.6-.7h2.2a2.4,2.4,0,0,1,2.7,2.4h0a2.6,2.6,0,0,1-2.8,2.5h-1.5v1.7a.6.6,0,0,1-.6.6.6.6,0,0,1-.6-.6Zm2.7,3c.9,0,1.5-.5,1.5-1.2h0c0-.8-.6-1.2-1.5-1.2h-1.5v2.5Z"/><path class="cls-7" d="M131.8,389.4h0a3.7,3.7,0,0,1,7.4,0h0a3.7,3.7,0,0,1-7.4,0Zm6.1,0h0a2.4,2.4,0,1,0-4.8,0h0a2.4,2.4,0,1,0,4.8,0Z"/><path class="cls-7" d="M141.6,386.4a.6.6,0,0,1,.6-.6h.1a.8.8,0,0,1,.7.4l3.5,4.6v-4.4a.6.6,0,0,1,.6-.6.7.7,0,0,1,.7.6v6a.7.7,0,0,1-.7.6h0a1,1,0,0,1-.7-.4l-3.6-4.7v4.5a.6.6,0,0,1-.6.6.6.6,0,0,1-.6-.6Z"/><path class="cls-7" d="M150.4,392.3v-5.8a.7.7,0,0,1,.6-.7h4.2a.6.6,0,0,1,.5.6.5.5,0,0,1-.5.5h-3.6v1.9h3.1a.6.6,0,0,1,.6.6.6.6,0,0,1-.6.5h-3.1v1.9h3.6a.6.6,0,0,1,.6.6.6.6,0,0,1-.6.5H151A.6.6,0,0,1,150.4,392.3Z"/><path class="cls-7" d="M158,386.4a.6.6,0,0,1,.6-.6h.2a.5.5,0,0,1,.6.4l3.6,4.6v-4.4a.6.6,0,0,1,1.2,0v6a.6.6,0,0,1-.6.6h0a1,1,0,0,1-.7-.4l-3.7-4.7v4.5a.6.6,0,0,1-.6.6.6.6,0,0,1-.6-.6Z"/><path class="cls-7" d="M168.6,387h-1.7a.6.6,0,1,1,0-1.2h4.7a.6.6,0,1,1,0,1.2h-1.7v5.4a.7.7,0,0,1-.7.6.6.6,0,0,1-.6-.6Z"/><path class="cls-7" d="M173.9,392.1a.5.5,0,0,1-.2-.4.5.5,0,0,1,.6-.6h.3a3.1,3.1,0,0,0,2,.7c.8,0,1.3-.3,1.3-.9h0c0-.5-.3-.8-1.6-1.1s-2.4-.8-2.4-2.1h0a2.2,2.2,0,0,1,2.4-2.1,4.2,4.2,0,0,1,2.3.7.6.6,0,0,1,.3.5.6.6,0,0,1-.6.6H178a2.9,2.9,0,0,0-1.7-.6c-.7,0-1.1.4-1.1.9h0c0,.5.3.8,1.7,1.1s2.2.9,2.2,2.1h0c0,1.4-1,2.1-2.5,2.1A4.4,4.4,0,0,1,173.9,392.1Z"/><path class="cls-4" d="M48.5,89.4H32.1a5.3,5.3,0,0,1-5.3-5.3V12.3a5.4,5.4,0,0,1,5.3-5.4H248a5.3,5.3,0,0,1,5.3,5.4V84.1a5.3,5.3,0,0,1-5.3,5.3H48.5Z"/><rect class="cls-3" x="119.5" y="69.6" width="5.2" height="4.33" transform="translate(244.1 143.5) rotate(-180)"/><rect class="cls-3" x="129.8" y="69.6" width="5.2" height="4.33" transform="translate(264.8 143.5) rotate(-180)"/><rect class="cls-3" x="140.2" y="69.6" width="5.2" height="4.33" transform="translate(285.5 143.5) rotate(-180)"/><rect class="cls-3" x="150.5" y="69.6" width="5.2" height="4.33" transform="translate(306.3 143.5) rotate(-180)"/><rect class="cls-3" x="119.5" y="22.4" width="5.2" height="4.33" transform="translate(244.1 49.1) rotate(-180)"/><rect class="cls-3" x="129.8" y="22.4" width="5.2" height="4.33" transform="translate(264.8 49.1) rotate(-180)"/><rect class="cls-3" x="140.2" y="22.4" width="5.2" height="4.33" transform="translate(285.5 49.1) rotate(-180)"/><rect class="cls-3" x="150.5" y="22.4" width="5.2" height="4.33" transform="translate(306.3 49.1) rotate(-180)"/><rect class="cls-3" x="158.6" y="61.5" width="5.2" height="4.33" transform="translate(224.9 -97.5) rotate(90)"/><rect class="cls-3" x="158.6" y="51.2" width="5.2" height="4.33" transform="translate(214.5 -107.8) rotate(90)"/><rect class="cls-3" x="158.6" y="40.8" width="5.2" height="4.33" transform="translate(204.2 -118.2) rotate(90)"/><rect class="cls-3" x="158.6" y="30.4" width="5.2" height="4.33" transform="translate(193.8 -128.6) rotate(90)"/><rect class="cls-3" x="111.4" y="61.5" width="5.2" height="4.33" transform="translate(177.7 -50.3) rotate(90)"/><rect class="cls-3" x="111.4" y="51.2" width="5.2" height="4.33" transform="translate(167.3 -60.7) rotate(90)"/><rect class="cls-3" x="111.4" y="40.8" width="5.2" height="4.33" transform="translate(157 -71) rotate(90)"/><rect class="cls-3" x="111.4" y="30.4" width="5.2" height="4.33" transform="translate(146.6 -81.4) rotate(90)"/><rect class="cls-3" x="116.2" y="26.7" width="42.9" height="42.85"/><circle class="cls-3" cx="137.6" cy="48.2" r="17.3"/><polyline class="cls-4" points="122.8 48.4 126.9 48.4 129.9 40.6 134.1 54.3 137.4 45.5 140.5 52.3 144.9 42.1 147.7 50.7 149.3 47.9 152.3 47.9"/><circle class="cls-3" cx="208.3" cy="48.2" r="5.3"/><circle class="cls-3" cx="208.3" cy="48.2" r="22.2"/><rect class="cls-3" x="182.5" y="22.4" width="51.5" height="51.52" rx="2.5"/><path class="cls-3" d="M200.2,51.8,198.7,53a20.7,20.7,0,0,0-4.1,5.6,1,1,0,0,1-1.7.2,20.8,20.8,0,0,1-2.4-4.7,3.4,3.4,0,0,1,1.5-4,20,20,0,0,1,7.4-2.7v.7A7.7,7.7,0,0,0,200.2,51.8Z"/><path class="cls-3" d="M205,66.6a25.6,25.6,0,0,1-4.9-1.6,3.4,3.4,0,0,1-1.8-3.9,21.2,21.2,0,0,1,3.2-7.2,8.6,8.6,0,0,0,3.7,2.6,21.4,21.4,0,0,0,.9,8.7A1,1,0,0,1,205,66.6Z"/><path class="cls-3" d="M219,63.5a23.8,23.8,0,0,1-4.5,2.3,3.6,3.6,0,0,1-4.1-1.5,19,19,0,0,1-2.7-7.3h.6a10,10,0,0,0,3.8-.8,19.8,19.8,0,0,0,6.7,5.5A1.1,1.1,0,0,1,219,63.5Z"/><path class="cls-3" d="M226.7,51.5a15.4,15.4,0,0,1-1.6,4.7,3.4,3.4,0,0,1-3.9,1.9,21.5,21.5,0,0,1-7-3.3,9.7,9.7,0,0,0,2.5-3.7,19.8,19.8,0,0,0,8.7-.7A1,1,0,0,1,226.7,51.5Z"/><path class="cls-3" d="M217.2,48.7v-.6a9.5,9.5,0,0,0-.8-3.7,18.8,18.8,0,0,0,5.6-6.6,1.1,1.1,0,0,1,1.8-.2,23.5,23.5,0,0,1,2.2,4.5,3.4,3.4,0,0,1-1.5,4A18.3,18.3,0,0,1,217.2,48.7Z"/><path class="cls-3" d="M216.6,31.4a3.4,3.4,0,0,1,1.8,3.9,21.1,21.1,0,0,1-2.2,5.4l-1.1,1.6a9,9,0,0,0-3.6-2.5,24.6,24.6,0,0,0,.2-2.8,19.6,19.6,0,0,0-.9-5.9.9.9,0,0,1,1.1-1.3A15.4,15.4,0,0,1,216.6,31.4Z"/><path class="cls-3" d="M202.6,41.2a8.6,8.6,0,0,0-2.6,3.7l-2.6-.2a21.7,21.7,0,0,0-6.2,1,1,1,0,0,1-1.3-1.1,16.8,16.8,0,0,1,1.7-4.9,3.4,3.4,0,0,1,3.9-1.8,21.3,21.3,0,0,1,5.6,2.3Z"/><path class="cls-3" d="M202.4,30.4a3.4,3.4,0,0,1,4.1,1.5,21.1,21.1,0,0,1,2.2,5.4l.3,1.9a8.3,8.3,0,0,0-4.3.8,16.8,16.8,0,0,0-6.7-5.7,1.1,1.1,0,0,1-.1-1.8A18.5,18.5,0,0,1,202.4,30.4Z"/><circle class="cls-3" cx="188" cy="27.8" r="1.8"/><circle class="cls-3" cx="188" cy="68.4" r="1.8"/><circle class="cls-3" cx="228.6" cy="27.8" r="1.8"/><circle class="cls-3" cx="228.6" cy="68.4" r="1.8"/><rect class="cls-6" x="46.1" y="24.9" width="46.6" height="46.58" rx="2.2"/><path class="cls-7" d="M52.7,44.9a.8.8,0,0,1,.8-.9h.2a.9.9,0,0,1,.8.5l4.7,6.1V44.8A.9.9,0,0,1,60,44a.8.8,0,0,1,.8.8v7.9a.8.8,0,0,1-.8.8h-.1a1,1,0,0,1-.8-.5l-4.8-6.2v5.9a.9.9,0,0,1-.8.8.8.8,0,0,1-.8-.8Z"/><path class="cls-7" d="M63.8,52.6V44.9a.7.7,0,0,1,.8-.8H70a.7.7,0,1,1,0,1.4H65.4V48h4a.8.8,0,0,1,.8.7.9.9,0,0,1-.8.8h-4V52h4.7a.7.7,0,0,1,0,1.4H64.6A.7.7,0,0,1,63.8,52.6Z"/><path class="cls-7" d="M72.7,45.1a.4.4,0,0,1-.1-.3.9.9,0,0,1,.9-.8.9.9,0,0,1,.8.6L76.4,51l2.1-6.4a1.1,1.1,0,0,1,.9-.6h.1a.9.9,0,0,1,.8.6L82.4,51l2.2-6.4a.9.9,0,0,1,.8-.6.9.9,0,0,1,.8.8.4.4,0,0,1-.1.3l-2.7,7.8a1.1,1.1,0,0,1-.9.7h-.2a.8.8,0,0,1-.8-.7l-2.1-6.1-2.1,6.1a.8.8,0,0,1-.8.7h-.2a1.1,1.1,0,0,1-.9-.7Z"/><path class="cls-7" d="M63.1,98.5a.6.6,0,0,1,.6-.6h2a3.5,3.5,0,0,1,3.8,3.5h0a3.6,3.6,0,0,1-3.8,3.6h-2a.6.6,0,0,1-.6-.6Zm2.6,5.3a2.3,2.3,0,0,0,2.5-2.3h0A2.3,2.3,0,0,0,65.7,99H64.3v4.8Z"/><path class="cls-7" d="M71.8,104.4V98.5c0-.4.3-.6.7-.6h4.1a.6.6,0,0,1,.6.5.6.6,0,0,1-.6.6H73.1v1.8h3.1a.6.6,0,0,1,0,1.2H73.1v1.9h3.6a.5.5,0,0,1,.5.5.6.6,0,0,1-.5.6H72.5A.7.7,0,0,1,71.8,104.4Z"/><path class="cls-7" d="M81.5,104.6,79,98.7v-.3a.6.6,0,0,1,.6-.6.6.6,0,0,1,.6.5l2.1,5.1,2.1-5.2a.7.7,0,0,1,.6-.4.6.6,0,0,1,.6.6.4.4,0,0,1-.1.3L83,104.6a.7.7,0,0,1-.7.5h-.1C81.9,105.1,81.7,104.9,81.5,104.6Z"/><path class="cls-7" d="M87.8,98.4a.6.6,0,0,1,.6-.6.7.7,0,0,1,.7.6v6c0,.4-.3.6-.7.6a.6.6,0,0,1-.6-.6Z"/><path class="cls-7" d="M91.5,101.5h0a3.5,3.5,0,0,1,3.6-3.6,3.9,3.9,0,0,1,2.5.8.6.6,0,0,1,.2.5.6.6,0,0,1-.6.6.5.5,0,0,1-.4-.2,2.5,2.5,0,0,0-1.7-.6,2.4,2.4,0,0,0-2.3,2.5h0a2.4,2.4,0,0,0,2.3,2.6,2.7,2.7,0,0,0,1.8-.7.5.5,0,0,1,.4-.2.6.6,0,0,1,.6.6.8.8,0,0,1-.2.5,4.3,4.3,0,0,1-2.6.9A3.5,3.5,0,0,1,91.5,101.5Z"/><path class="cls-7" d="M100.1,104.4V98.5a.6.6,0,0,1,.6-.6h4.1c.4,0,.6.2.6.5a.6.6,0,0,1-.6.6h-3.5v1.8h3.1a.6.6,0,0,1,0,1.2h-3.1v1.9h3.6a.6.6,0,0,1,.6.5.6.6,0,0,1-.6.6h-4.2A.6.6,0,0,1,100.1,104.4Z"/><path class="cls-7" d="M107.5,104.2a.8.8,0,0,1-.2-.5.6.6,0,0,1,.6-.6h.3a3.2,3.2,0,0,0,2,.8c.8,0,1.3-.4,1.3-.9h0c0-.5-.3-.8-1.6-1.1s-2.4-.8-2.4-2.1h0c0-1.2,1-2,2.4-2a4.1,4.1,0,0,1,2.3.6.9.9,0,0,1,.3.5.6.6,0,0,1-.6.6h-.3a3.7,3.7,0,0,0-1.7-.5c-.7,0-1.1.4-1.1.8h0c0,.6.3.8,1.7,1.2s2.2.9,2.2,2h0c0,1.3-1,2.1-2.5,2.1A4.4,4.4,0,0,1,107.5,104.2Z"/><path class="cls-7" d="M123.6,104.9l-.7-.8a3,3,0,0,1-2.2,1,2.1,2.1,0,0,1-2.3-2h0a2.2,2.2,0,0,1,1.5-2,2.2,2.2,0,0,1-.6-1.4h0a1.8,1.8,0,0,1,2-1.7,1.7,1.7,0,0,1,1.9,1.7h0a1.9,1.9,0,0,1-1.5,1.8l1.2,1.3.6-1c0-.2.2-.3.4-.3a.6.6,0,0,1,.6.5c0,.1-.1.2-.1.3a8.3,8.3,0,0,1-.8,1.2l.8.8a.5.5,0,0,1,.2.4.6.6,0,0,1-.5.6Zm-1.4-1.5-1.6-1.6c-.7.3-1,.7-1,1.2h0a1.1,1.1,0,0,0,1.2,1.1A2.1,2.1,0,0,0,122.2,103.4Zm-.1-3.8h0a.8.8,0,0,0-.8-.8.8.8,0,0,0-.8.9h0c0,.4.1.6.5,1.1S122.1,100.1,122.1,99.6Z"/><path class="cls-7" d="M130.2,104.2l2.7-5.9a.8.8,0,0,1,.7-.5h.1a.8.8,0,0,1,.7.5l2.7,5.9v.2a.5.5,0,0,1-.6.6.6.6,0,0,1-.6-.4l-.5-1.3h-3.5l-.6,1.3a.5.5,0,0,1-.6.4.6.6,0,0,1-.6-.5Zm4.7-2-1.3-2.9-1.2,2.9Z"/><path class="cls-7" d="M139.3,98.5a.6.6,0,0,1,.6-.6h2.2c1.7,0,2.7.9,2.7,2.4h0c0,1.6-1.3,2.4-2.8,2.4h-1.4v1.7c0,.4-.3.6-.7.6a.6.6,0,0,1-.6-.6Zm2.7,3.1a1.3,1.3,0,0,0,1.5-1.3h0c0-.9-.6-1.3-1.5-1.3h-1.4v2.6Z"/><path class="cls-7" d="M146.9,98.5a.6.6,0,0,1,.6-.6h2.2c1.7,0,2.7.9,2.7,2.4h0c0,1.6-1.3,2.4-2.8,2.4h-1.4v1.7c0,.4-.3.6-.7.6a.6.6,0,0,1-.6-.6Zm2.7,3.1a1.3,1.3,0,0,0,1.5-1.3h0c0-.9-.6-1.3-1.5-1.3h-1.4v2.6Z"/><path class="cls-7" d="M154.5,98.4a.6.6,0,0,1,.6-.6.7.7,0,0,1,.7.6v5.4H159a.6.6,0,0,1,0,1.2h-3.9a.6.6,0,0,1-.6-.6Z"/><path class="cls-7" d="M161.7,98.4a.6.6,0,0,1,.6-.6.6.6,0,0,1,.6.6v6a.5.5,0,0,1-.6.6.6.6,0,0,1-.6-.6Z"/><path class="cls-7" d="M165.3,101.5h0a3.5,3.5,0,0,1,3.7-3.6,3.5,3.5,0,0,1,2.4.8.5.5,0,0,1,.3.5.6.6,0,0,1-.6.6l-.4-.2a2.5,2.5,0,0,0-1.7-.6,2.4,2.4,0,0,0-2.4,2.5h0A2.5,2.5,0,0,0,169,104a3.1,3.1,0,0,0,1.8-.7l.3-.2a.6.6,0,0,1,.6.6.8.8,0,0,1-.2.5,3.9,3.9,0,0,1-2.6.9A3.6,3.6,0,0,1,165.3,101.5Z"/><path class="cls-7" d="M173.6,104.2l2.6-5.9a.8.8,0,0,1,.7-.5h.1a.9.9,0,0,1,.8.5l2.6,5.9v.2a.6.6,0,0,1-.6.6.5.5,0,0,1-.6-.4l-.6-1.3h-3.5l-.6,1.3a.5.5,0,0,1-.5.4c-.4,0-.6-.2-.6-.5A.4.4,0,0,1,173.6,104.2Zm4.6-2L177,99.3l-1.3,2.9Z"/><path class="cls-7" d="M183.6,99h-1.8a.5.5,0,0,1-.5-.5c0-.4.2-.6.5-.6h4.8c.3,0,.5.2.5.6a.5.5,0,0,1-.5.5h-1.8v5.4a.6.6,0,0,1-.6.6.5.5,0,0,1-.6-.6Z"/><path class="cls-7" d="M189.3,98.4a.6.6,0,0,1,.6-.6.6.6,0,0,1,.6.6v6a.5.5,0,0,1-.6.6.6.6,0,0,1-.6-.6Z"/><path class="cls-7" d="M192.9,101.5h0a3.8,3.8,0,0,1,7.5,0h0a3.7,3.7,0,0,1-3.8,3.7A3.6,3.6,0,0,1,192.9,101.5Zm6.2,0h0a2.5,2.5,0,1,0-4.9,0h0a2.6,2.6,0,0,0,2.5,2.6A2.5,2.5,0,0,0,199.1,101.5Z"/><path class="cls-7" d="M202.7,98.5a.7.7,0,0,1,.6-.7h.2c.3,0,.4.2.6.4l3.6,4.6V98.4a.6.6,0,0,1,.6-.6.6.6,0,0,1,.6.6v6a.6.6,0,0,1-.6.6h-.1a.7.7,0,0,1-.6-.3l-3.7-4.8v4.5a.5.5,0,0,1-.6.6.6.6,0,0,1-.6-.6Z"/><path class="cls-7" d="M211.4,104.2a.5.5,0,0,1-.3-.5.6.6,0,0,1,.6-.6h.4a3,3,0,0,0,2,.8c.7,0,1.2-.4,1.2-.9h0c0-.5-.3-.8-1.6-1.1s-2.3-.8-2.3-2.1h0c0-1.2,1-2,2.4-2a3.8,3.8,0,0,1,2.2.6.5.5,0,0,1,.3.5.6.6,0,0,1-.6.6h-.3a3.7,3.7,0,0,0-1.6-.5c-.8,0-1.2.4-1.2.8h0c0,.6.3.8,1.7,1.2s2.3.9,2.3,2h0c0,1.3-1.1,2.1-2.6,2.1A4.3,4.3,0,0,1,211.4,104.2Z"/><line class="cls-8" x1="234.1" y1="204.3" x2="173.2" y2="204.3"/><line class="cls-8" x1="302.7" y1="204.3" x2="286" y2="204.3"/><path class="cls-8" d="M279.5,186.3V56.4a8.2,8.2,0,0,0-8.2-8.2H257.8"/><path class="cls-8" d="M247.8,336.6h23.5a8.2,8.2,0,0,0,8.2-8.2V220.9"/><path class="cls-4" d="M238.3,189.9a25.7,25.7,0,0,0,3.8,32l-11.3,17.9a5.9,5.9,0,1,0,10,6.4L252.3,228a25.6,25.6,0,1,0-14-38.1Zm32.2-2.9a19.6,19.6,0,0,1,6,27,19.3,19.3,0,0,1-21.1,8.5,20.9,20.9,0,0,1-5.8-2.4,26,26,0,0,1-4-3.3A19.6,19.6,0,0,1,270.5,187Z"/><polyline class="cls-3" points="268.6 205.5 268.6 212.9 249.2 212.9 249.2 193.5 268.6 193.5"/><polyline class="cls-2" points="252.9 202.2 259.4 208.6 272.2 195.8"/></g></svg>