<?xml version="1.0" encoding="UTF-8" standalone="no"?>
<svg
   viewBox="0 0 400 400"
   version="1.1"
   id="svg81475"
   sodipodi:docname="features_remote_monitoring_zabbix.svg"
   inkscape:version="1.2.1 (9c6d41e410, 2022-07-14)"
   xmlns:inkscape="http://www.inkscape.org/namespaces/inkscape"
   xmlns:sodipodi="http://sodipodi.sourceforge.net/DTD/sodipodi-0.dtd"
   xmlns:xlink="http://www.w3.org/1999/xlink"
   xmlns="http://www.w3.org/2000/svg"
   xmlns:svg="http://www.w3.org/2000/svg">
  <sodipodi:namedview
     id="namedview81477"
     pagecolor="#ffffff"
     bordercolor="#000000"
     borderopacity="0.25"
     inkscape:showpageshadow="2"
     inkscape:pageopacity="0.0"
     inkscape:pagecheckerboard="0"
     inkscape:deskcolor="#d1d1d1"
     showgrid="false"
     inkscape:zoom="2.0925"
     inkscape:cx="198.80526"
     inkscape:cy="238.70968"
     inkscape:window-width="1350"
     inkscape:window-height="1040"
     inkscape:window-x="180"
     inkscape:window-y="38"
     inkscape:window-maximized="0"
     inkscape:current-layer="svg81475" />
  <defs
     id="defs81200">
    <style
       id="style81198">.cls-1,.cls-10,.cls-11,.cls-15,.cls-2,.cls-4,.cls-6,.cls-7,.cls-8,.cls-9{fill:none;}.cls-2,.cls-7{stroke:#3e4c70;}.cls-10,.cls-11,.cls-12,.cls-2,.cls-4,.cls-6,.cls-7,.cls-8,.cls-9{stroke-linecap:round;}.cls-10,.cls-11,.cls-12,.cls-15,.cls-2,.cls-4,.cls-6,.cls-7,.cls-8,.cls-9{stroke-linejoin:round;}.cls-10,.cls-11,.cls-12,.cls-15,.cls-2,.cls-4,.cls-6,.cls-9{stroke-width:2px;}.cls-3{fill:#d62128;}.cls-10,.cls-11,.cls-12,.cls-4,.cls-9{stroke:#158aff;}.cls-5{fill:#3e4c70;}.cls-15,.cls-6,.cls-8{stroke:#d62027;}.cls-7,.cls-8{stroke-width:3.7px;}.cls-9{stroke-dasharray:7.28 4.85;}.cls-10{stroke-dasharray:7.1 4.74;}.cls-11{stroke-dasharray:7.26 4.84;}.cls-12{fill:#fff;}.cls-13{fill:#158aff;}.cls-14{fill:#d62027;}</style>
    <clipPath
       id="SVGID_2_">
			<use
   xlink:href="#SVGID_1_"
   style="overflow:visible"
   id="use5534" />

		</clipPath>
    <clipPath
       id="clipPath78766">
			<use
   xlink:href="#SVGID_1_"
   style="overflow:visible"
   id="use78764" />

		</clipPath>
    <clipPath
       id="clipPath78770">
			<use
   xlink:href="#SVGID_1_"
   style="overflow:visible"
   id="use78768" />

		</clipPath>
    <clipPath
       id="clipPath78774">
			<use
   xlink:href="#SVGID_1_"
   style="overflow:visible"
   id="use78772" />

		</clipPath>
    <clipPath
       id="clipPath78778">
			<use
   xlink:href="#SVGID_1_"
   style="overflow:visible"
   id="use78776" />

		</clipPath>
    <clipPath
       id="clipPath78782">
			<use
   xlink:href="#SVGID_1_"
   style="overflow:visible"
   id="use78780" />

		</clipPath>
    <clipPath
       id="clipPath78786">
			<use
   xlink:href="#SVGID_1_"
   style="overflow:visible"
   id="use78784" />

		</clipPath>
    <rect
       id="SVGID_1_"
       y="0"
       width="168"
       height="44"
       x="0" />
  </defs>
  <path
     class="cls-1"
     d="M 27.9,367.5 V 291.8 A 3.8,3.8 0 0 1 31.8,288 H 136 a 3.8,3.8 0 0 1 3.8,3.8 v 75.7"
     id="path81202" />
  <line
     class="cls-2"
     x1="139.8"
     y1="320.10001"
     x2="139.8"
     y2="367.5"
     id="line81204" />
  <path
     class="cls-2"
     d="m 27.9,367.5 v -75.7 a 3.8,3.8 0 0 1 3.9,-3.8 h 72.5"
     id="path81206" />
  <path
     class="cls-2"
     d="m 154.1,367.5 a 12,12 0 0 1 -11.9,11.9 H 25.5 A 11.9,11.9 0 0 1 13.6,367.5 h 58.5 v 1.6 a 3.2,3.2 0 0 0 3.2,3.2 h 17.1 a 3.2,3.2 0 0 0 3.2,-3.2 v -1.6 z"
     id="path81208" />
  <polyline
     class="cls-2"
     points="132.8 324.7 132.8 360 35 360 35 295.5 104.3 295.5"
     id="polyline81210" />
  <path
     class="cls-4"
     d="m 110.7,61.8 -3.8,0.4 a 16.7,16.7 0 0 0 -3.1,-2.8 l 0.2,-3.9 -5.1,-1.9 -2.4,3.1 a 11.9,11.9 0 0 0 -4.2,0.2 l -2.6,-2.9 -4.9,2.3 0.5,3.8 a 13.8,13.8 0 0 0 -2.8,3.1 l -3.9,-0.2 -1.9,5.1 3.1,2.4 a 14,14 0 0 0 0.2,4.1 l -2.9,2.7 2.2,4.9 3.9,-0.5 a 19.9,19.9 0 0 0 3,2.8 v 2.8 m 19.1,0.4 -0.5,-3.9 a 13.8,13.8 0 0 0 2.8,-3.1 l 4,0.2 M 98.3,63.1 a 9.4,9.4 0 1 1 -12.1,5.6 9.4,9.4 0 0 1 12.1,-5.6 z"
     id="path81214" />
  <path
     class="cls-5"
     d="M 110.7,13.4 V 87.1 H 30.9 V 13.4 h 79.8 m 0,-2 H 30.9 a 2,2 0 0 0 -2,2 v 73.7 a 2,2 0 0 0 2,2 h 79.8 a 2,2 0 0 0 2,-2 V 13.4 a 2,2 0 0 0 -2,-2 z"
     id="path81216" />
  <line
     class="cls-2"
     x1="30.6"
     y1="26.200001"
     x2="111.2"
     y2="26.200001"
     id="line81218" />
  <line
     class="cls-2"
     x1="83.400002"
     y1="20"
     x2="86.900002"
     y2="20"
     id="line81220" />
  <line
     class="cls-2"
     x1="91.900002"
     y1="20"
     x2="95.5"
     y2="20"
     id="line81222" />
  <line
     class="cls-6"
     x1="100.4"
     y1="20"
     x2="104"
     y2="20"
     id="line81224" />
  <line
     class="cls-2"
     x1="61.700001"
     y1="40.400002"
     x2="103.2"
     y2="40.400002"
     id="line81226" />
  <polyline
     class="cls-4"
     points="52.6 45.7 52.6 49.6 40.6 49.6 40.6 37.6 51.2 37.6"
     id="polyline81228" />
  <polyline
     class="cls-6"
     points="43.5 42.7 47 46.2 53.8 39.5"
     id="polyline81230" />
  <line
     class="cls-2"
     x1="61.700001"
     y1="47.400002"
     x2="95.599998"
     y2="47.400002"
     id="line81232" />
  <line
     class="cls-2"
     x1="61.700001"
     y1="64.900002"
     x2="68.800003"
     y2="64.900002"
     id="line81234" />
  <polyline
     class="cls-4"
     points="52.6 70.2 52.6 74 40.6 74 40.6 62 51.2 62"
     id="polyline81236" />
  <polyline
     class="cls-6"
     points="43.5 67.2 47 70.7 53.8 63.9"
     id="polyline81238" />
  <line
     class="cls-2"
     x1="61.700001"
     y1="71.800003"
     x2="68.5"
     y2="71.800003"
     id="line81240" />
  <rect
     class="cls-2"
     x="144.10001"
     y="159"
     width="50.700001"
     height="14.47"
     id="rect81242" />
  <rect
     class="cls-2"
     x="169.5"
     y="173.39999"
     width="25.299999"
     height="14.47"
     id="rect81244" />
  <rect
     class="cls-2"
     x="144.10001"
     y="173.39999"
     width="25.299999"
     height="14.47"
     id="rect81246" />
  <rect
     class="cls-2"
     x="144.10001"
     y="187.89999"
     width="50.700001"
     height="14.47"
     id="rect81248" />
  <rect
     class="cls-2"
     x="144.10001"
     y="216.8"
     width="50.700001"
     height="14.47"
     id="rect81250" />
  <rect
     class="cls-2"
     x="169.5"
     y="202.39999"
     width="25.299999"
     height="14.47"
     id="rect81252" />
  <rect
     class="cls-2"
     x="118.8"
     y="202.39999"
     width="50.700001"
     height="14.47"
     id="rect81254" />
  <rect
     class="cls-2"
     x="93.5"
     y="187.89999"
     width="50.700001"
     height="14.47"
     id="rect81256" />
  <rect
     class="cls-2"
     x="93.5"
     y="216.8"
     width="50.700001"
     height="14.47"
     id="rect81258" />
  <rect
     class="cls-2"
     x="93.5"
     y="202.39999"
     width="25.299999"
     height="14.47"
     id="rect81260" />
  <polygon
     class="cls-7"
     points="144.1,187.9 93.5,187.9 93.5,202.4 93.5,202.4 93.5,216.8 93.5,216.8 93.5,231.3 144.1,231.3 194.8,231.3 194.8,216.8 194.8,202.4 194.8,187.9 194.8,173.4 194.8,159 144.1,159 144.1,173.4 "
     id="polygon81262" />
  <path
     class="cls-8"
     d="m 114.3,178 0.4,-0.3 c 3.2,-1.9 4.4,-4.8 4.2,-8.4 a 8.5,8.5 0 0 0 -0.6,-3.1 c -1.5,-3.7 -5.1,-5.3 -9.1,-4.1 a 8,8 0 0 1 -4.1,0.5 c -3.1,-0.4 -4.8,-2.4 -5.7,-5.3 a 12.8,12.8 0 0 1 0.1,-7 c 0.1,-0.3 0.1,-0.6 0.2,-0.8 v -0.2 c -4.5,4.2 -7.1,9.2 -7,15.3 a 16.6,16.6 0 0 0 8,14.6 v 0.2 c -1.9,-0.7 -3.8,-1.2 -5.6,-2 A 21.9,21.9 0 0 1 84.5,169.3 C 81,164.1 80.3,158.4 81.6,152.4 a 22.9,22.9 0 0 1 7.6,-12.8 c 2.9,-2.6 6.1,-4.9 9,-7.5 a 34.1,34.1 0 0 0 4.7,-4.6 13.7,13.7 0 0 0 2.9,-11.5 c -0.4,-2.2 -1,-4.4 -1.5,-6.8 l 4.7,3.5 c 3.3,2.7 5.9,5.8 7.1,9.9 a 14.8,14.8 0 0 1 -3.4,14.9 6.8,6.8 0 0 0 -2,3.6 4.7,4.7 0 0 0 5.3,5.3 6.1,6.1 0 0 0 5.4,-6.1 38.4,38.4 0 0 1 0.2,-5.9 c 0.5,-4.3 3.9,-7.1 8.3,-7.2 l -1,2.4 a 9,9 0 0 0 0.5,7.2 l 2.8,4.8 a 18.4,18.4 0 0 1 3.4,9 c 0.6,8.2 -1.8,15.3 -8.2,20.8 a 31.2,31.2 0 0 1 -12.6,6.6 z"
     id="path81264" />
  <line
     class="cls-4"
     x1="173.10001"
     y1="153.60001"
     x2="173.10001"
     y2="149.89999"
     id="line81266" />
  <path
     class="cls-9"
     d="M 173.1,145.1 V 59.7 C 173.1,50 180.4,42 189.5,42 h 43"
     id="path81268" />
  <line
     class="cls-4"
     x1="235"
     y1="42"
     x2="238.60001"
     y2="42"
     id="line81270" />
  <line
     class="cls-4"
     x1="173.10001"
     y1="240.5"
     x2="173.10001"
     y2="244.10001"
     id="line81272" />
  <path
     class="cls-10"
     d="m 173.1,248.8 v 83.4 c 0,9.8 7.3,17.7 16.4,17.7 h 41.4"
     id="path81274" />
  <line
     class="cls-4"
     x1="233.2"
     y1="349.89999"
     x2="236.89999"
     y2="349.89999"
     id="line81276" />
  <path
     class="cls-11"
     d="m 48.7,282.2 v -56.9 c 0,-9.8 7.4,-17.7 16.5,-17.7 h 20.3"
     id="path81278" />
  <path
     class="cls-11"
     d="m 47.1,94.4 v 33.3 c 0,9.8 7.4,17.7 16.5,17.7 h 11.9"
     id="path81280" />
  <line
     class="cls-12"
     x1="311.79999"
     y1="354.10001"
     x2="339.29999"
     y2="354.10001"
     id="line81282" />
  <path
     class="cls-13"
     d="m 344.1,351 a 3.1,3.1 0 1 1 -3.1,3.1 3.1,3.1 0 0 1 3.1,-3.1 m 0,-2 a 5.1,5.1 0 1 0 5.1,5.1 5.1,5.1 0 0 0 -5.1,-5.1 z"
     id="path81284" />
  <polyline
     class="cls-2"
     points="333.9 337.9 327.1 344.7 311.8 344.7"
     id="polyline81286" />
  <path
     class="cls-5"
     d="m 337,331.6 a 2.8,2.8 0 0 1 2.2,1 3.1,3.1 0 0 1 0,4.4 3.1,3.1 0 0 1 -4.4,0 3.1,3.1 0 0 1 0,-4.4 2.8,2.8 0 0 1 2.2,-1 m 0,-2 a 5.3,5.3 0 0 0 -3.6,1.5 5.2,5.2 0 0 0 0,7.3 4.9,4.9 0 0 0 3.6,1.5 4.8,4.8 0 0 0 3.6,-1.5 5.2,5.2 0 0 0 -3.6,-8.8 z"
     id="path81288" />
  <polyline
     class="cls-2"
     points="335 378.1 335 363.5 311.8 363.5"
     id="polyline81290" />
  <path
     class="cls-5"
     d="m 335,380.4 a 3.1,3.1 0 0 1 2.2,0.9 3.1,3.1 0 0 1 0,4.4 3.1,3.1 0 0 1 -4.4,0 3,3 0 0 1 0,-4.4 3.1,3.1 0 0 1 2.2,-0.9 m 0,-2 a 5.1,5.1 0 0 0 -3.7,1.5 5.1,5.1 0 0 0 0,7.2 5.1,5.1 0 0 0 3.7,1.5 5.1,5.1 0 0 0 0,-10.2 z"
     id="path81292" />
  <circle
     class="cls-2"
     cx="273.10001"
     cy="349.29999"
     r="30.4"
     id="circle81294" />
  <path
     class="cls-14"
     d="m 283.4,342.3 a 3.8,3.8 0 0 1 3.8,3.8 v 13.7 a 3.8,3.8 0 0 1 -3.8,3.7 h -20.6 a 3.8,3.8 0 0 1 -3.8,-3.7 v -13.7 a 3.8,3.8 0 0 1 3.8,-3.8 h 20.6 m 0,-2 h -20.6 a 5.8,5.8 0 0 0 -5.8,5.8 v 13.7 a 5.8,5.8 0 0 0 5.8,5.7 h 20.6 a 5.8,5.8 0 0 0 5.8,-5.7 v -13.7 a 5.8,5.8 0 0 0 -5.8,-5.8 z"
     id="path81296" />
  <path
     class="cls-15"
     d="m 265.5,342 v -5.1 a 7.7,7.7 0 0 1 7.6,-7.7 v 0 a 7.7,7.7 0 0 1 7.6,7.7 v 5.1"
     id="path81298" />
  <path
     class="cls-6"
     d="m 276.2,350.4 a 3.1,3.1 0 1 0 -6.2,0 3.3,3.3 0 0 0 1.4,2.6 v 4.4 a 1.7,1.7 0 1 0 3.4,0 V 353 a 3.3,3.3 0 0 0 1.4,-2.6 z"
     id="path81300" />
  <path
     class="cls-2"
     d="m 225.7,265.2 a 11.1,11.1 0 0 1 7.8,-4.5 10.6,10.6 0 0 1 5.8,0.7 11.8,11.8 0 0 1 23.3,-0.8 11.9,11.9 0 0 1 11,12.6 12,12 0 0 1 -11.8,11 h -18.7"
     id="path81302" />
  <path
     class="cls-6"
     d="m 267.5,270 a 8.6,8.6 0 0 1 -8.7,8.6 h -10.9"
     id="path81304" />
  <path
     class="cls-6"
     d="m 213.8,271.9 v 7.3 c 0,3.5 6.6,6.3 14.5,6.3 7.9,0 14.4,-2.8 14.4,-6.3 v -7.3"
     id="path81306" />
  <path
     class="cls-6"
     d="m 228.3,265.5 c -8,0 -14.5,2.9 -14.5,6.4 0,3.5 6.5,6.4 14.5,6.4 8,0 14.4,-2.9 14.4,-6.4 0,-3.5 -6.5,-6.4 -14.4,-6.4"
     id="path81308" />
  <path
     class="cls-2"
     d="m 213.8,279.2 v 7.3 c 0,3.4 6.6,6.3 14.5,6.3 7.9,0 14.4,-2.9 14.4,-6.3 v -7.3"
     id="path81310" />
  <path
     class="cls-2"
     d="m 213.8,286.5 v 7.2 c 0,3.5 6.6,6.4 14.5,6.4 7.9,0 14.4,-2.9 14.4,-6.4 v -7.2"
     id="path81312" />
  <path
     class="cls-2"
     d="m 213.8,271.9 v 7.3 c 0,3.5 6.6,6.3 14.5,6.3 7.9,0 14.4,-2.8 14.4,-6.3 v -7.3"
     id="path81314" />
  <path
     class="cls-2"
     d="m 228.3,265.5 c -8,0 -14.5,2.9 -14.5,6.4 0,3.5 6.5,6.4 14.5,6.4 8,0 14.4,-2.9 14.4,-6.4 0,-3.5 -6.5,-6.4 -14.4,-6.4"
     id="path81316" />
  <path
     class="cls-2"
     d="m 213.8,286.5 c 0,3.5 6.5,6.3 14.5,6.3 8,0 14.4,-2.8 14.4,-6.3"
     id="path81318" />
  <path
     class="cls-2"
     d="m 342.3,143.4 v 4 h -10.9 a 9.2,9.2 0 0 0 -9.1,9.2 v 4.6 h -3.8 v 6.7 h -1.1 a 5.2,5.2 0 0 0 -5.2,5.2 v 0 a 5.2,5.2 0 0 0 5.2,5.2 h 2.7 a 2.3,2.3 0 0 0 2.3,-2.4 v 0 a 2.4,2.4 0 0 1 2.4,-2.4 h 4.8 l 5.7,5.7 a 4.3,4.3 0 0 1 0,6 v 0 a 4.4,4.4 0 0 1 -6,0 l -2.1,-2.2 h -8.6 a 13.3,13.3 0 0 0 -13.3,13.3 v 0 a 13.3,13.3 0 0 0 13.3,13.4 h 5.2 l 5.3,5.3 v 16.7 a 3.8,3.8 0 0 0 3.7,3.7 h 3 l 11.9,-11.9 v -11.4 l 8.4,-8.5 v -4.5 H 352 a 2.4,2.4 0 0 1 -2.4,-2.4 v 0 a 2.3,2.3 0 0 1 2.4,-2.3 h 3.2 a 3.3,3.3 0 0 0 3.3,-3.3 v 0 a 3.4,3.4 0 0 1 3.4,-3.4 h 7.4"
     id="path81320" />
  <line
     class="cls-2"
     x1="352.10001"
     y1="226.2"
     x2="346.5"
     y2="231.89999"
     id="line81322" />
  <path
     class="cls-2"
     d="m 295.9,139.6 h 18 a 14.1,14.1 0 0 1 -4.1,9.9 v 0 a 7.1,7.1 0 0 1 -4.9,2.1 h -0.5 a 7.1,7.1 0 0 1 -5.3,-2.4 l -5,-5.8 a 2.3,2.3 0 0 1 1.8,-3.8 z"
     id="path81324" />
  <path
     class="cls-2"
     d="m 290,227.7 -3.1,3.1 v 13.7 l -10.8,-10.8 v -6.8 a 5.2,5.2 0 0 0 -5.2,-5.2 v 0 a 5.3,5.3 0 0 1 -5.3,-5.2 v 0 a 20.4,20.4 0 0 0 -5.9,-14.4 l -10.3,-10.2"
     id="path81326" />
  <path
     class="cls-2"
     d="m 275.5,177.2 v 8.9 h -4.1 v -6.5 l -7.9,7.9 v 7.2 a 4.4,4.4 0 0 0 4.4,4.4 h 13.7 l 8.8,8.9 v 0 a 5,5 0 0 1 5.1,5 v 9.2"
     id="path81328" />
  <path
     class="cls-2"
     d="m 269.4,147.1 h 7.4 a 5.6,5.6 0 0 1 5.6,5.6 h 11.8 v 7.1 a 8.7,8.7 0 0 1 -8.7,8.6 h -0.7 l -1.9,2"
     id="path81330" />
  <polyline
     class="cls-2"
     points="272.5 192.3 280.1 192.3 280.1 195.1 284.7 195.1"
     id="polyline81332" />
  <path
     class="cls-15"
     d="m 274.1,174 a 4.5,4.5 0 0 1 5.2,-5.2 4.6,4.6 0 1 1 -5.2,5.2 z"
     id="path81334" />
  <path
     class="cls-15"
     d="m 285.5,223.2 a 4.6,4.6 0 0 1 5.3,-5.2 4.6,4.6 0 0 1 3.7,3.8 4.5,4.5 0 0 1 -5.2,5.2 4.6,4.6 0 0 1 -3.8,-3.8 z"
     id="path81336" />
  <ellipse
     class="cls-15"
     cx="131.57713"
     cy="351.88071"
     rx="4.5999999"
     ry="4.5"
     transform="rotate(-45)"
     id="ellipse81338" />
  <ellipse
     class="cls-7"
     cx="82.076408"
     cy="354.67984"
     rx="60.299999"
     ry="60.200001"
     transform="rotate(-45.1)"
     id="ellipse81340" />
  <polyline
     class="cls-4"
     points="210.7 173 205.8 177.9 210.7 182.9"
     id="polyline81342" />
  <polyline
     class="cls-4"
     points="210.7 212.3 205.8 207.3 210.7 202.4"
     id="polyline81344" />
  <line
     class="cls-2"
     x1="239"
     y1="105.8"
     x2="239"
     y2="98.900002"
     id="line81346" />
  <line
     class="cls-2"
     x1="239"
     y1="119"
     x2="239"
     y2="112.1"
     id="line81348" />
  <rect
     class="cls-4"
     x="228.89999"
     y="88.199997"
     width="19.299999"
     height="10.74"
     rx="2.5999999"
     id="rect81350" />
  <rect
     class="cls-2"
     x="253.5"
     y="118.9"
     width="14.9"
     height="10.74"
     rx="2.5999999"
     id="rect81352" />
  <rect
     class="cls-4"
     x="231.60001"
     y="118.9"
     width="14.9"
     height="10.74"
     rx="2.5999999"
     id="rect81354" />
  <rect
     class="cls-2"
     x="210"
     y="118.9"
     width="14.9"
     height="10.74"
     rx="2.5999999"
     id="rect81356" />
  <polyline
     class="cls-2"
     points="236.1 108.9 217.5 108.9 217.5 118.9"
     id="polyline81358" />
  <polyline
     class="cls-2"
     points="261 118.9 261 108.9 242 108.9"
     id="polyline81360" />
  <line
     class="cls-6"
     x1="234.8"
     y1="95.199997"
     x2="242.3"
     y2="95.199997"
     id="line81362" />
  <line
     class="cls-6"
     x1="234.8"
     y1="91.900002"
     x2="242.3"
     y2="91.900002"
     id="line81364" />
  <line
     class="cls-6"
     x1="236.39999"
     y1="122.6"
     x2="241.7"
     y2="122.6"
     id="line81366" />
  <line
     class="cls-4"
     x1="214.89999"
     y1="122.6"
     x2="220.10001"
     y2="122.6"
     id="line81368" />
  <line
     class="cls-4"
     x1="258.29999"
     y1="122.6"
     x2="263.60001"
     y2="122.6"
     id="line81370" />
  <line
     class="cls-6"
     x1="236.39999"
     y1="125.9"
     x2="241.7"
     y2="125.9"
     id="line81372" />
  <line
     class="cls-4"
     x1="214.89999"
     y1="125.9"
     x2="220.10001"
     y2="125.9"
     id="line81374" />
  <line
     class="cls-4"
     x1="258.29999"
     y1="125.9"
     x2="263.60001"
     y2="125.9"
     id="line81376" />
  <path
     class="cls-2"
     d="m 236.3,109.6 a 2.8,2.8 0 0 1 3.4,-3.4 2.7,2.7 0 0 1 2,2 2.8,2.8 0 0 1 -3.4,3.4 3.3,3.3 0 0 1 -2,-2 z"
     id="path81378" />
  <rect
     class="cls-2"
     x="354.70001"
     y="75.900002"
     width="27"
     height="42.919998"
     rx="7.3000002"
     id="rect81380" />
  <path
     class="cls-2"
     d="m 346.5,129.7 h 43.4"
     id="path81382" />
  <line
     class="cls-2"
     x1="368.20001"
     y1="119.1"
     x2="368.20001"
     y2="129.7"
     id="line81384" />
  <path
     class="cls-6"
     d="m 365.9,110.3 a 2.5,2.5 0 0 1 3.2,-3.2 2.5,2.5 0 0 1 1.4,1.3 2.5,2.5 0 0 1 -3.2,3.2 2.5,2.5 0 0 1 -1.4,-1.3 z"
     id="path81386" />
  <line
     class="cls-6"
     x1="359.79999"
     y1="84.900002"
     x2="376.60001"
     y2="84.900002"
     id="line81388" />
  <line
     class="cls-6"
     x1="359.79999"
     y1="91.599998"
     x2="376.60001"
     y2="91.599998"
     id="line81390" />
  <line
     class="cls-2"
     x1="359.79999"
     y1="98.199997"
     x2="376.60001"
     y2="98.199997"
     id="line81392" />
  <rect
     class="cls-2"
     x="341.20001"
     y="284.70001"
     width="38.700001"
     height="9.6999998"
     rx="4.4000001"
     id="rect81394" />
  <line
     class="cls-4"
     x1="346.89999"
     y1="289.5"
     x2="366"
     y2="289.5"
     id="line81396" />
  <line
     class="cls-6"
     x1="371.10001"
     y1="289.60001"
     x2="375.89999"
     y2="289.60001"
     id="line81398" />
  <rect
     class="cls-2"
     x="341.20001"
     y="270.10001"
     width="38.700001"
     height="9.6999998"
     rx="4.4000001"
     id="rect81400" />
  <line
     class="cls-4"
     x1="346.89999"
     y1="274.89999"
     x2="366.20001"
     y2="274.89999"
     id="line81402" />
  <line
     class="cls-6"
     x1="371.10001"
     y1="274.89999"
     x2="375.89999"
     y2="274.89999"
     id="line81404" />
  <rect
     class="cls-2"
     x="341.20001"
     y="255.39999"
     width="38.700001"
     height="9.6999998"
     rx="4.4000001"
     id="rect81406" />
  <line
     class="cls-4"
     x1="346.89999"
     y1="260.29999"
     x2="366.20001"
     y2="260.5"
     id="line81408" />
  <line
     class="cls-6"
     x1="371.20001"
     y1="260.5"
     x2="375.89999"
     y2="260.5"
     id="line81410" />
  <path
     class="cls-2"
     d="m 363.8,304 h 14"
     id="path81412" />
  <path
     class="cls-2"
     d="m 343.2,304 h 14"
     id="path81414" />
  <line
     class="cls-2"
     x1="360.5"
     y1="295.60001"
     x2="360.5"
     y2="301.39999"
     id="line81416" />
  <path
     class="cls-2"
     d="m 357.9,304.7 a 2.6,2.6 0 0 1 3.1,-3.2 2.5,2.5 0 0 1 2.1,2.1 2.7,2.7 0 1 1 -5.2,1.1 z"
     id="path81418" />
  <path
     class="cls-11"
     d="m 334.4,268.1 a 85.8,85.8 0 0 1 -22.9,4 79.4,79.4 0 0 1 -35.4,-7.3"
     id="path81420" />
  <path
     class="cls-11"
     d="m 369.4,140 a 79.8,79.8 0 0 1 -3,108.1"
     id="path81422" />
  <path
     class="cls-11"
     d="m 279.3,118.2 a 79.9,79.9 0 0 1 32.5,-5.7 79,79 0 0 1 36.4,10.1"
     id="path81424" />
  <path
     class="cls-11"
     d="m 249.6,139.2 a 78.9,78.9 0 0 0 -18,34.2 5.9,5.9 0 0 1 -5.8,4.5 h -19.4"
     id="path81426" />
  <path
     class="cls-11"
     d="M 248.9,244.5 A 80.5,80.5 0 0 1 231.8,211.9 6.1,6.1 0 0 0 226,207.3 H 206.4"
     id="path81428" />
  <rect
     class="cls-2"
     x="242.7"
     y="13.4"
     width="72.800003"
     height="52.869999"
     id="rect81430" />
  <polyline
     class="cls-6"
     points="280.2 24.2 286.9 30.9 280.2 37.6"
     id="polyline81432" />
  <polyline
     class="cls-6"
     points="259.5 24.2 252.8 30.9 259.5 37.6"
     id="polyline81434" />
  <line
     class="cls-6"
     x1="275.89999"
     y1="20.200001"
     x2="263.79999"
     y2="41.700001"
     id="line81436" />
  <line
     class="cls-4"
     x1="262.39999"
     y1="47.900002"
     x2="251.8"
     y2="47.900002"
     id="line81438" />
  <line
     class="cls-2"
     x1="284.39999"
     y1="47.900002"
     x2="269.10001"
     y2="47.900002"
     id="line81440" />
  <line
     class="cls-2"
     x1="306.5"
     y1="47.900002"
     x2="291.10001"
     y2="47.900002"
     id="line81442" />
  <line
     class="cls-2"
     x1="270.29999"
     y1="57.799999"
     x2="251.8"
     y2="57.799999"
     id="line81444" />
  <line
     class="cls-4"
     x1="300.20001"
     y1="57.799999"
     x2="277"
     y2="57.799999"
     id="line81446" />
  <path
     class="cls-6"
     d="m 142.7,266.7 a 42.9,42.9 0 0 1 -12.7,-6.9 44.2,44.2 0 0 1 -12.7,6.9 42.8,42.8 0 0 1 -12.5,2.4 V 297 a 22.8,22.8 0 0 0 10.9,19.7 l 12,7.8 a 4.3,4.3 0 0 0 4.6,0 l 12,-7.8 a 23.1,23.1 0 0 0 7.3,-7.3 23.5,23.5 0 0 0 3.5,-12.4 v -27.9 a 42.3,42.3 0 0 1 -12.4,-2.4 z"
     id="path81448" />
  <path
     class="cls-4"
     d="m 122.8,278.3 a 3,3 0 0 1 -1.3,4.9 3,3 0 0 1 -3.3,-0.8 3,3 0 0 1 1.3,-4.9 3.1,3.1 0 0 1 3.3,0.8 z"
     id="path81450" />
  <path
     class="cls-4"
     d="m 125,293.1 a 10.3,10.3 0 0 1 -11.7,-4.6 10.4,10.4 0 1 1 18.6,-1.6"
     id="path81452" />
  <path
     class="cls-4"
     d="m 125,293.1 9.4,15.7 5.9,1.4 4,-2.4 -2.5,-4.2 v 0 a 2.3,2.3 0 0 1 -3,-0.8 v -0.2 a 2.2,2.2 0 0 1 0.7,-3 h 0.1 l -1.4,-2.3 v 0 a 2.2,2.2 0 0 1 -3,-0.8 1.8,1.8 0 0 1 -0.2,-1.6 2,2 0 0 1 0.9,-1.3 h 0.1 l -4,-6.9"
     id="path81454" />
  <line
     class="cls-4"
     x1="128.5"
     y1="291.70001"
     x2="136.8"
     y2="305.39999"
     id="line81456" />
  <rect
     class="cls-2"
     x="23.4"
     y="160.3"
     width="6.6999998"
     height="13.61"
     rx="3.4000001"
     id="rect81458" />
  <rect
     class="cls-4"
     x="10.1"
     y="160.3"
     width="6.6999998"
     height="13.61"
     rx="3.4000001"
     id="rect81460" />
  <path
     class="cls-2"
     d="m 36.1,163.1 a 34.4,34.4 0 0 1 2.7,-2.7 v 13.5"
     id="path81462" />
  <rect
     class="cls-2"
     x="10.1"
     y="182.2"
     width="6.6999998"
     height="13.61"
     rx="3.4000001"
     id="rect81464" />
  <rect
     class="cls-2"
     x="44.599998"
     y="160.3"
     width="6.6999998"
     height="13.61"
     rx="3.4000001"
     id="rect81466" />
  <rect
     class="cls-2"
     x="44.599998"
     y="182.2"
     width="6.6999998"
     height="13.61"
     rx="3.4000001"
     id="rect81468" />
  <path
     class="cls-4"
     d="m 22.7,184.9 a 32.5,32.5 0 0 1 2.7,-2.6 v 13.4"
     id="path81470" />
  <rect
     class="cls-4"
     x="32"
     y="182.2"
     width="6.6999998"
     height="13.61"
     rx="3.4000001"
     id="rect81472" />
  <g
     id="g5553"
     transform="matrix(0.37288573,0,0,0.37288573,52.577599,318.60004)">
	<g
   id="g5551">
		<defs
   id="defs5532">
			<rect
   id="rect82172"
   y="0"
   width="168"
   height="44"
   x="0" />

		</defs>

		<clipPath
   id="clipPath78794">
			<use
   xlink:href="#SVGID_1_"
   style="overflow:visible"
   id="use78792" />

		</clipPath>

		<rect
   x="0"
   y="0"
   class="st0"
   width="168"
   height="44"
   clip-path="url(#SVGID_2_)"
   id="rect5537"
   style="fill:#d40000" />

		<polygon
   class="st1"
   points="26.3,10.2 7.2,10.2 7.2,6.7 31.5,6.7 31.5,9.9 11.9,33.8 32,33.8 32,37.3 6.7,37.3 6.7,34.1 "
   clip-path="url(#SVGID_2_)"
   id="polygon5539"
   style="fill:#ffffff" />

		<path
   class="st1"
   d="M 48.4,10.8 42.7,26 H 54.1 Z M 46,6.7 h 4.7 l 11.8,30.6 h -4.3 l -2.8,-7.8 h -14 l -2.8,7.8 h -4.4 z"
   clip-path="url(#SVGID_2_)"
   id="path5541"
   style="fill:#ffffff" />

		<path
   class="st1"
   d="m 71.2,22.7 v 11.2 h 6.7 c 2.3,0 3.9,-0.5 5,-1.4 1.1,-0.9 1.6,-2.3 1.6,-4.2 0,-1.9 -0.5,-3.3 -1.6,-4.2 -1.1,-0.9 -2.8,-1.4 -5,-1.4 z m 0,-12.6 v 9.2 h 6.2 c 2,0 3.6,-0.4 4.6,-1.1 1,-0.8 1.5,-1.9 1.5,-3.5 C 83.5,13.2 83,12 82,11.2 81,10.4 79.5,10.1 77.4,10.1 Z M 67,6.7 h 10.7 c 3.2,0 5.6,0.7 7.4,2 1.7,1.3 2.6,3.2 2.6,5.6 0,1.9 -0.4,3.4 -1.3,4.5 -0.9,1.1 -2.2,1.8 -3.9,2.1 2.1,0.4 3.7,1.3 4.8,2.7 1.1,1.4 1.7,3.1 1.7,5.2 0,2.7 -0.9,4.8 -2.8,6.3 -1.9,1.5 -4.5,2.2 -8,2.2 H 67 Z"
   clip-path="url(#SVGID_2_)"
   id="path5543"
   style="fill:#ffffff" />

		<path
   class="st1"
   d="m 99.9,22.7 v 11.2 h 6.7 c 2.2,0 3.9,-0.5 5,-1.4 1.1,-0.9 1.6,-2.3 1.6,-4.2 0,-1.9 -0.5,-3.3 -1.6,-4.2 -1.1,-0.9 -2.8,-1.4 -5,-1.4 z m 0,-12.6 v 9.2 h 6.2 c 2,0 3.6,-0.4 4.6,-1.1 1,-0.8 1.5,-1.9 1.5,-3.5 0,-1.5 -0.5,-2.7 -1.5,-3.5 -1,-0.8 -2.5,-1.1 -4.6,-1.1 z M 95.7,6.7 h 10.7 c 3.2,0 5.6,0.7 7.4,2 1.7,1.3 2.6,3.2 2.6,5.6 0,1.9 -0.4,3.4 -1.3,4.5 -0.9,1.1 -2.2,1.8 -3.9,2.1 2.1,0.4 3.7,1.3 4.8,2.7 1.1,1.4 1.7,3.1 1.7,5.2 0,2.7 -0.9,4.8 -2.8,6.3 -1.9,1.5 -4.5,2.2 -8,2.2 H 95.7 Z"
   clip-path="url(#SVGID_2_)"
   id="path5545"
   style="fill:#ffffff" />

		<polygon
   class="st1"
   points="148.2,24.5 139.7,37.3 135.2,37.3 146,21.1 136.4,6.7 141,6.7 148.3,17.7 155.7,6.7 160.1,6.7 150.5,21 161.3,37.3 156.7,37.3 "
   clip-path="url(#SVGID_2_)"
   id="polygon5547"
   style="fill:#ffffff" />

		<rect
   x="124.3"
   y="6.6999998"
   class="st1"
   width="4.1999998"
   height="30.6"
   clip-path="url(#SVGID_2_)"
   id="rect5549"
   style="fill:#ffffff" />

	</g>

</g>
</svg>
