<?xml version="1.0" encoding="UTF-8" standalone="no"?>
<svg
   viewBox="0 0 400 400"
   version="1.1"
   id="svg116260"
   sodipodi:docname="features_Out-of-the-box_templates_zabbix.svg"
   inkscape:version="1.2.1 (9c6d41e410, 2022-07-14)"
   xmlns:inkscape="http://www.inkscape.org/namespaces/inkscape"
   xmlns:sodipodi="http://sodipodi.sourceforge.net/DTD/sodipodi-0.dtd"
   xmlns:xlink="http://www.w3.org/1999/xlink"
   xmlns="http://www.w3.org/2000/svg"
   xmlns:svg="http://www.w3.org/2000/svg">
  <sodipodi:namedview
     id="namedview116262"
     pagecolor="#ffffff"
     bordercolor="#000000"
     borderopacity="0.25"
     inkscape:showpageshadow="2"
     inkscape:pageopacity="0.0"
     inkscape:pagecheckerboard="0"
     inkscape:deskcolor="#d1d1d1"
     showgrid="false"
     inkscape:zoom="8.37"
     inkscape:cx="186.26045"
     inkscape:cy="237.4552"
     inkscape:window-width="1350"
     inkscape:window-height="1040"
     inkscape:window-x="279"
     inkscape:window-y="27"
     inkscape:window-maximized="0"
     inkscape:current-layer="svg116260" />
  <defs
     id="defs116013">
    <style
       id="style116011">.cls-1,.cls-2,.cls-3,.cls-5,.cls-8{fill:none;}.cls-1{stroke:#158aff;}.cls-1,.cls-2,.cls-3,.cls-5{stroke-linecap:round;stroke-linejoin:round;}.cls-1,.cls-2,.cls-3{stroke-width:2px;}.cls-2,.cls-5{stroke:#3e4c70;}.cls-3{stroke:#d62027;}.cls-4{fill:#d62027;}.cls-5{stroke-width:3.7px;}.cls-6{fill:#d62128;}.cls-7{fill:#3e4c70;}.cls-9{fill:#158aff;}</style>
    <clipPath
       id="SVGID_2_-6">
      <use
         xlink:href="#SVGID_1_"
         style="overflow:visible"
         id="use54276-6" />
    </clipPath>
    <clipPath
       id="clipPath113942">
      <use
         xlink:href="#SVGID_1_"
         style="overflow:visible"
         id="use113940" />
    </clipPath>
    <clipPath
       id="clipPath113946">
      <use
         xlink:href="#SVGID_1_"
         style="overflow:visible"
         id="use113944" />
    </clipPath>
    <clipPath
       id="clipPath113950">
      <use
         xlink:href="#SVGID_1_"
         style="overflow:visible"
         id="use113948" />
    </clipPath>
    <clipPath
       id="clipPath113954">
      <use
         xlink:href="#SVGID_1_"
         style="overflow:visible"
         id="use113952" />
    </clipPath>
    <clipPath
       id="clipPath113958">
      <use
         xlink:href="#SVGID_1_"
         style="overflow:visible"
         id="use113956" />
    </clipPath>
    <clipPath
       id="clipPath113962">
      <use
         xlink:href="#SVGID_1_"
         style="overflow:visible"
         id="use113960" />
    </clipPath>
    <rect
       id="rect112281"
       y="0"
       width="168"
       height="44"
       x="0" />
    <clipPath
       id="SVGID_2_">
			<use
   xlink:href="#SVGID_1_"
   style="overflow:visible"
   id="use62492" />

		</clipPath>
    <clipPath
       id="clipPath117715">
			<use
   xlink:href="#SVGID_1_"
   style="overflow:visible"
   id="use117713" />

		</clipPath>
    <clipPath
       id="clipPath117719">
			<use
   xlink:href="#SVGID_1_"
   style="overflow:visible"
   id="use117717" />

		</clipPath>
    <clipPath
       id="clipPath117723">
			<use
   xlink:href="#SVGID_1_"
   style="overflow:visible"
   id="use117721" />

		</clipPath>
    <clipPath
       id="clipPath117727">
			<use
   xlink:href="#SVGID_1_"
   style="overflow:visible"
   id="use117725" />

		</clipPath>
    <clipPath
       id="clipPath117731">
			<use
   xlink:href="#SVGID_1_"
   style="overflow:visible"
   id="use117729" />

		</clipPath>
    <clipPath
       id="clipPath117735">
			<use
   xlink:href="#SVGID_1_"
   style="overflow:visible"
   id="use117733" />

		</clipPath>
    <rect
       id="SVGID_1_"
       y="0"
       width="168"
       height="44"
       x="0" />
    <meshgradient
       inkscape:collect="always"
       id="meshgradient118669"
       gradientUnits="userSpaceOnUse"
       x="0"
       y="0">
      <meshrow
         id="meshrow118671">
        <meshpatch
           id="meshpatch118673">
          <stop
             path="c 56,0  112,0  168,0"
             style="stop-color:#ffffff;stop-opacity:1"
             id="stop118675" />
          <stop
             path="c 0,14.6667  0,29.3333  0,44"
             style="stop-color:#000000;stop-opacity:1"
             id="stop118677" />
          <stop
             path="c -56,0  -112,0  -168,0"
             style="stop-color:#ffffff;stop-opacity:1"
             id="stop118679" />
          <stop
             path="c 0,-14.6667  0,-29.3333  0,-44"
             style="stop-color:#000000;stop-opacity:1"
             id="stop118681" />
        </meshpatch>
      </meshrow>
    </meshgradient>
    <meshgradient
       inkscape:collect="always"
       id="meshgradient119251"
       gradientUnits="userSpaceOnUse"
       x="0"
       y="0">
      <meshrow
         id="meshrow119263">
        <meshpatch
           id="meshpatch119261">
          <stop
             path="c 56,0  112,0  168,0"
             style="stop-color:#ffffff;stop-opacity:1"
             id="stop119253" />
          <stop
             path="c 0,14.6667  0,29.3333  0,44"
             style="stop-color:#000000;stop-opacity:1"
             id="stop119255" />
          <stop
             path="c -56,0  -112,0  -168,0"
             style="stop-color:#ffffff;stop-opacity:1"
             id="stop119257" />
          <stop
             path="c 0,-14.6667  0,-29.3333  0,-44"
             style="stop-color:#000000;stop-opacity:1"
             id="stop119259" />
        </meshpatch>
      </meshrow>
    </meshgradient>
  </defs>
  <path
     class="cls-1"
     d="m 222.1,183.1 -2.3,0.3 a 9.7,9.7 0 0 0 -2.3,-2.2 v -2.9 l -3.8,-1.4 -1.8,2.3 a 10.8,10.8 0 0 0 -3.1,0.1 l -2,-2.1 -3.7,1.7 0.4,2.9 a 12.1,12.1 0 0 0 -2.2,2.3 h -2.9 l -1.4,3.8 2.3,1.8 a 10.8,10.8 0 0 0 0.2,3.1 l -2.2,2 1.7,3.7 2.9,-0.4 a 11.5,11.5 0 0 0 2.3,2.1 v 3 l 1.6,1 m 7.6,-20.1 a 7.1,7.1 0 0 1 4.1,9.1 6.9,6.9 0 0 1 -9,4.2 7,7 0 0 1 -4.2,-9.1 7.2,7.2 0 0 1 9.1,-4.3 z"
     id="path116015" />
  <polyline
     class="cls-2"
     points="162.5 196.2 162.5 141.3 222.5 141.3 222.5 195.2"
     id="polyline116017" />
  <line
     class="cls-2"
     x1="162.60001"
     y1="153.10001"
     x2="222.5"
     y2="153.10001"
     id="line116019" />
  <line
     class="cls-2"
     x1="202"
     y1="148.5"
     x2="204.7"
     y2="148.5"
     id="line116021" />
  <line
     class="cls-2"
     x1="208.39999"
     y1="148.5"
     x2="211.10001"
     y2="148.5"
     id="line116023" />
  <line
     class="cls-3"
     x1="214.8"
     y1="148.5"
     x2="217.5"
     y2="148.5"
     id="line116025" />
  <path
     class="cls-4"
     d="m 168.2,161.2 h -1.5 a 0.5,0.5 0 0 1 0,-1 h 4.2 a 0.5,0.5 0 1 1 0,1 h -1.6 v 4.8 a 0.6,0.6 0 0 1 -0.5,0.6 0.6,0.6 0 0 1 -0.6,-0.6 z"
     id="path116027" />
  <path
     class="cls-4"
     d="m 172.3,166 v -5.2 a 0.6,0.6 0 0 1 0.6,-0.6 h 3.6 a 0.5,0.5 0 0 1 0,1 h -3.1 v 1.6 h 2.7 a 0.5,0.5 0 0 1 0.5,0.5 0.5,0.5 0 0 1 -0.5,0.5 h -2.7 v 1.7 h 3.2 a 0.6,0.6 0 0 1 0.5,0.5 0.5,0.5 0 0 1 -0.5,0.5 h -3.7 c -0.4,0 -0.6,-0.2 -0.6,-0.5 z"
     id="path116029" />
  <path
     class="cls-4"
     d="m 178.2,160.7 a 0.5,0.5 0 0 1 0.5,-0.5 h 0.1 a 0.5,0.5 0 0 1 0.5,0.3 l 2,3 1.9,-3 a 0.5,0.5 0 0 1 0.5,-0.3 h 0.1 a 0.5,0.5 0 0 1 0.5,0.5 v 5.3 a 0.6,0.6 0 0 1 -0.5,0.6 0.6,0.6 0 0 1 -0.6,-0.6 v -3.8 l -1.5,2.3 a 0.5,0.5 0 0 1 -0.5,0.3 c -0.2,0 -0.3,-0.1 -0.4,-0.3 l -1.6,-2.2 v 3.7 a 0.5,0.5 0 1 1 -1,0 z"
     id="path116031" />
  <path
     class="cls-4"
     d="m 185.8,160.8 a 0.6,0.6 0 0 1 0.5,-0.6 h 2 a 2.2,2.2 0 0 1 2.4,2.1 v 0 c 0,1.5 -1.2,2.2 -2.6,2.2 h -1.2 v 1.5 a 0.6,0.6 0 0 1 -0.6,0.6 0.6,0.6 0 0 1 -0.5,-0.6 z m 2.4,2.7 a 1.2,1.2 0 0 0 1.3,-1.1 v 0 c 0,-0.7 -0.5,-1.1 -1.3,-1.1 h -1.3 v 2.3 z"
     id="path116033" />
  <path
     class="cls-4"
     d="m 191.6,160.7 a 0.6,0.6 0 0 1 0.6,-0.5 0.5,0.5 0 0 1 0.5,0.5 v 4.8 h 2.9 a 0.5,0.5 0 1 1 0,1 h -3.4 a 0.6,0.6 0 0 1 -0.6,-0.5 z"
     id="path116035" />
  <path
     class="cls-4"
     d="m 196.6,165.8 2.4,-5.2 a 0.7,0.7 0 0 1 0.7,-0.5 v 0 c 0.3,0 0.5,0.2 0.7,0.5 l 2.3,5.2 v 0.2 a 0.6,0.6 0 0 1 -0.6,0.6 0.7,0.7 0 0 1 -0.5,-0.4 L 201.1,165 H 198 l -0.5,1.2 a 0.7,0.7 0 0 1 -0.5,0.4 0.6,0.6 0 0 1 -0.5,-0.6 z m 4.2,-1.8 -1.1,-2.5 -1.1,2.5 z"
     id="path116037" />
  <path
     class="cls-4"
     d="m 204.6,161.2 h -1.5 a 0.5,0.5 0 1 1 0,-1 h 4.2 a 0.5,0.5 0 0 1 0,1 h -1.6 v 4.8 a 0.6,0.6 0 0 1 -0.5,0.6 0.6,0.6 0 0 1 -0.6,-0.6 z"
     id="path116039" />
  <path
     class="cls-4"
     d="m 208.7,166 v -5.2 a 0.6,0.6 0 0 1 0.6,-0.6 h 3.6 a 0.5,0.5 0 1 1 0,1 h -3.1 v 1.6 h 2.7 a 0.5,0.5 0 0 1 0.5,0.5 0.5,0.5 0 0 1 -0.5,0.5 h -2.7 v 1.7 h 3.2 a 0.5,0.5 0 0 1 0.5,0.5 0.5,0.5 0 0 1 -0.5,0.5 h -3.7 a 0.6,0.6 0 0 1 -0.6,-0.5 z"
     id="path116041" />
  <path
     class="cls-4"
     d="m 214.4,165.8 a 0.5,0.5 0 0 1 -0.2,-0.4 0.5,0.5 0 0 1 0.5,-0.5 h 0.3 a 3,3 0 0 0 1.8,0.6 c 0.7,0 1.1,-0.3 1.1,-0.8 v 0 c 0,-0.4 -0.2,-0.7 -1.4,-0.9 -1.2,-0.2 -2.1,-0.8 -2.1,-1.9 v 0 a 2,2 0 0 1 2.1,-1.9 3.2,3.2 0 0 1 2,0.6 0.5,0.5 0 0 1 0.3,0.5 0.5,0.5 0 0 1 -0.5,0.5 H 218 a 3,3 0 0 0 -1.5,-0.5 c -0.6,0 -1,0.3 -1,0.8 v 0 c 0,0.5 0.3,0.7 1.5,1 1.2,0.3 2,0.8 2,1.8 v 0 c 0,1.2 -0.9,1.9 -2.2,1.9 a 4.1,4.1 0 0 1 -2.4,-0.8 z"
     id="path116043" />
  <line
     class="cls-2"
     x1="168.10001"
     y1="172.10001"
     x2="217.5"
     y2="172.10001"
     id="line116045" />
  <line
     class="cls-2"
     x1="168.10001"
     y1="179.39999"
     x2="191.7"
     y2="179.39999"
     id="line116047" />
  <line
     class="cls-2"
     x1="168.10001"
     y1="186.8"
     x2="191.7"
     y2="186.8"
     id="line116049" />
  <line
     class="cls-2"
     x1="168.10001"
     y1="194.2"
     x2="191.7"
     y2="194.2"
     id="line116051" />
  <polygon
     class="cls-5"
     points="142.8,186.8 191.7,211 191.7,267.4 142.8,243.2 "
     id="polygon116053" />
  <polyline
     class="cls-5"
     points="240.6 186.8 191.7 211 191.7 267.4 240.6 243.2 240.6 216.2"
     id="polyline116055" />
  <polygon
     class="cls-5"
     points="191.7,211 240.6,186.8 253.6,209.8 204.7,234 "
     id="polygon116057" />
  <line
     class="cls-5"
     x1="240.60001"
     y1="186.8"
     x2="223.5"
     y2="178.3"
     id="line116059" />
  <polyline
     class="cls-5"
     points="161.5 177.5 142.8 186.8 129.5 210.4"
     id="polyline116061" />
  <rect
     class="cls-2"
     x="52.299999"
     y="59.200001"
     width="29.6"
     height="47.150002"
     rx="3.8"
     id="rect116065" />
  <path
     class="cls-2"
     d="M 70.8,118.2 H 91"
     id="path116067" />
  <path
     class="cls-2"
     d="M 43.2,118.2 H 63.4"
     id="path116069" />
  <line
     class="cls-2"
     x1="67.099998"
     y1="106.7"
     x2="67.099998"
     y2="114.7"
     id="line116071" />
  <circle
     class="cls-3"
     cx="67.099998"
     cy="95.900002"
     r="2.7"
     id="circle116073" />
  <line
     class="cls-1"
     x1="57.799999"
     y1="69.099998"
     x2="76.300003"
     y2="69.099998"
     id="line116075" />
  <line
     class="cls-1"
     x1="57.799999"
     y1="76.400002"
     x2="76.300003"
     y2="76.400002"
     id="line116077" />
  <line
     class="cls-2"
     x1="57.799999"
     y1="83.699997"
     x2="76.300003"
     y2="83.699997"
     id="line116079" />
  <circle
     class="cls-2"
     cx="67.099998"
     cy="118.4"
     r="3.7"
     id="circle116081" />
  <path
     class="cls-7"
     d="m 307.7,74.3 a 13.8,13.8 0 0 1 13.6,12 13,13 0 0 1 5.2,-1 13.8,13.8 0 0 1 0,27.5 H 295.1 A 13.8,13.8 0 0 1 294.2,85.3 13.9,13.9 0 0 1 306,74.4 h 1.7 m 0,-2 h -2 a 15.9,15.9 0 0 0 -13.1,11.1 15.8,15.8 0 0 0 2.5,31.3 h 31.5 a 15.8,15.8 0 0 0 0,-31.5 h -0.1 a 22.1,22.1 0 0 0 -3.7,0.4 15.8,15.8 0 0 0 -15.1,-11.4 z"
     id="path116083" />
  <path
     class="cls-1"
     d="m 312.1,107.3 h -17 a 8.3,8.3 0 0 1 -8.2,-7.7"
     id="path116085" />
  <rect
     class="cls-2"
     x="325.70001"
     y="181.3"
     width="63.400002"
     height="46.080002"
     id="rect116087" />
  <polyline
     class="cls-3"
     points="358.4 190.8 364.2 196.6 358.4 202.5"
     id="polyline116089" />
  <polyline
     class="cls-3"
     points="340.3 190.8 334.4 196.6 340.3 202.5"
     id="polyline116091" />
  <line
     class="cls-3"
     x1="354.60001"
     y1="187.3"
     x2="344.10001"
     y2="206"
     id="line116093" />
  <line
     class="cls-1"
     x1="342.89999"
     y1="211.39999"
     x2="333.60001"
     y2="211.39999"
     id="line116095" />
  <line
     class="cls-2"
     x1="362"
     y1="211.39999"
     x2="348.70001"
     y2="211.39999"
     id="line116097" />
  <line
     class="cls-2"
     x1="381.20001"
     y1="211.39999"
     x2="367.89999"
     y2="211.39999"
     id="line116099" />
  <line
     class="cls-2"
     x1="349.70001"
     y1="220.10001"
     x2="333.60001"
     y2="220.10001"
     id="line116101" />
  <line
     class="cls-1"
     x1="375.79999"
     y1="220.10001"
     x2="355.60001"
     y2="220.10001"
     id="line116103" />
  <path
     class="cls-7"
     d="m 213.5,365.4 a 6.2,6.2 0 0 1 6.1,6.1 v 1.2 a 6.1,6.1 0 0 1 -6.1,6.1 h -41.1 a 6.1,6.1 0 0 1 -6.1,-6.1 v -1.2 a 6.1,6.1 0 0 1 6.1,-6.1 h 41.1 m 0,-2 h -41.1 a 8.1,8.1 0 0 0 -8.1,8.1 v 1.2 a 8.1,8.1 0 0 0 8.1,8.1 h 41.1 a 8.1,8.1 0 0 0 8.1,-8.1 v -1.2 a 8.1,8.1 0 0 0 -8.1,-8.1 z"
     id="path116105" />
  <line
     class="cls-1"
     x1="198.39999"
     y1="372.10001"
     x2="185.10001"
     y2="371.89999"
     id="line116107" />
  <line
     class="cls-3"
     x1="178.2"
     y1="371.89999"
     x2="171.7"
     y2="371.89999"
     id="line116109" />
  <path
     class="cls-2"
     d="m 187.4,359.6 a 5.6,5.6 0 0 1 11.1,0"
     id="path116111" />
  <path
     class="cls-2"
     d="m 181.3,359.6 a 11.7,11.7 0 0 1 23.3,0"
     id="path116113" />
  <path
     class="cls-2"
     d="m 175.2,359.6 a 17.8,17.8 0 0 1 35.5,0"
     id="path116115" />
  <path
     class="cls-3"
     d="m 93.8,300.7 v 11 c 0,5.2 -9.9,9.5 -21.7,9.5 -11.8,0 -21.7,-4.3 -21.7,-9.5 v -11"
     id="path116117" />
  <path
     class="cls-3"
     d="m 72.1,291.1 c 12,0 21.7,4.3 21.7,9.6 0,5.3 -9.7,9.6 -21.7,9.6 -12,0 -21.7,-4.3 -21.7,-9.6 0,-5.3 9.7,-9.6 21.7,-9.6"
     id="path116119" />
  <path
     class="cls-8"
     d="m 68.9,313.3 a 1.8,1.8 0 1 1 -1.8,1.8 1.8,1.8 0 0 1 1.8,-1.8"
     id="path116121" />
  <path
     class="cls-8"
     d="m 75.3,313.3 a 1.8,1.8 0 1 1 -1.8,1.8 1.8,1.8 0 0 1 1.8,-1.8"
     id="path116123" />
  <path
     class="cls-2"
     d="m 93.8,311.7 v 10.9 c 0,5.3 -9.9,9.6 -21.7,9.6 -11.8,0 -21.7,-4.3 -21.7,-9.6 v -10.9"
     id="path116125" />
  <path
     class="cls-2"
     d="m 93.8,322.6 v 11 c 0,5.2 -9.9,9.5 -21.7,9.5 -11.8,0 -21.7,-4.3 -21.7,-9.5 v -11"
     id="path116127" />
  <path
     class="cls-1"
     d="m 93.8,300.7 v 11 c 0,5.2 -9.9,9.5 -21.7,9.5 -11.8,0 -21.7,-4.3 -21.7,-9.5 v -11"
     id="path116129" />
  <path
     class="cls-1"
     d="m 72.1,291.1 c 12,0 21.7,4.3 21.7,9.6 0,5.3 -9.7,9.6 -21.7,9.6 -12,0 -21.7,-4.3 -21.7,-9.6 0,-5.3 9.7,-9.6 21.7,-9.6"
     id="path116131" />
  <path
     class="cls-7"
     d="m 68.9,313.3 a 1.8,1.8 0 1 1 -1.8,1.8 1.8,1.8 0 0 1 1.8,-1.8"
     id="path116133" />
  <path
     class="cls-9"
     d="m 75.3,313.3 a 1.8,1.8 0 1 1 -1.8,1.8 1.8,1.8 0 0 1 1.8,-1.8"
     id="path116135" />
  <path
     class="cls-7"
     d="m 68.9,324.2 a 1.8,1.8 0 0 1 1.8,1.8 1.8,1.8 0 1 1 -3.6,0 1.8,1.8 0 0 1 1.8,-1.8"
     id="path116137" />
  <path
     class="cls-9"
     d="m 75.3,324.2 a 1.8,1.8 0 0 1 1.8,1.8 1.8,1.8 0 1 1 -3.6,0 1.8,1.8 0 0 1 1.8,-1.8"
     id="path116139" />
  <path
     class="cls-2"
     d="m 93.8,322.6 c 0,5.3 -9.7,9.6 -21.7,9.6 -12,0 -21.7,-4.3 -21.7,-9.6"
     id="path116141" />
  <path
     class="cls-7"
     d="m 68.9,335.2 a 1.8,1.8 0 1 1 -1.8,1.8 1.8,1.8 0 0 1 1.8,-1.8"
     id="path116143" />
  <path
     class="cls-9"
     d="m 75.3,335.2 a 1.8,1.8 0 1 1 -1.8,1.8 1.8,1.8 0 0 1 1.8,-1.8"
     id="path116145" />
  <path
     class="cls-2"
     d="M 75.3,354.1 H 93"
     id="path116147" />
  <path
     class="cls-2"
     d="M 51.1,354.1 H 68.8"
     id="path116149" />
  <line
     class="cls-2"
     x1="72.099998"
     y1="344"
     x2="72.099998"
     y2="351"
     id="line116151" />
  <circle
     class="cls-2"
     cx="72.099998"
     cy="354.29999"
     r="3.3"
     id="circle116153" />
  <path
     class="cls-7"
     d="m 339.2,333.8 a 5.5,5.5 0 0 1 5.5,5.4 v 1.1 a 5.5,5.5 0 0 1 -5.5,5.4 h -36.8 a 5.5,5.5 0 0 1 -5.5,-5.4 v -1.1 a 5.5,5.5 0 0 1 5.5,-5.4 h 36.8 m 0,-2 h -36.8 a 7.5,7.5 0 0 0 -7.5,7.4 v 1.1 a 7.5,7.5 0 0 0 7.5,7.4 h 36.8 a 7.5,7.5 0 0 0 7.5,-7.4 v -1.1 a 7.5,7.5 0 0 0 -7.5,-7.4 z"
     id="path116155" />
  <line
     class="cls-1"
     x1="304"
     y1="339.60001"
     x2="327.60001"
     y2="339.60001"
     id="line116157" />
  <line
     class="cls-3"
     x1="333.79999"
     y1="339.79999"
     x2="339.89999"
     y2="339.79999"
     id="line116159" />
  <path
     class="cls-7"
     d="m 339.2,315.7 a 5.5,5.5 0 0 1 5.5,5.4 v 1.1 a 5.5,5.5 0 0 1 -5.5,5.5 h -36.8 a 5.5,5.5 0 0 1 -5.5,-5.5 v -1.1 a 5.5,5.5 0 0 1 5.5,-5.4 h 36.8 m 0,-2 h -36.8 a 7.5,7.5 0 0 0 -7.5,7.4 v 1.1 a 7.6,7.6 0 0 0 7.5,7.5 h 36.8 a 7.6,7.6 0 0 0 7.5,-7.5 v -1.1 a 7.5,7.5 0 0 0 -7.5,-7.4 z"
     id="path116161" />
  <line
     class="cls-1"
     x1="304"
     y1="321.60001"
     x2="327.79999"
     y2="321.60001"
     id="line116163" />
  <line
     class="cls-3"
     x1="333.79999"
     y1="321.60001"
     x2="339.89999"
     y2="321.60001"
     id="line116165" />
  <path
     class="cls-7"
     d="m 339.2,297.6 a 5.5,5.5 0 0 1 5.5,5.4 v 1.1 a 5.5,5.5 0 0 1 -5.5,5.5 h -36.8 a 5.5,5.5 0 0 1 -5.5,-5.5 V 303 a 5.5,5.5 0 0 1 5.5,-5.4 h 36.8 m 0,-2 h -36.8 a 7.5,7.5 0 0 0 -7.5,7.4 v 1.1 a 7.6,7.6 0 0 0 7.5,7.5 h 36.8 a 7.6,7.6 0 0 0 7.5,-7.5 V 303 a 7.5,7.5 0 0 0 -7.5,-7.4 z"
     id="path116167" />
  <line
     class="cls-1"
     x1="304"
     y1="303.60001"
     x2="327.79999"
     y2="303.79999"
     id="line116169" />
  <line
     class="cls-3"
     x1="334"
     y1="303.79999"
     x2="339.89999"
     y2="303.79999"
     id="line116171" />
  <path
     class="cls-2"
     d="m 324.1,357.6 h 18.1"
     id="path116173" />
  <path
     class="cls-2"
     d="m 299.4,357.6 h 18.1"
     id="path116175" />
  <line
     class="cls-2"
     x1="320.79999"
     y1="347.20001"
     x2="320.79999"
     y2="354.39999"
     id="line116177" />
  <circle
     class="cls-2"
     cx="320.79999"
     cy="357.70001"
     r="3.3"
     id="circle116179" />
  <path
     class="cls-2"
     d="M 48.8,214.8 H 54 a 2.3,2.3 0 0 0 2.3,-2.3 V 195.6 A 2.4,2.4 0 0 0 54,193.2 H 13.2 a 2.3,2.3 0 0 0 -2.3,2.4 v 16.9 a 2.3,2.3 0 0 0 2.3,2.3 h 5.2"
     id="path116181" />
  <path
     class="cls-2"
     d="m 19.8,181.7 h 27.5 a 1.5,1.5 0 0 1 1.5,1.5 v 10.1 H 18.4 v -10.1 a 1.5,1.5 0 0 1 1.4,-1.5 z"
     id="path116183" />
  <rect
     class="cls-2"
     x="18.4"
     y="205.7"
     width="30.4"
     height="24.639999"
     id="rect116185" />
  <line
     class="cls-1"
     x1="23.799999"
     y1="212.7"
     x2="40.900002"
     y2="212.7"
     id="line116187" />
  <line
     class="cls-1"
     x1="23.799999"
     y1="218"
     x2="40.900002"
     y2="218"
     id="line116189" />
  <line
     class="cls-1"
     x1="23.799999"
     y1="223.3"
     x2="40.900002"
     y2="223.3"
     id="line116191" />
  <line
     class="cls-2"
     x1="192.10001"
     y1="41.200001"
     x2="192.10001"
     y2="34.200001"
     id="line116193" />
  <line
     class="cls-2"
     x1="192.10001"
     y1="57.099998"
     x2="192.10001"
     y2="48.700001"
     id="line116195" />
  <rect
     class="cls-1"
     x="178.5"
     y="21.200001"
     width="26.1"
     height="13.04"
     rx="3.5999999"
     id="rect116197" />
  <rect
     class="cls-2"
     x="211.7"
     y="57.099998"
     width="20.1"
     height="13.04"
     rx="3.5999999"
     id="rect116199" />
  <rect
     class="cls-1"
     x="182.10001"
     y="57.099998"
     width="20.1"
     height="13.04"
     rx="3.5999999"
     id="rect116201" />
  <rect
     class="cls-2"
     x="153"
     y="57.099998"
     width="20.1"
     height="13.04"
     rx="3.5999999"
     id="rect116203" />
  <polyline
     class="cls-2"
     points="188.4 45 163.1 45 163.1 57.1"
     id="polyline116205" />
  <polyline
     class="cls-2"
     points="221.8 57.1 221.8 45 195.9 45"
     id="polyline116207" />
  <line
     class="cls-3"
     x1="186.5"
     y1="30.299999"
     x2="196.60001"
     y2="30.299999"
     id="line116209" />
  <line
     class="cls-3"
     x1="186.5"
     y1="25.9"
     x2="196.60001"
     y2="25.9"
     id="line116211" />
  <line
     class="cls-3"
     x1="188.60001"
     y1="61.799999"
     x2="195.7"
     y2="61.799999"
     id="line116213" />
  <line
     class="cls-1"
     x1="159.5"
     y1="61.799999"
     x2="166.7"
     y2="61.799999"
     id="line116215" />
  <line
     class="cls-1"
     x1="218.2"
     y1="61.799999"
     x2="225.3"
     y2="61.799999"
     id="line116217" />
  <line
     class="cls-3"
     x1="188.60001"
     y1="66.300003"
     x2="195.7"
     y2="66.300003"
     id="line116219" />
  <line
     class="cls-1"
     x1="159.5"
     y1="66.300003"
     x2="166.7"
     y2="66.300003"
     id="line116221" />
  <line
     class="cls-1"
     x1="218.2"
     y1="66.300003"
     x2="225.3"
     y2="66.300003"
     id="line116223" />
  <circle
     class="cls-2"
     cx="192.10001"
     cy="45"
     r="3.7"
     id="circle116225" />
  <line
     class="cls-3"
     x1="250.60001"
     y1="146.2"
     x2="271.29999"
     y2="125.4"
     id="line116227" />
  <polyline
     class="cls-3"
     points="261.5 125.4 271.3 125.4 271.3 135.3"
     id="polyline116229" />
  <line
     class="cls-3"
     x1="134.2"
     y1="262.60001"
     x2="113.5"
     y2="283.29999"
     id="line116231" />
  <polyline
     class="cls-3"
     points="123.3 283.3 113.5 283.3 113.5 273.5"
     id="polyline116233" />
  <line
     class="cls-3"
     x1="250.60001"
     y1="262.60001"
     x2="271.29999"
     y2="283.29999"
     id="line116235" />
  <polyline
     class="cls-3"
     points="271.3 273.5 271.3 283.3 261.5 283.3"
     id="polyline116237" />
  <line
     class="cls-3"
     x1="134.2"
     y1="146.2"
     x2="113.5"
     y2="125.4"
     id="line116239" />
  <polyline
     class="cls-3"
     points="113.5 135.3 113.5 125.4 123.3 125.4"
     id="polyline116241" />
  <line
     class="cls-3"
     x1="274.70001"
     y1="204.39999"
     x2="304"
     y2="204.39999"
     id="line116243" />
  <polyline
     class="cls-3"
     points="297.1 197.4 304 204.4 297.1 211.3"
     id="polyline116245" />
  <line
     class="cls-3"
     x1="110.1"
     y1="204.39999"
     x2="80.800003"
     y2="204.39999"
     id="line116247" />
  <polyline
     class="cls-3"
     points="87.7 211.3 80.8 204.4 87.7 197.4"
     id="polyline116249" />
  <line
     class="cls-3"
     x1="192.39999"
     y1="286.70001"
     x2="192.39999"
     y2="316"
     id="line116251" />
  <polyline
     class="cls-3"
     points="199.4 309.1 192.4 316 185.4 309.1"
     id="polyline116253" />
  <line
     class="cls-3"
     x1="192.39999"
     y1="122.1"
     x2="192.39999"
     y2="92.699997"
     id="line116255" />
  <polyline
     class="cls-3"
     points="185.4 99.7 192.4 92.7 199.4 99.7"
     id="polyline116257" />
  <g
     id="g62511"
     transform="matrix(0.25697888,0.13057668,0,0.29509082,145.66377,210.57087)"
     style="fill:url(#meshgradient118669);fill-opacity:1">
	<g
   id="g62509"
   style="fill:url(#meshgradient119251);fill-opacity:1">
		<defs
   id="defs62490"
   style="fill-opacity:1">
			<rect
   id="rect118557"
   y="0"
   width="168"
   height="44"
   x="0"
   style="fill-opacity:1" />

		</defs>

		<clipPath
   id="clipPath117743"
   style="fill-opacity:1">
			<use
   xlink:href="#SVGID_1_"
   style="overflow:visible;fill-opacity:1"
   id="use117741" />

		</clipPath>

		<rect
   x="0"
   y="0"
   class="st0"
   width="168"
   height="44"
   clip-path="url(#SVGID_2_)"
   id="rect62495"
   style="fill:#d40000;fill-opacity:1" />

		<polygon
   class="st1"
   points="7.2,6.7 31.5,6.7 31.5,9.9 11.9,33.8 32,33.8 32,37.3 6.7,37.3 6.7,34.1 26.3,10.2 7.2,10.2 "
   clip-path="url(#SVGID_2_)"
   id="polygon62497"
   style="fill:#ffffff;fill-opacity:1" />

		<path
   class="st1"
   d="M 48.4,10.8 42.7,26 H 54.1 Z M 46,6.7 h 4.7 l 11.8,30.6 h -4.3 l -2.8,-7.8 h -14 l -2.8,7.8 h -4.4 z"
   clip-path="url(#SVGID_2_)"
   id="path62499"
   style="fill:#ffffff;fill-opacity:1" />

		<path
   class="st1"
   d="m 71.2,22.7 v 11.2 h 6.7 c 2.3,0 3.9,-0.5 5,-1.4 1.1,-0.9 1.6,-2.3 1.6,-4.2 0,-1.9 -0.5,-3.3 -1.6,-4.2 -1.1,-0.9 -2.8,-1.4 -5,-1.4 z m 0,-12.6 v 9.2 h 6.2 c 2,0 3.6,-0.4 4.6,-1.1 1,-0.8 1.5,-1.9 1.5,-3.5 C 83.5,13.2 83,12 82,11.2 81,10.4 79.5,10.1 77.4,10.1 Z M 67,6.7 h 10.7 c 3.2,0 5.6,0.7 7.4,2 1.7,1.3 2.6,3.2 2.6,5.6 0,1.9 -0.4,3.4 -1.3,4.5 -0.9,1.1 -2.2,1.8 -3.9,2.1 2.1,0.4 3.7,1.3 4.8,2.7 1.1,1.4 1.7,3.1 1.7,5.2 0,2.7 -0.9,4.8 -2.8,6.3 -1.9,1.5 -4.5,2.2 -8,2.2 H 67 Z"
   clip-path="url(#SVGID_2_)"
   id="path62501"
   style="fill:#ffffff;fill-opacity:1" />

		<path
   class="st1"
   d="m 99.9,22.7 v 11.2 h 6.7 c 2.2,0 3.9,-0.5 5,-1.4 1.1,-0.9 1.6,-2.3 1.6,-4.2 0,-1.9 -0.5,-3.3 -1.6,-4.2 -1.1,-0.9 -2.8,-1.4 -5,-1.4 z m 0,-12.6 v 9.2 h 6.2 c 2,0 3.6,-0.4 4.6,-1.1 1,-0.8 1.5,-1.9 1.5,-3.5 0,-1.5 -0.5,-2.7 -1.5,-3.5 -1,-0.8 -2.5,-1.1 -4.6,-1.1 z M 95.7,6.7 h 10.7 c 3.2,0 5.6,0.7 7.4,2 1.7,1.3 2.6,3.2 2.6,5.6 0,1.9 -0.4,3.4 -1.3,4.5 -0.9,1.1 -2.2,1.8 -3.9,2.1 2.1,0.4 3.7,1.3 4.8,2.7 1.1,1.4 1.7,3.1 1.7,5.2 0,2.7 -0.9,4.8 -2.8,6.3 -1.9,1.5 -4.5,2.2 -8,2.2 H 95.7 Z"
   clip-path="url(#SVGID_2_)"
   id="path62503"
   style="fill:#ffffff;fill-opacity:1" />

		<polygon
   class="st1"
   points="148.2,24.5 139.7,37.3 135.2,37.3 146,21.1 136.4,6.7 141,6.7 148.3,17.7 155.7,6.7 160.1,6.7 150.5,21 161.3,37.3 156.7,37.3 "
   clip-path="url(#SVGID_2_)"
   id="polygon62505"
   style="fill:#ffffff;fill-opacity:1" />

		<rect
   x="124.3"
   y="6.6999998"
   class="st1"
   width="4.1999998"
   height="30.6"
   clip-path="url(#SVGID_2_)"
   id="rect62507"
   style="fill:#ffffff;fill-opacity:1" />

	</g>

</g>
  <script
     id="mesh_polyfill"
     type="text/javascript">
!function(){const t=&quot;http://www.w3.org/2000/svg&quot;,e=&quot;http://www.w3.org/1999/xlink&quot;,s=&quot;http://www.w3.org/1999/xhtml&quot;,r=2;if(document.createElementNS(t,&quot;meshgradient&quot;).x)return;const n=(t,e,s,r)=&gt;{let n=new x(.5*(e.x+s.x),.5*(e.y+s.y)),o=new x(.5*(t.x+e.x),.5*(t.y+e.y)),i=new x(.5*(s.x+r.x),.5*(s.y+r.y)),a=new x(.5*(n.x+o.x),.5*(n.y+o.y)),h=new x(.5*(n.x+i.x),.5*(n.y+i.y)),l=new x(.5*(a.x+h.x),.5*(a.y+h.y));return[[t,o,a,l],[l,h,i,r]]},o=t=&gt;{let e=t[0].distSquared(t[1]),s=t[2].distSquared(t[3]),r=.25*t[0].distSquared(t[2]),n=.25*t[1].distSquared(t[3]),o=e&gt;s?e:s,i=r&gt;n?r:n;return 18*(o&gt;i?o:i)},i=(t,e)=&gt;Math.sqrt(t.distSquared(e)),a=(t,e)=&gt;t.scale(2/3).add(e.scale(1/3)),h=t=&gt;{let e,s,r,n,o,i,a,h=new g;return t.match(/(\w+\(\s*[^)]+\))+/g).forEach(t=&gt;{let l=t.match(/[\w.-]+/g),d=l.shift();switch(d){case&quot;translate&quot;:2===l.length?e=new g(1,0,0,1,l[0],l[1]):(console.error(&quot;mesh.js: translate does not have 2 arguments!&quot;),e=new g(1,0,0,1,0,0)),h=h.append(e);break;case&quot;scale&quot;:1===l.length?s=new g(l[0],0,0,l[0],0,0):2===l.length?s=new g(l[0],0,0,l[1],0,0):(console.error(&quot;mesh.js: scale does not have 1 or 2 arguments!&quot;),s=new g(1,0,0,1,0,0)),h=h.append(s);break;case&quot;rotate&quot;:if(3===l.length&amp;&amp;(e=new g(1,0,0,1,l[1],l[2]),h=h.append(e)),l[0]){r=l[0]*Math.PI/180;let t=Math.cos(r),e=Math.sin(r);Math.abs(t)&lt;1e-16&amp;&amp;(t=0),Math.abs(e)&lt;1e-16&amp;&amp;(e=0),a=new g(t,e,-e,t,0,0),h=h.append(a)}else console.error(&quot;math.js: No argument to rotate transform!&quot;);3===l.length&amp;&amp;(e=new g(1,0,0,1,-l[1],-l[2]),h=h.append(e));break;case&quot;skewX&quot;:l[0]?(r=l[0]*Math.PI/180,n=Math.tan(r),o=new g(1,0,n,1,0,0),h=h.append(o)):console.error(&quot;math.js: No argument to skewX transform!&quot;);break;case&quot;skewY&quot;:l[0]?(r=l[0]*Math.PI/180,n=Math.tan(r),i=new g(1,n,0,1,0,0),h=h.append(i)):console.error(&quot;math.js: No argument to skewY transform!&quot;);break;case&quot;matrix&quot;:6===l.length?h=h.append(new g(...l)):console.error(&quot;math.js: Incorrect number of arguments for matrix!&quot;);break;default:console.error(&quot;mesh.js: Unhandled transform type: &quot;+d)}}),h},l=t=&gt;{let e=[],s=t.split(/[ ,]+/);for(let t=0,r=s.length-1;t&lt;r;t+=2)e.push(new x(parseFloat(s[t]),parseFloat(s[t+1])));return e},d=(t,e)=&gt;{for(let s in e)t.setAttribute(s,e[s])},c=(t,e,s,r,n)=&gt;{let o,i,a=[0,0,0,0];for(let h=0;h&lt;3;++h)e[h]&lt;t[h]&amp;&amp;e[h]&lt;s[h]||t[h]&lt;e[h]&amp;&amp;s[h]&lt;e[h]?a[h]=0:(a[h]=.5*((e[h]-t[h])/r+(s[h]-e[h])/n),o=Math.abs(3*(e[h]-t[h])/r),i=Math.abs(3*(s[h]-e[h])/n),a[h]&gt;o?a[h]=o:a[h]&gt;i&amp;&amp;(a[h]=i));return a},u=[[1,0,0,0,0,0,0,0,0,0,0,0,0,0,0,0],[0,0,0,0,1,0,0,0,0,0,0,0,0,0,0,0],[-3,3,0,0,-2,-1,0,0,0,0,0,0,0,0,0,0],[2,-2,0,0,1,1,0,0,0,0,0,0,0,0,0,0],[0,0,0,0,0,0,0,0,1,0,0,0,0,0,0,0],[0,0,0,0,0,0,0,0,0,0,0,0,1,0,0,0],[0,0,0,0,0,0,0,0,-3,3,0,0,-2,-1,0,0],[0,0,0,0,0,0,0,0,2,-2,0,0,1,1,0,0],[-3,0,3,0,0,0,0,0,-2,0,-1,0,0,0,0,0],[0,0,0,0,-3,0,3,0,0,0,0,0,-2,0,-1,0],[9,-9,-9,9,6,3,-6,-3,6,-6,3,-3,4,2,2,1],[-6,6,6,-6,-3,-3,3,3,-4,4,-2,2,-2,-2,-1,-1],[2,0,-2,0,0,0,0,0,1,0,1,0,0,0,0,0],[0,0,0,0,2,0,-2,0,0,0,0,0,1,0,1,0],[-6,6,6,-6,-4,-2,4,2,-3,3,-3,3,-2,-1,-2,-1],[4,-4,-4,4,2,2,-2,-2,2,-2,2,-2,1,1,1,1]],f=t=&gt;{let e=[];for(let s=0;s&lt;16;++s){e[s]=0;for(let r=0;r&lt;16;++r)e[s]+=u[s][r]*t[r]}return e},p=(t,e,s)=&gt;{const r=e*e,n=s*s,o=e*e*e,i=s*s*s;return t[0]+t[1]*e+t[2]*r+t[3]*o+t[4]*s+t[5]*s*e+t[6]*s*r+t[7]*s*o+t[8]*n+t[9]*n*e+t[10]*n*r+t[11]*n*o+t[12]*i+t[13]*i*e+t[14]*i*r+t[15]*i*o},y=t=&gt;{let e=[],s=[],r=[];for(let s=0;s&lt;4;++s)e[s]=[],e[s][0]=n(t[0][s],t[1][s],t[2][s],t[3][s]),e[s][1]=[],e[s][1].push(...n(...e[s][0][0])),e[s][1].push(...n(...e[s][0][1])),e[s][2]=[],e[s][2].push(...n(...e[s][1][0])),e[s][2].push(...n(...e[s][1][1])),e[s][2].push(...n(...e[s][1][2])),e[s][2].push(...n(...e[s][1][3]));for(let t=0;t&lt;8;++t){s[t]=[];for(let r=0;r&lt;4;++r)s[t][r]=[],s[t][r][0]=n(e[0][2][t][r],e[1][2][t][r],e[2][2][t][r],e[3][2][t][r]),s[t][r][1]=[],s[t][r][1].push(...n(...s[t][r][0][0])),s[t][r][1].push(...n(...s[t][r][0][1])),s[t][r][2]=[],s[t][r][2].push(...n(...s[t][r][1][0])),s[t][r][2].push(...n(...s[t][r][1][1])),s[t][r][2].push(...n(...s[t][r][1][2])),s[t][r][2].push(...n(...s[t][r][1][3]))}for(let t=0;t&lt;8;++t){r[t]=[];for(let e=0;e&lt;8;++e)r[t][e]=[],r[t][e][0]=s[t][0][2][e],r[t][e][1]=s[t][1][2][e],r[t][e][2]=s[t][2][2][e],r[t][e][3]=s[t][3][2][e]}return r};class x{constructor(t,e){this.x=t||0,this.y=e||0}toString(){return`(x=${this.x}, y=${this.y})`}clone(){return new x(this.x,this.y)}add(t){return new x(this.x+t.x,this.y+t.y)}scale(t){return void 0===t.x?new x(this.x*t,this.y*t):new x(this.x*t.x,this.y*t.y)}distSquared(t){let e=this.x-t.x,s=this.y-t.y;return e*e+s*s}transform(t){let e=this.x*t.a+this.y*t.c+t.e,s=this.x*t.b+this.y*t.d+t.f;return new x(e,s)}}class g{constructor(t,e,s,r,n,o){void 0===t?(this.a=1,this.b=0,this.c=0,this.d=1,this.e=0,this.f=0):(this.a=t,this.b=e,this.c=s,this.d=r,this.e=n,this.f=o)}toString(){return`affine: ${this.a} ${this.c} ${this.e} \n       ${this.b} ${this.d} ${this.f}`}append(t){t instanceof g||console.error(&quot;mesh.js: argument to Affine.append is not affine!&quot;);let e=this.a*t.a+this.c*t.b,s=this.b*t.a+this.d*t.b,r=this.a*t.c+this.c*t.d,n=this.b*t.c+this.d*t.d,o=this.a*t.e+this.c*t.f+this.e,i=this.b*t.e+this.d*t.f+this.f;return new g(e,s,r,n,o,i)}}class w{constructor(t,e){this.nodes=t,this.colors=e}paintCurve(t,e){if(o(this.nodes)&gt;r){const s=n(...this.nodes);let r=[[],[]],o=[[],[]];for(let t=0;t&lt;4;++t)r[0][t]=this.colors[0][t],r[1][t]=(this.colors[0][t]+this.colors[1][t])/2,o[0][t]=r[1][t],o[1][t]=this.colors[1][t];let i=new w(s[0],r),a=new w(s[1],o);i.paintCurve(t,e),a.paintCurve(t,e)}else{let s=Math.round(this.nodes[0].x);if(s&gt;=0&amp;&amp;s&lt;e){let r=4*(~~this.nodes[0].y*e+s);t[r]=Math.round(this.colors[0][0]),t[r+1]=Math.round(this.colors[0][1]),t[r+2]=Math.round(this.colors[0][2]),t[r+3]=Math.round(this.colors[0][3])}}}}class m{constructor(t,e){this.nodes=t,this.colors=e}split(){let t=[[],[],[],[]],e=[[],[],[],[]],s=[[[],[]],[[],[]]],r=[[[],[]],[[],[]]];for(let s=0;s&lt;4;++s){const r=n(this.nodes[0][s],this.nodes[1][s],this.nodes[2][s],this.nodes[3][s]);t[0][s]=r[0][0],t[1][s]=r[0][1],t[2][s]=r[0][2],t[3][s]=r[0][3],e[0][s]=r[1][0],e[1][s]=r[1][1],e[2][s]=r[1][2],e[3][s]=r[1][3]}for(let t=0;t&lt;4;++t)s[0][0][t]=this.colors[0][0][t],s[0][1][t]=this.colors[0][1][t],s[1][0][t]=(this.colors[0][0][t]+this.colors[1][0][t])/2,s[1][1][t]=(this.colors[0][1][t]+this.colors[1][1][t])/2,r[0][0][t]=s[1][0][t],r[0][1][t]=s[1][1][t],r[1][0][t]=this.colors[1][0][t],r[1][1][t]=this.colors[1][1][t];return[new m(t,s),new m(e,r)]}paint(t,e){let s,n=!1;for(let t=0;t&lt;4;++t)if((s=o([this.nodes[0][t],this.nodes[1][t],this.nodes[2][t],this.nodes[3][t]]))&gt;r){n=!0;break}if(n){let s=this.split();s[0].paint(t,e),s[1].paint(t,e)}else{new w([...this.nodes[0]],[...this.colors[0]]).paintCurve(t,e)}}}class b{constructor(t){this.readMesh(t),this.type=t.getAttribute(&quot;type&quot;)||&quot;bilinear&quot;}readMesh(t){let e=[[]],s=[[]],r=Number(t.getAttribute(&quot;x&quot;)),n=Number(t.getAttribute(&quot;y&quot;));e[0][0]=new x(r,n);let o=t.children;for(let t=0,r=o.length;t&lt;r;++t){e[3*t+1]=[],e[3*t+2]=[],e[3*t+3]=[],s[t+1]=[];let r=o[t].children;for(let n=0,o=r.length;n&lt;o;++n){let o=r[n].children;for(let r=0,i=o.length;r&lt;i;++r){let i=r;0!==t&amp;&amp;++i;let h,d=o[r].getAttribute(&quot;path&quot;),c=&quot;l&quot;;null!=d&amp;&amp;(c=(h=d.match(/\s*([lLcC])\s*(.*)/))[1]);let u=l(h[2]);switch(c){case&quot;l&quot;:0===i?(e[3*t][3*n+3]=u[0].add(e[3*t][3*n]),e[3*t][3*n+1]=a(e[3*t][3*n],e[3*t][3*n+3]),e[3*t][3*n+2]=a(e[3*t][3*n+3],e[3*t][3*n])):1===i?(e[3*t+3][3*n+3]=u[0].add(e[3*t][3*n+3]),e[3*t+1][3*n+3]=a(e[3*t][3*n+3],e[3*t+3][3*n+3]),e[3*t+2][3*n+3]=a(e[3*t+3][3*n+3],e[3*t][3*n+3])):2===i?(0===n&amp;&amp;(e[3*t+3][3*n+0]=u[0].add(e[3*t+3][3*n+3])),e[3*t+3][3*n+1]=a(e[3*t+3][3*n],e[3*t+3][3*n+3]),e[3*t+3][3*n+2]=a(e[3*t+3][3*n+3],e[3*t+3][3*n])):(e[3*t+1][3*n]=a(e[3*t][3*n],e[3*t+3][3*n]),e[3*t+2][3*n]=a(e[3*t+3][3*n],e[3*t][3*n]));break;case&quot;L&quot;:0===i?(e[3*t][3*n+3]=u[0],e[3*t][3*n+1]=a(e[3*t][3*n],e[3*t][3*n+3]),e[3*t][3*n+2]=a(e[3*t][3*n+3],e[3*t][3*n])):1===i?(e[3*t+3][3*n+3]=u[0],e[3*t+1][3*n+3]=a(e[3*t][3*n+3],e[3*t+3][3*n+3]),e[3*t+2][3*n+3]=a(e[3*t+3][3*n+3],e[3*t][3*n+3])):2===i?(0===n&amp;&amp;(e[3*t+3][3*n+0]=u[0]),e[3*t+3][3*n+1]=a(e[3*t+3][3*n],e[3*t+3][3*n+3]),e[3*t+3][3*n+2]=a(e[3*t+3][3*n+3],e[3*t+3][3*n])):(e[3*t+1][3*n]=a(e[3*t][3*n],e[3*t+3][3*n]),e[3*t+2][3*n]=a(e[3*t+3][3*n],e[3*t][3*n]));break;case&quot;c&quot;:0===i?(e[3*t][3*n+1]=u[0].add(e[3*t][3*n]),e[3*t][3*n+2]=u[1].add(e[3*t][3*n]),e[3*t][3*n+3]=u[2].add(e[3*t][3*n])):1===i?(e[3*t+1][3*n+3]=u[0].add(e[3*t][3*n+3]),e[3*t+2][3*n+3]=u[1].add(e[3*t][3*n+3]),e[3*t+3][3*n+3]=u[2].add(e[3*t][3*n+3])):2===i?(e[3*t+3][3*n+2]=u[0].add(e[3*t+3][3*n+3]),e[3*t+3][3*n+1]=u[1].add(e[3*t+3][3*n+3]),0===n&amp;&amp;(e[3*t+3][3*n+0]=u[2].add(e[3*t+3][3*n+3]))):(e[3*t+2][3*n]=u[0].add(e[3*t+3][3*n]),e[3*t+1][3*n]=u[1].add(e[3*t+3][3*n]));break;case&quot;C&quot;:0===i?(e[3*t][3*n+1]=u[0],e[3*t][3*n+2]=u[1],e[3*t][3*n+3]=u[2]):1===i?(e[3*t+1][3*n+3]=u[0],e[3*t+2][3*n+3]=u[1],e[3*t+3][3*n+3]=u[2]):2===i?(e[3*t+3][3*n+2]=u[0],e[3*t+3][3*n+1]=u[1],0===n&amp;&amp;(e[3*t+3][3*n+0]=u[2])):(e[3*t+2][3*n]=u[0],e[3*t+1][3*n]=u[1]);break;default:console.error(&quot;mesh.js: &quot;+c+&quot; invalid path type.&quot;)}if(0===t&amp;&amp;0===n||r&gt;0){let e=window.getComputedStyle(o[r]).stopColor.match(/^rgb\s*\(\s*(\d+)\s*,\s*(\d+)\s*,\s*(\d+)\s*\)$/i),a=window.getComputedStyle(o[r]).stopOpacity,h=255;a&amp;&amp;(h=Math.floor(255*a)),e&amp;&amp;(0===i?(s[t][n]=[],s[t][n][0]=Math.floor(e[1]),s[t][n][1]=Math.floor(e[2]),s[t][n][2]=Math.floor(e[3]),s[t][n][3]=h):1===i?(s[t][n+1]=[],s[t][n+1][0]=Math.floor(e[1]),s[t][n+1][1]=Math.floor(e[2]),s[t][n+1][2]=Math.floor(e[3]),s[t][n+1][3]=h):2===i?(s[t+1][n+1]=[],s[t+1][n+1][0]=Math.floor(e[1]),s[t+1][n+1][1]=Math.floor(e[2]),s[t+1][n+1][2]=Math.floor(e[3]),s[t+1][n+1][3]=h):3===i&amp;&amp;(s[t+1][n]=[],s[t+1][n][0]=Math.floor(e[1]),s[t+1][n][1]=Math.floor(e[2]),s[t+1][n][2]=Math.floor(e[3]),s[t+1][n][3]=h))}}e[3*t+1][3*n+1]=new x,e[3*t+1][3*n+2]=new x,e[3*t+2][3*n+1]=new x,e[3*t+2][3*n+2]=new x,e[3*t+1][3*n+1].x=(-4*e[3*t][3*n].x+6*(e[3*t][3*n+1].x+e[3*t+1][3*n].x)+-2*(e[3*t][3*n+3].x+e[3*t+3][3*n].x)+3*(e[3*t+3][3*n+1].x+e[3*t+1][3*n+3].x)+-1*e[3*t+3][3*n+3].x)/9,e[3*t+1][3*n+2].x=(-4*e[3*t][3*n+3].x+6*(e[3*t][3*n+2].x+e[3*t+1][3*n+3].x)+-2*(e[3*t][3*n].x+e[3*t+3][3*n+3].x)+3*(e[3*t+3][3*n+2].x+e[3*t+1][3*n].x)+-1*e[3*t+3][3*n].x)/9,e[3*t+2][3*n+1].x=(-4*e[3*t+3][3*n].x+6*(e[3*t+3][3*n+1].x+e[3*t+2][3*n].x)+-2*(e[3*t+3][3*n+3].x+e[3*t][3*n].x)+3*(e[3*t][3*n+1].x+e[3*t+2][3*n+3].x)+-1*e[3*t][3*n+3].x)/9,e[3*t+2][3*n+2].x=(-4*e[3*t+3][3*n+3].x+6*(e[3*t+3][3*n+2].x+e[3*t+2][3*n+3].x)+-2*(e[3*t+3][3*n].x+e[3*t][3*n+3].x)+3*(e[3*t][3*n+2].x+e[3*t+2][3*n].x)+-1*e[3*t][3*n].x)/9,e[3*t+1][3*n+1].y=(-4*e[3*t][3*n].y+6*(e[3*t][3*n+1].y+e[3*t+1][3*n].y)+-2*(e[3*t][3*n+3].y+e[3*t+3][3*n].y)+3*(e[3*t+3][3*n+1].y+e[3*t+1][3*n+3].y)+-1*e[3*t+3][3*n+3].y)/9,e[3*t+1][3*n+2].y=(-4*e[3*t][3*n+3].y+6*(e[3*t][3*n+2].y+e[3*t+1][3*n+3].y)+-2*(e[3*t][3*n].y+e[3*t+3][3*n+3].y)+3*(e[3*t+3][3*n+2].y+e[3*t+1][3*n].y)+-1*e[3*t+3][3*n].y)/9,e[3*t+2][3*n+1].y=(-4*e[3*t+3][3*n].y+6*(e[3*t+3][3*n+1].y+e[3*t+2][3*n].y)+-2*(e[3*t+3][3*n+3].y+e[3*t][3*n].y)+3*(e[3*t][3*n+1].y+e[3*t+2][3*n+3].y)+-1*e[3*t][3*n+3].y)/9,e[3*t+2][3*n+2].y=(-4*e[3*t+3][3*n+3].y+6*(e[3*t+3][3*n+2].y+e[3*t+2][3*n+3].y)+-2*(e[3*t+3][3*n].y+e[3*t][3*n+3].y)+3*(e[3*t][3*n+2].y+e[3*t+2][3*n].y)+-1*e[3*t][3*n].y)/9}}this.nodes=e,this.colors=s}paintMesh(t,e){let s=(this.nodes.length-1)/3,r=(this.nodes[0].length-1)/3;if(&quot;bilinear&quot;===this.type||s&lt;2||r&lt;2){let n;for(let o=0;o&lt;s;++o)for(let s=0;s&lt;r;++s){let r=[];for(let t=3*o,e=3*o+4;t&lt;e;++t)r.push(this.nodes[t].slice(3*s,3*s+4));let i=[];i.push(this.colors[o].slice(s,s+2)),i.push(this.colors[o+1].slice(s,s+2)),(n=new m(r,i)).paint(t,e)}}else{let n,o,a,h,l,d,u;const x=s,g=r;s++,r++;let w=new Array(s);for(let t=0;t&lt;s;++t){w[t]=new Array(r);for(let e=0;e&lt;r;++e)w[t][e]=[],w[t][e][0]=this.nodes[3*t][3*e],w[t][e][1]=this.colors[t][e]}for(let t=0;t&lt;s;++t)for(let e=0;e&lt;r;++e)0!==t&amp;&amp;t!==x&amp;&amp;(n=i(w[t-1][e][0],w[t][e][0]),o=i(w[t+1][e][0],w[t][e][0]),w[t][e][2]=c(w[t-1][e][1],w[t][e][1],w[t+1][e][1],n,o)),0!==e&amp;&amp;e!==g&amp;&amp;(n=i(w[t][e-1][0],w[t][e][0]),o=i(w[t][e+1][0],w[t][e][0]),w[t][e][3]=c(w[t][e-1][1],w[t][e][1],w[t][e+1][1],n,o));for(let t=0;t&lt;r;++t){w[0][t][2]=[],w[x][t][2]=[];for(let e=0;e&lt;4;++e)n=i(w[1][t][0],w[0][t][0]),o=i(w[x][t][0],w[x-1][t][0]),w[0][t][2][e]=n&gt;0?2*(w[1][t][1][e]-w[0][t][1][e])/n-w[1][t][2][e]:0,w[x][t][2][e]=o&gt;0?2*(w[x][t][1][e]-w[x-1][t][1][e])/o-w[x-1][t][2][e]:0}for(let t=0;t&lt;s;++t){w[t][0][3]=[],w[t][g][3]=[];for(let e=0;e&lt;4;++e)n=i(w[t][1][0],w[t][0][0]),o=i(w[t][g][0],w[t][g-1][0]),w[t][0][3][e]=n&gt;0?2*(w[t][1][1][e]-w[t][0][1][e])/n-w[t][1][3][e]:0,w[t][g][3][e]=o&gt;0?2*(w[t][g][1][e]-w[t][g-1][1][e])/o-w[t][g-1][3][e]:0}for(let s=0;s&lt;x;++s)for(let r=0;r&lt;g;++r){let n=i(w[s][r][0],w[s+1][r][0]),o=i(w[s][r+1][0],w[s+1][r+1][0]),c=i(w[s][r][0],w[s][r+1][0]),x=i(w[s+1][r][0],w[s+1][r+1][0]),g=[[],[],[],[]];for(let t=0;t&lt;4;++t){(d=[])[0]=w[s][r][1][t],d[1]=w[s+1][r][1][t],d[2]=w[s][r+1][1][t],d[3]=w[s+1][r+1][1][t],d[4]=w[s][r][2][t]*n,d[5]=w[s+1][r][2][t]*n,d[6]=w[s][r+1][2][t]*o,d[7]=w[s+1][r+1][2][t]*o,d[8]=w[s][r][3][t]*c,d[9]=w[s+1][r][3][t]*x,d[10]=w[s][r+1][3][t]*c,d[11]=w[s+1][r+1][3][t]*x,d[12]=0,d[13]=0,d[14]=0,d[15]=0,u=f(d);for(let e=0;e&lt;9;++e){g[t][e]=[];for(let s=0;s&lt;9;++s)g[t][e][s]=p(u,e/8,s/8),g[t][e][s]&gt;255?g[t][e][s]=255:g[t][e][s]&lt;0&amp;&amp;(g[t][e][s]=0)}}h=[];for(let t=3*s,e=3*s+4;t&lt;e;++t)h.push(this.nodes[t].slice(3*r,3*r+4));l=y(h);for(let s=0;s&lt;8;++s)for(let r=0;r&lt;8;++r)(a=new m(l[s][r],[[[g[0][s][r],g[1][s][r],g[2][s][r],g[3][s][r]],[g[0][s][r+1],g[1][s][r+1],g[2][s][r+1],g[3][s][r+1]]],[[g[0][s+1][r],g[1][s+1][r],g[2][s+1][r],g[3][s+1][r]],[g[0][s+1][r+1],g[1][s+1][r+1],g[2][s+1][r+1],g[3][s+1][r+1]]]])).paint(t,e)}}}transform(t){if(t instanceof x)for(let e=0,s=this.nodes.length;e&lt;s;++e)for(let s=0,r=this.nodes[0].length;s&lt;r;++s)this.nodes[e][s]=this.nodes[e][s].add(t);else if(t instanceof g)for(let e=0,s=this.nodes.length;e&lt;s;++e)for(let s=0,r=this.nodes[0].length;s&lt;r;++s)this.nodes[e][s]=this.nodes[e][s].transform(t)}scale(t){for(let e=0,s=this.nodes.length;e&lt;s;++e)for(let s=0,r=this.nodes[0].length;s&lt;r;++s)this.nodes[e][s]=this.nodes[e][s].scale(t)}}document.querySelectorAll(&quot;rect,circle,ellipse,path,text&quot;).forEach((r,n)=&gt;{let o=r.getAttribute(&quot;id&quot;);o||(o=&quot;patchjs_shape&quot;+n,r.setAttribute(&quot;id&quot;,o));const i=r.style.fill.match(/^url\(\s*&quot;?\s*#([^\s&quot;]+)&quot;?\s*\)/),a=r.style.stroke.match(/^url\(\s*&quot;?\s*#([^\s&quot;]+)&quot;?\s*\)/);if(i&amp;&amp;i[1]){const a=document.getElementById(i[1]);if(a&amp;&amp;&quot;meshgradient&quot;===a.nodeName){const i=r.getBBox();let l=document.createElementNS(s,&quot;canvas&quot;);d(l,{width:i.width,height:i.height});const c=l.getContext(&quot;2d&quot;);let u=c.createImageData(i.width,i.height);const f=new b(a);&quot;objectBoundingBox&quot;===a.getAttribute(&quot;gradientUnits&quot;)&amp;&amp;f.scale(new x(i.width,i.height));const p=a.getAttribute(&quot;gradientTransform&quot;);null!=p&amp;&amp;f.transform(h(p)),&quot;userSpaceOnUse&quot;===a.getAttribute(&quot;gradientUnits&quot;)&amp;&amp;f.transform(new x(-i.x,-i.y)),f.paintMesh(u.data,l.width),c.putImageData(u,0,0);const y=document.createElementNS(t,&quot;image&quot;);d(y,{width:i.width,height:i.height,x:i.x,y:i.y});let g=l.toDataURL();y.setAttributeNS(e,&quot;xlink:href&quot;,g),r.parentNode.insertBefore(y,r),r.style.fill=&quot;none&quot;;const w=document.createElementNS(t,&quot;use&quot;);w.setAttributeNS(e,&quot;xlink:href&quot;,&quot;#&quot;+o);const m=&quot;patchjs_clip&quot;+n,M=document.createElementNS(t,&quot;clipPath&quot;);M.setAttribute(&quot;id&quot;,m),M.appendChild(w),r.parentElement.insertBefore(M,r),y.setAttribute(&quot;clip-path&quot;,&quot;url(#&quot;+m+&quot;)&quot;),u=null,l=null,g=null}}if(a&amp;&amp;a[1]){const o=document.getElementById(a[1]);if(o&amp;&amp;&quot;meshgradient&quot;===o.nodeName){const i=parseFloat(r.style.strokeWidth.slice(0,-2))*(parseFloat(r.style.strokeMiterlimit)||parseFloat(r.getAttribute(&quot;stroke-miterlimit&quot;))||1),a=r.getBBox(),l=Math.trunc(a.width+i),c=Math.trunc(a.height+i),u=Math.trunc(a.x-i/2),f=Math.trunc(a.y-i/2);let p=document.createElementNS(s,&quot;canvas&quot;);d(p,{width:l,height:c});const y=p.getContext(&quot;2d&quot;);let g=y.createImageData(l,c);const w=new b(o);&quot;objectBoundingBox&quot;===o.getAttribute(&quot;gradientUnits&quot;)&amp;&amp;w.scale(new x(l,c));const m=o.getAttribute(&quot;gradientTransform&quot;);null!=m&amp;&amp;w.transform(h(m)),&quot;userSpaceOnUse&quot;===o.getAttribute(&quot;gradientUnits&quot;)&amp;&amp;w.transform(new x(-u,-f)),w.paintMesh(g.data,p.width),y.putImageData(g,0,0);const M=document.createElementNS(t,&quot;image&quot;);d(M,{width:l,height:c,x:0,y:0});let S=p.toDataURL();M.setAttributeNS(e,&quot;xlink:href&quot;,S);const k=&quot;pattern_clip&quot;+n,A=document.createElementNS(t,&quot;pattern&quot;);d(A,{id:k,patternUnits:&quot;userSpaceOnUse&quot;,width:l,height:c,x:u,y:f}),A.appendChild(M),o.parentNode.appendChild(A),r.style.stroke=&quot;url(#&quot;+k+&quot;)&quot;,g=null,p=null,S=null}}})}();
</script>
</svg>
