<?xml version="1.0" encoding="UTF-8" standalone="no"?>
<svg
   viewBox="0 0 400 400"
   version="1.1"
   id="svg16309"
   sodipodi:docname="features_Multi-tenancy_zabbix.svg"
   inkscape:version="1.2.1 (9c6d41e410, 2022-07-14)"
   xmlns:inkscape="http://www.inkscape.org/namespaces/inkscape"
   xmlns:sodipodi="http://sodipodi.sourceforge.net/DTD/sodipodi-0.dtd"
   xmlns:xlink="http://www.w3.org/1999/xlink"
   xmlns="http://www.w3.org/2000/svg"
   xmlns:svg="http://www.w3.org/2000/svg">
  <sodipodi:namedview
     id="namedview16311"
     pagecolor="#ffffff"
     bordercolor="#000000"
     borderopacity="0.25"
     inkscape:showpageshadow="2"
     inkscape:pageopacity="0.0"
     inkscape:pagecheckerboard="0"
     inkscape:deskcolor="#d1d1d1"
     showgrid="false"
     inkscape:zoom="4.185"
     inkscape:cx="198.80526"
     inkscape:cy="216.7264"
     inkscape:window-width="1920"
     inkscape:window-height="1017"
     inkscape:window-x="1912"
     inkscape:window-y="-8"
     inkscape:window-maximized="1"
     inkscape:current-layer="svg16309" />
  <defs
     id="defs16044">
    <style
       id="style16042">.cls-1,.cls-2,.cls-3,.cls-8{fill:none;stroke-linecap:round;stroke-linejoin:round;stroke-width:2px;}.cls-1{stroke:#3e4c70;}.cls-2{stroke:#d62027;}.cls-3,.cls-8{stroke:#158aff;}.cls-4{fill:#d62027;}.cls-5{fill:#dc0c12;}.cls-6{fill:#fff;}.cls-7{fill:#3e4c70;}.cls-8{stroke-dasharray:4.6 7.66;}</style>
    <clipPath
       id="SVGID_2_">
			<use
   xlink:href="#SVGID_1_"
   style="overflow:visible"
   id="use5534" />

		</clipPath>
    <clipPath
       id="clipPath13178">
			<use
   xlink:href="#SVGID_1_"
   style="overflow:visible"
   id="use13176" />

		</clipPath>
    <clipPath
       id="clipPath13182">
			<use
   xlink:href="#SVGID_1_"
   style="overflow:visible"
   id="use13180" />

		</clipPath>
    <clipPath
       id="clipPath13186">
			<use
   xlink:href="#SVGID_1_"
   style="overflow:visible"
   id="use13184" />

		</clipPath>
    <clipPath
       id="clipPath13190">
			<use
   xlink:href="#SVGID_1_"
   style="overflow:visible"
   id="use13188" />

		</clipPath>
    <clipPath
       id="clipPath13194">
			<use
   xlink:href="#SVGID_1_"
   style="overflow:visible"
   id="use13192" />

		</clipPath>
    <clipPath
       id="clipPath13198">
			<use
   xlink:href="#SVGID_1_"
   style="overflow:visible"
   id="use13196" />

		</clipPath>
    <rect
       id="SVGID_1_"
       y="0"
       width="168"
       height="44"
       x="0" />
    <clipPath
       id="SVGID_2_-2">
			<use
   xlink:href="#SVGID_1_"
   style="overflow:visible"
   id="use5534-3" />

		</clipPath>
    <clipPath
       id="clipPath17765">
			<use
   xlink:href="#SVGID_1_"
   style="overflow:visible"
   id="use17763" />

		</clipPath>
    <clipPath
       id="clipPath17769">
			<use
   xlink:href="#SVGID_1_"
   style="overflow:visible"
   id="use17767" />

		</clipPath>
    <clipPath
       id="clipPath17773">
			<use
   xlink:href="#SVGID_1_"
   style="overflow:visible"
   id="use17771" />

		</clipPath>
    <clipPath
       id="clipPath17777">
			<use
   xlink:href="#SVGID_1_"
   style="overflow:visible"
   id="use17775" />

		</clipPath>
    <clipPath
       id="clipPath17781">
			<use
   xlink:href="#SVGID_1_"
   style="overflow:visible"
   id="use17779" />

		</clipPath>
    <clipPath
       id="clipPath17785">
			<use
   xlink:href="#SVGID_1_"
   style="overflow:visible"
   id="use17783" />

		</clipPath>
    <rect
       id="rect6892"
       y="0"
       width="168"
       height="44"
       x="0" />
  </defs>
  <rect
     class="cls-1"
     x="34.5"
     y="51"
     width="76.5"
     height="56.139999"
     rx="5.9000001"
     id="rect16046" />
  <polyline
     class="cls-1"
     points="92.9 67.4 92.9 61.2 99.9 61.2 99.9 67.3"
     id="polyline16048" />
  <polyline
     class="cls-1"
     points="99.9 73 99.9 97 92.9 97 92.9 73"
     id="polyline16050" />
  <rect
     class="cls-2"
     x="90.300003"
     y="67.400002"
     width="12.2"
     height="5.4099998"
     id="rect16052" />
  <polyline
     class="cls-1"
     points="61.3 67.4 61.3 61.2 68.3 61.2 68.3 67.3"
     id="polyline16054" />
  <polyline
     class="cls-1"
     points="68.3 73 68.3 97 61.3 97 61.3 73"
     id="polyline16056" />
  <rect
     class="cls-3"
     x="58.700001"
     y="67.400002"
     width="12.2"
     height="5.4099998"
     id="rect16058" />
  <polyline
     class="cls-1"
     points="77.1 81.1 77.1 61.2 84.1 61.2 84.1 81"
     id="polyline16060" />
  <polyline
     class="cls-1"
     points="84.1 86.7 84.1 97 77.1 97 77.1 86.7"
     id="polyline16062" />
  <rect
     class="cls-2"
     x="74.5"
     y="81.099998"
     width="12.2"
     height="5.4099998"
     id="rect16064" />
  <polyline
     class="cls-1"
     points="45.5 85.3 45.5 61.2 52.5 61.2 52.5 85.2"
     id="polyline16066" />
  <polyline
     class="cls-1"
     points="52.5 90.9 52.5 97 45.5 97 45.5 90.9"
     id="polyline16068" />
  <rect
     class="cls-2"
     x="42.900002"
     y="85.300003"
     width="12.2"
     height="5.4099998"
     id="rect16070" />
  <path
     class="cls-4"
     d="m 239.7,156.7 v 78.5 h -79.4 v -78.5 h 79.4 m 0,-3.7 h -79.4 a 3.8,3.8 0 0 0 -3.7,3.7 v 78.5 a 3.7,3.7 0 0 0 3.7,3.7 h 79.4 a 3.7,3.7 0 0 0 3.7,-3.7 v -78.5 a 3.8,3.8 0 0 0 -3.7,-3.7 z"
     id="path16072" />
  <line
     class="cls-3"
     x1="143.8"
     y1="169.2"
     x2="114.5"
     y2="169.2"
     id="line16076" />
  <polyline
     class="cls-3"
     points="121.5 176.2 114.5 169.2 121.5 162.3"
     id="polyline16078" />
  <path
     class="cls-1"
     d="m 17.7,209.1 v -54.4 a 2.8,2.8 0 0 1 2.7,-2.8 h 74.9 a 2.8,2.8 0 0 1 2.8,2.8 v 28.6"
     id="path16080" />
  <polyline
     class="cls-1"
     points="81.6 203.7 22.7 203.7 22.7 157.3 93 157.3 93 183.4"
     id="polyline16082" />
  <path
     class="cls-1"
     d="M 79.4,217.7 H 16 a 8.6,8.6 0 0 1 -8.6,-8.6 h 42.1 v 1.1 a 2.3,2.3 0 0 0 2.3,2.4 H 64 a 2.3,2.3 0 0 0 2.3,-2.4 v -1.1 h 16.6"
     id="path16084" />
  <rect
     class="cls-5"
     x="26.799999"
     y="161"
     width="16.700001"
     height="4.8400002"
     id="rect16086" />
  <polygon
     class="cls-6"
     points="30.6,162.3 28.9,164.4 30.6,164.4 30.6,164.7 28.4,164.7 28.4,164.4 30.1,162.4 28.5,162.4 28.5,162.1 30.6,162.1 "
     id="polygon16088" />
  <path
     class="cls-6"
     d="m 31.8,162.1 h 0.4 l 1,2.6 H 32.9 L 32.6,164 h -1.2 l -0.2,0.7 h -0.4 z m 0.2,0.3 -0.5,1.3 h 1 z"
     id="path16090" />
  <path
     class="cls-6"
     d="m 33.6,162.1 h 1 a 0.7,0.7 0 0 1 0.6,0.1 c 0.2,0.1 0.2,0.3 0.2,0.5 0,0.2 0,0.3 -0.1,0.4 l -0.3,0.2 0.4,0.2 a 0.4,0.4 0 0 1 0.1,0.5 0.4,0.4 0 0 1 -0.2,0.5 0.8,0.8 0 0 1 -0.7,0.2 h -1 z m 0.4,0.3 v 0.8 h 0.9 a 0.5,0.5 0 0 0 0.1,-0.6 h -1 z m 0,1 v 1 h 1 a 0.6,0.6 0 0 0 0,-0.8 h -1 z"
     id="path16092" />
  <path
     class="cls-6"
     d="M 36.1,162.1 H 37 a 0.8,0.8 0 0 1 0.7,0.1 0.8,0.8 0 0 1 0.2,0.5 c 0,0.2 0,0.3 -0.1,0.4 l -0.3,0.2 0.4,0.2 a 0.7,0.7 0 0 1 0.1,0.5 0.8,0.8 0 0 1 -0.2,0.5 1,1 0 0 1 -0.7,0.2 h -1 z m 0.4,0.3 v 0.8 h 0.9 c 0.2,-0.2 0.2,-0.5 0,-0.6 h -0.9 z m 0,1 v 1 h 1 a 0.6,0.6 0 0 0 0,-0.8 h -1 z"
     id="path16094" />
  <polygon
     class="cls-6"
     points="40.7,163 41.3,162.1 41.7,162.1 40.9,163.3 41.8,164.7 41.4,164.7 40.7,163.6 40,164.7 39.6,164.7 40.5,163.3 39.7,162.1 40.1,162.1 "
     id="polygon16096" />
  <rect
     class="cls-6"
     x="38.599998"
     y="162.10001"
     width="0.40000001"
     height="2.6400001"
     id="rect16098" />
  <rect
     class="cls-2"
     x="27.6"
     y="169.60001"
     width="37.900002"
     height="11.95"
     id="rect16100" />
  <rect
     class="cls-1"
     x="69.599998"
     y="169.60001"
     width="18.700001"
     height="11.95"
     id="rect16102" />
  <polyline
     class="cls-1"
     points="81.3 197.7 50.4 197.7 50.4 185.8 87.3 185.8"
     id="polyline16104" />
  <rect
     class="cls-1"
     x="-46.299999"
     y="-197.7"
     width="18.700001"
     height="11.95"
     transform="scale(-1)"
     id="rect16106" />
  <path
     class="cls-1"
     d="m 107.9,213.4 14,14 v 6.1 a 6.5,6.5 0 0 1 -6.5,6.5 h -39 A 6.5,6.5 0 0 1 70,233.5 v -5.6 l 14.4,-14.5"
     id="path16108" />
  <path
     class="cls-7"
     d="m 95.9,184.4 c 7.3,0 13,5.5 13,16.2 0,10.7 -5.7,19.5 -13,19.5 -7.3,0 -13,-8.7 -13,-19.5 0,-10.8 5.8,-16.2 13,-16.2 m 0,-2 c -9.1,0 -15,7.1 -15,18.2 0,11.1 6.6,21.5 15,21.5 8.4,0 15,-9.4 15,-21.5 0,-12.1 -5.9,-18.2 -15,-18.2 z"
     id="path16110" />
  <path
     class="cls-1"
     d="m 382.3,209.1 v -54.4 a 2.8,2.8 0 0 0 -2.7,-2.8 h -74.9 a 2.8,2.8 0 0 0 -2.8,2.8 v 28.4"
     id="path16112" />
  <polyline
     class="cls-1"
     points="318.1 203.7 377.3 203.7 377.3 157.3 307 157.3 307 183.6"
     id="polyline16114" />
  <path
     class="cls-1"
     d="M 320.6,217.7 H 384 a 8.6,8.6 0 0 0 8.6,-8.6 h -42.1 v 1.1 a 2.3,2.3 0 0 1 -2.3,2.4 H 336 a 2.3,2.3 0 0 1 -2.3,-2.4 v -1.1 h -16.3"
     id="path16116" />
  <rect
     class="cls-5"
     x="310.89999"
     y="161"
     width="16.700001"
     height="4.8400002"
     id="rect16118" />
  <polygon
     class="cls-6"
     points="314.7,162.3 313,164.4 314.7,164.4 314.7,164.7 312.5,164.7 312.5,164.4 314.2,162.4 312.6,162.4 312.6,162.1 314.7,162.1 "
     id="polygon16120" />
  <path
     class="cls-6"
     d="m 315.9,162.1 h 0.4 l 1.1,2.6 H 317 l -0.3,-0.7 h -1.2 l -0.2,0.7 h -0.4 z m 0.2,0.3 -0.4,1.3 h 0.9 z"
     id="path16122" />
  <path
     class="cls-6"
     d="m 317.8,162.1 h 0.9 a 0.7,0.7 0 0 1 0.6,0.1 c 0.2,0.1 0.2,0.3 0.2,0.5 0,0.2 0,0.3 -0.1,0.4 l -0.3,0.2 0.4,0.2 a 0.8,0.8 0 0 1 0.2,0.5 0.5,0.5 0 0 1 -0.3,0.5 0.8,0.8 0 0 1 -0.7,0.2 h -0.9 z m 0.3,0.3 v 0.8 h 0.9 a 0.5,0.5 0 0 0 0.1,-0.6 h -1 z m 0,1 v 1 h 1 a 0.6,0.6 0 0 0 0,-0.8 h -1 z"
     id="path16124" />
  <path
     class="cls-6"
     d="m 320.2,162.1 h 1 a 0.7,0.7 0 0 1 0.6,0.1 0.8,0.8 0 0 1 0.2,0.5 c 0,0.2 0,0.3 -0.1,0.4 l -0.3,0.2 0.4,0.2 a 0.7,0.7 0 0 1 0.1,0.5 0.8,0.8 0 0 1 -0.2,0.5 1,1 0 0 1 -0.7,0.2 h -1 z m 0.4,0.3 v 0.8 h 0.9 c 0.2,-0.2 0.2,-0.5 0,-0.6 h -0.9 z m 0,1 v 1 h 1 a 0.6,0.6 0 0 0 0,-0.8 h -1 z"
     id="path16126" />
  <polygon
     class="cls-6"
     points="324.8,163 325.4,162.1 325.8,162.1 325,163.3 325.9,164.7 325.5,164.7 324.8,163.6 324.1,164.7 323.7,164.7 324.6,163.3 323.8,162.1 324.2,162.1 "
     id="polygon16128" />
  <rect
     class="cls-6"
     x="322.70001"
     y="162.10001"
     width="0.40000001"
     height="2.6400001"
     id="rect16130" />
  <rect
     class="cls-1"
     x="311.70001"
     y="169.60001"
     width="37.900002"
     height="11.95"
     id="rect16132" />
  <rect
     class="cls-1"
     x="353.70001"
     y="169.60001"
     width="18.700001"
     height="11.95"
     id="rect16134" />
  <rect
     class="cls-1"
     x="-372.39999"
     y="-197.7"
     width="37.900002"
     height="11.95"
     transform="scale(-1)"
     id="rect16136" />
  <polyline
     class="cls-2"
     points="312.5 185.8 330.4 185.8 330.4 197.7 318.1 197.7"
     id="polyline16138" />
  <path
     class="cls-1"
     d="m 292.1,213.4 -14,14 v 6.1 a 6.5,6.5 0 0 0 6.5,6.5 h 39 a 6.5,6.5 0 0 0 6.4,-6.5 v -5.6 l -14.3,-14.5"
     id="path16140" />
  <path
     class="cls-7"
     d="m 304.1,184.4 c 7.2,0 13,5.4 13,16.2 0,10.8 -5.8,19.5 -13,19.5 -7.2,0 -13,-8.7 -13,-19.5 0,-10.8 5.7,-16.2 13,-16.2 m 0,-2 c -9.1,0 -15,7.1 -15,18.2 0,11.1 6.6,21.5 15,21.5 8.4,0 15,-9.4 15,-21.5 0,-12.1 -5.9,-18.2 -15,-18.2 z"
     id="path16142" />
  <line
     class="cls-3"
     x1="256.20001"
     y1="169.2"
     x2="285.5"
     y2="169.2"
     id="line16144" />
  <polyline
     class="cls-3"
     points="278.5 162.3 285.5 169.2 278.5 176.2"
     id="polyline16146" />
  <line
     class="cls-3"
     x1="200"
     y1="140"
     x2="200"
     y2="110.7"
     id="line16148" />
  <polyline
     class="cls-3"
     points="193 117.7 200 110.7 207 117.7"
     id="polyline16150" />
  <line
     class="cls-3"
     x1="200"
     y1="251.89999"
     x2="200"
     y2="281.29999"
     id="line16152" />
  <polyline
     class="cls-3"
     points="207 274.3 200 281.3 193 274.3"
     id="polyline16154" />
  <path
     class="cls-1"
     d="M 158.7,70.6 V 16.2 a 2.8,2.8 0 0 1 2.8,-2.8 h 74.9 a 2.7,2.7 0 0 1 2.7,2.8 v 28.6"
     id="path16156" />
  <polyline
     class="cls-1"
     points="222.7 65.2 163.8 65.2 163.8 18.8 234.1 18.8 234.1 44.6"
     id="polyline16158" />
  <path
     class="cls-1"
     d="M 221.2,79.1 H 157 a 8.6,8.6 0 0 1 -8.6,-8.5 h 42.1 v 1.1 a 2.3,2.3 0 0 0 2.3,2.3 h 12.3 a 2.3,2.3 0 0 0 2.3,-2.3 V 70.6 H 224"
     id="path16160" />
  <rect
     class="cls-5"
     x="167.8"
     y="22.4"
     width="16.700001"
     height="4.8400002"
     id="rect16162" />
  <polygon
     class="cls-6"
     points="171.6,23.8 169.9,25.9 171.7,25.9 171.7,26.2 169.5,26.2 169.5,25.9 171.2,23.8 169.5,23.8 169.5,23.5 171.6,23.5 "
     id="polygon16164" />
  <path
     class="cls-6"
     d="m 172.9,23.5 h 0.4 l 1,2.7 h -0.4 l -0.2,-0.7 h -1.2 l -0.3,0.7 h -0.4 z m 0.2,0.4 -0.5,1.3 h 1 z"
     id="path16166" />
  <path
     class="cls-6"
     d="m 174.7,23.5 h 0.9 l 0.7,0.2 a 0.8,0.8 0 0 1 0.2,0.5 0.8,0.8 0 0 1 -0.1,0.4 H 176 l 0.5,0.3 a 0.6,0.6 0 0 1 0.1,0.4 1.1,1.1 0 0 1 -0.2,0.6 l -0.7,0.2 h -1 z m 0.4,0.3 v 0.8 h 0.9 a 0.5,0.5 0 0 0 0,-0.6 h -0.9 z m 0,1.1 v 1 h 1 a 0.6,0.6 0 0 0 0,-0.8 h -1 z"
     id="path16168" />
  <path
     class="cls-6"
     d="m 177.2,23.5 h 0.9 l 0.6,0.2 a 0.5,0.5 0 0 1 0.3,0.5 c 0,0.1 -0.1,0.2 -0.1,0.4 h -0.4 l 0.4,0.3 0.2,0.4 a 0.7,0.7 0 0 1 -0.3,0.6 l -0.7,0.2 h -0.9 z m 0.3,0.3 v 0.8 h 1 a 0.6,0.6 0 0 0 0,-0.6 h -1 z m 0,1.1 v 1 h 1.1 a 1.1,1.1 0 0 0 0,-0.8 h -1.1 z"
     id="path16170" />
  <polygon
     class="cls-6"
     points="181.7,24.5 182.4,23.5 182.8,23.5 182,24.8 182.9,26.2 182.5,26.2 181.7,25 181,26.2 180.6,26.2 181.6,24.8 180.7,23.5 181.1,23.5 "
     id="polygon16172" />
  <rect
     class="cls-6"
     x="179.7"
     y="23.5"
     width="0.40000001"
     height="2.6400001"
     id="rect16174" />
  <rect
     class="cls-1"
     x="168.60001"
     y="31"
     width="37.900002"
     height="11.95"
     id="rect16176" />
  <rect
     class="cls-2"
     x="210.7"
     y="31"
     width="18.700001"
     height="11.95"
     id="rect16178" />
  <polyline
     class="cls-1"
     points="222.7 59.2 191.5 59.2 191.5 47.2 229.4 47.2"
     id="polyline16180" />
  <rect
     class="cls-1"
     x="-187.39999"
     y="-59.200001"
     width="18.700001"
     height="11.95"
     transform="scale(-1)"
     id="rect16182" />
  <path
     class="cls-1"
     d="m 249,74.8 14,14.1 V 95 a 6.5,6.5 0 0 1 -6.5,6.5 h -39 A 6.5,6.5 0 0 1 211,95 v -5.7 l 14.5,-14.5"
     id="path16184" />
  <path
     class="cls-7"
     d="m 237,45.8 c 7.2,0 13,5.5 13,16.3 0,10.8 -5.8,19.5 -13,19.5 -7.2,0 -13,-8.7 -13,-19.5 0,-10.8 5.8,-16.3 13,-16.3 m 0,-2 c -9.1,0 -15,7.2 -15,18.3 0,11.1 6.6,21.5 15,21.5 8.4,0 15,-9.5 15,-21.5 0,-12 -5.9,-18.3 -15,-18.3 z"
     id="path16186" />
  <path
     class="cls-1"
     d="m 241.7,355.7 v -54.4 a 2.7,2.7 0 0 0 -2.8,-2.8 h -74.8 a 2.7,2.7 0 0 0 -2.8,2.8 v 28.5"
     id="path16188" />
  <polyline
     class="cls-1"
     points="178 350.3 236.6 350.3 236.6 303.9 166.4 303.9 166.4 329.8"
     id="polyline16190" />
  <path
     class="cls-1"
     d="m 180,364.2 h 63.4 a 8.5,8.5 0 0 0 8.6,-8.5 h -42.1 v 1.1 a 2.3,2.3 0 0 1 -2.3,2.3 h -12.2 a 2.3,2.3 0 0 1 -2.3,-2.3 v -1.1 h -16.4"
     id="path16192" />
  <rect
     class="cls-5"
     x="170.3"
     y="307.5"
     width="16.700001"
     height="4.8400002"
     id="rect16194" />
  <polygon
     class="cls-6"
     points="174.1,308.9 172.4,311 174.1,311 174.1,311.3 171.9,311.3 171.9,311 173.6,308.9 172,308.9 172,308.6 174.1,308.6 "
     id="polygon16196" />
  <path
     class="cls-6"
     d="m 175.3,308.6 h 0.4 l 1,2.7 h -0.3 l -0.3,-0.7 h -1.2 l -0.2,0.7 h -0.4 z m 0.2,0.4 -0.5,1.3 h 1 z"
     id="path16198" />
  <path
     class="cls-6"
     d="m 177.1,308.6 h 1 l 0.6,0.2 c 0.2,0.1 0.2,0.3 0.2,0.5 a 0.8,0.8 0 0 1 -0.1,0.4 h -0.3 c 0.1,0.1 0.3,0.1 0.4,0.3 0.1,0.2 0.2,0.3 0.1,0.4 -0.1,0.1 0,0.4 -0.2,0.6 l -0.7,0.2 h -1 z m 0.4,0.3 v 0.8 h 0.9 c 0.2,-0.1 0.2,-0.4 0.1,-0.6 h -1 z m 0,1.1 v 1 h 1 a 0.6,0.6 0 0 0 0,-0.8 h -1 z"
     id="path16200" />
  <path
     class="cls-6"
     d="m 179.6,308.6 h 0.9 l 0.7,0.2 a 0.8,0.8 0 0 1 0.2,0.5 0.8,0.8 0 0 1 -0.1,0.4 H 181 c 0.1,0.1 0.3,0.1 0.4,0.3 a 0.6,0.6 0 0 1 0.1,0.4 1.4,1.4 0 0 1 -0.2,0.6 l -0.7,0.2 h -1 z m 0.4,0.3 v 0.8 h 0.9 c 0.2,-0.1 0.2,-0.4 0,-0.6 H 180 Z m 0,1.1 v 1 h 1 a 0.6,0.6 0 0 0 0,-0.8 h -1 z"
     id="path16202" />
  <polygon
     class="cls-6"
     points="184.2,309.6 184.8,308.6 185.2,308.6 184.4,309.9 185.3,311.3 184.9,311.3 184.2,310.1 183.4,311.3 183.1,311.3 184,309.9 183.2,308.6 183.6,308.6 "
     id="polygon16204" />
  <rect
     class="cls-6"
     x="182.10001"
     y="308.60001"
     width="0.40000001"
     height="2.6400001"
     id="rect16206" />
  <rect
     class="cls-1"
     x="171"
     y="316.10001"
     width="37.900002"
     height="11.95"
     id="rect16208" />
  <rect
     class="cls-1"
     x="213.10001"
     y="316.10001"
     width="18.700001"
     height="11.95"
     id="rect16210" />
  <rect
     class="cls-2"
     x="-231.8"
     y="-344.30002"
     width="37.900002"
     height="11.95"
     transform="scale(-1)"
     id="rect16212" />
  <polyline
     class="cls-1"
     points="171.9 332.3 189.8 332.3 189.8 344.3 177.8 344.3"
     id="polyline16214" />
  <path
     class="cls-1"
     d="m 151.5,359.9 -14,14.1 v 6.1 a 6.3,6.3 0 0 0 6.4,6.5 h 39 a 6.5,6.5 0 0 0 6.5,-6.5 v -5.7 L 175,359.9"
     id="path16216" />
  <path
     class="cls-7"
     d="m 163.5,330.9 c 7.2,0 12.9,5.4 12.9,16.3 0,10.9 -5.7,19.5 -12.9,19.5 -7.2,0 -13,-8.8 -13,-19.5 0,-10.7 5.7,-16.3 13,-16.3 m 0,-2 c -9.2,0 -15,7.2 -15,18.3 0,11.1 6.5,21.5 15,21.5 8.5,0 14.9,-9.5 14.9,-21.5 0,-12 -5.8,-18.3 -14.9,-18.3 z"
     id="path16218" />
  <path
     class="cls-1"
     d="m 301.3,58.3 -3.8,9 5.4,4.6 a 31.4,31.4 0 0 0 0,7.5 l -5.5,4.5 3.7,9.1 7.1,-0.6 a 26.1,26.1 0 0 0 5.2,5.3 l -0.6,7.1 9,3.8 4.6,-5.4 a 26.9,26.9 0 0 0 7.5,0 l 4.5,5.5 9.1,-3.6 -0.6,-7.1 a 30.1,30.1 0 0 0 5.4,-5.3 l 7,0.7 3.8,-9 -5.3,-4.6 a 24.2,24.2 0 0 0 0,-7.6 l 5.4,-4.5 -3.6,-9 -7,0.5 a 25.1,25.1 0 0 0 -5.4,-5.4 l 0.7,-7 -9,-3.8 -4.6,5.3 a 24.2,24.2 0 0 0 -7.6,0 l -4.5,-5.4 -9,3.7 0.5,7 a 30.1,30.1 0 0 0 -5.4,5.3 z"
     id="path16220" />
  <path
     class="cls-1"
     d="m 346.7,67.1 a 18.5,18.5 0 0 1 -23.5,25.7 16.6,16.6 0 0 1 -4.8,-2.9"
     id="path16222" />
  <path
     class="cls-2"
     d="m 314.3,84.9 a 18.5,18.5 0 0 1 23.3,-26.2 17.5,17.5 0 0 1 4.7,2.9 l 0.5,0.5"
     id="path16224" />
  <polyline
     class="cls-2"
     points="330.8 80.7 339.8 71.6 339.8 65 342.6 62.2"
     id="polyline16226" />
  <polyline
     class="cls-1"
     points="340.6 80.8 344 77.4 344 69.9 346.7 67.2"
     id="polyline16228" />
  <circle
     class="cls-1"
     cx="338.29999"
     cy="83.400002"
     r="3"
     id="circle16230" />
  <circle
     class="cls-2"
     cx="328.70001"
     cy="83.400002"
     r="3"
     id="circle16232" />
  <polyline
     class="cls-1"
     points="330.6 71 321.5 80 321.5 86.6 318.7 89.4"
     id="polyline16234" />
  <polyline
     class="cls-2"
     points="320.8 70.9 317.3 74.3 317.3 81.8 314.6 84.5"
     id="polyline16236" />
  <circle
     class="cls-2"
     cx="323.10001"
     cy="68.300003"
     r="3"
     id="circle16238" />
  <circle
     class="cls-1"
     cx="332.70001"
     cy="68.300003"
     r="3"
     id="circle16240" />
  <rect
     class="cls-1"
     x="298.70001"
     y="296.70001"
     width="18.299999"
     height="18.290001"
     id="rect16242" />
  <rect
     class="cls-3"
     x="345.10001"
     y="317.20001"
     width="8.1000004"
     height="8.1300001"
     id="rect16244" />
  <rect
     class="cls-3"
     x="349.60001"
     y="301.79999"
     width="8.1000004"
     height="8.1300001"
     id="rect16246" />
  <rect
     class="cls-3"
     x="345.10001"
     y="286.29999"
     width="8.1000004"
     height="8.1300001"
     id="rect16248" />
  <line
     class="cls-2"
     x1="324.29999"
     y1="305.79999"
     x2="342.79999"
     y2="305.79999"
     id="line16250" />
  <polyline
     class="cls-2"
     points="339.3 302.3 342.8 305.8 339.3 309.3"
     id="polyline16252" />
  <line
     class="cls-2"
     x1="324.79999"
     y1="297.79999"
     x2="336.79999"
     y2="290.39999"
     id="line16254" />
  <polyline
     class="cls-2"
     points="335.7 295.2 336.8 290.4 332 289.3"
     id="polyline16256" />
  <line
     class="cls-2"
     x1="324.79999"
     y1="314"
     x2="336.79999"
     y2="321.39999"
     id="line16258" />
  <polyline
     class="cls-2"
     points="335.7 316.6 336.8 321.4 332 322.5"
     id="polyline16260" />
  <rect
     class="cls-1"
     x="290.60001"
     y="278.89999"
     width="75.300003"
     height="53.939999"
     rx="2.5"
     id="rect16262" />
  <path
     class="cls-3"
     d="m 104.7,316.9 -3,0.4 A 18.4,18.4 0 0 0 99.2,315 l 0.2,-3 -4,-1.5 -1.9,2.4 a 12.2,12.2 0 0 0 -3.3,0.2 l -2.1,-2.3 -3.8,1.8 0.3,3 a 10.7,10.7 0 0 0 -2.2,2.5 l -3.1,-0.2 -1.4,4 2.4,1.9 a 18.2,18.2 0 0 0 0.1,3.3 l -2.2,2.1 1.7,3.8 3.1,-0.4 a 10,10 0 0 0 2.4,2.2 v 2.3 m 15,0.3 -0.3,-3.1 a 17,17 0 0 0 2.2,-2.4 h 3.1 M 94.9,318 a 7.4030399,7.4030399 0 0 1 -5.1,13.9 7.4030399,7.4030399 0 1 1 5.1,-13.9 z"
     id="path16264" />
  <path
     class="cls-7"
     d="m 104.3,278.4 v 58.1 H 41.5 v -58.1 h 62.8 m 0,-2 H 41.5 a 2,2 0 0 0 -2,2 v 58.1 a 2,2 0 0 0 2,2 h 62.8 a 2,2 0 0 0 2,-2 v -58.1 a 2,2 0 0 0 -2,-2 z"
     id="path16266" />
  <line
     class="cls-1"
     x1="41.200001"
     y1="288.5"
     x2="104.8"
     y2="288.5"
     id="line16268" />
  <line
     class="cls-1"
     x1="82.800003"
     y1="283.60001"
     x2="85.599998"
     y2="283.60001"
     id="line16270" />
  <line
     class="cls-1"
     x1="89.599998"
     y1="283.60001"
     x2="92.400002"
     y2="283.60001"
     id="line16272" />
  <line
     class="cls-2"
     x1="96.300003"
     y1="283.60001"
     x2="99.099998"
     y2="283.60001"
     id="line16274" />
  <line
     class="cls-1"
     x1="65.800003"
     y1="299.70001"
     x2="98.400002"
     y2="299.70001"
     id="line16276" />
  <polyline
     class="cls-3"
     points="58.6 303.9 58.6 306.9 49.1 306.9 49.1 297.5 57.5 297.5"
     id="polyline16278" />
  <polyline
     class="cls-2"
     points="51.4 301.5 54.2 304.3 59.5 298.9"
     id="polyline16280" />
  <line
     class="cls-1"
     x1="65.800003"
     y1="305.20001"
     x2="92.5"
     y2="305.20001"
     id="line16282" />
  <line
     class="cls-1"
     x1="65.800003"
     y1="319"
     x2="71.300003"
     y2="319"
     id="line16284" />
  <polyline
     class="cls-3"
     points="58.6 323.2 58.6 326.2 49.1 326.2 49.1 316.7 57.5 316.7"
     id="polyline16286" />
  <polyline
     class="cls-2"
     points="51.4 320.8 54.2 323.5 59.5 318.2"
     id="polyline16288" />
  <line
     class="cls-1"
     x1="65.800003"
     y1="324.5"
     x2="71.099998"
     y2="324.5"
     id="line16290" />
  <path
     class="cls-8"
     d="m 53.5,147.7 a 152.7,152.7 0 0 1 17,-35.5"
     id="path16292" />
  <path
     class="cls-8"
     d="M 66.9,273.9 A 152.2,152.2 0 0 1 47.6,219.8"
     id="path16294" />
  <path
     class="cls-8"
     d="M 147.1,340.9 A 155.5,155.5 0 0 1 107.6,319.5"
     id="path16296" />
  <path
     class="cls-8"
     d="M 287.1,323.3 A 155.4,155.4 0 0 1 244,343.8"
     id="path16298" />
  <path
     class="cls-8"
     d="m 352.2,220.8 a 152.7,152.7 0 0 1 -20.6,55.6"
     id="path16300" />
  <path
     class="cls-8"
     d="m 326.4,107.6 a 153.2,153.2 0 0 1 20.4,41.1"
     id="path16302" />
  <path
     class="cls-8"
     d="m 250.4,50.2 a 153.3,153.3 0 0 1 48.4,27.4"
     id="path16304" />
  <path
     class="cls-8"
     d="M 115.3,67.1 A 151.4,151.4 0 0 1 153.8,48.8"
     id="path16306" />
  <g
     id="g5553"
     transform="matrix(0.51666665,0,0,0.51666665,156.6,185.54615)">
	<g
   id="g5551">
		<defs
   id="defs5532">
			<rect
   id="rect18605"
   y="0"
   width="168"
   height="44"
   x="0" />

		</defs>

		<clipPath
   id="clipPath6078">
			<use
   xlink:href="#SVGID_1_"
   style="overflow:visible"
   id="use6076" />

		</clipPath>

		<rect
   x="0"
   y="0"
   class="st0"
   width="168"
   height="44"
   clip-path="url(#SVGID_2_-2)"
   id="rect5537"
   style="fill:#d40000" />

		<polygon
   class="st1"
   points="31.5,6.7 31.5,9.9 11.9,33.8 32,33.8 32,37.3 6.7,37.3 6.7,34.1 26.3,10.2 7.2,10.2 7.2,6.7 "
   clip-path="url(#SVGID_2_-2)"
   id="polygon5539"
   style="fill:#ffffff" />

		<path
   class="st1"
   d="M 48.4,10.8 42.7,26 H 54.1 Z M 46,6.7 h 4.7 l 11.8,30.6 h -4.3 l -2.8,-7.8 h -14 l -2.8,7.8 h -4.4 z"
   clip-path="url(#SVGID_2_-2)"
   id="path5541"
   style="fill:#ffffff" />

		<path
   class="st1"
   d="m 71.2,22.7 v 11.2 h 6.7 c 2.3,0 3.9,-0.5 5,-1.4 1.1,-0.9 1.6,-2.3 1.6,-4.2 0,-1.9 -0.5,-3.3 -1.6,-4.2 -1.1,-0.9 -2.8,-1.4 -5,-1.4 z m 0,-12.6 v 9.2 h 6.2 c 2,0 3.6,-0.4 4.6,-1.1 1,-0.8 1.5,-1.9 1.5,-3.5 C 83.5,13.2 83,12 82,11.2 81,10.4 79.5,10.1 77.4,10.1 Z M 67,6.7 h 10.7 c 3.2,0 5.6,0.7 7.4,2 1.7,1.3 2.6,3.2 2.6,5.6 0,1.9 -0.4,3.4 -1.3,4.5 -0.9,1.1 -2.2,1.8 -3.9,2.1 2.1,0.4 3.7,1.3 4.8,2.7 1.1,1.4 1.7,3.1 1.7,5.2 0,2.7 -0.9,4.8 -2.8,6.3 -1.9,1.5 -4.5,2.2 -8,2.2 H 67 Z"
   clip-path="url(#SVGID_2_-2)"
   id="path5543"
   style="fill:#ffffff" />

		<path
   class="st1"
   d="m 99.9,22.7 v 11.2 h 6.7 c 2.2,0 3.9,-0.5 5,-1.4 1.1,-0.9 1.6,-2.3 1.6,-4.2 0,-1.9 -0.5,-3.3 -1.6,-4.2 -1.1,-0.9 -2.8,-1.4 -5,-1.4 z m 0,-12.6 v 9.2 h 6.2 c 2,0 3.6,-0.4 4.6,-1.1 1,-0.8 1.5,-1.9 1.5,-3.5 0,-1.5 -0.5,-2.7 -1.5,-3.5 -1,-0.8 -2.5,-1.1 -4.6,-1.1 z M 95.7,6.7 h 10.7 c 3.2,0 5.6,0.7 7.4,2 1.7,1.3 2.6,3.2 2.6,5.6 0,1.9 -0.4,3.4 -1.3,4.5 -0.9,1.1 -2.2,1.8 -3.9,2.1 2.1,0.4 3.7,1.3 4.8,2.7 1.1,1.4 1.7,3.1 1.7,5.2 0,2.7 -0.9,4.8 -2.8,6.3 -1.9,1.5 -4.5,2.2 -8,2.2 H 95.7 Z"
   clip-path="url(#SVGID_2_-2)"
   id="path5545"
   style="fill:#ffffff" />

		<polygon
   class="st1"
   points="139.7,37.3 135.2,37.3 146,21.1 136.4,6.7 141,6.7 148.3,17.7 155.7,6.7 160.1,6.7 150.5,21 161.3,37.3 156.7,37.3 148.2,24.5 "
   clip-path="url(#SVGID_2_-2)"
   id="polygon5547"
   style="fill:#ffffff" />

		<rect
   x="124.3"
   y="6.6999998"
   class="st1"
   width="4.1999998"
   height="30.6"
   clip-path="url(#SVGID_2_-2)"
   id="rect5549"
   style="fill:#ffffff" />

	</g>

</g>
</svg>
