<svg xmlns="http://www.w3.org/2000/svg" viewBox="0 0 400 400"><defs><style>.cls-1,.cls-10,.cls-2,.cls-3,.cls-4{fill:none;stroke-linecap:round;stroke-linejoin:round;}.cls-1,.cls-2{stroke:#3e4c70;}.cls-1,.cls-10,.cls-3,.cls-4{stroke-width:2px;}.cls-2{stroke-width:3.7px;}.cls-10,.cls-3{stroke:#158aff;}.cls-4{stroke:#d62027;}.cls-5{fill:#d62027;}.cls-6{fill:#158aff;}.cls-7{fill:#3e4c70;}.cls-8{fill:#dc0c12;}.cls-9{fill:#fff;}.cls-10{stroke-dasharray:4.6 7.66;}</style></defs><g id="blue"><path class="cls-1" d="M301.6,291.3v45.2"/><path class="cls-1" d="M63.3,233.8V175.2a8.2,8.2,0,0,1,8.1-8.2h93.2"/><line class="cls-1" x1="63.3" y1="336.5" x2="63.3" y2="295.2"/><polyline class="cls-1" points="78.2 236.3 78.2 183 168 183"/><polyline class="cls-1" points="286.6 291.3 286.6 320.5 78.2 320.5 78.2 287.5"/><path class="cls-1" d="M332.1,336.5a25.2,25.2,0,0,1-7.4,17.9,25.5,25.5,0,0,1-18,7.5H58.1a25.4,25.4,0,0,1-25.4-25.4H157.4v3.3a6.9,6.9,0,0,0,6.9,6.9h36.3a6.8,6.8,0,0,0,6.8-6.9v-3.3Z"/><path class="cls-2" d="M376.3,98.4v13.1H343.7V98.4a16.3,16.3,0,1,1,32.6,0Z"/><path class="cls-2" d="M200.7,124.8V98.4A16.3,16.3,0,0,1,217,82.1H360a16.3,16.3,0,0,0-16.3,16.3V275a16.4,16.4,0,0,1-32.7,0V261.9H200.7V210.3"/><path class="cls-2" d="M327.3,291.3h-143A16.3,16.3,0,0,1,168,275V261.9H311V275A16.3,16.3,0,0,0,327.3,291.3Z"/><rect class="cls-3" x="265.7" y="98.5" width="17" height="52.54"/><rect class="cls-4" x="289.2" y="113.2" width="17" height="37.93"/><rect class="cls-3" x="312.6" y="128.2" width="17" height="22.9"/><line class="cls-1" x1="330" y1="167.5" x2="263.2" y2="167.5"/><line class="cls-1" x1="330" y1="182" x2="263.2" y2="182"/><line class="cls-1" x1="311.3" y1="196.6" x2="263.2" y2="196.6"/><line class="cls-1" x1="318.1" y1="223.6" x2="364.3" y2="262.5"/><line class="cls-1" x1="278.7" y1="235.6" x2="305.6" y2="222.1"/><line class="cls-1" x1="237.6" y1="206.4" x2="266.6" y2="233.8"/><circle class="cls-3" cx="272" cy="238.9" r="7.5"/><circle class="cls-3" cx="312.3" cy="218.9" r="7.5"/><circle class="cls-4" cx="370.3" cy="267.6" r="7.5"/><path class="cls-4" d="M172.3,144.7a42.7,42.7,0,0,0,6.2,53.1l-18.7,29.7a9.9,9.9,0,0,0,16.7,10.6l19-30.1a42.5,42.5,0,1,0-23.2-63.3Zm54.2-6.1a34.1,34.1,0,0,1-26.4,62,36.4,36.4,0,0,1-10-4.3,33.3,33.3,0,0,1-7-5.8,34.1,34.1,0,0,1,43.4-51.9Z"/><polyline class="cls-1" points="222.5 170.7 222.5 182.9 190.3 182.9 190.3 150.7 222.5 150.7 222.5 154.2"/><polyline class="cls-3" points="196.5 166 207.3 176.7 228.5 155.5"/><path class="cls-5" d="M57,228.6l2.8,6.3a27.2,27.2,0,0,1,7.2,2.2l5.7-3.7,7.4,6-2.5,6.4a28.9,28.9,0,0,1,3.6,6.7l6.7,1.4.9,9.5-6.3,2.8a26.5,26.5,0,0,1-2.2,7.1l3.8,5.8L78,286.5l-6.5-2.6a24.1,24.1,0,0,1-6.5,3.5l-1.4,6.9-9.6.9-2.8-6.5a22,22,0,0,1-6.9-2.1l-5.9,3.9-7.5-6.1,2.6-6.6a26.2,26.2,0,0,1-3.4-6.4L23.2,270l-.9-9.6,6.4-2.8a29.6,29.6,0,0,1,2.1-7L27,244.7l6.1-7.4,6.4,2.6a28.2,28.2,0,0,1,6.6-3.6l1.4-6.7,9.5-1m-1.4,51.6A18.3,18.3,0,1,0,44,276.1a18.1,18.1,0,0,0,11.6,4.1M57,226.6h-.2l-9.5,1a1.8,1.8,0,0,0-1.7,1.6l-1.3,5.7a24.9,24.9,0,0,0-5.1,2.7l-5.4-2.1-.7-.2a2.1,2.1,0,0,0-1.6.8l-6.1,7.4a1.9,1.9,0,0,0-.1,2.3l3.2,5a33.5,33.5,0,0,0-1.6,5.4l-5.4,2.4a1.9,1.9,0,0,0-1.2,2l.9,9.6a2,2,0,0,0,1.6,1.7l5.8,1.3a33.6,33.6,0,0,0,2.7,4.9l-2.2,5.6a1.9,1.9,0,0,0,.6,2.2l7.4,6.1a2.1,2.1,0,0,0,1.3.5,1.4,1.4,0,0,0,1-.4l5.1-3.2a24.9,24.9,0,0,0,5.3,1.6l2.4,5.5a2,2,0,0,0,1.8,1.2h.2l9.6-1a1.9,1.9,0,0,0,1.7-1.5l1.3-5.8a34.6,34.6,0,0,0,5-2.7l5.5,2.2H78a2,2,0,0,0,1.6-.7l6-7.4a2.1,2.1,0,0,0,.2-2.4l-3.2-4.9a35,35,0,0,0,1.7-5.5l5.3-2.3a2.1,2.1,0,0,0,1.2-2.1l-.9-9.5a2.1,2.1,0,0,0-1.6-1.8l-5.7-1.2a24.9,24.9,0,0,0-2.7-5.1l2.1-5.4a2,2,0,0,0-.6-2.3L74,231.8a2,2,0,0,0-1.3-.4l-1.1.3-4.8,3.1a27.5,27.5,0,0,0-5.6-1.6l-2.3-5.4a2.1,2.1,0,0,0-1.9-1.2Zm-1.4,51.6a16.4,16.4,0,0,1-12.7-26.7,16.4,16.4,0,1,1,12.7,26.7Z"/><path class="cls-6" d="M111.1,262.8l2.8,4.4h0a21,21,0,0,1,5.6.8l3.9-3.5,6.3,3.7-1.1,5.1a25.3,25.3,0,0,1,3.4,4.5l5.2.3,1.9,7.1-4.5,2.8a19.8,19.8,0,0,1-.8,5.5l3.6,4-3.7,6.3-5.3-1.2a18.1,18.1,0,0,1-4.4,3.3l-.3,5.4-7,1.8-2.9-4.5a20.3,20.3,0,0,1-5.5-.8l-3.9,3.6-6.3-3.7,1.1-5.2a20.3,20.3,0,0,1-3.3-4.4l-5.3-.3-1.9-7,4.5-2.9a21,21,0,0,1,.7-5.6l-3.5-3.9,3.7-6.3,5.1,1.2a20,20,0,0,1,4.6-3.5l.2-5.2,7.1-1.8m2.8,37.8a12.2,12.2,0,0,0,3.2-.4,12.7,12.7,0,0,0-3.2-25,11.2,11.2,0,0,0-3.2.4,12.7,12.7,0,0,0,3.2,25m-2.8-39.8h-.5l-7.1,1.8a1.9,1.9,0,0,0-1.4,1.8l-.3,4.2a24.3,24.3,0,0,0-3.2,2.4l-4-.9h-.5a2.1,2.1,0,0,0-1.7,1l-3.7,6.3a2.3,2.3,0,0,0,.2,2.4l2.8,3.1a26,26,0,0,0-.5,3.9l-3.5,2.3a1.9,1.9,0,0,0-.9,2.2l1.8,7a2,2,0,0,0,1.9,1.5l4.2.2a18.3,18.3,0,0,0,2.4,3.1l-1,4.2a2.1,2.1,0,0,0,1,2.2l6.2,3.6a2.3,2.3,0,0,0,1.1.3,2.4,2.4,0,0,0,1.3-.5l3.2-2.9a23.2,23.2,0,0,0,3.8.6l2.3,3.6a2,2,0,0,0,1.7.9h.5l7-1.9a1.8,1.8,0,0,0,1.5-1.8l.3-4.3a17,17,0,0,0,3-2.3l4.2.9h.5a2.1,2.1,0,0,0,1.7-1l3.7-6.3a2,2,0,0,0-.3-2.3L136,293a17.4,17.4,0,0,0,.5-3.9l3.6-2.2a2,2,0,0,0,.9-2.2l-1.8-7.1a2.3,2.3,0,0,0-1.9-1.5l-4.2-.2a24.3,24.3,0,0,0-2.4-3.2l1-4.1a1.9,1.9,0,0,0-1-2.1l-6.3-3.7a1.7,1.7,0,0,0-1-.3,2.1,2.1,0,0,0-1.3.5l-3.1,2.8a27.6,27.6,0,0,0-4-.6l-2.2-3.5a2,2,0,0,0-1.7-.9Zm2.8,37.8a10.7,10.7,0,0,1-2.7-21.1,12.4,12.4,0,0,1,2.7-.3,10.7,10.7,0,0,1,10.3,8,10,10,0,0,1-1.1,8.1,10.9,10.9,0,0,1-6.5,5,12.4,12.4,0,0,1-2.7.3Z"/><line class="cls-1" x1="117.9" y1="45.6" x2="83.6" y2="45.6"/><polyline class="cls-1" points="62.2 86.7 62.2 45.6 77.1 45.6"/><polyline class="cls-1" points="124.4 45.6 139.3 45.6 139.3 114.2 88.5 114.2"/><rect class="cls-1" x="117.9" y="38.1" width="6.5" height="13.38" transform="translate(242.2 89.6) rotate(-180)"/><rect class="cls-1" x="77.1" y="38.1" width="6.5" height="13.38" transform="translate(160.7 89.6) rotate(-180)"/><line class="cls-1" x1="138.3" y1="56.9" x2="62.5" y2="56.9"/><rect class="cls-1" x="119.8" y="95.1" width="11.3" height="11.34" transform="translate(250.9 201.5) rotate(-180)"/><rect class="cls-1" x="103.3" y="95.1" width="11.3" height="11.34" transform="translate(217.9 201.5) rotate(-180)"/><polyline class="cls-1" points="89.9 106.4 98.2 106.4 98.2 95.1 86.8 95.1"/><rect class="cls-1" x="86.8" y="63.1" width="11.3" height="11.34"/><rect class="cls-1" x="103.3" y="63.1" width="11.3" height="11.34"/><polyline class="cls-1" points="70.3 85.6 70.3 79.1 81.7 79.1 81.7 90.4"/><rect class="cls-1" x="86.8" y="79.1" width="11.3" height="11.34"/><rect class="cls-1" x="119.8" y="79.1" width="11.3" height="11.34"/><polyline class="cls-3" points="81.7 70.8 81.7 74.4 70.3 74.4 70.3 63.1 80.3 63.1"/><polyline class="cls-4" points="73.1 67.9 76.4 71.2 82.8 64.8"/><polyline class="cls-3" points="131.1 70.8 131.1 74.4 119.8 74.4 119.8 63.1 129.7 63.1"/><polyline class="cls-4" points="122.5 67.9 125.8 71.2 132.2 64.9"/><polyline class="cls-3" points="114.6 86.8 114.6 90.4 103.3 90.4 103.3 79.1 113.3 79.1"/><polyline class="cls-4" points="106.1 83.9 109.3 87.2 115.7 80.8"/><path class="cls-7" d="M68.5,86.7a20,20,0,1,1-20,20,20.1,20.1,0,0,1,20-20m0-2a22,22,0,1,0,22,22,22.1,22.1,0,0,0-22-22Z"/><line class="cls-4" x1="78.2" y1="95.9" x2="70.2" y2="104.8"/><line class="cls-4" x1="68.5" y1="90.9" x2="68.5" y2="93.7"/><line class="cls-4" x1="68.5" y1="119.7" x2="68.5" y2="122.5"/><line class="cls-4" x1="52.7" y1="106.7" x2="55.5" y2="106.7"/><line class="cls-4" x1="81.5" y1="106.7" x2="84.3" y2="106.7"/><path class="cls-4" d="M71.8,90.7a18.6,18.6,0,0,0-3.3-.4,16.4,16.4,0,1,0,16.4,16.4,15.8,15.8,0,0,0-.5-3.8"/><line class="cls-4" x1="67.1" y1="105" x2="62.7" y2="99.7"/><circle class="cls-4" cx="68.5" cy="106.7" r="2.3"/><rect class="cls-8" x="90.8" y="195" width="49.5" height="14.34"/><polygon class="cls-9" points="95.8 198.2 102.1 198.2 102.1 199 97.1 205.2 102.2 205.2 102.2 206.1 95.7 206.1 95.7 205.3 100.8 199.1 95.8 199.1 95.8 198.2"/><path class="cls-9" d="M105.8,198.2H107l3,7.9h-1.1l-.7-2h-3.6l-.7,2h-1.1Zm.7,1.1-1.5,3.9h2.9Z"/><path class="cls-9" d="M111.2,198.2H114a4.5,4.5,0,0,1,1.9.5,2.2,2.2,0,0,1,.3,2.6,1.7,1.7,0,0,1-1,.6,1.9,1.9,0,0,1,1.2.7,2.1,2.1,0,0,1,.5,1.3,2.2,2.2,0,0,1-.7,1.6,2.9,2.9,0,0,1-2.1.6h-2.9Zm1.1.9v2.4h1.6a1.8,1.8,0,0,0,1.2-.3,1.2,1.2,0,0,0,0-1.7h0a1.4,1.4,0,0,0-1.2-.3Zm0,3.2v2.9H114a2.8,2.8,0,0,0,1.3-.3,1.6,1.6,0,0,0,0-2.2,2,2,0,0,0-1.3-.4Z"/><path class="cls-9" d="M118.6,198.2h2.7a3.8,3.8,0,0,1,1.9.5,1.8,1.8,0,0,1,.7,1.5,2,2,0,0,1-.3,1.1,2.7,2.7,0,0,1-1,.6,2.1,2.1,0,0,1,1.2.7,2.8,2.8,0,0,1,.4,1.3,2.2,2.2,0,0,1-.7,1.6,2.9,2.9,0,0,1-2.1.6h-2.9Zm1,.9v2.4h1.6a1.3,1.3,0,0,0,1.2-.3,1.2,1.2,0,0,0,.1-1.7h-.1a1.2,1.2,0,0,0-1.2-.3Zm0,3.2v2.9h1.8a3.1,3.1,0,0,0,1.3-.3,1.8,1.8,0,0,0,0-2.2,2.2,2.2,0,0,0-1.3-.4Z"/><polygon class="cls-9" points="129.1 198.2 130.3 198.2 132.1 201 134 198.2 135.2 198.2 132.7 201.9 135.5 206.1 134.3 206.1 132.1 202.8 129.9 206.1 128.8 206.1 131.5 201.9 129.1 198.2"/><rect class="cls-9" x="126" y="198.2" width="1.1" height="7.84"/><path class="cls-10" d="M272.2,73.5V70.1a14.4,14.4,0,0,0-14.4-14.4H191.2A10.3,10.3,0,0,0,181,66V79.5a10.3,10.3,0,0,1-10.3,10.3H147.4"/><path class="cls-10" d="M53.1,55.7H39.5A12.8,12.8,0,0,0,26.7,68.5V233.8"/><line class="cls-1" x1="91.4" y1="223.8" x2="149" y2="223.8"/><line class="cls-1" x1="91.4" y1="234.9" x2="149" y2="234.9"/><line class="cls-1" x1="122" y1="246.1" x2="149" y2="246.1"/></g></svg>