<?xml version="1.0" encoding="UTF-8" standalone="no"?>
<svg
   viewBox="0 0 400 400"
   version="1.1"
   id="svg1440"
   sodipodi:docname="features_Zabbix_API_zabbix.svg"
   inkscape:version="1.2.1 (9c6d41e410, 2022-07-14)"
   xmlns:inkscape="http://www.inkscape.org/namespaces/inkscape"
   xmlns:sodipodi="http://sodipodi.sourceforge.net/DTD/sodipodi-0.dtd"
   xmlns:xlink="http://www.w3.org/1999/xlink"
   xmlns="http://www.w3.org/2000/svg"
   xmlns:svg="http://www.w3.org/2000/svg">
  <sodipodi:namedview
     id="namedview1442"
     pagecolor="#ffffff"
     bordercolor="#000000"
     borderopacity="0.25"
     inkscape:showpageshadow="2"
     inkscape:pageopacity="0.0"
     inkscape:pagecheckerboard="0"
     inkscape:deskcolor="#d1d1d1"
     showgrid="false"
     inkscape:zoom="2.0925"
     inkscape:cx="190.91995"
     inkscape:cy="191.6368"
     inkscape:window-width="1920"
     inkscape:window-height="1017"
     inkscape:window-x="1912"
     inkscape:window-y="-8"
     inkscape:window-maximized="1"
     inkscape:current-layer="dark-blue" />
  <defs
     id="defs1221">
    <style
       id="style1219">.cls-1,.cls-10,.cls-3,.cls-4,.cls-5,.cls-8,.cls-9{fill:none;}.cls-1,.cls-10,.cls-8,.cls-9{stroke:#158aff;}.cls-1,.cls-10,.cls-3,.cls-4,.cls-8,.cls-9{stroke-linecap:round;stroke-linejoin:round;stroke-width:2px;}.cls-2{fill:#3e4c70;}.cls-3{stroke:#3e4c70;}.cls-4{stroke:#d62027;}.cls-6{fill:#d62027;}.cls-7{fill:#158aff;}.cls-8{stroke-dasharray:4.25 7.08;}.cls-9{stroke-dasharray:4.11 6.85;}.cls-10{stroke-dasharray:4.27 7.12;}</style>
    <clipPath
       id="SVGID_2_">
			<use
   xlink:href="#SVGID_1_"
   style="overflow:visible"
   id="use5534" />

		</clipPath>
    <clipPath
       id="clipPath6050">
			<use
   xlink:href="#SVGID_1_"
   style="overflow:visible"
   id="use6048" />

		</clipPath>
    <clipPath
       id="clipPath6054">
			<use
   xlink:href="#SVGID_1_"
   style="overflow:visible"
   id="use6052" />

		</clipPath>
    <clipPath
       id="clipPath6058">
			<use
   xlink:href="#SVGID_1_"
   style="overflow:visible"
   id="use6056" />

		</clipPath>
    <clipPath
       id="clipPath6062">
			<use
   xlink:href="#SVGID_1_"
   style="overflow:visible"
   id="use6060" />

		</clipPath>
    <clipPath
       id="clipPath6066">
			<use
   xlink:href="#SVGID_1_"
   style="overflow:visible"
   id="use6064" />

		</clipPath>
    <clipPath
       id="clipPath6070">
			<use
   xlink:href="#SVGID_1_"
   style="overflow:visible"
   id="use6068" />

		</clipPath>
    <rect
       id="SVGID_1_"
       y="0"
       width="168"
       height="44"
       x="0" />
    <clipPath
       id="SVGID_2_-6">
			<use
   xlink:href="#SVGID_1_"
   style="overflow:visible"
   id="use5534-6" />

		</clipPath>
    <clipPath
       id="clipPath39616">
			<use
   xlink:href="#SVGID_1_"
   style="overflow:visible"
   id="use39614" />

		</clipPath>
    <clipPath
       id="clipPath39620">
			<use
   xlink:href="#SVGID_1_"
   style="overflow:visible"
   id="use39618" />

		</clipPath>
    <clipPath
       id="clipPath39624">
			<use
   xlink:href="#SVGID_1_"
   style="overflow:visible"
   id="use39622" />

		</clipPath>
    <clipPath
       id="clipPath39628">
			<use
   xlink:href="#SVGID_1_"
   style="overflow:visible"
   id="use39626" />

		</clipPath>
    <clipPath
       id="clipPath39632">
			<use
   xlink:href="#SVGID_1_"
   style="overflow:visible"
   id="use39630" />

		</clipPath>
    <clipPath
       id="clipPath39636">
			<use
   xlink:href="#SVGID_1_"
   style="overflow:visible"
   id="use39634" />

		</clipPath>
    <rect
       id="rect6892-5"
       y="0"
       width="168"
       height="44"
       x="0" />
  </defs>
  <g
     id="dark-blue">
    <g
       id="g5553"
       transform="matrix(0.36845237,0,0,0.36845237,32.832501,175.10905)">
	<g
   id="g5551">
		<defs
   id="defs5532">
			<rect
   id="rect6892"
   y="0"
   width="168"
   height="44"
   x="0" />

		</defs>

		<clipPath
   id="clipPath6078">
			<use
   xlink:href="#SVGID_1_"
   style="overflow:visible"
   id="use6076" />

		</clipPath>

		<rect
   x="0"
   y="0"
   class="st0"
   width="168"
   height="44"
   clip-path="url(#SVGID_2_)"
   id="rect5537"
   style="fill:#d40000" />

		<polygon
   class="st1"
   points="6.7,37.3 6.7,34.1 26.3,10.2 7.2,10.2 7.2,6.7 31.5,6.7 31.5,9.9 11.9,33.8 32,33.8 32,37.3 "
   clip-path="url(#SVGID_2_)"
   id="polygon5539"
   style="fill:#ffffff" />

		<path
   class="st1"
   d="M 48.4,10.8 42.7,26 H 54.1 Z M 46,6.7 h 4.7 l 11.8,30.6 h -4.3 l -2.8,-7.8 h -14 l -2.8,7.8 h -4.4 z"
   clip-path="url(#SVGID_2_)"
   id="path5541"
   style="fill:#ffffff" />

		<path
   class="st1"
   d="m 71.2,22.7 v 11.2 h 6.7 c 2.3,0 3.9,-0.5 5,-1.4 1.1,-0.9 1.6,-2.3 1.6,-4.2 0,-1.9 -0.5,-3.3 -1.6,-4.2 -1.1,-0.9 -2.8,-1.4 -5,-1.4 z m 0,-12.6 v 9.2 h 6.2 c 2,0 3.6,-0.4 4.6,-1.1 1,-0.8 1.5,-1.9 1.5,-3.5 C 83.5,13.2 83,12 82,11.2 81,10.4 79.5,10.1 77.4,10.1 Z M 67,6.7 h 10.7 c 3.2,0 5.6,0.7 7.4,2 1.7,1.3 2.6,3.2 2.6,5.6 0,1.9 -0.4,3.4 -1.3,4.5 -0.9,1.1 -2.2,1.8 -3.9,2.1 2.1,0.4 3.7,1.3 4.8,2.7 1.1,1.4 1.7,3.1 1.7,5.2 0,2.7 -0.9,4.8 -2.8,6.3 -1.9,1.5 -4.5,2.2 -8,2.2 H 67 Z"
   clip-path="url(#SVGID_2_)"
   id="path5543"
   style="fill:#ffffff" />

		<path
   class="st1"
   d="m 99.9,22.7 v 11.2 h 6.7 c 2.2,0 3.9,-0.5 5,-1.4 1.1,-0.9 1.6,-2.3 1.6,-4.2 0,-1.9 -0.5,-3.3 -1.6,-4.2 -1.1,-0.9 -2.8,-1.4 -5,-1.4 z m 0,-12.6 v 9.2 h 6.2 c 2,0 3.6,-0.4 4.6,-1.1 1,-0.8 1.5,-1.9 1.5,-3.5 0,-1.5 -0.5,-2.7 -1.5,-3.5 -1,-0.8 -2.5,-1.1 -4.6,-1.1 z M 95.7,6.7 h 10.7 c 3.2,0 5.6,0.7 7.4,2 1.7,1.3 2.6,3.2 2.6,5.6 0,1.9 -0.4,3.4 -1.3,4.5 -0.9,1.1 -2.2,1.8 -3.9,2.1 2.1,0.4 3.7,1.3 4.8,2.7 1.1,1.4 1.7,3.1 1.7,5.2 0,2.7 -0.9,4.8 -2.8,6.3 -1.9,1.5 -4.5,2.2 -8,2.2 H 95.7 Z"
   clip-path="url(#SVGID_2_)"
   id="path5545"
   style="fill:#ffffff" />

		<polygon
   class="st1"
   points="160.1,6.7 150.5,21 161.3,37.3 156.7,37.3 148.2,24.5 139.7,37.3 135.2,37.3 146,21.1 136.4,6.7 141,6.7 148.3,17.7 155.7,6.7 "
   clip-path="url(#SVGID_2_)"
   id="polygon5547"
   style="fill:#ffffff" />

		<rect
   x="124.3"
   y="6.6999998"
   class="st1"
   width="4.1999998"
   height="30.6"
   clip-path="url(#SVGID_2_)"
   id="rect5549"
   style="fill:#ffffff" />

	</g>

</g>
    <g
       id="g44886"
       transform="translate(12.18638,11.230592)">
      <rect
         class="cls-1"
         x="76.246124"
         y="271.1994"
         width="66"
         height="48.43"
         rx="5.0999999"
         id="rect20629"
         style="fill:none;stroke:#3e4c70;stroke-width:2px;stroke-linecap:round;stroke-linejoin:round" />
      <polyline
         class="cls-1"
         points="139.2 296.6 139.2 291.2 145.2 291.2 145.2 296.5"
         id="polyline20631"
         style="fill:none;stroke:#3e4c70;stroke-width:2px;stroke-linecap:round;stroke-linejoin:round"
         transform="translate(-12.55388,-11.200579)" />
      <polyline
         class="cls-1"
         points="145.2 301.4 145.2 322.1 139.2 322.1 139.2 301.4"
         id="polyline20633"
         style="fill:none;stroke:#3e4c70;stroke-width:2px;stroke-linecap:round;stroke-linejoin:round"
         transform="translate(-12.55388,-11.200579)" />
      <rect
         class="cls-2"
         x="124.34612"
         y="285.39941"
         width="10.5"
         height="4.6700001"
         id="rect20635"
         style="fill:none;stroke:#d62027;stroke-width:2px;stroke-linecap:round;stroke-linejoin:round" />
      <polyline
         class="cls-1"
         points="111.9 296.6 111.9 291.2 118 291.2 118 296.5"
         id="polyline20637"
         style="fill:none;stroke:#3e4c70;stroke-width:2px;stroke-linecap:round;stroke-linejoin:round"
         transform="translate(-12.55388,-11.200579)" />
      <polyline
         class="cls-1"
         points="118 301.4 118 322.1 111.9 322.1 111.9 301.4"
         id="polyline20639"
         style="fill:none;stroke:#3e4c70;stroke-width:2px;stroke-linecap:round;stroke-linejoin:round"
         transform="translate(-12.55388,-11.200579)" />
      <rect
         class="cls-3"
         x="97.146118"
         y="285.39941"
         width="10.5"
         height="4.6700001"
         id="rect20641"
         style="fill:none;stroke:#158aff;stroke-width:2px;stroke-linecap:round;stroke-linejoin:round" />
      <polyline
         class="cls-1"
         points="125.5 308.4 125.5 291.2 131.6 291.2 131.6 308.3"
         id="polyline20643"
         style="fill:none;stroke:#3e4c70;stroke-width:2px;stroke-linecap:round;stroke-linejoin:round"
         transform="translate(-12.55388,-11.200579)" />
      <polyline
         class="cls-1"
         points="131.6 313.2 131.6 322.1 125.5 322.1 125.5 313.2"
         id="polyline20645"
         style="fill:none;stroke:#3e4c70;stroke-width:2px;stroke-linecap:round;stroke-linejoin:round"
         transform="translate(-12.55388,-11.200579)" />
      <rect
         class="cls-2"
         x="110.74612"
         y="297.1994"
         width="10.5"
         height="4.6700001"
         id="rect20647"
         style="fill:none;stroke:#d62027;stroke-width:2px;stroke-linecap:round;stroke-linejoin:round" />
      <polyline
         class="cls-1"
         points="98.3 312 98.3 291.2 104.4 291.2 104.4 311.9"
         id="polyline20649"
         style="fill:none;stroke:#3e4c70;stroke-width:2px;stroke-linecap:round;stroke-linejoin:round"
         transform="translate(-12.55388,-11.200579)" />
      <polyline
         class="cls-1"
         points="104.4 316.9 104.4 322.1 98.3 322.1 98.3 316.9"
         id="polyline20651"
         style="fill:none;stroke:#3e4c70;stroke-width:2px;stroke-linecap:round;stroke-linejoin:round"
         transform="translate(-12.55388,-11.200579)" />
      <rect
         class="cls-2"
         x="83.54612"
         y="300.79941"
         width="10.5"
         height="4.6700001"
         id="rect20653"
         style="fill:none;stroke:#d62027;stroke-width:2px;stroke-linecap:round;stroke-linejoin:round" />
      <rect
         class="cls-1"
         x="235.04613"
         y="34.299419"
         width="10"
         height="18.98"
         id="rect20655"
         style="fill:none;stroke:#3e4c70;stroke-width:2px;stroke-linecap:round;stroke-linejoin:round" />
      <rect
         class="cls-1"
         x="250.14613"
         y="22.89942"
         width="10"
         height="30.4"
         id="rect20657"
         style="fill:none;stroke:#3e4c70;stroke-width:2px;stroke-linecap:round;stroke-linejoin:round" />
      <rect
         class="cls-1"
         x="265.24609"
         y="40.199421"
         width="10"
         height="13"
         id="rect20659"
         style="fill:none;stroke:#3e4c70;stroke-width:2px;stroke-linecap:round;stroke-linejoin:round" />
      <rect
         class="cls-3"
         x="280.3461"
         y="26.199423"
         width="10"
         height="27.059999"
         id="rect20661"
         style="fill:none;stroke:#158aff;stroke-width:2px;stroke-linecap:round;stroke-linejoin:round" />
      <line
         class="cls-2"
         x1="272.74609"
         y1="27.89942"
         x2="282.8461"
         y2="18.899422"
         id="line20663"
         style="fill:none;stroke:#d62027;stroke-width:2px;stroke-linecap:round;stroke-linejoin:round" />
      <line
         class="cls-2"
         x1="257.3461"
         y1="15.499422"
         x2="268.04611"
         y2="27.89942"
         id="line20665"
         style="fill:none;stroke:#d62027;stroke-width:2px;stroke-linecap:round;stroke-linejoin:round" />
      <line
         class="cls-2"
         x1="242.54613"
         y1="22.499422"
         x2="252.44612"
         y2="14.999422"
         id="line20667"
         style="fill:none;stroke:#d62027;stroke-width:2px;stroke-linecap:round;stroke-linejoin:round" />
      <circle
         class="cls-2"
         cx="255.14613"
         cy="12.999422"
         r="3"
         id="circle20669"
         style="fill:none;stroke:#d62027;stroke-width:2px;stroke-linecap:round;stroke-linejoin:round" />
      <circle
         class="cls-2"
         cx="270.24609"
         cy="30.39942"
         r="3"
         id="circle20671"
         style="fill:none;stroke:#d62027;stroke-width:2px;stroke-linecap:round;stroke-linejoin:round" />
      <circle
         class="cls-2"
         cx="285.3461"
         cy="16.299421"
         r="3"
         id="circle20673"
         style="fill:none;stroke:#d62027;stroke-width:2px;stroke-linecap:round;stroke-linejoin:round" />
      <circle
         class="cls-2"
         cx="240.04613"
         cy="24.39942"
         r="3"
         id="circle20675"
         style="fill:none;stroke:#d62027;stroke-width:2px;stroke-linecap:round;stroke-linejoin:round" />
      <line
         class="cls-1"
         x1="232.04613"
         y1="57.799419"
         x2="293.74609"
         y2="57.799419"
         id="line20677"
         style="fill:none;stroke:#3e4c70;stroke-width:2px;stroke-linecap:round;stroke-linejoin:round" />
      <line
         class="cls-2"
         x1="145.64612"
         y1="185.39943"
         x2="111.84612"
         y2="185.39943"
         id="line20679"
         style="fill:none;stroke:#d62027;stroke-width:2px;stroke-linecap:round;stroke-linejoin:round" />
      <polyline
         class="cls-2"
         points="133 205.2 124.4 196.6 133 188"
         id="polyline20681"
         style="fill:none;stroke:#d62027;stroke-width:2px;stroke-linecap:round;stroke-linejoin:round"
         transform="translate(-12.55388,-11.200579)" />
      <line
         class="cls-2"
         x1="111.84612"
         y1="161.69942"
         x2="145.64612"
         y2="161.69942"
         id="line20683"
         style="fill:none;stroke:#d62027;stroke-width:2px;stroke-linecap:round;stroke-linejoin:round" />
      <polyline
         class="cls-2"
         points="149.6 164.3 158.2 172.9 149.6 181.5"
         id="polyline20685"
         style="fill:none;stroke:#d62027;stroke-width:2px;stroke-linecap:round;stroke-linejoin:round"
         transform="translate(-12.55388,-11.200579)" />
      <path
         class="cls-5"
         d="m 4.24612,205.59942 v -64 a 3.3,3.3 0 0 1 3.3,-3.3 h 88.1 a 3.3,3.3 0 0 1 3.3,3.3 v 64"
         id="path20689"
         style="fill:none;stroke:#3e4c70;stroke-width:2.13px;stroke-linecap:round;stroke-linejoin:round" />
      <rect
         class="cls-5"
         x="10.246119"
         y="144.69942"
         width="82.699997"
         height="54.57"
         id="rect20691"
         style="fill:none;stroke:#3e4c70;stroke-width:2.13px;stroke-linecap:round;stroke-linejoin:round" />
      <path
         class="cls-5"
         d="m 111.04612,205.59942 a 10.2,10.2 0 0 1 -10.1,10.1 h -98.7 a 10.1,10.1 0 0 1 -10.1,-10.1 h 49.5 v 1.3 a 2.8,2.8 0 0 0 2.8,2.8 h 14.3 a 2.8,2.8 0 0 0 2.8,-2.8 v -1.3 z"
         id="path20693"
         style="fill:none;stroke:#3e4c70;stroke-width:2.13px;stroke-linecap:round;stroke-linejoin:round" />
      <path
         class="cls-3"
         d="m 268.64612,205.89942 -5,0.7 a 18.4,18.4 0 0 0 -4.1,-3.8 l 0.2,-5.1 -6.7,-2.5 -3.1,4 a 17.6,17.6 0 0 0 -5.6,0.3 l -3.4,-3.8 -6.4,3 0.6,5 a 24.6,24.6 0 0 0 -3.8,4.1 l -5.1,-0.2 -2.5,6.6 4.1,3.2 a 20.2,20.2 0 0 0 0.2,5.5 l -3.8,3.5 3,6.4 5.2,-0.6 a 19.6,19.6 0 0 0 3.9,3.7 l -0.2,5.2 m 25.3,-1 -0.7,-5.2 a 17.1,17.1 0 0 0 3.7,-3.9 l 5.2,0.2 m -17.4,-23.5 a 12.4,12.4 0 1 1 -15.9,7.3 12.4,12.4 0 0 1 15.9,-7.3 z"
         id="path20695"
         style="fill:none;stroke:#158aff;stroke-width:2px;stroke-linecap:round;stroke-linejoin:round" />
      <path
         class="cls-6"
         d="m 268.14612,130.49942 v 108.1 h -105.3 v -108.1 h 105.3 m 0,-3.8 h -105.3 a 3.8,3.8 0 0 0 -3.8,3.8 v 108.1 a 3.8,3.8 0 0 0 3.8,3.8 h 105.3 a 3.8,3.8 0 0 0 3.7,-3.8 v -108.1 a 3.8,3.8 0 0 0 -3.7,-3.8 z"
         id="path20697"
         style="fill:#3e4c70" />
      <line
         class="cls-1"
         x1="162.44612"
         y1="151.19942"
         x2="268.8461"
         y2="151.19942"
         id="line20699"
         style="fill:none;stroke:#3e4c70;stroke-width:2px;stroke-linecap:round;stroke-linejoin:round" />
      <line
         class="cls-1"
         x1="232.14612"
         y1="142.99942"
         x2="236.84612"
         y2="142.99942"
         id="line20701"
         style="fill:none;stroke:#3e4c70;stroke-width:2px;stroke-linecap:round;stroke-linejoin:round" />
      <line
         class="cls-1"
         x1="243.34612"
         y1="142.99942"
         x2="248.04613"
         y2="142.99942"
         id="line20703"
         style="fill:none;stroke:#3e4c70;stroke-width:2px;stroke-linecap:round;stroke-linejoin:round" />
      <line
         class="cls-2"
         x1="254.64613"
         y1="142.99942"
         x2="259.3461"
         y2="142.99942"
         id="line20705"
         style="fill:none;stroke:#d62027;stroke-width:2px;stroke-linecap:round;stroke-linejoin:round" />
      <path
         class="cls-7"
         d="m 171.54612,184.19942 9,-20.2 a 2.8,2.8 0 0 1 2.6,-1.8 h 0.2 a 2.8,2.8 0 0 1 2.6,1.8 l 9,20.2 a 1.6,1.6 0 0 1 0.3,0.9 2.1,2.1 0 0 1 -4.1,0.6 l -2,-4.6 h -11.9 l -2,4.7 a 2.1,2.1 0 0 1 -2,1.4 2,2 0 0 1 -2,-2 1.9,1.9 0 0 1 0.3,-1 z m 15.9,-6.9 -4.3,-9.9 -4.2,9.9 z"
         id="path20707"
         style="fill:#d62027" />
      <path
         class="cls-7"
         d="m 204.04612,164.69942 a 2.1,2.1 0 0 1 2.2,-2.1 h 7.4 c 5.7,0 9.3,3.2 9.3,8.1 v 0 c 0,5.5 -4.4,8.3 -9.8,8.3 h -4.8 v 5.9 a 2.2,2.2 0 0 1 -2.1,2.2 2.2,2.2 0 0 1 -2.2,-2.2 z m 9.3,10.6 c 3.2,0 5.2,-1.9 5.2,-4.4 v 0 c 0,-2.8 -2,-4.3 -5.2,-4.3 h -5 v 8.8 z"
         id="path20709"
         style="fill:#d62027" />
      <path
         class="cls-7"
         d="m 231.74612,164.49942 a 2.1,2.1 0 0 1 2.2,-2.1 2.1,2.1 0 0 1 2.1,2.1 v 20.5 a 2.1,2.1 0 0 1 -2.1,2.2 2.2,2.2 0 0 1 -2.2,-2.2 z"
         id="path20711"
         style="fill:#d62027" />
      <line
         class="cls-1"
         x1="172.64612"
         y1="199.69942"
         x2="222.64612"
         y2="199.69942"
         id="line20713"
         style="fill:none;stroke:#3e4c70;stroke-width:2px;stroke-linecap:round;stroke-linejoin:round" />
      <line
         class="cls-1"
         x1="172.64612"
         y1="210.59943"
         x2="212.64612"
         y2="210.59943"
         id="line20715"
         style="fill:none;stroke:#3e4c70;stroke-width:2px;stroke-linecap:round;stroke-linejoin:round" />
      <line
         class="cls-1"
         x1="172.64612"
         y1="221.49942"
         x2="204.84612"
         y2="221.49942"
         id="line20717"
         style="fill:none;stroke:#3e4c70;stroke-width:2px;stroke-linecap:round;stroke-linejoin:round" />
      <path
         class="cls-1"
         d="m 362.14612,261.49942 a 5.6,5.6 0 0 0 5.6,5.6 v 13.1 h -58.2 v -13.1 a 5.6,5.6 0 0 0 0,-11.2 v -13.2 h 58.2 v 13.2 a 5.6,5.6 0 0 0 -5.6,5.6 z"
         id="path20719"
         style="fill:none;stroke:#3e4c70;stroke-width:2px;stroke-linecap:round;stroke-linejoin:round" />
      <line
         class="cls-1"
         x1="322.24609"
         y1="244.19942"
         x2="322.24609"
         y2="278.99942"
         id="line20721"
         style="fill:none;stroke:#3e4c70;stroke-width:2px;stroke-linecap:round;stroke-linejoin:round" />
      <line
         class="cls-3"
         x1="329.94611"
         y1="266.49942"
         x2="355.74609"
         y2="266.49942"
         id="line20723"
         style="fill:none;stroke:#158aff;stroke-width:2px;stroke-linecap:round;stroke-linejoin:round" />
      <line
         class="cls-3"
         x1="329.94611"
         y1="273.39941"
         x2="355.74609"
         y2="273.39941"
         id="line20725"
         style="fill:none;stroke:#158aff;stroke-width:2px;stroke-linecap:round;stroke-linejoin:round" />
      <polyline
         class="cls-2"
         points="360.9 261.5 365.5 266.1 360.9 270.6"
         id="polyline20727"
         style="fill:none;stroke:#d62027;stroke-width:2px;stroke-linecap:round;stroke-linejoin:round"
         transform="translate(-12.55388,-11.200579)" />
      <polyline
         class="cls-2"
         points="347 261.5 342.5 266.1 347 270.6"
         id="polyline20729"
         style="fill:none;stroke:#d62027;stroke-width:2px;stroke-linecap:round;stroke-linejoin:round"
         transform="translate(-12.55388,-11.200579)" />
      <line
         class="cls-2"
         x1="345.44611"
         y1="247.59941"
         x2="337.3461"
         y2="262.0994"
         id="line20731"
         style="fill:none;stroke:#d62027;stroke-width:2px;stroke-linecap:round;stroke-linejoin:round" />
      <path
         class="cls-1"
         d="m 90.34612,41.999421 -3.5,8.4 5,4.3 a 27.3,27.3 0 0 0 0,7 l -5.1,4.2 3.4,8.4 6.7,-0.5 a 24.7,24.7 0 0 0 4.8,4.9 l -0.6,6.7 8.4,3.5 4.3,-5.1 a 23.5,23.5 0 0 0 7,0.1 l 4.2,5.1 8.4,-3.4 -0.5,-6.6 a 23.2,23.2 0 0 0 5,-4.9 l 6.6,0.6 3.5,-8.4 -5,-4.3 a 23.5,23.5 0 0 0 0.1,-7 l 5,-4.2 -3.4,-8.4 -6.5,0.5 a 26.8,26.8 0 0 0 -5,-5.1 l 0.6,-6.5 -8.4,-3.5 -4.2,4.9 a 28.1,28.1 0 0 0 -7.1,0 l -4.2,-5 -8.4,3.4 0.5,6.5 a 23.7,23.7 0 0 0 -5,5 z"
         id="path20733"
         style="fill:none;stroke:#3e4c70;stroke-width:2px;stroke-linecap:round;stroke-linejoin:round" />
      <path
         class="cls-1"
         d="m 132.74612,50.299421 a 17.3,17.3 0 0 1 -22,23.9 19.2,19.2 0 0 1 -4.4,-2.7"
         id="path20735"
         style="fill:none;stroke:#3e4c70;stroke-width:2px;stroke-linecap:round;stroke-linejoin:round" />
      <path
         class="cls-2"
         d="m 102.44612,66.799421 a 17.6,17.6 0 0 1 -0.9,-15.2 17.2,17.2 0 0 1 22.6,-9.2 17.9,17.9 0 0 1 4.4,2.7 l 0.5,0.4"
         id="path20737"
         style="fill:none;stroke:#d62027;stroke-width:2px;stroke-linecap:round;stroke-linejoin:round" />
      <polyline
         class="cls-2"
         points="130.4 74.1 138.8 65.6 138.8 59.5 141.4 56.9"
         id="polyline20739"
         style="fill:none;stroke:#d62027;stroke-width:2px;stroke-linecap:round;stroke-linejoin:round"
         transform="translate(-12.55388,-11.200579)" />
      <polyline
         class="cls-1"
         points="139.5 74.2 142.7 71 142.7 64 145.2 61.5"
         id="polyline20741"
         style="fill:none;stroke:#3e4c70;stroke-width:2px;stroke-linecap:round;stroke-linejoin:round"
         transform="translate(-12.55388,-11.200579)" />
      <circle
         class="cls-1"
         cx="124.84612"
         cy="65.399422"
         r="2.8"
         id="circle20743"
         style="fill:none;stroke:#3e4c70;stroke-width:2px;stroke-linecap:round;stroke-linejoin:round" />
      <circle
         class="cls-2"
         cx="115.94612"
         cy="65.399422"
         r="2.8"
         id="circle20745"
         style="fill:none;stroke:#d62027;stroke-width:2px;stroke-linecap:round;stroke-linejoin:round" />
      <polyline
         class="cls-1"
         points="130.2 65 121.8 73.5 121.8 79.6 119.2 82.2"
         id="polyline20747"
         style="fill:none;stroke:#3e4c70;stroke-width:2px;stroke-linecap:round;stroke-linejoin:round"
         transform="translate(-12.55388,-11.200579)" />
      <polyline
         class="cls-2"
         points="121.1 65 117.9 68.1 117.9 75.1 115.3 77.7"
         id="polyline20749"
         style="fill:none;stroke:#d62027;stroke-width:2px;stroke-linecap:round;stroke-linejoin:round"
         transform="translate(-12.55388,-11.200579)" />
      <circle
         class="cls-2"
         cx="110.74612"
         cy="51.299419"
         r="2.8"
         id="circle20751"
         style="fill:none;stroke:#d62027;stroke-width:2px;stroke-linecap:round;stroke-linejoin:round" />
      <circle
         class="cls-1"
         cx="119.54613"
         cy="51.299419"
         r="2.8"
         id="circle20753"
         style="fill:none;stroke:#3e4c70;stroke-width:2px;stroke-linecap:round;stroke-linejoin:round" />
      <rect
         class="cls-1"
         x="222.84612"
         y="331.49942"
         width="18.299999"
         height="18.290001"
         id="rect20755"
         style="fill:none;stroke:#3e4c70;stroke-width:2px;stroke-linecap:round;stroke-linejoin:round" />
      <rect
         class="cls-3"
         x="269.24609"
         y="351.99942"
         width="8.1000004"
         height="8.1300001"
         id="rect20757"
         style="fill:none;stroke:#158aff;stroke-width:2px;stroke-linecap:round;stroke-linejoin:round" />
      <rect
         class="cls-3"
         x="273.74609"
         y="336.49942"
         width="8.1000004"
         height="8.1300001"
         id="rect20759"
         style="fill:none;stroke:#158aff;stroke-width:2px;stroke-linecap:round;stroke-linejoin:round" />
      <rect
         class="cls-3"
         x="269.24609"
         y="321.0994"
         width="8.1000004"
         height="8.1300001"
         id="rect20761"
         style="fill:none;stroke:#158aff;stroke-width:2px;stroke-linecap:round;stroke-linejoin:round" />
      <line
         class="cls-2"
         x1="248.44612"
         y1="340.5994"
         x2="267.04611"
         y2="340.5994"
         id="line20763"
         style="fill:none;stroke:#d62027;stroke-width:2px;stroke-linecap:round;stroke-linejoin:round" />
      <polyline
         class="cls-2"
         points="276.1 348.3 279.6 351.8 276.1 355.3"
         id="polyline20765"
         style="fill:none;stroke:#d62027;stroke-width:2px;stroke-linecap:round;stroke-linejoin:round"
         transform="translate(-12.55388,-11.200579)" />
      <line
         class="cls-2"
         x1="249.04613"
         y1="332.5994"
         x2="260.94611"
         y2="325.0994"
         id="line20767"
         style="fill:none;stroke:#d62027;stroke-width:2px;stroke-linecap:round;stroke-linejoin:round" />
      <polyline
         class="cls-2"
         points="272.4 341.2 273.5 336.3 268.7 335.2"
         id="polyline20769"
         style="fill:none;stroke:#d62027;stroke-width:2px;stroke-linecap:round;stroke-linejoin:round"
         transform="translate(-12.55388,-11.200579)" />
      <line
         class="cls-2"
         x1="249.04613"
         y1="348.6994"
         x2="260.94611"
         y2="356.1994"
         id="line20771"
         style="fill:none;stroke:#d62027;stroke-width:2px;stroke-linecap:round;stroke-linejoin:round" />
      <polyline
         class="cls-2"
         points="272.4 362.5 273.5 367.4 268.7 368.5"
         id="polyline20773"
         style="fill:none;stroke:#d62027;stroke-width:2px;stroke-linecap:round;stroke-linejoin:round"
         transform="translate(-12.55388,-11.200579)" />
      <polyline
         class="cls-8"
         points="213.5 133.1 213.5 69.6 163.7 69.6"
         id="polyline20775"
         style="fill:none;stroke:#158aff;stroke-width:2px;stroke-linecap:round;stroke-linejoin:round;stroke-dasharray:6.48, 4.32"
         transform="translate(-12.55388,-11.200579)" />
      <line
         class="cls-8"
         x1="252.24611"
         y1="121.99942"
         x2="252.24611"
         y2="64.299423"
         id="line20777"
         style="fill:none;stroke:#158aff;stroke-width:2px;stroke-linecap:round;stroke-linejoin:round;stroke-dasharray:6.48, 4.32" />
      <line
         class="cls-8"
         x1="276.14612"
         y1="151.59943"
         x2="315.54611"
         y2="151.59943"
         id="line20779"
         style="fill:none;stroke:#158aff;stroke-width:2px;stroke-linecap:round;stroke-linejoin:round;stroke-dasharray:6.48, 4.32" />
      <polyline
         class="cls-8"
         points="289.8 215 351.2 215 351.2 247"
         id="polyline20781"
         style="fill:none;stroke:#158aff;stroke-width:2px;stroke-linecap:round;stroke-linejoin:round;stroke-dasharray:6.48, 4.32"
         transform="translate(-12.55388,-11.200579)" />
      <polyline
         class="cls-8"
         points="213.1 258.5 213.1 306.4 161.4 306.4"
         id="polyline20783"
         style="fill:none;stroke:#158aff;stroke-width:2px;stroke-linecap:round;stroke-linejoin:round;stroke-dasharray:6.48, 4.32"
         transform="translate(-12.55388,-11.200579)" />
      <line
         class="cls-8"
         x1="252.04613"
         y1="247.29942"
         x2="252.04613"
         y2="308.99942"
         id="line20785"
         style="fill:none;stroke:#158aff;stroke-width:2px;stroke-linecap:round;stroke-linejoin:round;stroke-dasharray:6.48, 4.32" />
      <rect
         class="cls-1"
         x="214.74612"
         y="313.5994"
         width="75.300003"
         height="53.939999"
         rx="2.5"
         id="rect20787"
         style="fill:none;stroke:#3e4c70;stroke-width:2px;stroke-linecap:round;stroke-linejoin:round" />
      <path
         class="cls-9"
         d="m 364.24612,127.59942 h -41.1 a 2.2,2.2 0 0 0 -2.2,2.3 v 32.5 a 2.2,2.2 0 0 0 2.2,2.3 h 6.8 v 12.7 l 12.7,-12.7 h 33.6 a 2.2,2.2 0 0 0 2.2,-2.3 v -20.8"
         id="path20789"
         style="fill:none;stroke:#3e4c70;stroke-width:2.06px;stroke-linecap:round;stroke-linejoin:round" />
      <path
         class="cls-7"
         d="m 372.04612,119.09942 h 0.2 a 2.1,2.1 0 0 1 1.8,2.1 v 0.5 a 6.4,6.4 0 0 1 4.4,6 v 4.1 a 4,4 0 0 0 4,4 v 0 4.1 h -8.4 v 0.2 a 2,2 0 0 1 -2,1.9 h -0.2 a 2,2 0 0 1 -1.7,-2 h -8.4 v -4.2 a 4,4 0 0 0 4,-4 v -4.1 a 6.4,6.4 0 0 1 4.4,-6 v -0.6 a 2,2 0 0 1 1.9,-2 m 0,-2 v 0 a 3.9,3.9 0 0 0 -3.9,3.2 8.2,8.2 0 0 0 -4.4,7.4 v 4.1 a 2,2 0 0 1 -2,2 2,2 0 0 0 -2.1,2 v 4.1 a 2,2 0 0 0 2.1,2 h 6.8 a 4.2,4.2 0 0 0 3.1,2.2 h 0.4 a 4.1,4.1 0 0 0 3.6,-2.2 h 6.8 a 2.1,2.1 0 0 0 2.1,-2 v -4.1 a 2.1,2.1 0 0 0 -2.1,-2 2,2 0 0 1 -2,-2 v -4.1 a 8.1,8.1 0 0 0 -4.5,-7.4 3.9,3.9 0 0 0 -3.5,-3.2 z"
         id="path20791"
         style="fill:#d62027" />
      <line
         class="cls-10"
         x1="331.24609"
         y1="141.59943"
         x2="348.54611"
         y2="141.59943"
         id="line20793"
         style="fill:#ffffff;stroke:#158aff;stroke-width:2.06px;stroke-linecap:round;stroke-linejoin:round" />
      <line
         class="cls-10"
         x1="331.24609"
         y1="151.39943"
         x2="367.54611"
         y2="151.39943"
         id="line20795"
         style="fill:#ffffff;stroke:#158aff;stroke-width:2.06px;stroke-linecap:round;stroke-linejoin:round" />
    </g>
  </g>
</svg>
