<svg id="Layer_1" data-name="Layer 1" xmlns="http://www.w3.org/2000/svg" viewBox="0 0 600 460"><defs><style>.cls-1,.cls-14,.cls-2,.cls-3,.cls-4,.cls-5,.cls-6{fill:none;}.cls-1,.cls-11,.cls-13,.cls-15,.cls-2,.cls-3,.cls-4,.cls-5{stroke:#3e4c70;}.cls-1,.cls-14,.cls-15,.cls-3,.cls-6,.cls-7,.cls-8{stroke-miterlimit:10;}.cls-1{stroke-width:0.99px;}.cls-11,.cls-12,.cls-13,.cls-2,.cls-5{stroke-linecap:round;}.cls-11,.cls-12,.cls-13,.cls-2,.cls-4,.cls-5{stroke-linejoin:round;}.cls-11,.cls-12,.cls-2,.cls-4{stroke-width:3.97px;}.cls-13,.cls-3,.cls-5{stroke-width:1.98px;}.cls-4{stroke-linecap:square;}.cls-12,.cls-6,.cls-7{stroke:#d62027;}.cls-14,.cls-6,.cls-7,.cls-8{stroke-width:2px;}.cls-11,.cls-12,.cls-13,.cls-15,.cls-7,.cls-8,.cls-9{fill:#fff;}.cls-14,.cls-8{stroke:#158aff;}.cls-10{fill:#d62027;}.cls-15{stroke-width:1.98px;}</style></defs><title>zbx</title><path id="path2987" class="cls-1" d="M342.25,327.26c-.2-.2.08-.79.42-.88a.56.56,0,0,1,.67.71C343.24,327.35,342.46,327.48,342.25,327.26Zm-1.19-1.67a1,1,0,0,0-.55-.65c-.39-.15-.42-.27-.41-1.34a13.56,13.56,0,0,0-.13-2,2,2,0,0,1,.15-1.43c.38-.74.39-2,0-2.28s-.3-1.2.14-1.95a2.38,2.38,0,0,0,.33-.84,2.46,2.46,0,0,1,.28-.81,17.57,17.57,0,0,0,1-3.29,21.1,21.1,0,0,0-.11-4.82c-.15-1.14-.19-1.22-1-1.78-1-.71-2.42-2.65-2.42-3.33a2.31,2.31,0,0,0-.7-.79,1.36,1.36,0,0,1-.68-1.44,2.1,2.1,0,0,1,.32-1.19,2.6,2.6,0,0,0,.42-1.1,1.62,1.62,0,0,1,.64-1.15c.56-.42.58-.89.08-2-.27-.59-.27-.59-.92-.32s-.67.26-1.19-.28c-.3-.3-.59-.5-.65-.44s-.11,0-.11-.18-.37-.53-.83-.82a3.68,3.68,0,0,1-1.05-.94,3.43,3.43,0,0,0-2.45-1.14c-.68,0-3.86-1.39-3.86-1.71a.22.22,0,0,0-.23-.18c-.27,0-1.14-1.19-1.34-1.81a4.88,4.88,0,0,0-.76-1.17,7.59,7.59,0,0,1-.94-1.45c-.35-.79-1.1-1.43-1.49-1.28-.23.09-.23.2,0,.84a6.07,6.07,0,0,0,1,1.88c.21.16.39.93.21.93-.39,0-1.72-1.95-2-2.95a4.6,4.6,0,0,0-.79-1.57c-.27-.28-.41-.51-.33-.51s-.36-.51-1.31-1.33a4.82,4.82,0,0,1-1.17-1.49,19.78,19.78,0,0,1-.27-3.71,3.06,3.06,0,0,0-.09-1.13,1.73,1.73,0,0,1,.09-1.28c.37-.89.22-1.27-1-2.28a5.39,5.39,0,0,1-1.88-3,3.52,3.52,0,0,0-.58-1.09.68.68,0,0,1-.25-.38,3.72,3.72,0,0,0-.49-.91c-.37-.56-.61-.74-1-.74a1.89,1.89,0,0,1-1-.37,1.73,1.73,0,0,0-.83-.37,7.51,7.51,0,0,1-2.59-.87,2.61,2.61,0,0,0-1.13-.36,1.12,1.12,0,0,0-.18.7c0,.54-.27.9-.65.91-.22,0-.16-.45.15-1.21s.11-1.24-.45-.68a2.44,2.44,0,0,0-.83,1.94c.07.38,0,.54-.25.64a8.38,8.38,0,0,0-1.33.93,4.38,4.38,0,0,1-1.24.8.37.37,0,0,0-.33.23c0,.13-.14-.09-.22-.49a2.35,2.35,0,0,0-.4-1,1.12,1.12,0,0,1-.27-.69c0-1-.24-1.61-.77-1.88a.9.9,0,0,1-.53-.63.61.61,0,0,0-.18-.47c-.21-.13.45-.84.78-.84a5.14,5.14,0,0,0,1-.26c.65-.23.75-.34.8-.89s0-.68-.56-1a2.16,2.16,0,0,0-1.08-.27,1.2,1.2,0,0,1-1.27-1.17c.05-.37.16-.44.6-.39a2.7,2.7,0,0,1,1,.36c.43.28.48.28.7,0a.74.74,0,0,1,.44-.32c.12,0,.21-.21.21-.47s-.09-.47-.47-.47-.47-.08-.47-.18c0-.29-.94-1.14-1.13-1s-.18,0-.18-.14a3.31,3.31,0,0,0-.11-.64c-.09-.33,0-.47.78-.84a3.25,3.25,0,0,0,1.17-.92,3.2,3.2,0,0,1,1.09-.91c.7-.37.87-.4,1.26-.19a1.1,1.1,0,0,0,.77.12,1,1,0,0,1,.74.16,3.69,3.69,0,0,0,1.23.39,9,9,0,0,1,1.46.34,3.86,3.86,0,0,0,1.37.17,1.87,1.87,0,0,1,1.21.26,2.65,2.65,0,0,0,.77.37,1.67,1.67,0,0,1,.69.52c.54.63,1,.6,1.59-.09a2.32,2.32,0,0,1,2.14-.81c.4.1.43.06.35-.39s0-.53.2-.61.58.19.74.93.33.77.74.54,1.16.07,2,.57a3.73,3.73,0,0,0,1,.32c.5.08.67.21.71.53a.8.8,0,0,0,.56.6,7.78,7.78,0,0,1,1,.46c.75.42,1,.35,1.67-.47s.65-.74,1.27-.63a2.67,2.67,0,0,1,.89.3.7.7,0,0,0,.57.07,1.47,1.47,0,0,1,1,.35c.66.45.69.45.91.11a.58.58,0,0,1,.72-.26c.64.13,1.29-.65,1.29-1.53,0-.49-.14-.72-.65-1.11-.67-.51-.87-1.27-.45-1.7s1.23.29,1.25.94a1,1,0,0,0,.19.66,2.19,2.19,0,0,1,.39.8c.15.46.35.71.62.74s.47.28.6.68c.33,1,.78,1.12,1.42.41a2,2,0,0,0,.54-.92c0-.45.14-.56.59-.44s.36.2.27.62,0,.57.07.63.15.74-.06,1a1,1,0,0,0-.13.56c0,.35-.1.43-.52.43a3.48,3.48,0,0,0-1.26.38,2.17,2.17,0,0,1-1.11.29c-.48-.12-1,.18-.74.43a1.25,1.25,0,0,0,.54.24.58.58,0,0,1,.43.28c.08.24-.94.81-1.44.81-.91,0-1.75,1.38-2,3.21a2.85,2.85,0,0,1-.29,1.17c-.22.14-.22.66,0,1s.24.23.64,0c.7-.38,1-.15,1,.69s.14,1,.5.75,1.12.1,1.43.83c.23.55.37.64,1.1.74q1.93.26,1.72,1l-.2.66c0,.16.21.49.62.8l.7.52.42-.49a1.83,1.83,0,0,0,.42-1.32c0-.45,0-.85,0-.87a4.69,4.69,0,0,0,.05-2.51,4,4,0,0,1-.06-2.08c.33-2.08.34-2.09.69-1.91a9,9,0,0,0,1.39.39c.66.14,1.07.33,1.07.48a.34.34,0,0,0,.2.32c.11,0,.25.42.3.85.09.68.21.84.92,1.26.9.53,1.18.48,1.18-.19s.31-.75.44-.21a9.9,9.9,0,0,0,.86,1.67,11.6,11.6,0,0,1,.75,1.34c0,.17.43.52,1,.84s.55.38.54,1.12a1.89,1.89,0,0,1-1.79,2,2.48,2.48,0,0,1-1.06-.21,1.8,1.8,0,0,0-2.26,1.26c0,.28.08.41.2.34a1,1,0,0,1,.61,0c.3.08.41.24.41.59s.12.53.71.74c1.06.37,1.16.53.68,1.19a1.14,1.14,0,0,1-.86.57c-.52,0-.56-.14-.18-.68.25-.35.24-.41,0-.51-.5-.19-1.9.77-3.36,2.31a4.32,4.32,0,0,1-1.24,1,.69.69,0,0,0-.32.64c0,1.47-.13,1.71-1,2.51-1.2,1.1-1.46,1.64-1.32,2.84a3.2,3.2,0,0,1-.14,1.57c-.25.6-.26.6-.67.26s-.4-.39-.18-.86c.14-.32.17-.57.06-.65a1.87,1.87,0,0,1-.38-.5,1.49,1.49,0,0,0-2-.12c-.33.31-.61.36-1.74.31-1.57-.07-2.37.26-2.88,1.18s-.19,3.5.6,3.7c.2.05.37.17.37.25s1.07.5,1.58.46a3.6,3.6,0,0,0,1.15-.55c.43-.29.87-.46,1-.4.29.18.24.76-.08,1-.67.55-.18,1.3.85,1.3a1.48,1.48,0,0,1,1.61,1.57,3.05,3.05,0,0,1-.2.81c-.2.32.56.84,1,.69a2.23,2.23,0,0,1,1.1.1,1.28,1.28,0,0,0,1.27-.07,2.67,2.67,0,0,0,.91-.86c.18-.31.4-.56.48-.56s.08.66-.2,1-.17.32,0,.4a1.25,1.25,0,0,0,1.23-.42c.16-.22.4-.25,1.12-.13a9.78,9.78,0,0,0,1.67.11,2.16,2.16,0,0,1,2,1.29c.21.41.52.6,1.35.84a3.56,3.56,0,0,1,2.49,2.07,1.62,1.62,0,0,0,.88,1,4.67,4.67,0,0,1,1.2.77c.64.56.7.58,1.41.37a2.24,2.24,0,0,1,2.52.61,2.41,2.41,0,0,1,.49.78,1.55,1.55,0,0,0,.4.62c.39.41.39.47.13,1.31s-.35.88-.7.84a.41.41,0,0,0-.52.33c-.05.21-.19.37-.29.37s-.14.05-.08.12,0,.38-.19.7a6.16,6.16,0,0,0-.44,1.69c-.15,1.24-.73,2-1.57,2a1,1,0,0,0-.76.48c-.2.31-.43.45-.65.39-.69-.18-.87.18-1.36,2.79-.11.58-.46,1.18-.68,1.18s-.36.42-.58.93-.5.93-.63.93a1.62,1.62,0,0,1-.72-.51c-.4-.43-.51-.47-.66-.23a1.71,1.71,0,0,0-.09.93,2.34,2.34,0,0,1-.23,1.3c-.26.53-.43.65-.88.65a1,1,0,0,0-1.06.67,1,1,0,0,1-.71.42c-.59.12-.59.13-.47,1s0,1.28-1,1.67c-.58.24-.62.31-.51.87l.22,1.12a2.51,2.51,0,0,1-.41,1.49,11.61,11.61,0,0,0-.73,1.72c-.26.9-.78,1.1-1,.38Zm103.95-3a.57.57,0,0,1-.37-.68,2.9,2.9,0,0,1,.09-.49,2.94,2.94,0,0,1,1-.09c.38,0,.42.1.37.7C446.05,322.85,445.73,323,445,322.64Zm-.35-3.38c-.48-.17-.72-.17-.91,0s-.52,0-1.4-1.25a1.73,1.73,0,0,0-.8-.61c-.26-.07-.43-.24-.42-.42.12-1.2-.3-1.48-1.13-.77-.55.48-.72.47-.92-.05-.28-.73-.74-1-1.85-1a5.08,5.08,0,0,0-2.21.53,3.38,3.38,0,0,1-2.14.43,6,6,0,0,0-1.77.11,1.72,1.72,0,0,1-.91.08,2.37,2.37,0,0,1-.18-.89,2.34,2.34,0,0,0-.27-1,2.23,2.23,0,0,1-.31-.87,2.26,2.26,0,0,0-.43-1,.82.82,0,0,1-.18-.92.91.91,0,0,0,0-.79.59.59,0,0,1-.06-.57,1.12,1.12,0,0,0,.12-.46c0-.21,1-.69,1.77-.81,1.74-.27,2-.37,2.29-.92a1.3,1.3,0,0,1,.63-.62,2.28,2.28,0,0,0,.85-.65c.43-.48.57-.54.8-.35.6.5,1,.4,1.94-.44a3.42,3.42,0,0,1,1.22-.83c.18,0,.33-.08.33-.17s.22-.17.89.06c.38.13.42.25.37,1s0,.87.78,1.26c1.41.66,1.84.71,2,.22.09-.23.09-.47,0-.52s.07-1.16.34-1.25c.11,0,.26.1.33.31a2.1,2.1,0,0,0,.71.79c.77.54.87.69.87,1.37,0,.43.2.75.83,1.33.45.42.86.72.91.68s1.25,1.27,1.25,1.54a.33.33,0,0,0,.22.29c.31.1.48,1.61.27,2.47a5.13,5.13,0,0,1-.61,1.39,2.54,2.54,0,0,0-.43,1.07,5.39,5.39,0,0,1-1.85,2.26,1.62,1.62,0,0,1-.94-.09Zm-61.07-4.47a11.39,11.39,0,0,1-1.23-3.42,1.36,1.36,0,0,0-.33-.65,3.8,3.8,0,0,1-.9-2.11,2.55,2.55,0,0,0-.39-1.12c-.5-.55-.56-2-.16-3.49.32-1.14.33-1.4.12-2l-.73-1.93a5.06,5.06,0,0,0-.79-1.51c-.24-.18-.28-.43-.18-1.37l.12-1.15-.54-.11a2.23,2.23,0,0,1-.92-.46,1.33,1.33,0,0,0-.55-.35c-.1,0-.22-.13-.28-.28-.14-.37-1-.36-1.57,0a2.88,2.88,0,0,1-2.4-.14,1.23,1.23,0,0,0-1.08,0c-.94.43-1.53.28-2.42-.61a4.24,4.24,0,0,1-.93-1.26,1.91,1.91,0,0,0-.75-.85,2,2,0,0,1-1-2.38,16,16,0,0,0,.17-2,3.87,3.87,0,0,1,1.31-3,4.29,4.29,0,0,0,.83-1.16c.07-.23.2-.42.29-.42.36,0,1.34-1.26,1.73-2.23s.39-1.08,2-.82a1.9,1.9,0,0,0,1.51-.26,5.25,5.25,0,0,1,2.71-.45c1.9,0,2,0,2.15.35a1.17,1.17,0,0,1-.12.91c-.4.78-.34.84.76.84a4.49,4.49,0,0,1,1.35.16,12.57,12.57,0,0,0,1.2.44c.82.26.9.26,1.19-.07a.8.8,0,0,1,1.14-.18,7.06,7.06,0,0,0,2.48.83,12.85,12.85,0,0,1,1.34.22,1.94,1.94,0,0,0,1-.09c.86-.36,1.65-2.27,1.2-2.91a4.23,4.23,0,0,0-2.56-.6c-.91,0-.93,0-1-.51a1.86,1.86,0,0,0-.24-.77c-.33-.4,0-.74,1.42-1.26s1.46-.52,2.37-.31c1.76.4,2,.43,2.46.31.72-.18.58-.75-.46-1.8a3.58,3.58,0,0,1-.93-1.28c0-.34-.35-.56-.85-.56-.17,0-.26.2-.26.57s-.06.56-.42.51a.53.53,0,0,1-.48-.49.71.71,0,0,0-.33-.53c-.4-.15-1.13.41-1.28,1a1.52,1.52,0,0,1-.49.77,1,1,0,0,0-.36.79,1.37,1.37,0,0,1-1.32,1.3c-.53,0-.73.28-.73,1s-.27.71-.91.17a3,3,0,0,1-.86-1.48c-.26-.89-.38-1-1.13-1.4a3.35,3.35,0,0,1-1.13-.85c-.37-.56-1-.6-1-.05a2.49,2.49,0,0,0,1.58,1.82c.9.42,1,.59.57.95-.15.12-.27.28-.26.35.09.71-.49.81-.66.12a2.94,2.94,0,0,0-.53-1,26.52,26.52,0,0,0-2.31-2.29,6.76,6.76,0,0,0-.76.37,3.33,3.33,0,0,1-1.29.37,1.2,1.2,0,0,0-1.18,1.08c0,.25-.45.8-.64.79h-.28c-.1,0-.36.36-.58.79-.42.83-.7,1.11-.95,1-.08-.05-.39,0-.67.22-.49.29-.57.29-1.11,0a1.51,1.51,0,0,1-.93-1.62,7,7,0,0,0-.07-1.11,2.05,2.05,0,0,1,.07-.91c.14-.39.24-.42.95-.3,2.06.34,2,.37,2.11-.59s-.21-1.79-.84-1.88c-.21,0-.39-.17-.39-.3a1.47,1.47,0,0,1,1-1c.69,0,1.6-.64,3.42-2.4s1.89-1.87,1.89-2.59c0-1.09.48-.84.63.32l.12.89,1.22.11c.95.09,1.32,0,1.67-.18a1.35,1.35,0,0,1,1-.19c.63.13.75,0,1-1.09.19-.73.22-.74,1-.74s.83,0,.89-.65c.08-.83.28-1.07,1.17-1.33,1.05-.32,1.28-.66.71-1.09a2.06,2.06,0,0,0-2.09-.28c-.85.29-.93.2-1-1.23a3.26,3.26,0,0,1,.5-2.13c.67-1.27.8-2.18.32-2.28s-1.42,1-1.17,1.45c.11.18-1.31,1.68-1.59,1.68s-.56,1.11-.49,1.49a2.43,2.43,0,0,0,.37.74c.35.5.43,1.4.15,1.58a6.53,6.53,0,0,0-.79,1.22,3.11,3.11,0,0,1-.82,1.11c-.31,0-.82-.63-.82-1s-.59-1.41-.87-1.41a.52.52,0,0,0-.38.23,2.47,2.47,0,0,1-.47.48c-.28.22-.39.17-.88-.33a1.94,1.94,0,0,1-.57-1,1,1,0,0,0-.22-.64,2.3,2.3,0,0,1-.18-1.18c0-1,.15-1.2,1.37-1.85a4.2,4.2,0,0,0,1.72-2.23,1.59,1.59,0,0,1,.49-.71.85.85,0,0,0,.35-.6,4.35,4.35,0,0,1,.89-1.43,11.09,11.09,0,0,0,1.22-1.78c.35-.76.92-1.16,1.37-1a2.5,2.5,0,0,0,1.24-.42,3.79,3.79,0,0,1,2-.55c1.21,0,1.39.24.67,1l-.4.43h.67a1.14,1.14,0,0,1,1,.47,1.12,1.12,0,0,0,1,.47,1.66,1.66,0,0,1,1,.32,7.25,7.25,0,0,0,1,.7,1.9,1.9,0,0,1,.9,1.08c.22.64.2.72-.14,1a.83.83,0,0,1-.65.16.36.36,0,0,0-.42.13c-.2.33-1.21-.12-1.51-.68a1.63,1.63,0,0,0-1.38-.63c-.1,0-.23.19-.29.42s0,.53.47.86a1.69,1.69,0,0,1,.84,1.54c0,.52.68,1.23,1.13,1.21.15,0,.31-.21.34-.44a.83.83,0,0,1,.55-.62,3.08,3.08,0,0,0,1-.71c.43-.47,1-.66,2.29-.75.27,0,.13-.51-.23-.85a.82.82,0,0,1-.08-1.29c.43-.43.64-.36.64.23,0,1.06,1,1.33,1.52.42.42-.74,2.76-1.87,2.76-1.33s.78.41,1.22,0a.89.89,0,0,1,.89-.3c.35.09.59,0,1-.48s.61-.59,1.35-.39a2.58,2.58,0,0,0,1,.12c.29-.11.45-.69.45-1.7a3.19,3.19,0,0,1,.19-1.15c.13-.24.12-.39,0-.47s0-.27.37-.47.57-.43.57-.54c0-.3,1-.22,1.31.1s.19.34,0,.5a3.25,3.25,0,0,0,.08,2.47,4.73,4.73,0,0,1,.08,3.4c-.31.8-.39.88-.88.83-.84-.08-1.12.37-.72,1.2.24.51.39.63.64.53a6.46,6.46,0,0,1,.88-.26,3.45,3.45,0,0,0,1.77-2.45c0-.66.36-1.48.65-1.48s.23.44.25,1.25a3.91,3.91,0,0,0,.21,1.42c.24.24,1.5-.38,1.5-.73a1.69,1.69,0,0,0-.28-.7,3.19,3.19,0,0,1-.35-1.19c-.09-1-.22-1.16-.76-1.12a1.65,1.65,0,0,1-1.51-.82,6.36,6.36,0,0,1-.13-3.23c.17-.3.21-.28.44.19a1.57,1.57,0,0,0,.54.65c1.64.73,1.77.86,1.77,1.8,0,1.19.15,1.41.75,1.14.36-.17.46-.35.46-.88a5.21,5.21,0,0,1,.1-1c.07-.26-.12-.62-.64-1.2s-.7-.9-.56-1.16.24-.34.31-.35c.89-.09,1.41-.43,1.43-.93a4.56,4.56,0,0,1,.47-.79c.3-.44.56-.65.74-.58s.22.05.16,0,.23-.5.66-1c1.59-1.79,1.46-1.71,2.65-1.61,1,.08,1.14.17,1.6.72s.62.6.9.53a1,1,0,0,0,.74-1.33c-.09-.27-.21-.72-.27-1-.11-.51-.11-.51.91-.51s1,0,1.14.48.19.46.61.35c.92-.25,1.73-.17,1.93.18a4,4,0,0,0,.55.7c.34.34.34.4.07.81a1.83,1.83,0,0,0-.29.81c0,.43-.26.69-1.29,1.31-.42.25-.76.56-.76.68a.9.9,0,0,1-.27.5c-.22.22-.23.33,0,.59s.28.3,1-.14a5.44,5.44,0,0,0,1-.76c.22-.27.31-.27.92,0a3,3,0,0,1,.77.42,7.37,7.37,0,0,0,.7.63,1.32,1.32,0,0,0,1.21.4,6,6,0,0,1,1.75.18c1.12.27,1.16.26,1.8-.17s1-.56,1-.26c0,.1.12.19.26.19.42,0,.83.82.89,1.79l.06.91,1-.06a7.19,7.19,0,0,1,2.07.24c1,.28,1.75.24,1.55-.07a1.06,1.06,0,0,1,.17-.63,3.54,3.54,0,0,0,.32-.9,1,1,0,0,1,.38-.6c.26-.16.43-.09.87.33s1.78.8,2,.45,1.18,0,1.59.41a1.59,1.59,0,0,1,.42.72c.11.59.23.71.83.93a1.33,1.33,0,0,0,1.25-.17c1.1-.56,1.61-.42,1.77.48.08.46.78.85,1.72.94a4,4,0,0,1,1.36.45,2.82,2.82,0,0,0,.87.38,2.51,2.51,0,0,1,.86.47c.8.59,1.68.63,1.68.08a1.67,1.67,0,0,1,.45-.87l.45-.49,1,.5a4.66,4.66,0,0,0,1.29.5,1.17,1.17,0,0,1,.68.39c.35.38,1.38,1,1.38.83s.24,0,.54.1.56.33.64.84a2.41,2.41,0,0,0,.31.9c.21.26.93.17.93-.11s.7-.18,1,.13.36.85-.25,1.53l-.55.6-1.4-.74a8.26,8.26,0,0,0-1.68-.74c-.15,0-.41.24-.56.54a1.55,1.55,0,0,1-.58.65c-.25.1-.29.33-.23,1.32l.08,1.2-.89.32a2.31,2.31,0,0,0-.89.45c0,.07-.21.18-.46.24a1.27,1.27,0,0,0-.7.63c-.22.45-.35.51-1.11.51a1.46,1.46,0,0,0-1.43.63c-.5.56-.64.62-1.24.52-.89-.14-1.39.17-1.28.79.37,2.2.11,3.27-.9,3.82a2.39,2.39,0,0,0-.87.91c-.32.66-.77.77-.87.21a4.5,4.5,0,0,1,.15-2.45c.17-.21.18-.27,0-.18s-.23.05-.23-.06.38-.7,1.16-1.46a1.67,1.67,0,0,0,.51-.77,2.38,2.38,0,0,1,.64-.94,2.91,2.91,0,0,0,.7-1c.05-.31,0-.36-.5-.33a2.1,2.1,0,0,1-1-.16c-.33-.17-.5-.14-.93.17a4.6,4.6,0,0,0-1.45,1.58c-.23.46-1,.6-1.18.22a1.18,1.18,0,0,0-1.56-.3c-.43.25-.6.26-1.26,0a1.44,1.44,0,0,0-1.17,0,4.71,4.71,0,0,1-.89.3c-.65.14-2.42,2.5-2.6,3.47-.14.78,0,1,.63,1.14.23,0,.45.37.63,1a3.52,3.52,0,0,1,0,2.21,5,5,0,0,1-.47,1.54,4.06,4.06,0,0,0-.51.77,6.47,6.47,0,0,1-2.11,2.13,4.39,4.39,0,0,0-1,.3c-.64.26-.83.48-1.33,1.52s-.56,1.28-.36,1.84.18.66-.15,1l-.37.4-.12-.48a1.14,1.14,0,0,1,0-.68c.13-.22-.32-.75-.63-.75s-.25-.17-.25-.81c0-.27-.1-.32-.49-.25-1.18.23-1.23.23-1.29-.2,0-.25-.19-.42-.38-.42a3,3,0,0,0-1.51,1.44c0,.29.61.6,1.19.6s.76.32.13.95-.57.63-.48,1.7c.07.8.2,1.22.45,1.44s.35.33,0,1a6,6,0,0,1-2.66,2.77,7.14,7.14,0,0,0-1.35.47,1.67,1.67,0,0,1-.92.24,4.13,4.13,0,0,0-1.83.07c-.54.17-.38,2,.22,2.49a3.17,3.17,0,0,1,.79,1.64,1.66,1.66,0,0,1-1.07,1.64c-.39.1-.63,0-1.39-.79a4,4,0,0,1-.92-1.15c0-.16-.18-.22-.51-.19-.55.06-1.08.83-.8,1.17a4.4,4.4,0,0,1,.39,1,3.74,3.74,0,0,0,.64,1.24c.62.66,1.27,1.79,1.12,1.93s-.37-.16-.67-.52-.7-.82-.89-1c-.68-.72-.82-1.23-1.07-3.82-.14-1.46-.51-2.12-1-1.84s-.72.09-.72-.23a2,2,0,0,0-.45-.73,3.73,3.73,0,0,1-.52-.75,2.51,2.51,0,0,0-1.27-.37c-1.17-.14-1.21-.13-1.73.41a7.86,7.86,0,0,1-1.25,1,2.44,2.44,0,0,0-1.24,1.64,2.24,2.24,0,0,1-.33.74,1.51,1.51,0,0,0-.28.65c0,.39-1.26,1.65-1.45,1.43a5,5,0,0,1-.41-1.21,6.22,6.22,0,0,0-.69-1.67,2.6,2.6,0,0,1-.44-1.16c0-.28-.08-.52-.18-.52s-.24-.21-.3-.47a.8.8,0,0,0-.56-.58c-.25-.06-.44-.25-.44-.42,0-.35-1.41-1.6-2.08-1.86a8.43,8.43,0,0,0-1.44-.28,6.66,6.66,0,0,1-2.66-.7,3.32,3.32,0,0,0-1.18-.35c-.77,0-1.2-.34-1.58-1.22s-.56-1-1.77-1.06c-.65-.06-.66.21-.07,1.43a3.55,3.55,0,0,1,.35,1.07c0,.25.14.34.56.34s.56.07.56.45c0,.91,1.09,1.4,1.49.66.23-.42.93-.51.93-.11,0,.15.29.45.65.67s.65.5.65.62c0,.39-1.3,1.62-2.1,2l-1.06.52a8.73,8.73,0,0,1-1.3.37,9,9,0,0,0-1.41.42,2,2,0,0,1-.92.13c-.44-.05-.56-.17-.66-.69A3.32,3.32,0,0,0,394,289a5.78,5.78,0,0,1-.95-1.33c-.16-.36-.74-1.49-1.28-2.51-.84-1.57-1.06-1.86-1.44-1.86-.64,0-.68.54-.1,1.3a2.18,2.18,0,0,1,.48,1.3,2.39,2.39,0,0,0,.29,1.11,3,3,0,0,1,.37.91,2.86,2.86,0,0,0,.64,1.08,2,2,0,0,1,.56,1.11c0,.41.12.54.65.72.36.12.66.31.67.43s0,.55,0,1c0,.72,0,.74.64.69.33,0,.6,0,.6.13,0,.41.69.58,1.24.31a6.39,6.39,0,0,1,1.07-.4c.53-.13.54-.12.42.49a1.6,1.6,0,0,1-.28.73,2.21,2.21,0,0,0-.42.6,28.73,28.73,0,0,1-3.29,3.85c-1.35,1.38-1.57,1.95-1.25,3.22.13.54.44,1.52.68,2.17l.44,1.18-.74.63a2.75,2.75,0,0,1-1.07.64c-.18,0-.33.09-.33.19s-.12.19-.26.19c-.37,0-.49.45-.36,1.39s.09.84-.56,1.22c-.37.22-.63.47-.58.56a5.44,5.44,0,0,1-.64,1.63c-1,2.06-2.76,3.34-4.13,3.07-.27-.05-.55,0-.62.11-.18.3-.58.25-.87-.1ZM400,279.35a3.75,3.75,0,0,0-.49-2.94,1.6,1.6,0,0,1-.44-.81.58.58,0,0,0-.19-.45c-.47-.29-.15-.51.57-.39l.75.12-.06-.87c0-.76-.13-.92-.64-1.2s-.68-.3-1.78-.05-1.25.37-1.51.81a1.25,1.25,0,0,0,.06,1.69,1.5,1.5,0,0,1,.37.77,2.16,2.16,0,0,0,.55,1,1.34,1.34,0,0,1,.44,1.38c-.09.64,0,.8.33,1.06.62.44,1.78.4,2-.06Zm3.57-3.87a2.9,2.9,0,0,0,.32-2.22,1.11,1.11,0,0,0-.74-.24c-.41,0-.63.15-.91.6-.47.77-.46,1,0,1.76S403.17,276.16,403.55,275.48Zm-8.4,34.29a1.77,1.77,0,0,0-.29-.73.68.68,0,0,1-.08-.84,2.25,2.25,0,0,0,.18-1c-.05-1,0-1,.84-1.22.68-.17.84-.29.84-.63a1.12,1.12,0,0,1,1.09-1.21c.44.05.49.13.44.68a6.31,6.31,0,0,1-.55,1.68,9,9,0,0,0-.54,1.33c-.19,1.24-.51,1.85-1,2C395.28,310.12,395.15,310.11,395.15,309.77Zm50.18-6.24a1.31,1.31,0,0,0-.65-.38l-1.13-.07a5.21,5.21,0,0,1-3.44-1.41c-1-.83-1.36-1-1.81-1-.07,0-.19-.19-.25-.44s-.19-.46-.28-.46-.17-.13-.17-.28c0-.47.79-.32,1.23.23s.45.5,1,.28.68-.19,1.27.22a4.35,4.35,0,0,0,1.47.58,2,2,0,0,1,1.61,1.08,1,1,0,0,0,.65.37,1,1,0,0,1,.73.61,1.65,1.65,0,0,0,.42.6.27.27,0,0,1,.16.23c0,.28-.44.17-.82-.21Zm-11.28,0c0-.1.13-.18.28-.18.36,0,.36.12,0,.25C434.18,303.66,434.05,303.63,434.05,303.53Zm-7.43-.81c-1-.29-1.28-.46-1.06-.55a4,4,0,0,1,2.46.18c.51.24.59.35.42.56S428.31,303.23,426.62,302.72Zm5.1-1.23a.37.37,0,0,1,0-.35c.06-.09,0-.21-.18-.27-.36-.14-.36-.86,0-.86.17,0,.28-.17.28-.45,0-.44.43-1,.74-1s.74.23.65.38a.32.32,0,0,1-.37.05c-.4-.15-.55.43-.2.78s.39,1.33-.07,1.48c-.2.06-.37.2-.37.29s-.32.22-.47,0Zm-7.9-.83a.85.85,0,0,0-.54-.29,1.22,1.22,0,0,1-1-.93,4.62,4.62,0,0,0-1.1-1.33c-.53-.48-.9-.92-.83-1a10.55,10.55,0,0,1,3,1.56c.47.39,1.1,1.89.9,2.1s-.26,0-.4-.12Zm4-.79c-.91-.27-1-.36-.77-1.32.09-.44.27-.63.83-.86a2.08,2.08,0,0,0,.89-.62,2.33,2.33,0,0,1,.74-.66c.55-.32.57-.32.93.06.54.58.39,2.2-.27,3.07-.39.51-.55.6-.75.43a.36.36,0,0,0-.49,0c-.15.12-.54.09-1.12-.08Zm7.49-1.17a.19.19,0,1,1,.19.19A.19.19,0,0,1,435.35,298.7Zm-1.49-3c-.56-.15-.62-.64-.08-.72s1,.45.71.69a.86.86,0,0,1-.63,0Zm-21.77-.8a1.12,1.12,0,0,1,.16-.49c.2-.32.47.05.32.45s-.49.36-.48,0Zm20.08-3.16c-.16-.43-.14-1.25,0-1.36s.17-.06.09.08-.06.21,0,.21.6.79.6,1C432.94,291.81,432.2,291.85,432.17,291.77Zm-5.66-2.37a.49.49,0,0,1,.38-.19c.15,0,.27.08.27.19s-.17.19-.38.19S426.45,289.49,426.51,289.39Zm-82.83-1.12c-.06-.1,0-.19.18-.19s.29.08.29.19a.18.18,0,0,1-.18.19A.4.4,0,0,1,343.68,288.28Zm-2.89-.34c0-.28.9-.64,1.24-.51s.32.14,0,.4S340.8,288.19,340.8,287.93Zm91.21-.31c0-.15.08-.28.19-.28s.19.13.19.28-.08.28-.19.28S432,287.78,432,287.62Zm-93.44-.47c0-.22-.2-.35-.65-.43a2.08,2.08,0,0,1-1-.42,1,1,0,0,0-.93-.21c-.34.06-.62,0-.62-.07a.18.18,0,0,1,.14-.19l.51-.11c1-.26,1.72-.27,2,0a4.73,4.73,0,0,0,1.24.61c.54.19,1,.45,1,.56s-.38.3-.84.4C338.66,287.46,338.57,287.44,338.57,287.16Zm101.13-5.69a.5.5,0,0,0-.44-.27c-.42,0-.57-.22-.38-.53s.49-.34,1.06-.38a5,5,0,0,0,1.15-.94c.54-.54,1-.85,1.07-.74a.46.46,0,0,1-.11.47c-.12.15-.16.27-.09.27s0,.21-.16.46a2,2,0,0,0-.3.88c0,.63-.2.82-1,.94C440,281.71,439.78,281.67,439.7,281.47Zm-58.76-3c-.06-.15-.08-.28,0-.28a1,1,0,0,1,.3.28c.13.16.15.28,0,.28S381,278.66,380.94,278.5Zm-2.54-1.12c0-.15,0-.28.07-.28s.12.13.18.28,0,.28-.07.28S378.4,277.54,378.4,277.39Zm64-1c-.25-.06-.3-.19-.21-.49a4.39,4.39,0,0,1,.15-.44,3.24,3.24,0,0,1,.66.1c.65.13,1,.59.49.59-.16,0-.29.08-.29.19s-.22.21-.8.06Zm.77-2.41c-.18-.22-.25-.92-.25-2.52,0-3.13.22-3.55.56-1.08a3.77,3.77,0,0,0,.39,1.25c.24.37.23.49-.09,1.1s-.32.78-.19,1c.24.44-.08.62-.41.23Zm-95-2.4c-.06-.16-.19-.24-.28-.19s-.26,0-.37-.14-.1-.4.16-.84.45-.6.55-.6c.31,0,1.31,1.15,1.31,1.5,0,.56-1.17.78-1.37.26Zm24.38-1.94a9.71,9.71,0,0,0,.16-1,1.34,1.34,0,0,1,.23-.65c.23-.28,0-1.09-.29-1.09-.1,0-.23-.25-.3-.56a1.23,1.23,0,0,0-.4-.71c-.28-.16-.28-.85,0-1.29s1-.29,1.12,0a2.32,2.32,0,0,1,0,.89,1.24,1.24,0,0,0,.37,1.19,3.3,3.3,0,0,1,.6,1.05,1.57,1.57,0,0,0,.38.71.93.93,0,0,1,0,1.24,3,3,0,0,1-1,.32,1.86,1.86,0,0,0-.9.35c-.08.12-.09-.08,0-.44Zm-2.43-1.34c.13-.58.89-1.71,1-1.55a2.56,2.56,0,0,1,0,.83c-.06.62-.17.81-.63,1l-.56.29.14-.62ZM314.37,267c0-.16.08-.24.19-.18a.4.4,0,0,1,.19.29.18.18,0,0,1-.19.18C314.45,267.24,314.37,267.11,314.37,267Zm-1-1.76c-.06-.1,0-.19.08-.19a.19.19,0,0,1,.2.19c0,.1,0,.19-.08.19S313.41,265.3,313.34,265.2ZM344,259.55c-.19-.23-.43-.28-.93-.2-.66.1-.7.07-1.42-1s-.79-1.09-1.56-1.12c-1.73-.08-1.41-1.59.38-1.76.61-.06.63-.09.64-.87a2.41,2.41,0,0,0-.22-1.12c-.2-.27-.27-.25-.71.22s-.52.51-.9.26c-.84-.55-.44-1.07.88-1.14.6,0,.52-.4-.15-.64a1.44,1.44,0,0,1-.74-.5.29.29,0,0,0-.39-.16c-.19.07-.29,0-.29-.2s-.69-.67-1.07-.53a.59.59,0,0,1-.5-.13.78.78,0,0,0-.66-.1c-.29.09-.62-.06-1.27-.58a11.46,11.46,0,0,1-1-.9,4.34,4.34,0,0,1-.05-1.5c.08-1.13.16-1.36.6-1.74s.52-.43.76-.1a1.13,1.13,0,0,1,.14.86c-.15.69.34.7.93,0l.44-.51.19.47c.39.95.69,1.16,1.5,1.09.42,0,.76,0,.76,0a2.16,2.16,0,0,0,.94.11c1.11,0,1.34.24,1.18,1.23-.1.64-.07.7.32.7a2.77,2.77,0,0,1,1.83,2,1.28,1.28,0,0,1-.19.74c-.14.14.05.29.62.51a2.3,2.3,0,0,1,1.05.75,2.12,2.12,0,0,0,1,.73c.51.2.69.37.62.56a1,1,0,0,0,.11.68c.34.63-.07,1-1.09.91s-1.11.12-.76,1.17c.19.58.19.78,0,1s-.28.16-.47-.1-.85-.45-.85-.15c0,.1.18.3.39.45a.7.7,0,0,1,.33.6c-.06.3-.08.3-.32,0Zm-8.54-1.1c-.71-.5-.75-.8-.18-1.51l.42-.53.88.43c.67.33.88.53.88.86s-.11.43-.39.43a1.07,1.07,0,0,0-.7.38l-.31.38-.6-.42Zm62.23-5.71c-.06-.09,0-.22.17-.28s.28,0,.28.06C398.13,252.79,397.8,252.94,397.68,252.75Zm-74.51-.85c-1.21-.56-1.25-.92-.14-1.2.55-.14.84-.31.84-.5s-.2-.28-1.16-.23l-1.16.06.06-1c.09-1.41.37-1.78,1.55-2,.88-.19,1-.18,1.26.15a1.67,1.67,0,0,0,.8.48c.28.07.52.22.52.35s.28.4.6.6a1.47,1.47,0,0,1,.65.76,1.29,1.29,0,0,0,.6.7,1.35,1.35,0,0,1,.6,1.74c-.14.42-.27.5-.62.44a10.28,10.28,0,0,0-2.86,0A2.39,2.39,0,0,1,323.16,251.89Zm6.56.27c-.17-.27.06-.56.43-.55s1,.45.84.62A1.42,1.42,0,0,1,329.72,252.17Zm70.91-1.85a1.6,1.6,0,0,0-.73-.23.86.86,0,0,1-.6-1.42,1.3,1.3,0,0,0,.32-.7,1.41,1.41,0,0,1,.26-.7c.22-.29.31-.3.63-.1s.33.31.2.56a1.81,1.81,0,0,0,0,1.13c.35,1.44.38,1.64.22,1.64A.6.6,0,0,1,400.63,250.32Zm60.37-.41c-.24-.21-.33-.33-.21-.27a.19.19,0,0,0,.28-.07c.09-.26.9,0,.9.28S461.44,250.3,461,249.91Zm-142.27-1.05a1.7,1.7,0,0,1-.68-1.44c0-.25.15-.46.23-.46s.41-.75.38-1.43c0-.93.56-1.09,2.53-.7.46.09,1.38,1,1.38,1.31,0,.14-.37.52-.83.86a3.36,3.36,0,0,0-1,1.11,1,1,0,0,1-.52.59C319.31,248.93,318.91,249,318.73,248.85Zm10.65-.16a.7.7,0,0,1-.13-.42c0-.16-.27-.45-.6-.64l-.6-.35.42-.28a1,1,0,0,0,.42-.74c0-.4.07-.45.6-.4s.61.14.66.62a1.31,1.31,0,0,0,.36.79c.28.21.28.28,0,.88s-.8.85-1.12.53Zm2-1.69a2.53,2.53,0,0,0-.26-.7c-.19-.25.12-1,.47-1.14a.94.94,0,0,1,.61,0,3.84,3.84,0,0,0,.7.21,4.53,4.53,0,0,1,.59.15c.35.13.07.8-.47,1.15a2.47,2.47,0,0,0-.64.57C332.1,247.71,331.51,247.55,331.38,247Zm7.07-.46c-.38-.27-.57-.56-.56-.84,0-.52.12-.53.74,0,.27.21.49.33.49.26s.12,0,.28.1.23.32.09.58c-.24.45-.33.44-1-.06Zm103.7-.34c-.16-.27.26-.74.66-.74a.55.55,0,0,1,.45.76A1,1,0,0,1,442.14,246.2Zm-41.6-.44a.48.48,0,0,1,.16-.37,1.82,1.82,0,0,0,.26-.86c.12-.92.59-1.67,1-1.67.18,0,.48-.31.69-.7.36-.68.4-.7,1.46-.72a2.62,2.62,0,0,0,1.62-.42c.63-.46.84-.49,1-.12s-.58.93-1.24,1.14a2.73,2.73,0,0,0-.89.65,2.54,2.54,0,0,1-1,.65,5.92,5.92,0,0,0-2.12,2c0,.07-.21.26-.47.43S400.55,246,400.55,245.76Zm-66-1.5-1.06-.44c-.44-.17-.52-.33-.63-1.33s-.15-1.15-.83-1.42c-.89-.36-1.12-.81-.4-.81a1.71,1.71,0,0,1,.87.28,1.41,1.41,0,0,0,.7.27c.19,0,.34.1.34.23,0,.56.53.87,1.78,1.06.71.11,1.69.29,2.17.4.81.19.88.25.88.75s-.07.51-.21.42-.32,0-.45.19-.31.28-.62.12-.51-.13-1,.17C335.4,244.59,335.32,244.6,334.56,244.26Zm-11.16-.53.12-.65-.85.1c-.79.09-.85.07-.85-.33a5.17,5.17,0,0,1,.22-1.14c.24-.82.65-.93,1.18-.34.25.28.38.32.48.15s.24-.14.52.12.39.34.67-.33a2.41,2.41,0,0,1,.36-.68,2.82,2.82,0,0,1,.46.65c.24.41.53.65.77.65.53,0,.64.42.29,1.1s-.61.73-.78.3c-.11-.28-.65-.4-.6-.14.11.68,0,.84-.65.74a1.4,1.4,0,0,0-1,.18C323.29,244.38,323.28,244.37,323.4,243.74Zm117.38.26-.62-.33.62-.65a1.59,1.59,0,0,1,1.39-.66c.64,0,.81.07,1,.45.28.6.12.8-.62.8a1,1,0,0,0-.87.36C441.41,244.32,441.39,244.32,440.78,244Zm-109.44-.13a1.77,1.77,0,0,1-.56-.88c-.2-.78-.78-.93-.78-.2v.52l-.4-.4c-.36-.36-.44-.38-.82-.12s-.43.25-.54-.28a2.61,2.61,0,0,0-.48-1c-.48-.56-.46-.81.06-.64a2.47,2.47,0,0,0,1.57,0c.34-.11.45,0,.69.54.15.37.4.67.55.67.52,0,1.43.94,1.37,1.41S331.81,244.19,331.34,243.87Zm113.78-.08c-.06-.1.05-.19.26-.19a.64.64,0,0,1,.49.19c.06.1-.05.19-.26.19A.64.64,0,0,1,445.13,243.79Zm-107.47-2.71c-.48-.4-.63-.44-1-.26a.84.84,0,0,1-.84,0c-.92-.42-.47-.6,1.37-.54,1.5,0,1.82.11,1.87.36s-.41.91-.7.91A2.42,2.42,0,0,1,337.66,241.08Zm-17.67.07a.91.91,0,0,1-.22-.56c0-.27.16-.34.87-.34a2.84,2.84,0,0,1,.79,0s-.33.28-.65.56S320.16,241.32,320,241.15Z"/><path class="cls-2" d="M89,104.43H480.46a12,12,0,0,1,12,12V358.59a0,0,0,0,1,0,0H77a0,0,0,0,1,0,0V116.43A12,12,0,0,1,89,104.43Z"/><rect class="cls-3" x="92.94" y="120.25" width="182.84" height="98.03" rx="4" ry="4"/><rect class="cls-3" x="92.94" y="234.62" width="182.84" height="98.03" rx="4" ry="4"/><rect class="cls-3" x="292.12" y="234.62" width="182.84" height="98.03" rx="4" ry="4"/><rect class="cls-2" x="46.65" y="374.4" width="476.16" height="27.23" rx="12" ry="12"/><line class="cls-4" x1="126.53" y1="313.67" x2="240.12" y2="313.67"/><rect class="cls-5" x="112.87" y="143.28" width="34.23" height="49.79"/><rect class="cls-5" x="199.85" y="130.83" width="34.23" height="18.67"/><rect class="cls-5" x="199.85" y="186.85" width="34.23" height="18.67"/><polyline class="cls-5" points="199.23 198.57 164.91 198.57 164.91 136.32 199.23 136.32"/><line class="cls-5" x1="216.97" y1="186.85" x2="216.97" y2="177.51"/><line class="cls-5" x1="216.97" y1="158.84" x2="216.97" y2="149.5"/><rect class="cls-6" x="199.85" y="158.84" width="34.23" height="18.67"/><line class="cls-7" x1="204.44" y1="168.22" x2="221.56" y2="168.22"/><line class="cls-7" x1="204.44" y1="172.11" x2="221.56" y2="172.11"/><line class="cls-8" x1="117.3" y1="178.34" x2="141.42" y2="178.34"/><line class="cls-8" x1="117.3" y1="185.34" x2="141.42" y2="185.34"/><line class="cls-8" x1="117.3" y1="164.33" x2="141.42" y2="164.33"/><line class="cls-8" x1="117.3" y1="171.34" x2="141.42" y2="171.34"/><line class="cls-8" x1="117.3" y1="157.33" x2="141.42" y2="157.33"/><line class="cls-8" x1="204.44" y1="197.01" x2="221.56" y2="197.01"/><line class="cls-8" x1="204.44" y1="200.9" x2="221.56" y2="200.9"/><line class="cls-8" x1="204.44" y1="140.21" x2="221.56" y2="140.21"/><line class="cls-8" x1="204.44" y1="144.1" x2="221.56" y2="144.1"/><circle class="cls-9" cx="227.78" cy="166.41" r="2.11"/><path class="cls-10" d="M227.78,165.3a1.11,1.11,0,1,1-1.11,1.11,1.11,1.11,0,0,1,1.11-1.11m0-2a3.11,3.11,0,1,0,3.11,3.11,3.11,3.11,0,0,0-3.11-3.11Z"/><circle class="cls-9" cx="227.78" cy="139.18" r="2.11"/><path class="cls-10" d="M227.78,138.07a1.11,1.11,0,1,1-1.11,1.11,1.11,1.11,0,0,1,1.11-1.11m0-2a3.11,3.11,0,1,0,3.11,3.11,3.11,3.11,0,0,0-3.11-3.11Z"/><circle class="cls-9" cx="227.78" cy="195.2" r="2.11"/><path class="cls-10" d="M227.78,194.08a1.11,1.11,0,1,1-1.11,1.11,1.11,1.11,0,0,1,1.11-1.11m0-2a3.11,3.11,0,1,0,3.11,3.11,3.11,3.11,0,0,0-3.11-3.11Z"/><rect class="cls-11" x="292.12" y="34.66" width="140.05" height="98.03" rx="8" ry="8"/><rect class="cls-11" x="377.7" y="151.37" width="178.95" height="129.15" rx="6.22" ry="6.22"/><path class="cls-6" d="M447.72,57a81.3,81.3,0,0,1,81.3,81.3"/><line class="cls-3" x1="363.31" y1="88.09" x2="363.31" y2="70.14"/><rect class="cls-8" x="345.41" y="53.03" width="34.23" height="17.12" rx="4.67" ry="4.67"/><rect class="cls-3" x="388.98" y="88.04" width="26.45" height="17.12" rx="4.67" ry="4.67"/><rect class="cls-8" x="350.08" y="88.04" width="26.45" height="17.12" rx="4.67" ry="4.67"/><rect class="cls-3" x="311.96" y="88.04" width="26.45" height="17.12" rx="4.67" ry="4.67"/><polyline class="cls-3" points="402.21 88.04 402.21 80.31 325.18 80.31 325.18 88.04"/><line class="cls-7" x1="350.08" y1="64.75" x2="363.31" y2="64.75"/><line class="cls-7" x1="350.08" y1="60.86" x2="363.31" y2="60.86"/><line class="cls-7" x1="353.97" y1="94.31" x2="363.31" y2="94.31"/><line class="cls-8" x1="315.07" y1="94.31" x2="324.41" y2="94.31"/><line class="cls-8" x1="392.87" y1="94.31" x2="402.21" y2="94.31"/><line class="cls-7" x1="353.97" y1="98.2" x2="363.31" y2="98.2"/><line class="cls-8" x1="315.07" y1="98.2" x2="324.41" y2="98.2"/><line class="cls-8" x1="392.87" y1="98.2" x2="402.21" y2="98.2"/><polyline class="cls-6" points="520.86 131.41 528.64 139.19 536.42 131.41"/><polyline class="cls-6" points="454.73 48.94 446.95 56.72 454.73 64.5"/><circle class="cls-11" cx="484.52" cy="202.61" r="34.23" transform="translate(-1.36 401.95) rotate(-45)"/><path class="cls-2" d="M466.37,232.87l-25.31,25.31a7.8,7.8,0,0,1-11,0h0a7.8,7.8,0,0,1,0-11l25.31-25.31"/><polyline class="cls-12" points="456.67 202.46 466.01 202.46 470.68 215.68 480.01 188.45 487.01 213.35 494.02 200.9 499.46 211.79 507.24 201.68 514.25 201.68"/><circle class="cls-13" cx="164.91" cy="168.22" r="6.22"/><line class="cls-3" x1="158.69" y1="168.22" x2="147.1" y2="168.22"/><polyline class="cls-14" points="110.63 297.7 131.96 286.57 149.58 274.52 166.27 255.97 183.88 279.15 200.58 287.5 217.27 262.46 235.81 271.73 261.78 262.46"/><circle class="cls-15" cx="132.42" cy="287.03" r="3.25"/><circle class="cls-15" cx="150.04" cy="274.98" r="3.25"/><circle class="cls-15" cx="166.73" cy="256.43" r="3.25"/><circle class="cls-7" cx="184.35" cy="279.62" r="3.25"/><circle class="cls-15" cx="201.04" cy="287.96" r="3.25"/><circle class="cls-7" cx="217.73" cy="262.93" r="3.25"/><circle class="cls-7" cx="311.38" cy="262.93" r="3.25"/><circle class="cls-15" cx="339.2" cy="272.2" r="3.25"/><circle class="cls-15" cx="348.48" cy="300.02" r="3.25"/><circle class="cls-7" cx="385.57" cy="290.74" r="3.25"/><circle class="cls-15" cx="385.57" cy="312.07" r="3.25"/><circle class="cls-7" cx="441.2" cy="309.29" r="3.25"/><circle class="cls-7" cx="236.28" cy="272.2" r="3.25"/></svg>