<?xml version="1.0" encoding="UTF-8" standalone="no"?>
<svg
   viewBox="0 0 400 400"
   version="1.1"
   id="svg91944"
   sodipodi:docname="features_Custom_alerts_zabbix.svg"
   inkscape:version="1.2.1 (9c6d41e410, 2022-07-14)"
   xmlns:inkscape="http://www.inkscape.org/namespaces/inkscape"
   xmlns:sodipodi="http://sodipodi.sourceforge.net/DTD/sodipodi-0.dtd"
   xmlns:xlink="http://www.w3.org/1999/xlink"
   xmlns="http://www.w3.org/2000/svg"
   xmlns:svg="http://www.w3.org/2000/svg">
  <sodipodi:namedview
     id="namedview91946"
     pagecolor="#ffffff"
     bordercolor="#000000"
     borderopacity="0.25"
     inkscape:showpageshadow="2"
     inkscape:pageopacity="0.0"
     inkscape:pagecheckerboard="0"
     inkscape:deskcolor="#d1d1d1"
     showgrid="false"
     inkscape:zoom="2.0925"
     inkscape:cx="198.80526"
     inkscape:cy="200.4779"
     inkscape:window-width="1350"
     inkscape:window-height="1040"
     inkscape:window-x="178"
     inkscape:window-y="0"
     inkscape:window-maximized="0"
     inkscape:current-layer="svg91944" />
  <defs
     id="defs91731">
    <style
       id="style91729">.cls-1,.cls-10,.cls-11,.cls-14,.cls-2,.cls-3,.cls-4,.cls-5,.cls-6,.cls-7,.cls-8,.cls-9{fill:none;stroke-linecap:round;stroke-linejoin:round;}.cls-1,.cls-11{stroke:#3e4c70;}.cls-1,.cls-2,.cls-3{stroke-width:2px;}.cls-2{stroke:#d62027;}.cls-10,.cls-14,.cls-3,.cls-4,.cls-5,.cls-6,.cls-7,.cls-8,.cls-9{stroke:#158aff;}.cls-10,.cls-4,.cls-5,.cls-6,.cls-7,.cls-8,.cls-9{stroke-width:2.17px;}.cls-5{stroke-dasharray:5.11 8.52;}.cls-6{stroke-dasharray:5.12 8.53;}.cls-7{stroke-dasharray:5.01 8.35;}.cls-8{stroke-dasharray:3.47 5.78;}.cls-9{stroke-dasharray:5.26 8.77;}.cls-10{stroke-dasharray:4.65 7.75;}.cls-11,.cls-14{stroke-width:3.7px;}.cls-12{fill:#d62128;}.cls-13{fill:#d62027;}.cls-15{fill:#3e4c70;}</style>
    <clipPath
       id="SVGID_2_">
			<use
   xlink:href="#SVGID_1_"
   style="overflow:visible"
   id="use5534" />

		</clipPath>
    <clipPath
       id="clipPath93995">
			<use
   xlink:href="#SVGID_1_"
   style="overflow:visible"
   id="use93993" />

		</clipPath>
    <clipPath
       id="clipPath93999">
			<use
   xlink:href="#SVGID_1_"
   style="overflow:visible"
   id="use93997" />

		</clipPath>
    <clipPath
       id="clipPath94003">
			<use
   xlink:href="#SVGID_1_"
   style="overflow:visible"
   id="use94001" />

		</clipPath>
    <clipPath
       id="clipPath94007">
			<use
   xlink:href="#SVGID_1_"
   style="overflow:visible"
   id="use94005" />

		</clipPath>
    <clipPath
       id="clipPath94011">
			<use
   xlink:href="#SVGID_1_"
   style="overflow:visible"
   id="use94009" />

		</clipPath>
    <clipPath
       id="clipPath94015">
			<use
   xlink:href="#SVGID_1_"
   style="overflow:visible"
   id="use94013" />

		</clipPath>
    <rect
       id="SVGID_1_"
       y="0"
       width="168"
       height="44"
       x="0" />
  </defs>
  <rect
     class="cls-1"
     x="115.2"
     y="334.60001"
     width="71.300003"
     height="52.349998"
     rx="5.5"
     id="rect91733" />
  <polyline
     class="cls-1"
     points="169.7 349.9 169.7 344.1 176.2 344.1 176.2 349.8"
     id="polyline91735" />
  <polyline
     class="cls-1"
     points="176.2 355.1 176.2 377.5 169.7 377.5 169.7 355.1"
     id="polyline91737" />
  <rect
     class="cls-2"
     x="167.3"
     y="349.89999"
     width="11.4"
     height="5.0500002"
     id="rect91739" />
  <polyline
     class="cls-1"
     points="140.3 349.9 140.3 344.1 146.8 344.1 146.8 349.8"
     id="polyline91741" />
  <polyline
     class="cls-1"
     points="146.8 355.1 146.8 377.5 140.3 377.5 140.3 355.1"
     id="polyline91743" />
  <rect
     class="cls-3"
     x="137.89999"
     y="349.89999"
     width="11.4"
     height="5.0500002"
     id="rect91745" />
  <polyline
     class="cls-1"
     points="155 362.7 155 344.1 161.5 344.1 161.5 362.6"
     id="polyline91747" />
  <polyline
     class="cls-1"
     points="161.5 367.9 161.5 377.5 155 377.5 155 367.9"
     id="polyline91749" />
  <rect
     class="cls-2"
     x="152.60001"
     y="362.70001"
     width="11.4"
     height="5.0500002"
     id="rect91751" />
  <polyline
     class="cls-1"
     points="125.6 366.6 125.6 344.1 132.1 344.1 132.1 366.5"
     id="polyline91753" />
  <polyline
     class="cls-1"
     points="132.1 371.8 132.1 377.5 125.6 377.5 125.6 371.8"
     id="polyline91755" />
  <rect
     class="cls-2"
     x="123.2"
     y="366.60001"
     width="11.4"
     height="5.0500002"
     id="rect91757" />
  <path
     class="cls-4"
     d="m 110.3,360.5 -2.2,-1.4"
     id="path91759" />
  <path
     class="cls-5"
     d="M 102.3,352.9 A 22.7,22.7 0 0 1 98.9,341 v -37.7"
     id="path91761" />
  <line
     class="cls-4"
     x1="98.900002"
     y1="299"
     x2="98.900002"
     y2="296.5"
     id="line91763" />
  <path
     class="cls-6"
     d="m 222.2,361.3 a 149.1,149.1 0 0 1 -24.2,2 h -7.1"
     id="path91765" />
  <path
     class="cls-4"
     d="m 334.1,277.9 c -0.4,0.8 -0.7,1.6 -1.1,2.3"
     id="path91767" />
  <path
     class="cls-7"
     d="m 329,287.6 a 153.6,153.6 0 0 1 -31.1,37.9"
     id="path91769" />
  <path
     class="cls-4"
     d="m 294.8,328.2 -2,1.6"
     id="path91771" />
  <path
     class="cls-4"
     d="m 349.1,212 v -2.5"
     id="path91773" />
  <path
     class="cls-8"
     d="m 348.9,203.7 c -0.1,-2.1 -0.3,-4.2 -0.5,-6.3"
     id="path91775" />
  <path
     class="cls-4"
     d="m 348.1,194.5 -0.3,-2.6"
     id="path91777" />
  <path
     class="cls-4"
     d="m 294.1,96 2,1.6"
     id="path91779" />
  <path
     class="cls-9"
     d="m 302.6,103.5 a 163.2,163.2 0 0 1 15.7,17.6"
     id="path91781" />
  <path
     class="cls-4"
     d="m 320.9,124.7 1.5,2.1"
     id="path91783" />
  <line
     class="cls-4"
     x1="191.3"
     y1="61"
     x2="193.89999"
     y2="61"
     id="line91785" />
  <path
     class="cls-10"
     d="m 201.6,61 a 176.5,176.5 0 0 1 20.8,2.1"
     id="path91787" />
  <path
     class="cls-4"
     d="m 226.2,63.8 2.5,0.6"
     id="path91789" />
  <path
     class="cls-6"
     d="M 98.9,121 V 83.2 A 22.1,22.1 0 0 1 121.1,61 h 3.6"
     id="path91791" />
  <line
     class="cls-1"
     x1="187.39999"
     y1="38.599998"
     x2="177.8"
     y2="32.700001"
     id="line91793" />
  <line
     class="cls-1"
     x1="136.2"
     y1="32.700001"
     x2="126.6"
     y2="38.599998"
     id="line91795" />
  <path
     class="cls-1"
     d="M 187.4,38.6 157,57.1 126.6,38.6 v 34.6 a 3.8,3.8 0 0 0 3.8,3.9 h 53.1 a 3.8,3.8 0 0 0 3.9,-3.9 z"
     id="path91797" />
  <polyline
     class="cls-1"
     points="136.2 44.4 136.2 13 177.8 13 177.8 44.4"
     id="polyline91799" />
  <line
     class="cls-2"
     x1="142.89999"
     y1="22.700001"
     x2="171.10001"
     y2="22.700001"
     id="line91801" />
  <line
     class="cls-2"
     x1="142.89999"
     y1="30"
     x2="171.10001"
     y2="30"
     id="line91803" />
  <line
     class="cls-2"
     x1="142.89999"
     y1="37.200001"
     x2="171.10001"
     y2="37.200001"
     id="line91805" />
  <line
     class="cls-1"
     x1="178.3"
     y1="70.900002"
     x2="163.8"
     y2="62"
     id="line91807" />
  <line
     class="cls-1"
     x1="150.10001"
     y1="62"
     x2="135.60001"
     y2="70.900002"
     id="line91809" />
  <polyline
     class="cls-1"
     points="275.3 35.7 290.1 35.7 290.1 107.2 232.8 107.2 232.8 35.7 248.9 35.7"
     id="polyline91811" />
  <line
     class="cls-1"
     x1="260.70001"
     y1="51.599998"
     x2="280.79999"
     y2="51.599998"
     id="line91813" />
  <polyline
     class="cls-3"
     points="252.8 56.2 252.8 59.6 242.4 59.6 242.4 49.1 251.5 49.1"
     id="polyline91815" />
  <polyline
     class="cls-2"
     points="244.9 53.6 247.9 56.6 253.8 50.8"
     id="polyline91817" />
  <line
     class="cls-1"
     x1="260.70001"
     y1="57.599998"
     x2="274.29999"
     y2="57.599998"
     id="line91819" />
  <line
     class="cls-1"
     x1="260.70001"
     y1="70.5"
     x2="280.79999"
     y2="70.5"
     id="line91821" />
  <polyline
     class="cls-3"
     points="252.8 75.2 252.8 78.5 242.4 78.5 242.4 68.1 251.5 68.1"
     id="polyline91823" />
  <polyline
     class="cls-2"
     points="244.9 72.5 247.9 75.6 253.8 69.7"
     id="polyline91825" />
  <line
     class="cls-1"
     x1="260.70001"
     y1="76.599998"
     x2="274.29999"
     y2="76.599998"
     id="line91827" />
  <line
     class="cls-1"
     x1="260.70001"
     y1="89.5"
     x2="280.79999"
     y2="89.5"
     id="line91829" />
  <polyline
     class="cls-3"
     points="252.8 94.1 252.8 97.4 242.4 97.4 242.4 87 251.5 87"
     id="polyline91831" />
  <polyline
     class="cls-2"
     points="244.9 91.5 247.9 94.5 253.8 88.6"
     id="polyline91833" />
  <line
     class="cls-1"
     x1="260.70001"
     y1="95.5"
     x2="274.29999"
     y2="95.5"
     id="line91835" />
  <path
     class="cls-1"
     d="m 267,31 c 0,-0.3 0.1,-0.5 0.1,-0.8 a 4.9,4.9 0 0 0 -9.7,0 c 0,0.3 0.1,0.5 0.1,0.8 H 250 v 8.6 h 24.5 V 31 Z"
     id="path91837" />
  <path
     class="cls-1"
     d="m 301.2,299.7 v 4.6 h -11.6 v -4.6 a 5.8,5.8 0 1 1 11.6,0 z"
     id="path91839" />
  <path
     class="cls-1"
     d="m 238.8,310.7 v -11 a 5.8,5.8 0 0 1 5.8,-5.8 h 50.8 a 5.8,5.8 0 0 0 -5.8,5.8 v 62.7 a 5.8,5.8 0 0 1 -11.6,0 v -4.7 h -39.2 v -16.2"
     id="path91841" />
  <path
     class="cls-1"
     d="M 283.8,368.2 H 233 a 5.8,5.8 0 0 1 -5.8,-5.8 v -4.7 H 278 v 4.7 a 5.8,5.8 0 0 0 5.8,5.8 z"
     id="path91843" />
  <rect
     class="cls-3"
     x="260.10001"
     y="299.70001"
     width="6"
     height="18.65"
     id="rect91845" />
  <rect
     class="cls-2"
     x="269.29999"
     y="304.89999"
     width="6"
     height="13.46"
     id="rect91847" />
  <rect
     class="cls-3"
     x="278.60001"
     y="310.29999"
     width="6"
     height="8.1300001"
     id="rect91849" />
  <line
     class="cls-1"
     x1="284.70001"
     y1="324.20001"
     x2="261"
     y2="324.20001"
     id="line91851" />
  <line
     class="cls-1"
     x1="284.70001"
     y1="329.39999"
     x2="261"
     y2="329.39999"
     id="line91853" />
  <line
     class="cls-1"
     x1="278.10001"
     y1="334.5"
     x2="261"
     y2="334.5"
     id="line91855" />
  <line
     class="cls-1"
     x1="280.5"
     y1="344.10001"
     x2="296.70001"
     y2="357.70001"
     id="line91857" />
  <line
     class="cls-1"
     x1="266.89999"
     y1="348.20001"
     x2="275.79999"
     y2="343.70001"
     id="line91859" />
  <line
     class="cls-1"
     x1="251.89999"
     y1="338"
     x2="262.20001"
     y2="347.70001"
     id="line91861" />
  <circle
     class="cls-3"
     cx="264.20001"
     cy="349.60001"
     r="2.5999999"
     id="circle91863" />
  <circle
     class="cls-3"
     cx="278.5"
     cy="342.5"
     r="2.5999999"
     id="circle91865" />
  <circle
     class="cls-2"
     cx="299"
     cy="359.70001"
     r="2.5999999"
     id="circle91867" />
  <path
     class="cls-2"
     d="m 228.8,318 a 15,15 0 0 0 2.2,18.8 l -6.7,10.5 a 3.7,3.7 0 0 0 1.1,4.9 3.5,3.5 0 0 0 4.8,-1.1 l 6.8,-10.7 a 15.1,15.1 0 0 0 12.6,-27.1 15,15 0 0 0 -20.8,4.7 z m 18.9,-1.7 a 11.5,11.5 0 0 1 -8.9,20.9 11.4,11.4 0 0 1 -3.4,-1.5 8.7,8.7 0 0 1 -2.3,-1.9 11.5,11.5 0 0 1 14.6,-17.5 z"
     id="path91869" />
  <polyline
     class="cls-1"
     points="246.3 327.6 246.3 331.1 235.6 331.1 235.6 320.5 245.6 320.5"
     id="polyline91871" />
  <polyline
     class="cls-3"
     points="238.2 325.8 241.2 328.3 248.2 321.3"
     id="polyline91873" />
  <line
     class="cls-1"
     x1="56.799999"
     y1="214.89999"
     x2="83.400002"
     y2="188.2"
     id="line91875" />
  <line
     class="cls-1"
     x1="130.5"
     y1="187.60001"
     x2="148.39999"
     y2="205.5"
     id="line91877" />
  <path
     class="cls-1"
     d="m 135.2,159.7 v 1.9 c 0,23.6 -12.6,42.6 -28.4,42.6 -15.8,0 -28.3,-18.9 -28.3,-42.6 v -3"
     id="path91879" />
  <path
     class="cls-1"
     d="m 85.2,153.8 v 0"
     id="path91881" />
  <path
     class="cls-1"
     d="m 137,158.5 v 0.8 c 0,0 -35.7,7.6 -49.9,-11.3 0,0 -0.4,4.6 -2.9,7.1 -2.5,2.5 -7.5,4.2 -7.5,4.2 v -0.8 c 1.8,-21.7 14.5,-32.5 30.1,-32.5 15.6,0 28.4,11 30.2,32.5 z"
     id="path91883" />
  <path
     class="cls-11"
     d="m 168.5,248.1 v 41.2 a 1.4,1.4 0 0 1 -1.5,1.3 H 46 a 0.9,0.9 0 0 1 -0.9,-0.8 v -67.4 c 0,-3.9 3.8,-7.1 8.4,-7.1 h 93.6"
     id="path91885" />
  <line
     class="cls-11"
     x1="34.599998"
     y1="290.60001"
     x2="184"
     y2="290.60001"
     id="line91887" />
  <path
     class="cls-13"
     d="m 172,167.1 h 0.7 a 6.8,6.8 0 0 1 6,6.9 v 1.8 a 21.7,21.7 0 0 1 15.1,20.7 v 14.2 a 13.9,13.9 0 0 0 13.9,13.9 v 13.8 h -29 v 0.7 a 6.7,6.7 0 0 1 -6.7,6.7 h -0.6 a 6.9,6.9 0 0 1 -6.1,-7 v -0.4 h -29 v -13.7 a 13.9,13.9 0 0 0 13.9,-13.9 v -14.2 a 21.8,21.8 0 0 1 15.1,-20.7 v -2.1 a 6.7,6.7 0 0 1 6.7,-6.7 m 0,-3.7 a 10.4,10.4 0 0 0 -10.4,9.9 25.5,25.5 0 0 0 -15.1,23.3 v 14.2 a 10.2,10.2 0 0 1 -10.2,10.2 3.8,3.8 0 0 0 -3.7,3.7 v 13.8 a 3.7,3.7 0 0 0 3.7,3.7 h 25.8 a 10.5,10.5 0 0 0 8.9,7.4 h 1 a 10.4,10.4 0 0 0 10,-7.4 h 25.7 a 3.7,3.7 0 0 0 3.7,-3.7 v -13.8 a 3.8,3.8 0 0 0 -3.7,-3.7 10.2,10.2 0 0 1 -10.2,-10.2 v -14.2 a 25.5,25.5 0 0 0 -15.1,-23.3 10.7,10.7 0 0 0 -9.4,-9.8 z"
     id="path91891" />
  <path
     class="cls-14"
     d="M 198.6,156.6 A 20.4,20.4 0 0 1 215.2,180"
     id="path91893" />
  <path
     class="cls-14"
     d="m 202.1,136.2 a 41,41 0 0 1 33.5,47.3"
     id="path91895" />
  <path
     class="cls-3"
     d="m 364.9,166.9 -2.8,0.4 a 11,11 0 0 0 -2.2,-2.1 v -2.8 l -3.7,-1.4 -1.7,2.2 a 10.1,10.1 0 0 0 -3,0.2 l -1.9,-2.1 -3.6,1.6 0.4,2.8 a 14.5,14.5 0 0 0 -2.1,2.2 h -2.8 l -1.3,3.7 2.2,1.7 a 15.1,15.1 0 0 0 0.1,3 l -2.1,1.9 1.7,3.6 2.8,-0.4 a 8.5,8.5 0 0 0 2.2,2 v 2.1 m 13.8,0.2 -0.4,-2.8 a 8.8,8.8 0 0 0 2.1,-2.2 l 2.8,0.2 M 355.9,168 a 6.8,6.8 0 1 1 -8.8,4 6.9,6.9 0 0 1 8.8,-4.1 z"
     id="path91897" />
  <path
     class="cls-15"
     d="m 364.5,131.6 v 53.2 h -57.6 v -53.2 h 57.6 m 0,-2 h -57.6 a 1.9,1.9 0 0 0 -2,2 v 53.2 a 2,2 0 0 0 2,2 h 57.6 a 1.9,1.9 0 0 0 2,-2 v -53.2 a 1.9,1.9 0 0 0 -2,-2 z"
     id="path91899" />
  <line
     class="cls-1"
     x1="306.60001"
     y1="140.8"
     x2="365"
     y2="140.8"
     id="line91901" />
  <line
     class="cls-1"
     x1="344.79999"
     y1="136.3"
     x2="347.39999"
     y2="136.3"
     id="line91903" />
  <line
     class="cls-1"
     x1="351"
     y1="136.3"
     x2="353.60001"
     y2="136.3"
     id="line91905" />
  <line
     class="cls-2"
     x1="357.20001"
     y1="136.3"
     x2="359.70001"
     y2="136.3"
     id="line91907" />
  <line
     class="cls-1"
     x1="329.20001"
     y1="151.10001"
     x2="359.10001"
     y2="151.10001"
     id="line91909" />
  <polyline
     class="cls-3"
     points="322.6 155 322.6 157.7 313.9 157.7 313.9 149.1 321.5 149.1"
     id="polyline91911" />
  <polyline
     class="cls-2"
     points="316 152.8 318.5 155.3 323.4 150.4"
     id="polyline91913" />
  <line
     class="cls-1"
     x1="329.20001"
     y1="156.10001"
     x2="353.70001"
     y2="156.10001"
     id="line91915" />
  <line
     class="cls-1"
     x1="329.20001"
     y1="168.8"
     x2="334.29999"
     y2="168.8"
     id="line91917" />
  <polyline
     class="cls-3"
     points="322.6 172.6 322.6 175.4 313.9 175.4 313.9 166.7 321.5 166.7"
     id="polyline91919" />
  <polyline
     class="cls-2"
     points="316 170.4 318.5 173 323.4 168.1"
     id="polyline91921" />
  <line
     class="cls-1"
     x1="329.20001"
     y1="173.8"
     x2="334.10001"
     y2="173.8"
     id="line91923" />
  <path
     class="cls-15"
     d="m 365,217.1 v 56.1 H 307.3 V 217.1 H 365 m 0,-2 h -57.7 a 2,2 0 0 0 -2,2 v 56.1 a 2,2 0 0 0 2,2 H 365 a 2,2 0 0 0 2,-2 v -56.1 a 2,2 0 0 0 -2,-2 z"
     id="path91925" />
  <line
     class="cls-1"
     x1="307.10001"
     y1="227.8"
     x2="365.39999"
     y2="227.8"
     id="line91927" />
  <line
     class="cls-1"
     x1="346.39999"
     y1="222.60001"
     x2="348.79999"
     y2="222.60001"
     id="line91929" />
  <line
     class="cls-1"
     x1="352.20001"
     y1="222.60001"
     x2="354.60001"
     y2="222.60001"
     id="line91931" />
  <line
     class="cls-2"
     x1="358"
     y1="222.60001"
     x2="360.5"
     y2="222.60001"
     id="line91933" />
  <line
     class="cls-1"
     x1="311"
     y1="222.60001"
     x2="329.60001"
     y2="222.60001"
     id="line91935" />
  <path
     class="cls-1"
     d="m 354.1,238.1 h -35.7 a 1.4,1.4 0 0 0 -1.4,1.4 v 20 a 1.4,1.4 0 0 0 1.4,1.4 h 4.1 v 7.8 l 7.8,-7.8 h 23.8 a 1.4,1.4 0 0 0 1.4,-1.4 v -20 a 1.4,1.4 0 0 0 -1.4,-1.4 z"
     id="path91937" />
  <line
     class="cls-2"
     x1="323.29999"
     y1="246.7"
     x2="348.79999"
     y2="246.7"
     id="line91939" />
  <line
     class="cls-2"
     x1="323.29999"
     y1="252.7"
     x2="348.79999"
     y2="252.7"
     id="line91941" />
  <g
     id="g5553"
     transform="matrix(0.35297617,0,0,0.35297617,77.650001,248.29999)">
	<g
   id="g5551">
		<defs
   id="defs5532">
			<rect
   id="rect94837"
   y="0"
   width="168"
   height="44"
   x="0" />

		</defs>

		<clipPath
   id="clipPath94023">
			<use
   xlink:href="#SVGID_1_"
   style="overflow:visible"
   id="use94021" />

		</clipPath>

		<rect
   x="0"
   y="0"
   class="st0"
   width="168"
   height="44"
   clip-path="url(#SVGID_2_)"
   id="rect5537"
   style="fill:#d40000" />

		<polygon
   class="st1"
   points="7.2,6.7 31.5,6.7 31.5,9.9 11.9,33.8 32,33.8 32,37.3 6.7,37.3 6.7,34.1 26.3,10.2 7.2,10.2 "
   clip-path="url(#SVGID_2_)"
   id="polygon5539"
   style="fill:#ffffff" />

		<path
   class="st1"
   d="M 48.4,10.8 42.7,26 H 54.1 Z M 46,6.7 h 4.7 l 11.8,30.6 h -4.3 l -2.8,-7.8 h -14 l -2.8,7.8 h -4.4 z"
   clip-path="url(#SVGID_2_)"
   id="path5541"
   style="fill:#ffffff" />

		<path
   class="st1"
   d="m 71.2,22.7 v 11.2 h 6.7 c 2.3,0 3.9,-0.5 5,-1.4 1.1,-0.9 1.6,-2.3 1.6,-4.2 0,-1.9 -0.5,-3.3 -1.6,-4.2 -1.1,-0.9 -2.8,-1.4 -5,-1.4 z m 0,-12.6 v 9.2 h 6.2 c 2,0 3.6,-0.4 4.6,-1.1 1,-0.8 1.5,-1.9 1.5,-3.5 C 83.5,13.2 83,12 82,11.2 81,10.4 79.5,10.1 77.4,10.1 Z M 67,6.7 h 10.7 c 3.2,0 5.6,0.7 7.4,2 1.7,1.3 2.6,3.2 2.6,5.6 0,1.9 -0.4,3.4 -1.3,4.5 -0.9,1.1 -2.2,1.8 -3.9,2.1 2.1,0.4 3.7,1.3 4.8,2.7 1.1,1.4 1.7,3.1 1.7,5.2 0,2.7 -0.9,4.8 -2.8,6.3 -1.9,1.5 -4.5,2.2 -8,2.2 H 67 Z"
   clip-path="url(#SVGID_2_)"
   id="path5543"
   style="fill:#ffffff" />

		<path
   class="st1"
   d="m 99.9,22.7 v 11.2 h 6.7 c 2.2,0 3.9,-0.5 5,-1.4 1.1,-0.9 1.6,-2.3 1.6,-4.2 0,-1.9 -0.5,-3.3 -1.6,-4.2 -1.1,-0.9 -2.8,-1.4 -5,-1.4 z m 0,-12.6 v 9.2 h 6.2 c 2,0 3.6,-0.4 4.6,-1.1 1,-0.8 1.5,-1.9 1.5,-3.5 0,-1.5 -0.5,-2.7 -1.5,-3.5 -1,-0.8 -2.5,-1.1 -4.6,-1.1 z M 95.7,6.7 h 10.7 c 3.2,0 5.6,0.7 7.4,2 1.7,1.3 2.6,3.2 2.6,5.6 0,1.9 -0.4,3.4 -1.3,4.5 -0.9,1.1 -2.2,1.8 -3.9,2.1 2.1,0.4 3.7,1.3 4.8,2.7 1.1,1.4 1.7,3.1 1.7,5.2 0,2.7 -0.9,4.8 -2.8,6.3 -1.9,1.5 -4.5,2.2 -8,2.2 H 95.7 Z"
   clip-path="url(#SVGID_2_)"
   id="path5545"
   style="fill:#ffffff" />

		<polygon
   class="st1"
   points="135.2,37.3 146,21.1 136.4,6.7 141,6.7 148.3,17.7 155.7,6.7 160.1,6.7 150.5,21 161.3,37.3 156.7,37.3 148.2,24.5 139.7,37.3 "
   clip-path="url(#SVGID_2_)"
   id="polygon5547"
   style="fill:#ffffff" />

		<rect
   x="124.3"
   y="6.6999998"
   class="st1"
   width="4.1999998"
   height="30.6"
   clip-path="url(#SVGID_2_)"
   id="rect5549"
   style="fill:#ffffff" />

	</g>

</g>
</svg>
