<svg xmlns="http://www.w3.org/2000/svg" viewBox="0 0 400 400"><defs><style>.cls-1,.cls-10,.cls-12,.cls-13,.cls-14,.cls-3,.cls-5,.cls-7,.cls-8,.cls-9{fill:none;}.cls-1,.cls-12,.cls-14,.cls-5{stroke:#158aff;}.cls-1,.cls-11,.cls-12,.cls-13,.cls-14,.cls-15,.cls-3,.cls-5,.cls-8,.cls-9{stroke-linecap:round;}.cls-1,.cls-10,.cls-11,.cls-12,.cls-13,.cls-14,.cls-15,.cls-3,.cls-5,.cls-7,.cls-8,.cls-9{stroke-linejoin:round;}.cls-1,.cls-3{stroke-width:1.74px;}.cls-2{fill:#158aff;}.cls-10,.cls-13,.cls-3,.cls-9{stroke:#3e4c70;}.cls-4{fill:#3e4c70;}.cls-12,.cls-14,.cls-15,.cls-5,.cls-7,.cls-8,.cls-9{stroke-width:2px;}.cls-6{fill:#d62027;}.cls-11,.cls-15,.cls-7,.cls-8{stroke:#d62027;}.cls-10,.cls-11,.cls-13{stroke-width:3.7px;}.cls-11,.cls-15{fill:#fff;}.cls-12{stroke-dasharray:7.53 5.02;}.cls-14{stroke-dasharray:7.05 4.7;}</style></defs><g id="blue"><line class="cls-1" x1="44.7" y1="255" x2="22.9" y2="255"/><path class="cls-2" d="M19.2,252.5a2.5,2.5,0,0,1,0,5,2.5,2.5,0,1,1,0-5m0-1.7a4.2,4.2,0,1,0,4.2,4.2,4.2,4.2,0,0,0-4.2-4.2Z"/><polyline class="cls-3" points="27.3 242.2 32.7 247.6 44.7 247.6"/><path class="cls-4" d="M24.8,237.3a2.2,2.2,0,0,1,1.7.7,2.4,2.4,0,0,1,0,3.5,2.2,2.2,0,0,1-1.7.7,2.6,2.6,0,0,1-1.8-.7,2.6,2.6,0,0,1,0-3.5,2.6,2.6,0,0,1,1.8-.7m0-1.8a4.3,4.3,0,0,0-3,1.3,4,4,0,0,0-1.2,2.9,4.1,4.1,0,0,0,1.2,3,4.3,4.3,0,0,0,6,0,4.1,4.1,0,0,0,1.2-3,4,4,0,0,0-1.2-2.9,4.3,4.3,0,0,0-3-1.3Z"/><polyline class="cls-3" points="26.4 274 26.4 262.4 44.7 262.4"/><path class="cls-4" d="M26.4,275.8a2.6,2.6,0,0,1,1.8.7,2.6,2.6,0,0,1,0,3.5,2.6,2.6,0,0,1-1.8.7,2.2,2.2,0,0,1-1.7-.7,2.4,2.4,0,0,1,0-3.5,2.2,2.2,0,0,1,1.7-.7m0-1.7a4.2,4.2,0,0,0-3,1.2,4.1,4.1,0,0,0-1.2,3,4,4,0,0,0,1.2,2.9,4.1,4.1,0,0,0,6,0,4.2,4.2,0,0,0-3-7.1Z"/><circle class="cls-5" cx="75.3" cy="251.2" r="24"/><path class="cls-6" d="M83.4,245.7a2.9,2.9,0,0,1,3,3v10.8a2.9,2.9,0,0,1-3,2.9H67.1a2.9,2.9,0,0,1-2.9-2.9V248.7a2.9,2.9,0,0,1,2.9-3H83.4m0-2H67.1a4.9,4.9,0,0,0-4.9,5v10.8a4.9,4.9,0,0,0,4.9,4.9H83.4a4.9,4.9,0,0,0,5-4.9V248.7a5,5,0,0,0-5-5Z"/><path class="cls-7" d="M81.3,245.5v-4.1a6,6,0,0,0-6-6h0a6,6,0,0,0-6,6v4.1"/><path class="cls-8" d="M72.9,252.1a2.3,2.3,0,0,1,2.4-2.4,2.4,2.4,0,0,1,2.4,2.4,2.3,2.3,0,0,1-1.1,2v3.6a1.3,1.3,0,0,1-1.3,1.3,1.3,1.3,0,0,1-1.4-1.3v-3.6A2.5,2.5,0,0,1,72.9,252.1Z"/><path class="cls-9" d="M367.8,237.7a18.7,18.7,0,0,0-7.4,1.4,19.4,19.4,0,0,0-38.2-1.4,19.4,19.4,0,0,0,1.3,38.7h44.3a19.4,19.4,0,0,0,0-38.7Z"/><path class="cls-5" d="M347.4,267.9H324.3a11.2,11.2,0,0,1-11.1-10.4"/><path class="cls-10" d="M221.2,227.9,244,250.7v9.4a10.1,10.1,0,0,1-10.1,10.1H173.5a10.1,10.1,0,0,1-10.1-10v-8.9l22.7-22.7"/><path class="cls-4" d="M203.7,183.9c11.2,0,20.1,8.5,20.1,25.2s-8.9,30.2-20.1,30.2-20.2-13.4-20.2-30.2,9-25.2,20.2-25.2m0-3.7a22.1,22.1,0,0,0-17.1,7.6c-4.4,5.1-6.8,12.5-6.8,21.3,0,19,10.5,33.9,23.9,33.9s23.8-14.9,23.8-33.9c0-8.8-2.3-16.1-6.8-21.2a21.8,21.8,0,0,0-17-7.7Z"/><line class="cls-11" x1="232.6" y1="254" x2="215" y2="254"/><path class="cls-9" d="M168.8,168.8A73.1,73.1,0,1,1,130.6,233"/><path class="cls-9" d="M143.5,215.1a62.8,62.8,0,1,1,15.8,62.3"/><path class="cls-12" d="M268.3,174.2A87.2,87.2,0,0,0,211.6,146a8.8,8.8,0,0,1-7.9-8.8V106.5"/><path class="cls-12" d="M128.5,188.5a87.6,87.6,0,0,0-12.2,45.1c.4,47,38.4,85.6,85.3,86.7a87.4,87.4,0,0,0,72.8-138.6"/><path class="cls-12" d="M188.3,147A86.2,86.2,0,0,0,154,161.2"/><polyline class="cls-9" points="50.4 132.1 153.8 132.1 153.8 170.6 138.1 188.3 32.8 188.3 32.8 153.2"/><polyline class="cls-9" points="56.6 142.8 62 142.8 62 149.8 58.3 149.8"/><rect class="cls-9" x="62" y="142.8" width="7" height="6.95"/><rect class="cls-9" x="69" y="142.8" width="7" height="6.95"/><rect class="cls-9" x="75.9" y="142.8" width="7" height="6.95"/><rect class="cls-9" x="82.9" y="142.8" width="7" height="6.95"/><rect class="cls-9" x="89.8" y="142.8" width="7" height="6.95"/><rect class="cls-9" x="96.8" y="142.8" width="7" height="6.95"/><rect class="cls-9" x="103.7" y="142.8" width="7" height="6.95"/><rect class="cls-9" x="110.7" y="142.8" width="7" height="6.95"/><rect class="cls-9" x="117.6" y="142.8" width="7" height="6.95"/><rect class="cls-9" x="124.6" y="142.8" width="7" height="6.96"/><rect class="cls-9" x="131.5" y="142.8" width="6.9" height="6.96"/><polyline class="cls-9" points="55.1 152.7 55.1 156.7 48.1 156.7 48.1 152.9"/><rect class="cls-9" x="62" y="149.8" width="7" height="6.95"/><rect class="cls-9" x="69" y="149.8" width="7" height="6.95"/><rect class="cls-9" x="75.9" y="149.8" width="7" height="6.95"/><rect class="cls-9" x="82.9" y="149.8" width="7" height="6.95"/><rect class="cls-9" x="89.8" y="149.8" width="7" height="6.95"/><rect class="cls-9" x="96.8" y="149.8" width="7" height="6.95"/><rect class="cls-9" x="103.7" y="149.8" width="7" height="6.95"/><rect class="cls-9" x="110.7" y="149.8" width="7" height="6.95"/><rect class="cls-9" x="117.6" y="149.8" width="7" height="6.95"/><rect class="cls-9" x="124.6" y="149.8" width="13.9" height="6.95"/><rect class="cls-9" x="48.1" y="156.7" width="7" height="6.95"/><rect class="cls-9" x="55.1" y="156.7" width="7" height="6.95"/><rect class="cls-9" x="62" y="156.7" width="7" height="6.95"/><rect class="cls-9" x="69" y="156.7" width="7" height="6.95"/><rect class="cls-9" x="75.9" y="156.7" width="7" height="6.95"/><rect class="cls-9" x="82.9" y="156.7" width="7" height="6.95"/><rect class="cls-9" x="89.8" y="156.7" width="7" height="6.95"/><rect class="cls-9" x="96.8" y="156.7" width="7" height="6.95"/><rect class="cls-9" x="103.7" y="156.7" width="7" height="6.95"/><rect class="cls-9" x="110.7" y="156.7" width="7" height="6.95"/><rect class="cls-9" x="117.6" y="156.7" width="7" height="6.96"/><polygon class="cls-9" points="138.5 156.7 138.5 170.6 131.5 170.6 131.5 163.7 124.6 163.7 124.6 156.7 138.5 156.7"/><rect class="cls-9" x="48.1" y="163.7" width="7" height="6.95"/><rect class="cls-9" x="55.1" y="163.7" width="7" height="6.95"/><rect class="cls-9" x="62" y="163.7" width="7" height="6.95"/><rect class="cls-9" x="69" y="163.7" width="7" height="6.96"/><rect class="cls-9" x="75.9" y="163.7" width="6.9" height="6.96"/><rect class="cls-9" x="82.9" y="163.7" width="7" height="6.96"/><rect class="cls-9" x="89.8" y="163.7" width="7" height="6.96"/><rect class="cls-9" x="96.8" y="163.7" width="6.9" height="6.96"/><rect class="cls-9" x="103.7" y="163.7" width="7" height="6.96"/><rect class="cls-9" x="110.7" y="163.7" width="7" height="6.95"/><rect class="cls-9" x="117.6" y="163.7" width="7" height="6.95"/><rect class="cls-9" x="124.6" y="163.7" width="7" height="6.96"/><rect class="cls-9" x="48.1" y="170.6" width="7" height="6.95"/><rect class="cls-9" x="55.1" y="170.6" width="7" height="6.95"/><rect class="cls-9" x="62" y="170.6" width="6.9" height="6.95"/><rect class="cls-9" x="69" y="170.6" width="41.7" height="6.95"/><rect class="cls-9" x="110.7" y="170.6" width="6.9" height="6.95"/><rect class="cls-9" x="117.6" y="170.6" width="7" height="6.95"/><rect class="cls-9" x="124.6" y="170.6" width="7" height="6.95"/><rect class="cls-9" x="131.5" y="170.6" width="6.9" height="6.95"/><path class="cls-8" d="M53.8,152.7H18.1a4.7,4.7,0,0,1-4-7.1l17.8-29.9a4.8,4.8,0,0,1,8.1,0l17.9,29.9A4.7,4.7,0,0,1,53.8,152.7Z"/><path class="cls-6" d="M37.1,138.2a1.3,1.3,0,0,1-1.3,1.3,1.4,1.4,0,0,1-1.4-1.3l-1.2-14.9a1.3,1.3,0,0,1,1.3-1.6h2.6a1.3,1.3,0,0,1,1.3,1.6Zm1.3,6.5v.4a2.6,2.6,0,0,1-5.2,0v-.4a2.6,2.6,0,0,1,5.2,0Z"/><polyline class="cls-13" points="342.1 51.8 342.1 72.4 287.7 72.4 287.7 18.1 342.1 18.1 342.1 23.9"/><circle class="cls-8" cx="303.6" cy="55" r="4.3"/><path class="cls-8" d="M318,42.7a14.5,14.5,0,1,0-3.4,22.8A14.3,14.3,0,0,0,321.9,55"/><path class="cls-8" d="M318,42.7l22.2-12.5,8.1,2.3,3.3,5.9-6,3.3h0a3,3,0,0,0-4.1-1.2l-.3.2a3,3,0,0,0-1.2,4.1h0l-3.2,1.8h0a3,3,0,0,0-4.1-1.2,3.1,3.1,0,0,0-1.4,1.8,3,3,0,0,0,.2,2.3h.1L321.9,55"/><line class="cls-8" x1="321.2" y1="46.8" x2="340.7" y2="36"/><polyline class="cls-13" points="268.6 51.8 268.6 72.4 214.3 72.4 214.3 18.1 268.6 18.1 268.6 23.9"/><polyline class="cls-5" points="224.7 43.8 242.8 62 278.7 26.1"/><polyline class="cls-13" points="195.1 51.8 195.1 72.4 140.8 72.4 140.8 18.1 195.1 18.1 195.1 23.9"/><polyline class="cls-5" points="151.2 43.8 169.4 62 205.2 26.1"/><polyline class="cls-13" points="121.6 51.8 121.6 72.4 67.3 72.4 67.3 18.1 121.6 18.1 121.6 23.9"/><polyline class="cls-5" points="77.7 43.8 95.9 62 131.7 26.1"/><path class="cls-9" d="M44.8,69.3V79.4a9.6,9.6,0,0,0,9.7,9.7H193.1l10.6,10.6,10.6-10.6H352.8a9.7,9.7,0,0,0,9.8-9.7V69.3"/><circle class="cls-9" cx="178.7" cy="357" r="24.9"/><path class="cls-8" d="M166.3,357a12.5,12.5,0,1,1,12.4,12.5,12.7,12.7,0,0,1-8.7-3.6"/><polyline class="cls-8" points="172 353.1 166.3 357 162.3 351.3"/><path class="cls-9" d="M286.5,155c-1.9,2.6-7.1,5.8-7.1,5.8"/><path class="cls-9" d="M307.5,170.6c-7-2.5-4.8-10.6-4.4-11.5a8.6,8.6,0,0,0-1.7-9.5l-1.2-.9c-3.9-2.8-9.5-1.1-11.7,3.2"/><path class="cls-9" d="M279.8,155c2.3-.9,4.1-3.5,5.2-5.5,3.1-5.4,9.6-8,15.3-5.7a12.4,12.4,0,0,1,4.2,2.8,12.7,12.7,0,0,1,3.1,12.9s-2.4,5.1,2.6,8"/><path class="cls-9" d="M311.6,149.9a17.1,17.1,0,0,1-1.1,13.8"/><path class="cls-9" d="M279.8,148.7a16.2,16.2,0,0,1,3.6-5.2,17.1,17.1,0,0,1,24.2,0,24.7,24.7,0,0,1,2.1,2.7"/><path class="cls-9" d="M281.2,139.6A21.3,21.3,0,0,1,309,139"/><path class="cls-9" d="M285.4,172.8c14.9-11.3,14.1-16,14.1-16.9a3.9,3.9,0,0,0-1.2-3.2,4,4,0,0,0-5.7,0,13.4,13.4,0,0,0-2.5,3.7c-1.1,2.7-5.1,6-10.5,9.7"/><path class="cls-9" d="M295.5,155.6c-.1.1-3.2,7.3-13.9,14.7"/><path class="cls-9" d="M299.2,164.4s-3.5,5.5,3.4,9.2"/><path class="cls-9" d="M289.6,174.4s2.6-4.2,5.1-3.2a4.7,4.7,0,0,1,2.5,3.9"/><polyline class="cls-8" points="268.5 142.5 268.5 127.1 283.9 127.1"/><polyline class="cls-8" points="308.1 127.1 323.5 127.1 323.5 142.5"/><polyline class="cls-8" points="323.5 166.8 323.5 182.1 308.1 182.1"/><polyline class="cls-8" points="283.9 182.1 268.5 182.1 268.5 166.8"/><rect class="cls-9" x="257.7" y="355.1" width="10.4" height="19.72"/><rect class="cls-9" x="273.4" y="343.2" width="10.4" height="31.59"/><rect class="cls-9" x="289.1" y="361.3" width="10.4" height="13.51"/><rect class="cls-5" x="304.8" y="346.7" width="10.4" height="28.12"/><line class="cls-8" x1="296.9" y1="348.5" x2="307.3" y2="339.1"/><line class="cls-8" x1="280.9" y1="335.6" x2="292" y2="348.5"/><line class="cls-8" x1="265.5" y1="342.9" x2="275.8" y2="335.1"/><circle class="cls-8" cx="278.6" cy="333" r="3.1"/><circle class="cls-8" cx="294.3" cy="351.1" r="3.1"/><circle class="cls-8" cx="310" cy="336.5" r="3.1"/><circle class="cls-8" cx="262.9" cy="344.9" r="3.1"/><line class="cls-9" x1="254.6" y1="379.6" x2="318.6" y2="379.6"/><line class="cls-14" x1="148.5" y1="360.7" x2="115.9" y2="360.7"/><line class="cls-14" x1="252.7" y1="360.7" x2="206.7" y2="360.7"/><path class="cls-14" d="M338.9,283.8v63.9a13.1,13.1,0,0,1-13.1,13h-7.3"/><line class="cls-14" x1="338.9" y1="95.3" x2="338.9" y2="216"/><line class="cls-14" x1="76.8" y1="279.2" x2="76.8" y2="313.5"/><line class="cls-14" x1="76.8" y1="192.4" x2="76.8" y2="221"/><line class="cls-14" x1="76.8" y1="95.3" x2="76.8" y2="130.3"/><path class="cls-9" d="M113.4,324v38.9a5.6,5.6,0,0,1-5.5,5.6H47.6a5.6,5.6,0,0,1-5.5-5.6V321.7a5.6,5.6,0,0,1,5.5-5.6h58.6"/><polyline class="cls-9" points="96.5 331.4 96.5 325.6 103.1 325.6 103.1 331.3"/><polyline class="cls-9" points="103.1 336.6 103.1 359 96.5 359 96.5 336.6"/><rect class="cls-8" x="94.1" y="331.4" width="11.4" height="5.05"/><polyline class="cls-9" points="67.1 331.4 67.1 325.6 73.7 325.6 73.7 331.3"/><polyline class="cls-9" points="73.7 336.6 73.7 359 67.1 359 67.1 336.6"/><rect class="cls-5" x="64.7" y="331.4" width="11.4" height="5.05"/><polyline class="cls-9" points="81.8 344.2 81.8 325.6 88.4 325.6 88.4 344.1"/><polyline class="cls-9" points="88.4 349.4 88.4 359 81.8 359 81.8 349.4"/><rect class="cls-8" x="79.4" y="344.2" width="11.4" height="5.05"/><polyline class="cls-9" points="52.4 348.1 52.4 325.6 58.9 325.6 58.9 348"/><polyline class="cls-9" points="58.9 353.3 58.9 359 52.4 359 52.4 353.3"/><rect class="cls-8" x="50" y="348.1" width="11.4" height="5.05"/><rect class="cls-8" x="107.3" y="304.8" width="26.4" height="18.65" rx="1.8"/><path class="cls-8" d="M132.8,305.2l-11.3,9.6a1.5,1.5,0,0,1-2,0l-11.3-9.6"/><line class="cls-15" x1="128.8" y1="320.6" x2="123.5" y2="317.3"/><line class="cls-8" x1="117.4" y1="317.3" x2="112.1" y2="320.6"/></g></svg>