<svg xmlns="http://www.w3.org/2000/svg" viewBox="0 0 400 400"><defs><style>.cls-1,.cls-10,.cls-4,.cls-5,.cls-6,.cls-7,.cls-8,.cls-9{fill:none;stroke-linecap:round;stroke-linejoin:round;}.cls-1,.cls-4,.cls-7{stroke:#3e4c70;}.cls-1,.cls-10,.cls-6,.cls-9{stroke-width:2px;}.cls-2{fill:#d62027;}.cls-3{fill:#3e4c70;}.cls-4,.cls-5,.cls-8{stroke-width:3.7px;}.cls-5,.cls-9{stroke:#d62027;}.cls-10,.cls-6,.cls-8{stroke:#158aff;}.cls-7{stroke-width:2.09px;}.cls-10{stroke-dasharray:5.68 3.79;}</style></defs><g id="blue"><polyline class="cls-1" points="139.2 65.5 156.8 83.2 183 83.2 183 91.6"/><polyline class="cls-1" points="286.9 88.9 286.9 122.5 275.7 133.7 264.9 133.7"/><polyline class="cls-1" points="335.2 135.7 309.9 135.7 285.8 159.8 264.5 159.8"/><polyline class="cls-1" points="73.6 165.1 106.1 197.3 196.2 197.3 196.2 188.9"/><path class="cls-2" d="M97.9,244.2l13,1.9,1.6,9.3a38.3,38.3,0,0,1,8.9,5.2l8.9-3.1,7.9,10.6-5.5,7.7a35.1,35.1,0,0,1,2.6,10l8.5,4.1-1.9,13-9.3,1.6a36.2,36.2,0,0,1-5.3,8.8l3.2,9-10.6,7.9-7.8-5.5a38,38,0,0,1-9.8,2.4l-4.2,8.7-13-1.8-1.6-9.6a38.2,38.2,0,0,1-8.7-5.1l-9.1,3.2-7.9-10.6,5.6-7.9a36.5,36.5,0,0,1-2.5-9.7l-8.7-4.2,1.8-13,9.5-1.6a35.2,35.2,0,0,1,5.2-8.7l-3.2-9.1,10.6-7.9,7.7,5.5a35.1,35.1,0,0,1,9.9-2.5l4.2-8.6m.2,71a25.3,25.3,0,0,0,20.2-40.4,25.4,25.4,0,0,0-20.2-10.1,24.9,24.9,0,0,0-15.2,5.1,25.2,25.2,0,0,0,15.2,45.4m-.2-73a1.9,1.9,0,0,0-1.8,1.1l-3.7,7.6a35.1,35.1,0,0,0-8.3,2.2l-6.9-4.9a1.5,1.5,0,0,0-1.1-.4,1.6,1.6,0,0,0-1.2.4l-10.6,7.9a2,2,0,0,0-.7,2.3l2.8,8a41.1,41.1,0,0,0-4.3,7.3l-8.4,1.4a2,2,0,0,0-1.6,1.7l-1.9,13a2,2,0,0,0,1.1,2.1l7.8,3.8a45.6,45.6,0,0,0,2,8.1l-5,7a2,2,0,0,0,.1,2.3l7.9,10.6a2.1,2.1,0,0,0,1.6.8h.6l8.2-2.9a37.1,37.1,0,0,0,7.2,4.3l1.4,8.5a1.9,1.9,0,0,0,1.7,1.6l13,1.9h.3a1.9,1.9,0,0,0,1.8-1.1l3.7-7.7a38,38,0,0,0,8.2-2.1l7,5a2,2,0,0,0,1.1.3,1.6,1.6,0,0,0,1.2-.4l10.6-7.9a2.1,2.1,0,0,0,.7-2.2l-2.8-8a42.5,42.5,0,0,0,4.4-7.4l8.3-1.4a1.9,1.9,0,0,0,1.6-1.7l1.9-13a2,2,0,0,0-1.1-2.1l-7.6-3.7A41.3,41.3,0,0,0,135,276l4.8-6.8a2,2,0,0,0,0-2.3l-7.9-10.6a2.1,2.1,0,0,0-1.6-.8h-.7l-7.8,2.8a40.8,40.8,0,0,0-7.5-4.4l-1.4-8.3a2,2,0,0,0-1.7-1.6l-13-1.9Zm.2,71a23.4,23.4,0,1,1,13.9-4.7,22.4,22.4,0,0,1-13.9,4.7Z"/><path class="cls-3" d="M171.9,298.3l8.3,2.1.3,6a27,27,0,0,1,5.4,4l5.9-1.3,4.3,7.3-4,4.6a23.7,23.7,0,0,1,.9,6.5l5.2,3.3-2.1,8.2-6.2.4a24.4,24.4,0,0,1-3.9,5.2l1.4,6-7.3,4.4-4.7-4.2a22.5,22.5,0,0,1-6.4.9l-3.3,5.3-8.2-2.1-.4-6.2a28.3,28.3,0,0,1-5.2-3.9l-6,1.4-4.4-7.3,4.2-4.6a23.8,23.8,0,0,1-1-6.5l-5.2-3.2,2.1-8.3,6.1-.3a23.4,23.4,0,0,1,3.9-5.3l-1.4-6,7.4-4.3,4.5,4a28.4,28.4,0,0,1,6.6-1l3.2-5.1m-3,44.1a14.8,14.8,0,0,0,3.6-29.2,15.5,15.5,0,0,0-3.7-.4,14.8,14.8,0,0,0-3.6,29.1,11.4,11.4,0,0,0,3.7.5m3-46.1a2,2,0,0,0-1.7.9l-2.6,4.3a21.5,21.5,0,0,0-5,.7l-3.7-3.3a1.8,1.8,0,0,0-1.3-.5,2,2,0,0,0-1.1.2l-7.3,4.4a2,2,0,0,0-.9,2.1l1.1,5a21.9,21.9,0,0,0-2.9,3.9l-5.1.3a2.2,2.2,0,0,0-1.8,1.5l-2.1,8.3a2.2,2.2,0,0,0,.9,2.2l4.3,2.7a39.7,39.7,0,0,0,.7,4.8l-3.4,3.8a2.3,2.3,0,0,0-.2,2.4l4.3,7.3a2.1,2.1,0,0,0,1.8.9h.4l5.1-1.2a18.2,18.2,0,0,0,3.8,2.9l.3,5.2a2.2,2.2,0,0,0,1.5,1.8l8.2,2.1h.5a1.9,1.9,0,0,0,1.7-.9l2.8-4.4a25.4,25.4,0,0,0,4.7-.7l3.9,3.5a2.1,2.1,0,0,0,1.3.5,1.7,1.7,0,0,0,1-.3l7.3-4.4a1.9,1.9,0,0,0,1-2.1l-1.2-5a21.9,21.9,0,0,0,2.9-3.9l5.1-.3a2,2,0,0,0,1.8-1.5l2.1-8.3a1.8,1.8,0,0,0-.8-2.1l-4.3-2.7a26.3,26.3,0,0,0-.7-4.9l3.3-3.8a1.8,1.8,0,0,0,.2-2.3l-4.3-7.3a1.9,1.9,0,0,0-1.7-1h-.5l-4.8,1.2a22,22,0,0,0-4-3l-.3-5a2.3,2.3,0,0,0-1.5-1.9l-8.3-2.1Zm-3,44.1a11.2,11.2,0,0,1-3.2-.4,12.7,12.7,0,0,1-7.9-5.9,13.1,13.1,0,0,1-1.4-9.7,12.8,12.8,0,0,1,12.4-9.6,11.2,11.2,0,0,1,3.2.4,12.9,12.9,0,0,1,7.9,5.8,13.2,13.2,0,0,1,1.4,9.7,12.9,12.9,0,0,1-12.4,9.7Z"/><polyline class="cls-4" points="365.9 174.7 380.3 160.3 380.3 111.1 301.4 32.2 125.8 32.2 76.6 81.4"/><polyline class="cls-4" points="41.1 138.6 41.1 179.8 83.7 222.4 150.6 222.4"/><polyline class="cls-5" points="201.6 250.3 240.8 289.6 240.8 316.4"/><polyline class="cls-5" points="275.7 343 275.7 299.1 297.6 277.1 335.1 277.1 355.4 256.9 355.4 234.4"/><circle class="cls-4" cx="358.6" cy="184.7" r="11.5"/><circle class="cls-5" cx="355.5" cy="221.9" r="11.5"/><circle class="cls-5" cx="276.1" cy="356.3" r="11.5"/><circle class="cls-5" cx="240.6" cy="329.2" r="11.5"/><circle class="cls-5" cx="194.3" cy="240.6" r="11.5"/><circle class="cls-4" cx="163" cy="222.6" r="11.5"/><circle class="cls-4" cx="42.2" cy="126" r="11.5"/><circle class="cls-4" cx="67.9" cy="90.9" r="11.5"/><circle class="cls-1" cx="118.1" cy="85.5" r="8.2"/><circle class="cls-6" cx="129.3" cy="173.7" r="8.2"/><circle class="cls-6" cx="94.6" cy="111.8" r="8.2"/><circle class="cls-1" cx="146.5" cy="145.6" r="8.2"/><circle class="cls-1" cx="68" cy="158.7" r="8.2"/><circle class="cls-1" cx="134.1" cy="58" r="8.2"/><circle class="cls-1" cx="176.1" cy="52.7" r="8.2"/><circle class="cls-1" cx="338.3" cy="97.5" r="8.2"/><circle class="cls-1" cx="344" cy="135.5" r="8.2"/><circle class="cls-6" cx="321" cy="211.3" r="8.2"/><circle class="cls-1" cx="321" cy="174.2" r="8.2"/><circle class="cls-1" cx="216.7" cy="209.1" r="8.2"/><circle class="cls-6" cx="234.3" cy="236.6" r="8.2"/><circle class="cls-1" cx="261.1" cy="273.4" r="8.2"/><circle class="cls-1" cx="320" cy="247.3" r="8.2"/><circle class="cls-1" cx="287" cy="80.7" r="8.2"/><circle class="cls-1" cx="209" cy="73.9" r="8.2"/><rect class="cls-7" x="244.8" y="91.8" width="6.5" height="6.47"/><rect class="cls-7" x="231.9" y="91.8" width="6.5" height="6.47"/><rect class="cls-7" x="218.9" y="91.8" width="6.5" height="6.47"/><rect class="cls-7" x="206" y="91.8" width="6.5" height="6.47"/><rect class="cls-7" x="193" y="91.8" width="6.5" height="6.47"/><rect class="cls-7" x="180.1" y="91.8" width="6.5" height="6.47"/><rect class="cls-7" x="244.8" y="182.4" width="6.5" height="6.47"/><rect class="cls-7" x="231.9" y="182.4" width="6.5" height="6.47"/><rect class="cls-7" x="218.9" y="182.4" width="6.5" height="6.47"/><rect class="cls-7" x="206" y="182.4" width="6.5" height="6.47"/><rect class="cls-7" x="193" y="182.4" width="6.5" height="6.47"/><rect class="cls-7" x="180.1" y="182.4" width="6.5" height="6.47"/><rect class="cls-7" x="257.8" y="169.4" width="6.5" height="6.47" transform="translate(433.7 -88.3) rotate(90)"/><rect class="cls-7" x="257.8" y="156.5" width="6.5" height="6.47" transform="translate(420.7 -101.3) rotate(90)"/><rect class="cls-7" x="257.8" y="143.5" width="6.5" height="6.47" transform="translate(407.8 -114.2) rotate(90)"/><rect class="cls-7" x="257.8" y="130.6" width="6.5" height="6.47" transform="translate(394.8 -127.2) rotate(90)"/><rect class="cls-7" x="257.8" y="117.6" width="6.5" height="6.47" transform="translate(381.9 -140.1) rotate(90)"/><rect class="cls-7" x="257.8" y="104.7" width="6.5" height="6.47" transform="translate(368.9 -153.1) rotate(90)"/><rect class="cls-7" x="167.1" y="169.4" width="6.5" height="6.47" transform="translate(343 2.3) rotate(90)"/><rect class="cls-7" x="167.1" y="156.5" width="6.5" height="6.47" transform="translate(330.1 -10.7) rotate(90)"/><rect class="cls-7" x="167.1" y="143.5" width="6.5" height="6.47" transform="translate(317.2 -23.6) rotate(90)"/><rect class="cls-7" x="167.1" y="130.6" width="6.5" height="6.47" transform="translate(304.2 -36.6) rotate(90)"/><rect class="cls-7" x="167.1" y="117.6" width="6.5" height="6.47" transform="translate(291.3 -49.5) rotate(90)"/><rect class="cls-7" x="167.1" y="104.7" width="6.5" height="6.47" transform="translate(278.3 -62.4) rotate(90)"/><rect class="cls-8" x="173.6" y="98.2" width="84.1" height="84.14"/><circle class="cls-6" cx="215.7" cy="140.3" r="33.9"/><polyline class="cls-9" points="186.7 140.7 194.7 140.7 200.5 125.6 208.8 152.3 215.3 135 221.4 148.5 230.1 128.4 235.6 145.4 238.7 139.9 244.6 139.9"/><polyline class="cls-1" points="191 122.8 191 156.4 239.7 156.4"/><line class="cls-1" x1="201.5" y1="153.8" x2="201.5" y2="158.1"/><line class="cls-1" x1="216" y1="153.8" x2="216" y2="158.1"/><line class="cls-1" x1="230.5" y1="153.8" x2="230.5" y2="158.1"/><line class="cls-1" x1="193.1" y1="132.5" x2="188.8" y2="132.5"/><line class="cls-1" x1="193.1" y1="147" x2="188.8" y2="147"/><polyline class="cls-6" points="243.7 236.4 265.3 236.4 290.6 211.1 312.2 211.1"/><polyline class="cls-1" points="331.5 90.8 293.4 52.7 185.5 52.7"/><polyline class="cls-1" points="125 91.8 146.3 113.1 146.3 136"/><polyline class="cls-1" points="267.4 267.4 288.6 246.2 311.5 246.2"/><polyline class="cls-6" points="123.2 167.9 93.8 138 93.8 120.4"/><polyline class="cls-1" points="248.2 91.8 248.2 74.4 217.2 74.4"/><polyline class="cls-1" points="226.1 209.4 262.5 209.4 297.9 174 312.8 174"/><polyline class="cls-10" points="260 358.8 216.8 358.8 216.8 335.6 202.5 335.6"/><polyline class="cls-10" points="48.6 90.9 19.7 90.9 19.7 282.7 47.2 282.7"/></g></svg>