<svg xmlns="http://www.w3.org/2000/svg" viewBox="0 0 400 400"><defs><style>.cls-1,.cls-2,.cls-3,.cls-5,.cls-6,.cls-8{fill:none;stroke-linejoin:round;}.cls-1,.cls-2,.cls-5{stroke:#3e4c70;}.cls-1,.cls-3,.cls-5,.cls-6,.cls-8{stroke-linecap:round;}.cls-1,.cls-2,.cls-3{stroke-width:3.7px;}.cls-3,.cls-6{stroke:#d62027;}.cls-4{fill:#d62027;}.cls-5,.cls-6,.cls-8{stroke-width:2px;}.cls-7{fill:#3e4c70;}.cls-8{stroke:#158aff;}</style></defs><g id="blue"><path class="cls-1" d="M107.1,347.7l-6.5,6.5a13.3,13.3,0,0,1-9.4,3.9H11.7"/><line class="cls-2" x1="139" y1="315.7" x2="116.5" y2="338.2"/><line class="cls-2" x1="170.3" y1="284.2" x2="147.5" y2="307.2"/><line class="cls-2" x1="200.7" y1="253.8" x2="178.8" y2="275.8"/><line class="cls-2" x1="231.4" y1="223" x2="209.2" y2="245.3"/><line class="cls-2" x1="261.8" y1="192.5" x2="239.9" y2="214.4"/><path class="cls-1" d="M382,155H304.7a13.5,13.5,0,0,0-9.5,4l-23.9,24"/><path class="cls-3" d="M83.2,338.9H20a8.3,8.3,0,0,1-7.1-12.6l31.6-52.8a8.2,8.2,0,0,1,14.2,0l31.6,52.8A8.3,8.3,0,0,1,83.2,338.9Z"/><path class="cls-4" d="M53.6,313.3a2.3,2.3,0,0,1-2.3,2.3,2.3,2.3,0,0,1-2.4-2.3l-2.2-26.5a2.3,2.3,0,0,1,2.3-2.7h4.6a2.3,2.3,0,0,1,2.3,2.7Zm2.3,11.5v.6a4.6,4.6,0,0,1-9.2,0v-.6a4.6,4.6,0,0,1,9.2,0Z"/><line class="cls-5" x1="169.2" y1="183" x2="161" y2="177.9"/><line class="cls-5" x1="125.3" y1="177.9" x2="117" y2="183"/><path class="cls-5" d="M169.2,183l-26.1,15.9L117,183v29.7a3.3,3.3,0,0,0,3.3,3.3h45.6a3.3,3.3,0,0,0,3.3-3.3Z"/><polyline class="cls-5" points="125.3 187.9 125.3 161 161 161 161 187.9"/><line class="cls-6" x1="131" y1="169.3" x2="155.2" y2="169.3"/><line class="cls-6" x1="131" y1="175.6" x2="155.2" y2="175.6"/><line class="cls-6" x1="131" y1="181.8" x2="155.2" y2="181.8"/><line class="cls-5" x1="161.5" y1="210.7" x2="149" y2="203.1"/><line class="cls-5" x1="137.2" y1="203.1" x2="124.8" y2="210.7"/><path class="cls-7" d="M292.2,39V89.2H240.5V39h51.7m0-2H240.5a2,2,0,0,0-2,2V89.2a2,2,0,0,0,2,2h51.7a2,2,0,0,0,2-2V39a2,2,0,0,0-2-2Z"/><line class="cls-5" x1="240.3" y1="48.6" x2="292.5" y2="48.6"/><line class="cls-5" x1="275.5" y1="44" x2="277.6" y2="44"/><line class="cls-5" x1="280.7" y1="44" x2="282.9" y2="44"/><line class="cls-6" x1="285.9" y1="44" x2="288.1" y2="44"/><line class="cls-5" x1="243.8" y1="44" x2="260.4" y2="44"/><path class="cls-5" d="M282.4,57.9h-32a1.2,1.2,0,0,0-1.2,1.2V77a1.2,1.2,0,0,0,1.2,1.2h3.7v7l7-7h21.3a1.2,1.2,0,0,0,1.2-1.2V59.1A1.2,1.2,0,0,0,282.4,57.9Z"/><line class="cls-6" x1="254.8" y1="65.6" x2="277.6" y2="65.6"/><line class="cls-6" x1="254.8" y1="70.9" x2="277.6" y2="70.9"/><path class="cls-5" d="M329.9,254.6H277a2.2,2.2,0,0,0-2.2,2.2v32.5a2.3,2.3,0,0,0,2.2,2.3h6.8v12.7l12.7-12.7h33.4a2.3,2.3,0,0,0,2.3-2.3V256.8A2.2,2.2,0,0,0,329.9,254.6Z"/><path class="cls-4" d="M282.9,277.8a1.1,1.1,0,0,1-.5-.9,1.2,1.2,0,0,1,1.2-1.2.8.8,0,0,1,.7.3,6.3,6.3,0,0,0,4,1.4c1.5,0,2.5-.7,2.5-1.8h0c0-1-.6-1.5-3.2-2.2s-4.7-1.6-4.7-4.2h0c0-2.4,2-4.1,4.8-4.1a8.2,8.2,0,0,1,4.5,1.3,1.2,1.2,0,0,1-.6,2.1h-.7a5.9,5.9,0,0,0-3.2-1.1c-1.5,0-2.3.7-2.3,1.7h0c0,1.1.6,1.6,3.3,2.2s4.5,1.8,4.5,4.2h0c0,2.6-2,4.2-5,4.2A8.7,8.7,0,0,1,282.9,277.8Z"/><path class="cls-4" d="M297,266.5a1.2,1.2,0,0,1,1.2-1.3h.3a1.2,1.2,0,0,1,1.1.7l4.3,6.7,4.3-6.7a1.2,1.2,0,0,1,1.1-.7h.3a1.3,1.3,0,0,1,1.3,1.3v11.8a1.2,1.2,0,0,1-1.3,1.2,1.2,1.2,0,0,1-1.2-1.2v-8.5l-3.5,5.2a1.1,1.1,0,0,1-1,.6,1,1,0,0,1-1-.6l-3.5-5.1v8.4a1.2,1.2,0,0,1-2.4,0Z"/><path class="cls-4" d="M314.9,277.8a1.3,1.3,0,0,1-.5-.9,1.3,1.3,0,0,1,1.2-1.2c.4,0,.6.1.7.3a6.5,6.5,0,0,0,4,1.4c1.5,0,2.5-.7,2.5-1.8h0c0-1-.6-1.5-3.2-2.2s-4.7-1.6-4.7-4.2h0c0-2.4,2-4.1,4.8-4.1a8.2,8.2,0,0,1,4.5,1.3,1.2,1.2,0,0,1,.6,1,1.2,1.2,0,0,1-1.2,1.1h-.7a5.6,5.6,0,0,0-3.2-1.1c-1.5,0-2.3.7-2.3,1.7h0c0,1.1.6,1.6,3.4,2.2s4.5,1.8,4.5,4.2h0c0,2.6-2.1,4.2-5.1,4.2A8.7,8.7,0,0,1,314.9,277.8Z"/><path class="cls-5" d="M227.9,133.6a5.5,5.5,0,0,0,5.6,5.5v13H176.1v-13a5.5,5.5,0,0,0,5.5-5.5,5.5,5.5,0,0,0-5.5-5.5v-13h57.4v13A5.6,5.6,0,0,0,227.9,133.6Z"/><line class="cls-5" x1="188.6" y1="116.6" x2="188.6" y2="150.9"/><line class="cls-6" x1="196.2" y1="138.6" x2="221.7" y2="138.6"/><line class="cls-6" x1="196.2" y1="145.4" x2="221.7" y2="145.4"/><polyline class="cls-6" points="214.4 122.6 218.9 127.1 214.4 131.6"/><polyline class="cls-6" points="200.6 122.6 196.2 127.1 200.6 131.6"/><line class="cls-6" x1="211.5" y1="120" x2="203.5" y2="134.2"/><rect class="cls-5" x="211.8" y="324" width="52.2" height="36.93" rx="3.5"/><path class="cls-5" d="M262.3,325.5l-22.4,19a3,3,0,0,1-4,0l-22.4-19"/><line class="cls-5" x1="256.6" y1="356.5" x2="243.9" y2="348.7"/><line class="cls-5" x1="231.9" y1="348.7" x2="219.2" y2="356.5"/><circle class="cls-5" cx="362.2" cy="218.6" r="26.1"/><path class="cls-6" d="M349.2,218.6a13.1,13.1,0,0,1,26.1,0,13,13,0,0,1-22.2,9.3"/><polyline class="cls-6" points="355.2 214.5 349.2 218.7 345.1 212.6"/><line class="cls-8" x1="266.4" y1="180.4" x2="266.4" y2="103"/><polyline class="cls-8" points="258.3 111.1 266.4 103 274.5 111.1"/><circle class="cls-8" cx="266.4" cy="187.8" r="6"/><line class="cls-8" x1="243" y1="218.6" x2="320.3" y2="218.6"/><polyline class="cls-8" points="312.2 210.5 320.3 218.6 312.2 226.7"/><circle class="cls-8" cx="235.6" cy="218.6" r="6"/><line class="cls-8" x1="181.3" y1="279.4" x2="258.7" y2="279.4"/><polyline class="cls-8" points="250.6 271.3 258.7 279.4 250.6 287.5"/><circle class="cls-8" cx="173.9" cy="279.4" r="6"/><line class="cls-8" x1="119.7" y1="342.5" x2="197.1" y2="342.5"/><polyline class="cls-8" points="189 334.4 197.1 342.5 189 350.6"/><circle class="cls-8" cx="112.3" cy="342.5" r="6"/><line class="cls-8" x1="204.8" y1="242" x2="204.8" y2="164.6"/><polyline class="cls-8" points="196.7 172.7 204.8 164.6 212.9 172.7"/><circle class="cls-8" cx="204.8" cy="249.4" r="6"/><line class="cls-8" x1="143.1" y1="303.9" x2="143.1" y2="226.6"/><polyline class="cls-8" points="135 234.7 143.1 226.6 151.2 234.7"/><circle class="cls-8" cx="143.1" cy="311.3" r="6"/><path class="cls-1" d="M325.2,101.2l-19.5,19.5v8.7a9.1,9.1,0,0,0,9.2,9.2h55.3a9.2,9.2,0,0,0,9.2-9.2v-8l-20.2-20.2"/><path class="cls-7" d="M342.5,59.7c10.3,0,18.5,7.7,18.5,23s-8.2,27.7-18.5,27.7S324.1,98,324.1,82.7s8.2-23,18.4-23m0-3.7a20.3,20.3,0,0,0-15.8,7.1c-4.1,4.7-6.3,11.5-6.3,19.6,0,17.6,9.7,31.4,22.1,31.4s22.2-13.8,22.2-31.4c0-8.1-2.2-14.9-6.3-19.7a20.9,20.9,0,0,0-15.9-7Z"/><line class="cls-3" x1="349.2" y1="128.9" x2="367.4" y2="128.9"/></g></svg>