<svg xmlns="http://www.w3.org/2000/svg" viewBox="0 0 400 400"><defs><style>.cls-1,.cls-11,.cls-12,.cls-13,.cls-14,.cls-15,.cls-3,.cls-4,.cls-5,.cls-7,.cls-8,.cls-9{fill:none;}.cls-1,.cls-14{stroke:#d62027;}.cls-1,.cls-11,.cls-12,.cls-13,.cls-14,.cls-15,.cls-4,.cls-7,.cls-8{stroke-linecap:round;}.cls-1,.cls-11,.cls-12,.cls-13,.cls-14,.cls-15,.cls-3,.cls-4,.cls-5,.cls-7,.cls-8{stroke-linejoin:round;}.cls-1,.cls-11,.cls-15,.cls-4,.cls-5,.cls-7,.cls-8{stroke-width:2px;}.cls-2{fill:#d62027;}.cls-12,.cls-15,.cls-3,.cls-4,.cls-8{stroke:#3e4c70;}.cls-3{stroke-width:3.7px;}.cls-11,.cls-13,.cls-5,.cls-7{stroke:#158aff;}.cls-6{fill:#3e4c70;}.cls-8{stroke-dasharray:8.18 5.45;}.cls-10{fill:#158aff;}.cls-11{stroke-dasharray:7.26 4.84;}.cls-12,.cls-13,.cls-14{stroke-width:2.13px;}.cls-15{stroke-dasharray:3.1 5.17;}</style></defs><g id="blue"><path class="cls-1" d="M336.5,72H297.7a5.1,5.1,0,0,1-4.4-7.7l19.4-32.4a5.1,5.1,0,0,1,8.8,0l19.3,32.4A5.1,5.1,0,0,1,336.5,72Z"/><path class="cls-2" d="M318.3,56.3a1.3,1.3,0,0,1-1.4,1.4,1.4,1.4,0,0,1-1.5-1.4l-1.3-16.2a1.4,1.4,0,0,1,1.4-1.7h2.8a1.4,1.4,0,0,1,1.4,1.7Zm1.4,7.1v.4a2.8,2.8,0,0,1-5.6,0v-.4a2.8,2.8,0,1,1,5.6,0Z"/><polyline class="cls-3" points="128.7 138.9 128.7 94.5 207.8 94.5"/><polyline class="cls-3" points="309.4 235.4 128.7 235.4 128.7 208.7"/><line class="cls-3" x1="348.9" y1="190.7" x2="348.9" y2="221.8"/><polyline class="cls-3" points="270 94.5 348.9 94.5 348.9 158.7"/><line class="cls-4" x1="260.8" y1="112" x2="347.2" y2="112"/><line class="cls-4" x1="130.7" y1="112" x2="217.7" y2="112"/><line class="cls-4" x1="311.4" y1="104.2" x2="315.3" y2="104.2"/><line class="cls-4" x1="320.7" y1="104.2" x2="324.5" y2="104.2"/><line class="cls-1" x1="329.9" y1="104.2" x2="333.8" y2="104.2"/><circle class="cls-4" cx="238.9" cy="89.3" r="31.1"/><line class="cls-1" x1="254" y1="72.5" x2="241.7" y2="86.2"/><line class="cls-1" x1="238.9" y1="64.6" x2="238.9" y2="69.1"/><line class="cls-1" x1="238.9" y1="109.5" x2="238.9" y2="113.9"/><line class="cls-1" x1="214.3" y1="89.3" x2="218.7" y2="89.3"/><line class="cls-1" x1="259.1" y1="89.3" x2="263.6" y2="89.3"/><path class="cls-1" d="M244.1,64.3a29.6,29.6,0,0,0-5.2-.5,25.5,25.5,0,1,0,25.5,25.5,28,28,0,0,0-.7-5.9"/><line class="cls-1" x1="236.2" y1="86.1" x2="229.9" y2="78.5"/><circle class="cls-1" cx="238.9" cy="89.3" r="4.2"/><path class="cls-5" d="M186.2,185.3l-3.5.4a15,15,0,0,0-2.9-2.7l.2-3.5-4.6-1.7-2.2,2.8a12.8,12.8,0,0,0-3.9.2l-2.4-2.7-4.5,2.1.5,3.5a12,12,0,0,0-2.6,2.9l-3.6-.2L155,191l2.8,2.2a15.9,15.9,0,0,0,.2,3.8l-2.7,2.5,2.1,4.4,3.6-.4a13.9,13.9,0,0,0,2.8,2.6l-.2,2.6m17.5.3-.4-3.6a13.9,13.9,0,0,0,2.6-2.8l3.6.2m-12.1-16.3a8.6,8.6,0,1,1-11.1,5.1A8.6,8.6,0,0,1,174.8,186.5Z"/><path class="cls-6" d="M185.8,140.4V208H101.4V140.4h84.4m0-2H101.4a2,2,0,0,0-2,2V208a2,2,0,0,0,2,2h84.4a2,2,0,0,0,2-2V140.4a2,2,0,0,0-2-2Z"/><line class="cls-4" x1="101.1" y1="152.2" x2="186.3" y2="152.2"/><line class="cls-4" x1="160.8" y1="146.5" x2="164" y2="146.5"/><line class="cls-4" x1="168.6" y1="146.5" x2="171.9" y2="146.5"/><line class="cls-1" x1="176.4" y1="146.5" x2="179.7" y2="146.5"/><line class="cls-4" x1="129.7" y1="165.2" x2="178.9" y2="165.2"/><polyline class="cls-7" points="121.3 170.1 121.3 173.6 110.3 173.6 110.3 162.6 120 162.6"/><polyline class="cls-1" points="113 167.3 116.2 170.5 122.4 164.3"/><line class="cls-4" x1="129.7" y1="171.6" x2="172" y2="171.6"/><line class="cls-4" x1="129.7" y1="187.6" x2="147.4" y2="187.6"/><polyline class="cls-7" points="121.3 192.5 121.3 196 110.3 196 110.3 185 120 185"/><polyline class="cls-1" points="113 189.7 116.2 192.9 122.4 186.7"/><line class="cls-4" x1="129.7" y1="194" x2="147.2" y2="194"/><rect class="cls-4" x="287.2" y="158.7" width="94.7" height="32.07" rx="3.2"/><path class="cls-2" d="M296.5,180.4c0-.4.1-1.4.1-1.9s-.7-2.7-2.5-2.7a1.3,1.3,0,0,1-1.3-1.3c0-.7.5-1.1,1.3-1.2s2.5-.9,2.5-2.8c0-.4-.1-1.5-.1-1.8,0-2.5,1.1-4.1,5-5a1.1,1.1,0,0,1,1.5,1,1,1,0,0,1-.8,1.1c-2.4.8-2.8,1.6-2.8,3.3V171a3.2,3.2,0,0,1-2.6,3.5,3.4,3.4,0,0,1,2.6,3.6V180c0,1.7.4,2.5,2.8,3.3a1,1,0,0,1,.8,1,1.1,1.1,0,0,1-1.5,1.1C297.6,184.5,296.5,182.9,296.5,180.4Z"/><path class="cls-2" d="M372,168.7c0,.3-.1,1.4-.1,1.8,0,1.9.7,2.7,2.5,2.8s1.2.5,1.2,1.2a1.2,1.2,0,0,1-1.2,1.3c-1.8,0-2.5.9-2.5,2.7s.1,1.5.1,1.9c0,2.5-1.1,4.1-5.1,5a1.1,1.1,0,0,1-1.4-1.1,1,1,0,0,1,.8-1c2.4-.8,2.8-1.6,2.8-3.3s-.1-1.4-.1-1.9a3.5,3.5,0,0,1,2.7-3.6A3.3,3.3,0,0,1,369,171c0-.5.1-1.4.1-1.9s-.4-2.5-2.8-3.3a1,1,0,0,1-.8-1.1,1,1,0,0,1,1.4-1C370.9,164.6,372,166.2,372,168.7Z"/><line class="cls-1" x1="328.2" y1="169.6" x2="338.2" y2="179.5"/><line class="cls-1" x1="338.2" y1="169.6" x2="328.2" y2="179.5"/><line class="cls-1" x1="333.2" y1="167.5" x2="333.2" y2="181.6"/><line class="cls-1" x1="340.3" y1="174.5" x2="326.2" y2="174.5"/><line class="cls-1" x1="352.2" y1="168.6" x2="345.5" y2="180.8"/><line class="cls-1" x1="361.3" y1="168.6" x2="354.5" y2="180.8"/><line class="cls-1" x1="312.8" y1="168.6" x2="306" y2="180.8"/><line class="cls-1" x1="321.8" y1="168.6" x2="315.1" y2="180.8"/><path class="cls-7" d="M326.5,199v14.8H264.3a5.6,5.6,0,0,1-5.6-5.6V180.7l-20.2-6,20.2-6V141.2a5.6,5.6,0,0,1,5.6-5.6h62.2v14.8"/><line class="cls-7" x1="316.2" y1="198.5" x2="335.9" y2="198.5"/><line class="cls-7" x1="316.2" y1="150.7" x2="335.9" y2="150.7"/><path class="cls-7" d="M151,133.2v-6.8h62.2c3.1,0,5.6,3,5.6,6.8v34l19.7,7.5-19.7,7.5v34c0,3.8-2.5,6.8-5.6,6.8H151v-5.6"/><line class="cls-7" x1="161.3" y1="133.8" x2="141.6" y2="133.8"/><line class="cls-7" x1="161.3" y1="216.4" x2="141.6" y2="216.4"/><line class="cls-8" x1="238.9" y1="125.3" x2="238.9" y2="230.2"/><path class="cls-4" d="M61.3,97.2v-10"/><path class="cls-4" d="M100.9,87.2v10"/><path class="cls-4" d="M100.9,97.2v10c0,4.8-8.9,8.8-19.8,8.8s-19.8-4-19.8-8.8v-10"/><path class="cls-4" d="M72,105c-6.4-1.5-10.7-4.4-10.7-7.8"/><path class="cls-4" d="M100.9,97.2c0,2.5-2.4,4.8-6.2,6.4"/><path class="cls-9" d="M78.2,88.6a1.7,1.7,0,1,1-1.7,1.7,1.8,1.8,0,0,1,1.7-1.7"/><path class="cls-9" d="M84,88.6A1.7,1.7,0,0,1,84,92a1.7,1.7,0,0,1,0-3.4"/><path class="cls-7" d="M68.5,93.9c-4.4-1.6-7.2-4-7.2-6.7v-10"/><path class="cls-7" d="M100.9,77.2v10c0,2.9-3.2,5.5-8.2,7.1"/><path class="cls-7" d="M81.1,68.4c10.9,0,19.8,3.9,19.8,8.8S92,85.9,81.1,85.9,61.3,82,61.3,77.2s8.9-8.8,19.8-8.8"/><polyline class="cls-1" points="65.1 97.3 69.9 99.3 73.1 94.6 77.1 105.7 80.8 97.2 83.8 104 88.1 94.6 91.3 102.9 93.1 98.5 97.3 96.8"/><path class="cls-6" d="M78.2,88.6a1.7,1.7,0,1,1-1.7,1.7,1.8,1.8,0,0,1,1.7-1.7"/><path class="cls-10" d="M84,88.6A1.7,1.7,0,0,1,84,92a1.7,1.7,0,0,1,0-3.4"/><path class="cls-6" d="M78.2,108.7a1.7,1.7,0,0,1,1.7,1.6,1.7,1.7,0,0,1-3.4,0,1.7,1.7,0,0,1,1.7-1.6"/><path class="cls-10" d="M84,108.7a1.7,1.7,0,0,1,1.7,1.6A1.8,1.8,0,0,1,84,112a1.7,1.7,0,0,1-1.6-1.7,1.6,1.6,0,0,1,1.6-1.6"/><polyline class="cls-4" points="26.6 65 48.2 65 57.9 55.3 94.6 55.3 94.6 63.7 78.3 63.7"/><polyline class="cls-4" points="26.6 119.4 48.2 119.4 57.9 129.2 94.6 129.2 94.6 120.8 78.3 120.8"/><line class="cls-4" x1="42.6" y1="59.7" x2="30.8" y2="59.7"/><line class="cls-4" x1="36.7" y1="123.8" x2="36.7" y2="135.7"/><line class="cls-4" x1="32.4" y1="68.8" x2="41" y2="74"/><line class="cls-4" x1="32.4" y1="75.6" x2="41" y2="80.8"/><line class="cls-4" x1="32.4" y1="82.5" x2="41" y2="87.7"/><line class="cls-4" x1="32.4" y1="89.3" x2="41" y2="94.5"/><line class="cls-4" x1="32.4" y1="96.2" x2="41" y2="101.3"/><line class="cls-4" x1="32.4" y1="103" x2="41" y2="108.2"/><line class="cls-4" x1="32.4" y1="109.9" x2="41" y2="115"/><circle class="cls-4" cx="50.8" cy="138.3" r="4.5"/><circle class="cls-4" cx="22.6" cy="138.3" r="4.5"/><rect class="cls-4" x="34.1" y="135.7" width="5.2" height="5.18" transform="translate(73.4 276.5) rotate(-180)"/><line class="cls-4" x1="39.6" y1="138.2" x2="46.2" y2="138.2"/><line class="cls-4" x1="27.5" y1="138.2" x2="33.2" y2="138.2"/><path class="cls-4" d="M100.1,306.6v10.5c0,5-9.4,9.2-20.8,9.2s-20.9-4.2-20.9-9.2V306.6"/><path class="cls-4" d="M100.1,317.1v10.5c0,5.1-9.4,9.3-20.8,9.3s-20.9-4.2-20.9-9.3V317.1"/><path class="cls-4" d="M100.1,317.1c0,5.1-9.3,9.2-20.8,9.2s-20.9-4.1-20.9-9.2"/><path class="cls-6" d="M76.2,329.2a1.8,1.8,0,0,1,1.8,1.7,1.8,1.8,0,0,1-3.6,0,1.8,1.8,0,0,1,1.8-1.7"/><path class="cls-10" d="M82.3,329.2a1.8,1.8,0,0,1,1.8,1.7,1.8,1.8,0,0,1-1.8,1.8,1.8,1.8,0,0,1-1.7-1.8,1.8,1.8,0,0,1,1.7-1.7"/><path class="cls-4" d="M66.5,302.8c-4.9-1.7-8.1-4.3-8.1-7.2V285"/><path class="cls-4" d="M100.1,285v10.6c0,3.1-3.7,5.9-9.2,7.6"/><path class="cls-4" d="M68.9,314.1c-6.2-1.6-10.5-4.6-10.5-8V295.6"/><path class="cls-4" d="M100.1,295.6v10.5c0,2.5-2.2,4.7-5.9,6.4"/><path class="cls-9" d="M76.2,286.6a1.8,1.8,0,0,1,1.8,1.7,1.8,1.8,0,1,1-3.6,0,1.8,1.8,0,0,1,1.8-1.7"/><path class="cls-9" d="M82.3,286.6a1.8,1.8,0,0,1,1.8,1.7,1.8,1.8,0,0,1-1.8,1.8,1.8,1.8,0,0,1-1.7-1.8,1.8,1.8,0,0,1,1.7-1.7"/><path class="cls-7" d="M100.1,274.5V285c0,5.1-9.4,9.3-20.8,9.3s-20.9-4.2-20.9-9.3V274.5"/><path class="cls-7" d="M79.3,265.3c11.5,0,20.8,4.1,20.8,9.2s-9.3,9.2-20.8,9.2-20.9-4.1-20.9-9.2,9.4-9.2,20.9-9.2"/><polyline class="cls-1" points="62.4 307 67.5 309.1 70.9 304.1 75.1 315.8 78.9 306.9 82.1 314.1 86.7 304.1 90 312.9 91.9 308.2 96.3 306.4"/><path class="cls-6" d="M76.2,286.6a1.8,1.8,0,0,1,1.8,1.7,1.8,1.8,0,1,1-3.6,0,1.8,1.8,0,0,1,1.8-1.7"/><path class="cls-10" d="M82.3,286.6a1.8,1.8,0,0,1,1.8,1.7,1.8,1.8,0,0,1-1.8,1.8,1.8,1.8,0,0,1-1.7-1.8,1.8,1.8,0,0,1,1.7-1.7"/><path class="cls-6" d="M76.2,298.4a1.8,1.8,0,0,1,1.8,1.8,1.8,1.8,0,0,1-3.6,0,1.8,1.8,0,0,1,1.8-1.8"/><path class="cls-10" d="M82.3,298.4a1.8,1.8,0,0,1,1.8,1.8,1.8,1.8,0,0,1-1.8,1.7,1.8,1.8,0,0,1-1.7-1.7,1.8,1.8,0,0,1,1.7-1.8"/><path class="cls-6" d="M76.2,319a1.8,1.8,0,0,1,1.8,1.8,1.8,1.8,0,0,1-3.6,0,1.8,1.8,0,0,1,1.8-1.8"/><path class="cls-10" d="M82.3,319a1.8,1.8,0,0,1,1.8,1.8,1.7,1.7,0,0,1-1.8,1.7,1.7,1.7,0,0,1-1.7-1.7,1.8,1.8,0,0,1,1.7-1.8"/><path class="cls-4" d="M215,317.1v10.5c0,5.1-9.5,9.3-20.9,9.3s-20.8-4.2-20.8-9.3V317.1"/><path class="cls-7" d="M175.8,321.5a5.8,5.8,0,0,1-2.5-4.4V306.6"/><path class="cls-7" d="M215,306.6v10.5a5,5,0,0,1-2,3.8"/><path class="cls-7" d="M194.1,297.3c11.5,0,20.9,4.2,20.9,9.3s-9.4,9.2-20.9,9.2-20.8-4.1-20.8-9.2,9.3-9.3,20.8-9.3"/><polyline class="cls-1" points="179 323.2 182.3 325 185.7 320.1 189.9 331.7 193.8 322.9 197 330 201.5 320.1 204.8 328.8 206.7 324.2 209.7 322.8"/><polyline class="cls-4" points="37.5 162.5 37.5 355.3 247.2 355.3"/><polyline class="cls-4" points="45 170 37.5 162.5 30 170"/><polyline class="cls-4" points="239.9 362.9 247.4 355.3 239.9 347.8"/><polyline class="cls-7" points="229.3 289.6 237.6 283 230.9 274.7"/><path class="cls-11" d="M60.1,208.2s59.1,70.3,175.2,74.5"/><path class="cls-12" d="M115.7,316.9V306.2"/><path class="cls-12" d="M157.9,306.2v10.7"/><path class="cls-12" d="M157.9,316.9v10.6c0,5.1-9.6,9.4-21.1,9.4s-21.1-4.3-21.1-9.4V316.9"/><path class="cls-12" d="M127.1,325.2c-6.7-1.6-11.4-4.7-11.4-8.3"/><path class="cls-12" d="M157.9,316.9c0,2.6-2.5,5-6.6,6.7"/><path class="cls-9" d="M133.7,307.8a1.8,1.8,0,0,1,1.8,1.7,1.8,1.8,0,0,1-3.6,0,1.8,1.8,0,0,1,1.8-1.7"/><path class="cls-9" d="M139.9,307.8a1.8,1.8,0,0,1,1.8,1.7,1.8,1.8,0,0,1-3.6,0,1.8,1.8,0,0,1,1.8-1.7"/><path class="cls-13" d="M123.4,313.4c-4.7-1.7-7.7-4.3-7.7-7.2V295.6"/><path class="cls-13" d="M157.9,295.6v10.6c0,3.1-3.5,5.8-8.8,7.6"/><path class="cls-13" d="M136.8,286.2c11.7,0,21.1,4.2,21.1,9.4s-9.4,9.3-21.1,9.3-21.1-4.2-21.1-9.3,9.5-9.4,21.1-9.4"/><polyline class="cls-14" points="119.8 317 124.9 319.1 128.3 314.1 132.5 325.9 136.5 316.9 139.7 324.1 144.3 314.1 147.6 322.9 149.5 318.3 154.1 316.4"/><path class="cls-6" d="M133.7,307.8a1.8,1.8,0,0,1,1.8,1.7,1.8,1.8,0,0,1-3.6,0,1.8,1.8,0,0,1,1.8-1.7"/><path class="cls-10" d="M139.9,307.8a1.8,1.8,0,0,1,1.8,1.7,1.8,1.8,0,0,1-3.6,0,1.8,1.8,0,0,1,1.8-1.7"/><path class="cls-6" d="M133.7,329.1a1.8,1.8,0,0,1,1.8,1.8,1.8,1.8,0,0,1-3.6,0,1.8,1.8,0,0,1,1.8-1.8"/><path class="cls-10" d="M139.9,329.1a1.8,1.8,0,0,1,1.8,1.8,1.8,1.8,0,0,1-3.6,0,1.8,1.8,0,0,1,1.8-1.8"/><rect class="cls-4" x="309.8" y="221.8" width="72.1" height="52.41"/><polyline class="cls-1" points="346.9 232.6 353.6 239.2 346.9 245.9"/><polyline class="cls-1" points="326.4 232.6 319.7 239.2 326.4 245.9"/><line class="cls-1" x1="342.6" y1="228.6" x2="330.7" y2="249.9"/><line class="cls-7" x1="329.3" y1="256" x2="318.7" y2="256"/><line class="cls-4" x1="351.1" y1="256" x2="335.9" y2="256"/><line class="cls-4" x1="372.9" y1="256" x2="357.8" y2="256"/><line class="cls-4" x1="337.1" y1="265.9" x2="318.7" y2="265.9"/><line class="cls-7" x1="366.8" y1="265.9" x2="343.8" y2="265.9"/><path class="cls-6" d="M363.9,293.5a2.9,2.9,0,0,1,2.8,2.8v71.5a2.9,2.9,0,0,1-2.8,2.8H274.8a2.8,2.8,0,0,1-2.8-2.8V296.3a2.8,2.8,0,0,1,2.8-2.8h89.1m0-2H274.8a4.8,4.8,0,0,0-4.8,4.8v71.5a4.8,4.8,0,0,0,4.8,4.8h89.1a4.9,4.9,0,0,0,4.8-4.8V296.3a4.9,4.9,0,0,0-4.8-4.8Z"/><line class="cls-15" x1="280.3" y1="352.9" x2="360.7" y2="352.9"/><line class="cls-7" x1="349.5" y1="325.3" x2="359.9" y2="317.3"/><line class="cls-7" x1="339.5" y1="316.5" x2="346.6" y2="325.3"/><line class="cls-7" x1="327.8" y1="338.7" x2="336.9" y2="316.6"/><line class="cls-7" x1="317.4" y1="330.9" x2="325.8" y2="339.4"/><line class="cls-7" x1="309.2" y1="312.3" x2="314.8" y2="327.2"/><line class="cls-7" x1="300.6" y1="323.9" x2="307.1" y2="311.9"/><line class="cls-7" x1="291.6" y1="335.4" x2="298.1" y2="327.4"/><line class="cls-7" x1="278.5" y1="344.8" x2="288.5" y2="338.2"/><circle class="cls-4" cx="290.6" cy="337.4" r="2.3"/><circle class="cls-4" cx="299.9" cy="326" r="2.3"/><circle class="cls-4" cx="308.5" cy="310.2" r="2.3"/><circle class="cls-1" cx="315.8" cy="329.3" r="2.3"/><circle class="cls-4" cx="327.4" cy="341" r="2.3"/><circle class="cls-1" cx="338.1" cy="314.7" r="2.3"/><circle class="cls-1" cx="348" cy="327" r="2.3"/><line class="cls-11" x1="371.4" y1="196.2" x2="371.4" y2="218.8"/><path class="cls-11" d="M295.6,44.1H177.3a7.8,7.8,0,0,0-7.8,7.9V67.8a7.9,7.9,0,0,1-7.9,7.8H105.4"/><path class="cls-11" d="M371.4,153.8V52.9a8.8,8.8,0,0,0-8.8-8.8H333"/></g></svg>