<?xml version="1.0" encoding="UTF-8" standalone="no"?>
<svg
   viewBox="0 0 400 400"
   version="1.1"
   id="svg171"
   sodipodi:docname="features_Messaging_channels_zabbix.svg"
   inkscape:version="1.2.1 (9c6d41e410, 2022-07-14)"
   xmlns:inkscape="http://www.inkscape.org/namespaces/inkscape"
   xmlns:sodipodi="http://sodipodi.sourceforge.net/DTD/sodipodi-0.dtd"
   xmlns:xlink="http://www.w3.org/1999/xlink"
   xmlns="http://www.w3.org/2000/svg"
   xmlns:svg="http://www.w3.org/2000/svg"
   xmlns:rdf="http://www.w3.org/1999/02/22-rdf-syntax-ns#"
   xmlns:cc="http://creativecommons.org/ns#"
   xmlns:dc="http://purl.org/dc/elements/1.1/">
  <metadata
     id="metadata175">
    <rdf:RDF>
      <cc:Work
         rdf:about="">
        <dc:format>image/svg+xml</dc:format>
        <dc:type
           rdf:resource="http://purl.org/dc/dcmitype/StillImage" />
      </cc:Work>
    </rdf:RDF>
  </metadata>
  <sodipodi:namedview
     pagecolor="#ffffff"
     bordercolor="#666666"
     borderopacity="1"
     objecttolerance="10"
     gridtolerance="10"
     guidetolerance="10"
     inkscape:pageopacity="0"
     inkscape:pageshadow="2"
     inkscape:window-width="1396"
     inkscape:window-height="865"
     id="namedview173"
     showgrid="false"
     inkscape:zoom="2.36"
     inkscape:cx="209.74576"
     inkscape:cy="210.59322"
     inkscape:window-x="0"
     inkscape:window-y="0"
     inkscape:window-maximized="0"
     inkscape:current-layer="svg171"
     inkscape:showpageshadow="2"
     inkscape:pagecheckerboard="0"
     inkscape:deskcolor="#d1d1d1" />
  <defs
     id="defs4">
    <style
       id="style2">.cls-1,.cls-10,.cls-11,.cls-12,.cls-13,.cls-14,.cls-2,.cls-7,.cls-9{fill:none;}.cls-1{stroke:#d62027;}.cls-1,.cls-10,.cls-11,.cls-12,.cls-13,.cls-14,.cls-2,.cls-5,.cls-7,.cls-9{stroke-linecap:round;stroke-linejoin:round;stroke-width:2px;}.cls-2,.cls-5{stroke:#3e4c70;}.cls-3{fill:#3e4c70;}.cls-4{fill:#d62128;}.cls-5{fill:#fff;}.cls-6{fill:#d62027;}.cls-10,.cls-11,.cls-12,.cls-13,.cls-14,.cls-7,.cls-9{stroke:#158aff;}.cls-8{fill:#ce2027;}.cls-9{stroke-dasharray:6.75 4.5;}.cls-10{stroke-dasharray:6.46 4.31;}.cls-11{stroke-dasharray:6.16 4.11;}.cls-12{stroke-dasharray:6.86 4.57;}.cls-13{stroke-dasharray:6.35 4.23;}.cls-14{stroke-dasharray:6.4 4.27;}</style>
    <clipPath
       id="SVGID_2_">
			<use
   xlink:href="#SVGID_1_"
   style="overflow:visible"
   id="use5534" />

		</clipPath>
    <clipPath
       id="clipPath84396">
			<use
   xlink:href="#SVGID_1_"
   style="overflow:visible"
   id="use84394" />

		</clipPath>
    <clipPath
       id="clipPath84400">
			<use
   xlink:href="#SVGID_1_"
   style="overflow:visible"
   id="use84398" />

		</clipPath>
    <clipPath
       id="clipPath84404">
			<use
   xlink:href="#SVGID_1_"
   style="overflow:visible"
   id="use84402" />

		</clipPath>
    <clipPath
       id="clipPath84408">
			<use
   xlink:href="#SVGID_1_"
   style="overflow:visible"
   id="use84406" />

		</clipPath>
    <clipPath
       id="clipPath84412">
			<use
   xlink:href="#SVGID_1_"
   style="overflow:visible"
   id="use84410" />

		</clipPath>
    <clipPath
       id="clipPath84416">
			<use
   xlink:href="#SVGID_1_"
   style="overflow:visible"
   id="use84414" />

		</clipPath>
    <rect
       id="SVGID_1_"
       y="0"
       width="168"
       height="44"
       x="0" />
  </defs>
  <path
     style="fill:none;stroke:#3e4c70;stroke-width:2px;stroke-linecap:round;stroke-linejoin:round;stroke-opacity:1"
     inkscape:connector-curvature="0"
     id="path6"
     d="m 42.1,116.7 8.5,-14.6 A 12.5,12.5 0 0 1 45.4,87.3 12.4,12.4 0 0 1 61.3,80 12.2,12.2 0 0 1 68.6,95.8"
     class="cls-1" />
  <path
     style="fill:none;stroke:#3e4c70;stroke-width:2px;stroke-linecap:round;stroke-linejoin:round;stroke-opacity:1"
     inkscape:connector-curvature="0"
     id="path8"
     d="M 68.4,120.5 H 52.2 a 12.4,12.4 0 0 1 -24.7,0 12.5,12.5 0 0 1 12.4,-12.4"
     class="cls-1" />
  <path
     style="fill:none;stroke:#3e4c70;stroke-width:2px;stroke-linecap:round;stroke-linejoin:round;stroke-opacity:1"
     inkscape:connector-curvature="0"
     id="path10"
     d="m 59.4,95.5 7.5,14.1 a 12.3,12.3 0 0 1 13.9,20.2 12.3,12.3 0 0 1 -17.4,-1.3"
     class="cls-1" />
  <circle
     style="fill:none;stroke:#d62027;stroke-width:2px;stroke-linecap:round;stroke-linejoin:round"
     id="circle12"
     r="4.4000001"
     cy="91.599998"
     cx="57"
     class="cls-1" />
  <circle
     style="fill:none;stroke:#d62027;stroke-width:2px;stroke-linecap:round;stroke-linejoin:round;fill-opacity:1"
     id="circle14"
     r="4.4000001"
     cy="120.5"
     cx="72.800003"
     class="cls-1" />
  <circle
     style="fill:none;stroke:#d62027;stroke-width:2px;stroke-linecap:round;stroke-linejoin:round"
     id="circle16"
     r="4.4000001"
     cy="120.5"
     cx="39.900002"
     class="cls-1" />
  <path
     style="fill:none;stroke:#3e4c70;stroke-width:2px;stroke-linecap:round;stroke-linejoin:round"
     inkscape:connector-curvature="0"
     id="path18"
     d="m 226.7,8.5 h -53 a 2.2,2.2 0 0 0 -2.3,2.2 v 32.6 a 2.3,2.3 0 0 0 2.3,2.3 h 6.7 v 12.7 l 12.8,-12.7 h 33.5 A 2.4,2.4 0 0 0 229,43.3 V 10.7 a 2.3,2.3 0 0 0 -2.3,-2.2 z"
     class="cls-2" />
  <line
     style="fill:none;stroke:#d62027;stroke-width:2px;stroke-linecap:round;stroke-linejoin:round"
     id="line20"
     y2="35.700001"
     x2="199"
     y1="35.700001"
     x1="181.7"
     class="cls-1" />
  <line
     style="fill:none;stroke:#d62027;stroke-width:2px;stroke-linecap:round;stroke-linejoin:round"
     id="line22"
     y2="27"
     x2="218"
     y1="27"
     x1="181.7"
     class="cls-1" />
  <line
     style="fill:none;stroke:#d62027;stroke-width:2px;stroke-linecap:round;stroke-linejoin:round"
     id="line24"
     y2="18.200001"
     x2="218"
     y1="18.200001"
     x1="181.7"
     class="cls-1" />
  <path
     style="fill:#3e4c70"
     inkscape:connector-curvature="0"
     id="path26"
     d="m 200.2,128.2 a 65.1,65.1 0 1 1 -65.1,65.1 65.2,65.2 0 0 1 65.1,-65.1 m 0,-3.7 a 68.8,68.8 0 1 0 68.8,68.8 68.9,68.9 0 0 0 -68.8,-68.8 z"
     class="cls-3" />
  <line
     style="fill:none;stroke:#3e4c70;stroke-width:2px;stroke-linecap:round;stroke-linejoin:round"
     id="line28"
     y2="176.60001"
     x2="185.89999"
     y1="192.8"
     x1="169.7"
     class="cls-2" />
  <line
     style="fill:none;stroke:#3e4c70;stroke-width:2px;stroke-linecap:round;stroke-linejoin:round"
     id="line30"
     y2="188.10001"
     x2="226.5"
     y1="176.2"
     x1="214.60001"
     class="cls-2" />
  <path
     style="fill:none;stroke:#3e4c70;stroke-width:2px;stroke-linecap:round;stroke-linejoin:round"
     inkscape:connector-curvature="0"
     id="path32"
     d="m 217.5,159.2 v 1.2 c 0,14.3 -7.7,25.9 -17.3,25.9 -9.6,0 -17.3,-11.5 -17.3,-25.9 v -1.9"
     class="cls-2" />
  <path
     style="fill:none;stroke:#3e4c70;stroke-width:2px;stroke-linecap:round;stroke-linejoin:round"
     inkscape:connector-curvature="0"
     id="path34"
     d="m 187,155.6 v 0"
     class="cls-2" />
  <path
     style="fill:none;stroke:#3e4c70;stroke-width:2px;stroke-linecap:round;stroke-linejoin:round"
     inkscape:connector-curvature="0"
     id="path36"
     d="m 218.6,158.5 v 0.5 c 0,0 -21.8,4.6 -30.5,-6.9 a 8.1,8.1 0 0 1 -1.7,4.3 16.4,16.4 0 0 1 -4.6,2.6 v -0.5 c 1.1,-13.3 8.8,-19.9 18.4,-19.9 9.6,0 17.3,6.7 18.4,19.9 z"
     class="cls-2" />
  <path
     style="fill:none;stroke:#3e4c70;stroke-width:2px;stroke-linecap:round;stroke-linejoin:round"
     inkscape:connector-curvature="0"
     id="path38"
     d="m 237.8,206 v 32.2 a 0.8,0.8 0 0 1 -0.9,0.8 h -73.8 c -0.3,0 -0.6,-0.2 -0.6,-0.4 v -41.2 c 0,-2.3 2.3,-4.3 5.1,-4.3 h 57.8"
     class="cls-2" />
  <line
     style="fill:#ffffff;stroke:#3e4c70;stroke-width:2px;stroke-linecap:round;stroke-linejoin:round"
     id="line42"
     y2="216.7"
     x2="138.10001"
     y1="216.7"
     x1="161.60001"
     class="cls-5" />
  <line
     style="fill:#ffffff;stroke:#3e4c70;stroke-width:2px;stroke-linecap:round;stroke-linejoin:round"
     id="line44"
     y2="216.7"
     x2="238.60001"
     y1="216.7"
     x1="261.29999"
     class="cls-5" />
  <path
     style="fill:#d62027"
     inkscape:connector-curvature="0"
     id="path46"
     d="m 233.1,183 h 0.2 a 2.2,2.2 0 0 1 1.9,2.2 v 0.5 a 6.8,6.8 0 0 1 4.6,6.4 v 4.4 a 4.3,4.3 0 0 0 4.3,4.3 v 4.2 h -8.9 v 0.2 a 2.1,2.1 0 0 1 -2.1,2.1 h -0.2 A 2.1,2.1 0 0 1 231,205.2 V 205 h -8.9 v -4.2 a 4.4,4.4 0 0 0 4.3,-4.3 v -4.4 a 6.7,6.7 0 0 1 4.6,-6.4 v -0.6 a 2.1,2.1 0 0 1 2.1,-2.1 m 0,-2 a 4,4 0 0 0 -4,3.3 8.7,8.7 0 0 0 -4.7,7.8 v 4.4 a 2.4,2.4 0 0 1 -2.3,2.3 2,2 0 0 0 -2,2 v 4.2 a 2,2 0 0 0 2,2 h 7.4 a 3.9,3.9 0 0 0 3.2,2.3 h 0.4 a 3.9,3.9 0 0 0 3.6,-2.3 h 7.4 a 2,2 0 0 0 2,-2 v -4.2 a 2,2 0 0 0 -2,-2 2.3,2.3 0 0 1 -2.3,-2.3 v -4.4 a 8.9,8.9 0 0 0 -4.7,-7.8 4.3,4.3 0 0 0 -3.6,-3.3 z"
     class="cls-6" />
  <path
     style="fill:none;stroke:#158aff;stroke-width:2px;stroke-linecap:round;stroke-linejoin:round"
     inkscape:connector-curvature="0"
     id="path48"
     d="m 241.3,179.8 a 6.2,6.2 0 0 1 5.1,7.2"
     class="cls-7" />
  <path
     style="fill:none;stroke:#158aff;stroke-width:2px;stroke-linecap:round;stroke-linejoin:round"
     inkscape:connector-curvature="0"
     id="path50"
     d="M 242.4,173.4 A 12.7,12.7 0 0 1 252.7,188"
     class="cls-7" />
  <path
     style="fill:none;stroke:#3e4c70;stroke-width:2px;stroke-linecap:round;stroke-linejoin:round"
     inkscape:connector-curvature="0"
     id="path52"
     d="m 226.7,341.7 h -53 a 2.3,2.3 0 0 0 -2.3,2.3 v 32.5 a 2.3,2.3 0 0 0 2.3,2.3 h 6.7 v 12.7 l 12.8,-12.7 h 33.5 a 2.3,2.3 0 0 0 2.3,-2.3 V 344 a 2.3,2.3 0 0 0 -2.3,-2.3 z"
     class="cls-2" />
  <path
     style="fill:#ce2027"
     inkscape:connector-curvature="0"
     id="path54"
     d="m 179.5,365 a 1.1,1.1 0 0 1 -0.5,-0.9 1.2,1.2 0 0 1 1.2,-1.2 c 0.4,0 0.6,0.1 0.7,0.3 a 6.5,6.5 0 0 0 4,1.4 c 1.5,0 2.5,-0.7 2.5,-1.8 v 0 c 0,-1 -0.5,-1.6 -3.2,-2.2 -2.7,-0.6 -4.7,-1.6 -4.7,-4.2 v 0 c 0,-2.5 2,-4.1 4.8,-4.1 a 7.3,7.3 0 0 1 4.5,1.3 1.1,1.1 0 0 1 0.6,1 1.1,1.1 0 0 1 -1.2,1.1 l -0.6,-0.2 a 6,6 0 0 0 -3.3,-1 c -1.5,0 -2.3,0.7 -2.3,1.6 v 0 c 0,1.1 0.6,1.6 3.4,2.2 2.8,0.6 4.5,1.8 4.5,4.1 v 0 c 0,2.6 -2.1,4.2 -5.1,4.2 a 8.7,8.7 0 0 1 -5.3,-1.6 z"
     class="cls-8" />
  <path
     style="fill:#ce2027"
     inkscape:connector-curvature="0"
     id="path56"
     d="m 193.6,353.6 a 1.2,1.2 0 0 1 1.3,-1.2 h 0.3 a 1.4,1.4 0 0 1 1.1,0.6 l 4.3,6.8 4.3,-6.8 a 1.3,1.3 0 0 1 1.2,-0.6 h 0.2 a 1.2,1.2 0 0 1 1.3,1.2 v 11.9 a 1.2,1.2 0 0 1 -1.3,1.2 1.2,1.2 0 0 1 -1.2,-1.2 V 357 l -3.5,5.2 a 1.1,1.1 0 0 1 -1,0.6 1.3,1.3 0 0 1 -1.1,-0.6 l -3.4,-5.2 v 8.5 a 1.2,1.2 0 0 1 -1.2,1.2 1.2,1.2 0 0 1 -1.3,-1.2 z"
     class="cls-8" />
  <path
     style="fill:#ce2027"
     inkscape:connector-curvature="0"
     id="path58"
     d="m 211.7,365 a 1.1,1.1 0 0 1 -0.5,-0.9 1.1,1.1 0 0 1 1.1,-1.2 1,1 0 0 1 0.8,0.3 6,6 0 0 0 3.9,1.4 c 1.6,0 2.5,-0.7 2.5,-1.8 v 0 c 0,-1 -0.5,-1.6 -3.2,-2.2 -2.7,-0.6 -4.7,-1.6 -4.7,-4.2 v 0 c 0,-2.5 2.1,-4.1 4.9,-4.1 a 7.7,7.7 0 0 1 4.5,1.3 1.2,1.2 0 0 1 0.5,1 1.1,1.1 0 0 1 -1.2,1.1 l -0.6,-0.2 a 6,6 0 0 0 -3.3,-1 c -1.4,0 -2.3,0.7 -2.3,1.6 v 0 c 0,1.1 0.7,1.6 3.4,2.2 2.7,0.6 4.5,1.8 4.5,4.1 v 0 c 0,2.6 -2.1,4.2 -5,4.2 a 8.5,8.5 0 0 1 -5.3,-1.6 z"
     class="cls-8" />
  <line
     style="fill:none;stroke:#3e4c70;stroke-width:2px;stroke-linecap:round;stroke-linejoin:round"
     id="line60"
     y2="88.800003"
     x2="363.70001"
     y1="94.400002"
     x1="372.79999"
     class="cls-2" />
  <line
     style="fill:none;stroke:#3e4c70;stroke-width:2px;stroke-linecap:round;stroke-linejoin:round"
     id="line62"
     y2="94.400002"
     x2="315.20001"
     y1="88.800003"
     x1="324.29999"
     class="cls-2" />
  <line
     style="fill:none;stroke:#3e4c70;stroke-width:2px;stroke-linecap:round;stroke-linejoin:round"
     id="line64"
     y2="116.6"
     x2="350.5"
     y1="125"
     x1="364.20001"
     class="cls-2" />
  <line
     style="fill:none;stroke:#3e4c70;stroke-width:2px;stroke-linecap:round;stroke-linejoin:round"
     id="line66"
     y2="125"
     x2="323.79999"
     y1="116.6"
     x1="337.5"
     class="cls-2" />
  <path
     style="fill:none;stroke:#3e4c70;stroke-width:2px;stroke-linecap:round;stroke-linejoin:round"
     inkscape:connector-curvature="0"
     id="path68"
     d="M 372.8,94.4 344,112 315.2,94.4 v 32.8 a 3.7,3.7 0 0 0 3.6,3.7 h 50.3 a 3.8,3.8 0 0 0 3.7,-3.7 z"
     class="cls-2" />
  <polyline
     style="fill:none;stroke:#3e4c70;stroke-width:2px;stroke-linecap:round;stroke-linejoin:round"
     id="polyline70"
     points="324.3 99.9 324.3 70.2 363.7 70.2 363.7 99.9"
     class="cls-2" />
  <line
     style="fill:none;stroke:#d62027;stroke-width:2px;stroke-linecap:round;stroke-linejoin:round"
     id="line72"
     y2="79.300003"
     x2="357.39999"
     y1="79.300003"
     x1="330.60001"
     class="cls-1" />
  <line
     style="fill:none;stroke:#d62027;stroke-width:2px;stroke-linecap:round;stroke-linejoin:round"
     id="line74"
     y2="86.199997"
     x2="357.39999"
     y1="86.199997"
     x1="330.60001"
     class="cls-1" />
  <line
     style="fill:none;stroke:#d62027;stroke-width:2px;stroke-linecap:round;stroke-linejoin:round"
     id="line76"
     y2="93.099998"
     x2="357.39999"
     y1="93.099998"
     x1="330.60001"
     class="cls-1" />
  <path
     style="fill:none;stroke:#3e4c70;stroke-width:2px;stroke-linecap:round;stroke-linejoin:round"
     inkscape:connector-curvature="0"
     id="path78"
     d="m 360.1,264.5 h -33.7 a 1.4,1.4 0 0 0 -1.4,1.4 v 20.7 a 1.5,1.5 0 0 0 1.4,1.5 h 4.3 v 8.1 l 8.1,-8.1 h 21.3 a 1.5,1.5 0 0 0 1.5,-1.5 v -20.7 a 1.5,1.5 0 0 0 -1.5,-1.4 z"
     class="cls-2" />
  <line
     style="fill:none;stroke:#d62027;stroke-width:2px;stroke-linecap:round;stroke-linejoin:round"
     id="line80"
     y2="273.39999"
     x2="354.60001"
     y1="273.39999"
     x1="331.5"
     class="cls-1" />
  <line
     style="fill:none;stroke:#d62027;stroke-width:2px;stroke-linecap:round;stroke-linejoin:round"
     id="line82"
     y2="279.60001"
     x2="354.60001"
     y1="279.60001"
     x1="331.5"
     class="cls-1" />
  <path
     style="fill:#3e4c70"
     inkscape:connector-curvature="0"
     id="path84"
     d="m 371.5,242.7 v 58.1 h -56.6 v -58.1 h 56.6 m 0,-2 h -56.6 a 2,2 0 0 0 -2,2 v 58.1 a 2,2 0 0 0 2,2 h 56.6 a 2,2 0 0 0 2,-2 v -58.1 a 2,2 0 0 0 -2,-2 z"
     class="cls-3" />
  <line
     style="fill:none;stroke:#3e4c70;stroke-width:2px;stroke-linecap:round;stroke-linejoin:round"
     id="line86"
     y2="253.8"
     x2="371.89999"
     y1="253.8"
     x1="314.70001"
     class="cls-2" />
  <line
     style="fill:none;stroke:#3e4c70;stroke-width:2px;stroke-linecap:round;stroke-linejoin:round"
     id="line88"
     y2="248.39999"
     x2="354.70001"
     y1="248.39999"
     x1="352.10001"
     class="cls-2" />
  <line
     style="fill:none;stroke:#3e4c70;stroke-width:2px;stroke-linecap:round;stroke-linejoin:round"
     id="line90"
     y2="248.39999"
     x2="360.70001"
     y1="248.39999"
     x1="358.20001"
     class="cls-2" />
  <line
     style="fill:none;stroke:#d62027;stroke-width:2px;stroke-linecap:round;stroke-linejoin:round"
     id="line92"
     y2="248.39999"
     x2="366.79999"
     y1="248.39999"
     x1="364.20001"
     class="cls-1" />
  <line
     style="fill:none;stroke:#3e4c70;stroke-width:2px;stroke-linecap:round;stroke-linejoin:round"
     id="line94"
     y2="248.39999"
     x2="338"
     y1="248.39999"
     x1="318.79999"
     class="cls-2" />
  <path
     style="fill:none;stroke:#158aff;stroke-width:2px;stroke-linecap:round;stroke-linejoin:round"
     inkscape:connector-curvature="0"
     id="path96"
     d="m 77.2,83 2.1,-2.3"
     class="cls-7" />
  <path
     style="fill:none;stroke:#158aff;stroke-width:2px;stroke-linecap:round;stroke-linejoin:round;stroke-dasharray:6.75, 4.5"
     inkscape:connector-curvature="0"
     id="path98"
     d="M 82.4,77.4 A 165.9,165.9 0 0 1 157.3,33.7"
     class="cls-9" />
  <line
     style="fill:none;stroke:#158aff;stroke-width:2px;stroke-linecap:round;stroke-linejoin:round"
     id="line100"
     y2="32.599998"
     x2="162.7"
     y1="33.200001"
     x1="159.5"
     class="cls-7" />
  <path
     style="fill:none;stroke:#158aff;stroke-width:2px;stroke-linecap:round;stroke-linejoin:round"
     inkscape:connector-curvature="0"
     id="path102"
     d="m 44.3,248.1 -1.1,-3"
     class="cls-7" />
  <path
     style="fill:none;stroke:#158aff;stroke-width:2px;stroke-linecap:round;stroke-linejoin:round;stroke-dasharray:6.46, 4.31"
     inkscape:connector-curvature="0"
     id="path104"
     d="M 41.9,240.9 A 167.7,167.7 0 0 1 41.4,147.4"
     class="cls-10" />
  <path
     style="fill:none;stroke:#158aff;stroke-width:2px;stroke-linecap:round;stroke-linejoin:round"
     inkscape:connector-curvature="0"
     id="path106"
     d="m 42,145.3 c 0.3,-1 0.7,-2 1,-3"
     class="cls-7" />
  <path
     style="fill:none;stroke:#158aff;stroke-width:2px;stroke-linecap:round;stroke-linejoin:round"
     inkscape:connector-curvature="0"
     id="path108"
     d="m 162.9,354.3 -3.2,-0.8"
     class="cls-7" />
  <path
     style="fill:none;stroke:#158aff;stroke-width:2px;stroke-linecap:round;stroke-linejoin:round;stroke-dasharray:6.16, 4.11"
     inkscape:connector-curvature="0"
     id="path110"
     d="M 155.7,352.5 A 165.7,165.7 0 0 1 79.5,306.1"
     class="cls-11" />
  <path
     style="fill:none;stroke:#158aff;stroke-width:2px;stroke-linecap:round;stroke-linejoin:round"
     inkscape:connector-curvature="0"
     id="path112"
     d="m 78.1,304.6 -2.2,-2.4"
     class="cls-7" />
  <path
     style="fill:none;stroke:#158aff;stroke-width:2px;stroke-linecap:round;stroke-linejoin:round"
     inkscape:connector-curvature="0"
     id="path114"
     d="m 316.3,310.9 -2.4,2.2"
     class="cls-7" />
  <path
     style="fill:none;stroke:#158aff;stroke-width:2px;stroke-linecap:round;stroke-linejoin:round;stroke-dasharray:6.86, 4.57"
     inkscape:connector-curvature="0"
     id="path116"
     d="M 310.6,316.2 A 164.6,164.6 0 0 1 242.9,353"
     class="cls-12" />
  <path
     style="fill:none;stroke:#158aff;stroke-width:2px;stroke-linecap:round;stroke-linejoin:round"
     inkscape:connector-curvature="0"
     id="path118"
     d="m 240.6,353.5 -3.1,0.8"
     class="cls-7" />
  <path
     style="fill:none;stroke:#158aff;stroke-width:2px;stroke-linecap:round;stroke-linejoin:round"
     inkscape:connector-curvature="0"
     id="path120"
     d="m 356.1,138.5 c 0.3,1.1 0.7,2.1 1,3.1"
     class="cls-7" />
  <path
     style="fill:none;stroke:#158aff;stroke-width:2px;stroke-linecap:round;stroke-linejoin:round;stroke-dasharray:6.35, 4.23"
     inkscape:connector-curvature="0"
     id="path122"
     d="m 358.4,145.6 a 166.4,166.4 0 0 1 3.5,81.7"
     class="cls-13" />
  <path
     style="fill:none;stroke:#158aff;stroke-width:2px;stroke-linecap:round;stroke-linejoin:round"
     inkscape:connector-curvature="0"
     id="path124"
     d="m 361.4,229.4 c -0.2,1 -0.4,2.1 -0.7,3.1"
     class="cls-7" />
  <path
     style="fill:none;stroke:#158aff;stroke-width:2px;stroke-linecap:round;stroke-linejoin:round"
     inkscape:connector-curvature="0"
     id="path126"
     d="m 236.1,32 3.2,0.8"
     class="cls-7" />
  <path
     style="fill:none;stroke:#158aff;stroke-width:2px;stroke-linecap:round;stroke-linejoin:round;stroke-dasharray:6.4, 4.27"
     inkscape:connector-curvature="0"
     id="path128"
     d="M 243.4,33.8 A 165.5,165.5 0 0 1 315,74.5"
     class="cls-14" />
  <path
     style="fill:none;stroke:#158aff;stroke-width:2px;stroke-linecap:round;stroke-linejoin:round"
     inkscape:connector-curvature="0"
     id="path130"
     d="m 316.5,76 2.3,2.3"
     class="cls-7" />
  <line
     style="fill:none;stroke:#158aff;stroke-width:2px;stroke-linecap:round;stroke-linejoin:round"
     id="line132"
     y2="101.8"
     x2="200.2"
     y1="80.599998"
     x1="200.2"
     class="cls-7" />
  <polyline
     style="fill:none;stroke:#158aff;stroke-width:2px;stroke-linecap:round;stroke-linejoin:round"
     id="polyline134"
     points="207.9 94.1 200.2 101.8 192.4 94.1"
     class="cls-7" />
  <line
     style="fill:none;stroke:#158aff;stroke-width:2px;stroke-linecap:round;stroke-linejoin:round"
     id="line136"
     y2="284.79999"
     x2="200.2"
     y1="306.10001"
     x1="200.2"
     class="cls-7" />
  <polyline
     style="fill:none;stroke:#158aff;stroke-width:2px;stroke-linecap:round;stroke-linejoin:round"
     id="polyline138"
     points="192.4 292.6 200.2 284.8 207.9 292.6"
     class="cls-7" />
  <line
     style="fill:none;stroke:#158aff;stroke-width:2px;stroke-linecap:round;stroke-linejoin:round"
     id="line140"
     y2="147.60001"
     x2="120.9"
     y1="136.89999"
     x1="102.5"
     class="cls-7" />
  <polyline
     style="fill:none;stroke:#158aff;stroke-width:2px;stroke-linecap:round;stroke-linejoin:round"
     id="polyline142"
     points="118.1 137 120.9 147.6 110.3 150.4"
     class="cls-7" />
  <line
     style="fill:none;stroke:#158aff;stroke-width:2px;stroke-linecap:round;stroke-linejoin:round"
     id="line144"
     y2="239.10001"
     x2="279.39999"
     y1="249.7"
     x1="297.79999"
     class="cls-7" />
  <polyline
     style="fill:none;stroke:#158aff;stroke-width:2px;stroke-linecap:round;stroke-linejoin:round"
     id="polyline146"
     points="282.3 249.7 279.4 239.1 290 236.2"
     class="cls-7" />
  <line
     style="fill:none;stroke:#158aff;stroke-width:2px;stroke-linecap:round;stroke-linejoin:round"
     id="line148"
     y2="239.10001"
     x2="120.9"
     y1="249.7"
     x1="102.5"
     class="cls-7" />
  <polyline
     style="fill:none;stroke:#158aff;stroke-width:2px;stroke-linecap:round;stroke-linejoin:round"
     id="polyline150"
     points="110.3 236.2 120.9 239.1 118.1 249.7"
     class="cls-7" />
  <line
     style="fill:none;stroke:#158aff;stroke-width:2px;stroke-linecap:round;stroke-linejoin:round"
     id="line152"
     y2="147.60001"
     x2="279.39999"
     y1="136.89999"
     x1="297.79999"
     class="cls-7" />
  <polyline
     style="fill:none;stroke:#158aff;stroke-width:2px;stroke-linecap:round;stroke-linejoin:round"
     id="polyline154"
     points="290 150.4 279.4 147.6 282.3 137"
     class="cls-7" />
  <path
     style="fill:none;stroke:#3e4c70;stroke-width:2px;stroke-linecap:round;stroke-linejoin:round"
     inkscape:connector-curvature="0"
     id="path156"
     d="m 79.8,275.7 a 5.6,5.6 0 0 0 5.6,5.6 v 13.2 H 27.2 v -13.2 a 5.6,5.6 0 1 0 0,-11.2 V 257 h 58.2 v 13.1 a 5.6,5.6 0 0 0 -5.6,5.6 z"
     class="cls-2" />
  <line
     style="fill:none;stroke:#3e4c70;stroke-width:2px;stroke-linecap:round;stroke-linejoin:round"
     id="line158"
     y2="293.29999"
     x2="39.900002"
     y1="258.5"
     x1="39.900002"
     class="cls-2" />
  <line
     style="fill:none;stroke:#d62027;stroke-width:2px;stroke-linecap:round;stroke-linejoin:round"
     id="line160"
     y2="280.79999"
     x2="73.5"
     y1="280.79999"
     x1="47.599998"
     class="cls-1" />
  <line
     style="fill:none;stroke:#d62027;stroke-width:2px;stroke-linecap:round;stroke-linejoin:round"
     id="line162"
     y2="287.70001"
     x2="73.5"
     y1="287.70001"
     x1="47.599998"
     class="cls-1" />
  <polyline
     style="fill:none;stroke:#d62027;stroke-width:2px;stroke-linecap:round;stroke-linejoin:round"
     id="polyline164"
     points="66.1 264.6 70.6 269.1 66.1 273.7"
     class="cls-1" />
  <polyline
     style="fill:none;stroke:#d62027;stroke-width:2px;stroke-linecap:round;stroke-linejoin:round"
     id="polyline166"
     points="52.1 264.6 47.6 269.1 52.1 273.7"
     class="cls-1" />
  <line
     style="fill:none;stroke:#d62027;stroke-width:2px;stroke-linecap:round;stroke-linejoin:round"
     id="line168"
     y2="276.39999"
     x2="55"
     y1="261.89999"
     x1="63.200001"
     class="cls-1" />
  <g
     id="g5553"
     transform="matrix(0.23039976,0,0,0.23039976,181.39284,210.8534)">
	<g
   id="g5551">
		<defs
   id="defs5532">
			<rect
   id="rect85238"
   y="0"
   width="168"
   height="44"
   x="0" />

		</defs>

		<clipPath
   id="clipPath84424">
			<use
   xlink:href="#SVGID_1_"
   style="overflow:visible"
   id="use84422" />

		</clipPath>

		<rect
   x="0"
   y="0"
   class="st0"
   width="168"
   height="44"
   clip-path="url(#SVGID_2_)"
   id="rect5537"
   style="fill:#d40000" />

		<polygon
   class="st1"
   points="7.2,10.2 7.2,6.7 31.5,6.7 31.5,9.9 11.9,33.8 32,33.8 32,37.3 6.7,37.3 6.7,34.1 26.3,10.2 "
   clip-path="url(#SVGID_2_)"
   id="polygon5539"
   style="fill:#ffffff" />

		<path
   class="st1"
   d="M 48.4,10.8 42.7,26 H 54.1 Z M 46,6.7 h 4.7 l 11.8,30.6 h -4.3 l -2.8,-7.8 h -14 l -2.8,7.8 h -4.4 z"
   clip-path="url(#SVGID_2_)"
   id="path5541"
   style="fill:#ffffff" />

		<path
   class="st1"
   d="m 71.2,22.7 v 11.2 h 6.7 c 2.3,0 3.9,-0.5 5,-1.4 1.1,-0.9 1.6,-2.3 1.6,-4.2 0,-1.9 -0.5,-3.3 -1.6,-4.2 -1.1,-0.9 -2.8,-1.4 -5,-1.4 z m 0,-12.6 v 9.2 h 6.2 c 2,0 3.6,-0.4 4.6,-1.1 1,-0.8 1.5,-1.9 1.5,-3.5 C 83.5,13.2 83,12 82,11.2 81,10.4 79.5,10.1 77.4,10.1 Z M 67,6.7 h 10.7 c 3.2,0 5.6,0.7 7.4,2 1.7,1.3 2.6,3.2 2.6,5.6 0,1.9 -0.4,3.4 -1.3,4.5 -0.9,1.1 -2.2,1.8 -3.9,2.1 2.1,0.4 3.7,1.3 4.8,2.7 1.1,1.4 1.7,3.1 1.7,5.2 0,2.7 -0.9,4.8 -2.8,6.3 -1.9,1.5 -4.5,2.2 -8,2.2 H 67 Z"
   clip-path="url(#SVGID_2_)"
   id="path5543"
   style="fill:#ffffff" />

		<path
   class="st1"
   d="m 99.9,22.7 v 11.2 h 6.7 c 2.2,0 3.9,-0.5 5,-1.4 1.1,-0.9 1.6,-2.3 1.6,-4.2 0,-1.9 -0.5,-3.3 -1.6,-4.2 -1.1,-0.9 -2.8,-1.4 -5,-1.4 z m 0,-12.6 v 9.2 h 6.2 c 2,0 3.6,-0.4 4.6,-1.1 1,-0.8 1.5,-1.9 1.5,-3.5 0,-1.5 -0.5,-2.7 -1.5,-3.5 -1,-0.8 -2.5,-1.1 -4.6,-1.1 z M 95.7,6.7 h 10.7 c 3.2,0 5.6,0.7 7.4,2 1.7,1.3 2.6,3.2 2.6,5.6 0,1.9 -0.4,3.4 -1.3,4.5 -0.9,1.1 -2.2,1.8 -3.9,2.1 2.1,0.4 3.7,1.3 4.8,2.7 1.1,1.4 1.7,3.1 1.7,5.2 0,2.7 -0.9,4.8 -2.8,6.3 -1.9,1.5 -4.5,2.2 -8,2.2 H 95.7 Z"
   clip-path="url(#SVGID_2_)"
   id="path5545"
   style="fill:#ffffff" />

		<polygon
   class="st1"
   points="139.7,37.3 135.2,37.3 146,21.1 136.4,6.7 141,6.7 148.3,17.7 155.7,6.7 160.1,6.7 150.5,21 161.3,37.3 156.7,37.3 148.2,24.5 "
   clip-path="url(#SVGID_2_)"
   id="polygon5547"
   style="fill:#ffffff" />

		<rect
   x="124.3"
   y="6.6999998"
   class="st1"
   width="4.1999998"
   height="30.6"
   clip-path="url(#SVGID_2_)"
   id="rect5549"
   style="fill:#ffffff" />

	</g>

</g>
</svg>
